M48
; DRILL file {KiCad (6.0.1)} date Fri Dec  9 16:57:22 2022
; FORMAT={-:-/ absolute / inch / decimal}
; #@! TF.CreationDate,2022-12-09T16:57:22+00:00
; #@! TF.GenerationSoftware,Kicad,Pcbnew,(6.0.1)
; #@! TF.FileFunction,Plated,1,2,PTH
FMAT,2
INCH
; #@! TA.AperFunction,Plated,PTH,ViaDrill
T1C0.0079
; #@! TA.AperFunction,Plated,PTH,ViaDrill
T2C0.0118
; #@! TA.AperFunction,Plated,PTH,ViaDrill
T3C0.0157
; #@! TA.AperFunction,Plated,PTH,ComponentDrill
T4C0.0394
; #@! TA.AperFunction,Plated,PTH,ComponentDrill
T5C0.0598
%
G90
G05
T1
X3.7133Y-2.6917
T2
X3.465Y-3.0433
X3.5875Y-2.7475
X3.5875Y-2.7825
X3.875Y-2.635
X3.9338Y-2.3744
X4.005Y-2.405
X4.08Y-2.0939
X4.1695Y-2.1097
X4.1785Y-2.3815
X4.225Y-2.185
X4.44Y-2.255
X4.505Y-2.38
X4.61Y-2.365
X4.6988Y-2.1347
X4.71Y-2.39
X4.9976Y-2.37
X5.1787Y-2.3797
X5.335Y-2.255
T3
X3.605Y-2.375
T4
X3.15Y-2.155
X3.15Y-2.255
X3.15Y-2.355
X3.25Y-2.155
X3.25Y-2.255
X3.25Y-2.355
X3.422Y-2.4823
X3.422Y-2.5823
X3.522Y-2.4823
X3.522Y-2.5823
X3.622Y-2.4823
X3.622Y-2.5823
X3.6306Y-2.285
X3.722Y-2.4823
X3.722Y-2.5823
X3.7306Y-2.285
X3.822Y-2.4823
X3.822Y-2.5823
X3.8306Y-2.285
X3.922Y-2.4823
X3.922Y-2.5823
X3.9306Y-2.285
X4.022Y-2.4823
X4.022Y-2.5823
X4.0306Y-2.285
X4.122Y-2.4823
X4.122Y-2.5823
X4.1306Y-2.285
X4.222Y-2.4823
X4.222Y-2.5823
X4.2306Y-2.285
X4.3Y-1.99
X4.3Y-2.09
X4.322Y-2.4823
X4.322Y-2.5823
X4.3306Y-2.285
X4.4Y-1.99
X4.4Y-2.09
X4.422Y-2.4823
X4.422Y-2.5823
X4.5002Y-1.9902
X4.5002Y-2.0902
X4.522Y-2.4823
X4.522Y-2.5823
X4.5306Y-2.29
X4.6002Y-1.9902
X4.6002Y-2.0902
X4.622Y-2.4823
X4.622Y-2.5823
X4.6306Y-2.29
X4.722Y-2.4823
X4.722Y-2.5823
X4.7306Y-2.29
X4.822Y-2.4823
X4.822Y-2.5823
X4.8306Y-2.29
X4.922Y-2.4823
X4.922Y-2.5823
X4.9306Y-2.29
X5.022Y-2.4823
X5.022Y-2.5823
X5.0306Y-2.29
X5.122Y-2.4823
X5.122Y-2.5823
X5.1306Y-2.29
X5.222Y-2.4823
X5.222Y-2.5823
X5.2306Y-2.29
X5.322Y-2.4823
X5.322Y-2.5823
X5.475Y-2.0756
X5.475Y-2.1756
X5.475Y-2.2756
T5
X3.215Y-2.765
X3.215Y-2.965
T0
M30
