G04 #@! TF.GenerationSoftware,KiCad,Pcbnew,8.0.7*
G04 #@! TF.CreationDate,2025-02-16T20:08:39+00:00*
G04 #@! TF.ProjectId,retropie-hat-2L,72657472-6f70-4696-952d-6861742d324c,rev?*
G04 #@! TF.SameCoordinates,Original*
G04 #@! TF.FileFunction,Legend,Bot*
G04 #@! TF.FilePolarity,Positive*
%FSLAX46Y46*%
G04 Gerber Fmt 4.6, Leading zero omitted, Abs format (unit mm)*
G04 Created by KiCad (PCBNEW 8.0.7) date 2025-02-16 20:08:39*
%MOMM*%
%LPD*%
G01*
G04 APERTURE LIST*
%ADD10C,0.120000*%
%ADD11C,0.150000*%
G04 #@! TA.AperFunction,Profile*
%ADD12C,0.100000*%
G04 #@! TD*
G04 #@! TA.AperFunction,Profile*
%ADD13C,0.150000*%
G04 #@! TD*
G04 APERTURE END LIST*
D10*
X134713124Y-54676642D02*
X134600624Y-53776642D01*
X134654195Y-54205213D02*
X134139910Y-54205213D01*
X134198838Y-54676642D02*
X134086338Y-53776642D01*
X133641696Y-54676642D02*
X133722053Y-54633785D01*
X133722053Y-54633785D02*
X133759553Y-54590927D01*
X133759553Y-54590927D02*
X133791696Y-54505213D01*
X133791696Y-54505213D02*
X133759553Y-54248070D01*
X133759553Y-54248070D02*
X133705981Y-54162356D01*
X133705981Y-54162356D02*
X133657767Y-54119499D01*
X133657767Y-54119499D02*
X133566696Y-54076642D01*
X133566696Y-54076642D02*
X133438124Y-54076642D01*
X133438124Y-54076642D02*
X133357767Y-54119499D01*
X133357767Y-54119499D02*
X133320267Y-54162356D01*
X133320267Y-54162356D02*
X133288124Y-54248070D01*
X133288124Y-54248070D02*
X133320267Y-54505213D01*
X133320267Y-54505213D02*
X133373838Y-54590927D01*
X133373838Y-54590927D02*
X133422053Y-54633785D01*
X133422053Y-54633785D02*
X133513124Y-54676642D01*
X133513124Y-54676642D02*
X133641696Y-54676642D01*
X133009552Y-54076642D02*
X132666695Y-54076642D01*
X132843481Y-53776642D02*
X132939910Y-54548070D01*
X132939910Y-54548070D02*
X132907767Y-54633785D01*
X132907767Y-54633785D02*
X132827410Y-54676642D01*
X132827410Y-54676642D02*
X132741695Y-54676642D01*
X132441695Y-54676642D02*
X132329195Y-53776642D01*
X132372052Y-54119499D02*
X132280981Y-54076642D01*
X132280981Y-54076642D02*
X132109552Y-54076642D01*
X132109552Y-54076642D02*
X132029195Y-54119499D01*
X132029195Y-54119499D02*
X131991695Y-54162356D01*
X131991695Y-54162356D02*
X131959552Y-54248070D01*
X131959552Y-54248070D02*
X131991695Y-54505213D01*
X131991695Y-54505213D02*
X132045266Y-54590927D01*
X132045266Y-54590927D02*
X132093481Y-54633785D01*
X132093481Y-54633785D02*
X132184552Y-54676642D01*
X132184552Y-54676642D02*
X132355981Y-54676642D01*
X132355981Y-54676642D02*
X132436338Y-54633785D01*
X131498838Y-54676642D02*
X131579195Y-54633785D01*
X131579195Y-54633785D02*
X131611338Y-54548070D01*
X131611338Y-54548070D02*
X131514909Y-53776642D01*
X130770266Y-54676642D02*
X130711337Y-54205213D01*
X130711337Y-54205213D02*
X130743480Y-54119499D01*
X130743480Y-54119499D02*
X130823837Y-54076642D01*
X130823837Y-54076642D02*
X130995266Y-54076642D01*
X130995266Y-54076642D02*
X131086337Y-54119499D01*
X130764909Y-54633785D02*
X130855980Y-54676642D01*
X130855980Y-54676642D02*
X131070266Y-54676642D01*
X131070266Y-54676642D02*
X131150623Y-54633785D01*
X131150623Y-54633785D02*
X131182766Y-54548070D01*
X131182766Y-54548070D02*
X131172051Y-54462356D01*
X131172051Y-54462356D02*
X131118480Y-54376642D01*
X131118480Y-54376642D02*
X131027409Y-54333785D01*
X131027409Y-54333785D02*
X130813123Y-54333785D01*
X130813123Y-54333785D02*
X130722051Y-54290927D01*
X129950623Y-54633785D02*
X130041694Y-54676642D01*
X130041694Y-54676642D02*
X130213123Y-54676642D01*
X130213123Y-54676642D02*
X130293480Y-54633785D01*
X130293480Y-54633785D02*
X130330980Y-54590927D01*
X130330980Y-54590927D02*
X130363123Y-54505213D01*
X130363123Y-54505213D02*
X130330980Y-54248070D01*
X130330980Y-54248070D02*
X130277408Y-54162356D01*
X130277408Y-54162356D02*
X130229194Y-54119499D01*
X130229194Y-54119499D02*
X130138123Y-54076642D01*
X130138123Y-54076642D02*
X129966694Y-54076642D01*
X129966694Y-54076642D02*
X129886337Y-54119499D01*
X129570265Y-54676642D02*
X129457765Y-53776642D01*
X129441694Y-54333785D02*
X129227408Y-54676642D01*
X129152408Y-54076642D02*
X129538122Y-54419499D01*
X128155980Y-54676642D02*
X128043480Y-53776642D01*
X128043480Y-53776642D02*
X127829194Y-53776642D01*
X127829194Y-53776642D02*
X127705980Y-53819499D01*
X127705980Y-53819499D02*
X127630980Y-53905213D01*
X127630980Y-53905213D02*
X127598837Y-53990927D01*
X127598837Y-53990927D02*
X127577409Y-54162356D01*
X127577409Y-54162356D02*
X127593480Y-54290927D01*
X127593480Y-54290927D02*
X127657766Y-54462356D01*
X127657766Y-54462356D02*
X127711337Y-54548070D01*
X127711337Y-54548070D02*
X127807766Y-54633785D01*
X127807766Y-54633785D02*
X127941694Y-54676642D01*
X127941694Y-54676642D02*
X128155980Y-54676642D01*
X126907766Y-54633785D02*
X126998837Y-54676642D01*
X126998837Y-54676642D02*
X127170266Y-54676642D01*
X127170266Y-54676642D02*
X127250623Y-54633785D01*
X127250623Y-54633785D02*
X127282766Y-54548070D01*
X127282766Y-54548070D02*
X127239909Y-54205213D01*
X127239909Y-54205213D02*
X127186337Y-54119499D01*
X127186337Y-54119499D02*
X127095266Y-54076642D01*
X127095266Y-54076642D02*
X126923837Y-54076642D01*
X126923837Y-54076642D02*
X126843480Y-54119499D01*
X126843480Y-54119499D02*
X126811337Y-54205213D01*
X126811337Y-54205213D02*
X126822051Y-54290927D01*
X126822051Y-54290927D02*
X127261337Y-54376642D01*
X126522051Y-54633785D02*
X126441694Y-54676642D01*
X126441694Y-54676642D02*
X126270265Y-54676642D01*
X126270265Y-54676642D02*
X126179194Y-54633785D01*
X126179194Y-54633785D02*
X126125622Y-54548070D01*
X126125622Y-54548070D02*
X126120265Y-54505213D01*
X126120265Y-54505213D02*
X126152408Y-54419499D01*
X126152408Y-54419499D02*
X126232765Y-54376642D01*
X126232765Y-54376642D02*
X126361337Y-54376642D01*
X126361337Y-54376642D02*
X126441694Y-54333785D01*
X126441694Y-54333785D02*
X126473837Y-54248070D01*
X126473837Y-54248070D02*
X126468480Y-54205213D01*
X126468480Y-54205213D02*
X126414908Y-54119499D01*
X126414908Y-54119499D02*
X126323837Y-54076642D01*
X126323837Y-54076642D02*
X126195265Y-54076642D01*
X126195265Y-54076642D02*
X126114908Y-54119499D01*
X125755980Y-54676642D02*
X125680980Y-54076642D01*
X125643480Y-53776642D02*
X125691694Y-53819499D01*
X125691694Y-53819499D02*
X125654194Y-53862356D01*
X125654194Y-53862356D02*
X125605980Y-53819499D01*
X125605980Y-53819499D02*
X125643480Y-53776642D01*
X125643480Y-53776642D02*
X125654194Y-53862356D01*
X124941695Y-54676642D02*
X124882766Y-54205213D01*
X124882766Y-54205213D02*
X124914909Y-54119499D01*
X124914909Y-54119499D02*
X124995266Y-54076642D01*
X124995266Y-54076642D02*
X125166695Y-54076642D01*
X125166695Y-54076642D02*
X125257766Y-54119499D01*
X124936338Y-54633785D02*
X125027409Y-54676642D01*
X125027409Y-54676642D02*
X125241695Y-54676642D01*
X125241695Y-54676642D02*
X125322052Y-54633785D01*
X125322052Y-54633785D02*
X125354195Y-54548070D01*
X125354195Y-54548070D02*
X125343480Y-54462356D01*
X125343480Y-54462356D02*
X125289909Y-54376642D01*
X125289909Y-54376642D02*
X125198838Y-54333785D01*
X125198838Y-54333785D02*
X124984552Y-54333785D01*
X124984552Y-54333785D02*
X124893480Y-54290927D01*
X124566694Y-54076642D02*
X124223837Y-54076642D01*
X124400623Y-53776642D02*
X124497052Y-54548070D01*
X124497052Y-54548070D02*
X124464909Y-54633785D01*
X124464909Y-54633785D02*
X124384552Y-54676642D01*
X124384552Y-54676642D02*
X124298837Y-54676642D01*
X123870266Y-54676642D02*
X123950623Y-54633785D01*
X123950623Y-54633785D02*
X123988123Y-54590927D01*
X123988123Y-54590927D02*
X124020266Y-54505213D01*
X124020266Y-54505213D02*
X123988123Y-54248070D01*
X123988123Y-54248070D02*
X123934551Y-54162356D01*
X123934551Y-54162356D02*
X123886337Y-54119499D01*
X123886337Y-54119499D02*
X123795266Y-54076642D01*
X123795266Y-54076642D02*
X123666694Y-54076642D01*
X123666694Y-54076642D02*
X123586337Y-54119499D01*
X123586337Y-54119499D02*
X123548837Y-54162356D01*
X123548837Y-54162356D02*
X123516694Y-54248070D01*
X123516694Y-54248070D02*
X123548837Y-54505213D01*
X123548837Y-54505213D02*
X123602408Y-54590927D01*
X123602408Y-54590927D02*
X123650623Y-54633785D01*
X123650623Y-54633785D02*
X123741694Y-54676642D01*
X123741694Y-54676642D02*
X123870266Y-54676642D01*
X123173837Y-54590927D02*
X123136337Y-54633785D01*
X123136337Y-54633785D02*
X123184551Y-54676642D01*
X123184551Y-54676642D02*
X123222051Y-54633785D01*
X123222051Y-54633785D02*
X123173837Y-54590927D01*
X123173837Y-54590927D02*
X123184551Y-54676642D01*
X123114908Y-54119499D02*
X123077408Y-54162356D01*
X123077408Y-54162356D02*
X123125622Y-54205213D01*
X123125622Y-54205213D02*
X123163122Y-54162356D01*
X123163122Y-54162356D02*
X123114908Y-54119499D01*
X123114908Y-54119499D02*
X123125622Y-54205213D01*
X122000623Y-53776642D02*
X122022052Y-53948070D01*
X121657766Y-53776642D02*
X121679195Y-53948070D01*
X121373838Y-54590927D02*
X121336338Y-54633785D01*
X121336338Y-54633785D02*
X121384552Y-54676642D01*
X121384552Y-54676642D02*
X121422052Y-54633785D01*
X121422052Y-54633785D02*
X121373838Y-54590927D01*
X121373838Y-54590927D02*
X121384552Y-54676642D01*
X120945267Y-54590927D02*
X120907767Y-54633785D01*
X120907767Y-54633785D02*
X120955981Y-54676642D01*
X120955981Y-54676642D02*
X120993481Y-54633785D01*
X120993481Y-54633785D02*
X120945267Y-54590927D01*
X120945267Y-54590927D02*
X120955981Y-54676642D01*
X120516696Y-54590927D02*
X120479196Y-54633785D01*
X120479196Y-54633785D02*
X120527410Y-54676642D01*
X120527410Y-54676642D02*
X120564910Y-54633785D01*
X120564910Y-54633785D02*
X120516696Y-54590927D01*
X120516696Y-54590927D02*
X120527410Y-54676642D01*
X120029196Y-53776642D02*
X120050625Y-53948070D01*
X119686339Y-53776642D02*
X119707768Y-53948070D01*
X134713124Y-56125592D02*
X134600624Y-55225592D01*
X134600624Y-55225592D02*
X134380981Y-55868449D01*
X134380981Y-55868449D02*
X134000624Y-55225592D01*
X134000624Y-55225592D02*
X134113124Y-56125592D01*
X133684553Y-56125592D02*
X133609553Y-55525592D01*
X133572053Y-55225592D02*
X133620267Y-55268449D01*
X133620267Y-55268449D02*
X133582767Y-55311306D01*
X133582767Y-55311306D02*
X133534553Y-55268449D01*
X133534553Y-55268449D02*
X133572053Y-55225592D01*
X133572053Y-55225592D02*
X133582767Y-55311306D01*
X133180982Y-55525592D02*
X133255982Y-56125592D01*
X133191696Y-55611306D02*
X133143482Y-55568449D01*
X133143482Y-55568449D02*
X133052411Y-55525592D01*
X133052411Y-55525592D02*
X132923839Y-55525592D01*
X132923839Y-55525592D02*
X132843482Y-55568449D01*
X132843482Y-55568449D02*
X132811339Y-55654163D01*
X132811339Y-55654163D02*
X132870268Y-56125592D01*
X132055982Y-56125592D02*
X131943482Y-55225592D01*
X132050625Y-56082735D02*
X132141696Y-56125592D01*
X132141696Y-56125592D02*
X132313125Y-56125592D01*
X132313125Y-56125592D02*
X132393482Y-56082735D01*
X132393482Y-56082735D02*
X132430982Y-56039877D01*
X132430982Y-56039877D02*
X132463125Y-55954163D01*
X132463125Y-55954163D02*
X132430982Y-55697020D01*
X132430982Y-55697020D02*
X132377410Y-55611306D01*
X132377410Y-55611306D02*
X132329196Y-55568449D01*
X132329196Y-55568449D02*
X132238125Y-55525592D01*
X132238125Y-55525592D02*
X132066696Y-55525592D01*
X132066696Y-55525592D02*
X131986339Y-55568449D01*
X131279196Y-56082735D02*
X131370267Y-56125592D01*
X131370267Y-56125592D02*
X131541696Y-56125592D01*
X131541696Y-56125592D02*
X131622053Y-56082735D01*
X131622053Y-56082735D02*
X131654196Y-55997020D01*
X131654196Y-55997020D02*
X131611339Y-55654163D01*
X131611339Y-55654163D02*
X131557767Y-55568449D01*
X131557767Y-55568449D02*
X131466696Y-55525592D01*
X131466696Y-55525592D02*
X131295267Y-55525592D01*
X131295267Y-55525592D02*
X131214910Y-55568449D01*
X131214910Y-55568449D02*
X131182767Y-55654163D01*
X131182767Y-55654163D02*
X131193481Y-55739877D01*
X131193481Y-55739877D02*
X131632767Y-55825592D01*
X130855981Y-56125592D02*
X130780981Y-55525592D01*
X130802410Y-55697020D02*
X130748838Y-55611306D01*
X130748838Y-55611306D02*
X130700624Y-55568449D01*
X130700624Y-55568449D02*
X130609552Y-55525592D01*
X130609552Y-55525592D02*
X130523838Y-55525592D01*
X130288124Y-56039877D02*
X130250624Y-56082735D01*
X130250624Y-56082735D02*
X130298838Y-56125592D01*
X130298838Y-56125592D02*
X130336338Y-56082735D01*
X130336338Y-56082735D02*
X130288124Y-56039877D01*
X130288124Y-56039877D02*
X130298838Y-56125592D01*
X130229195Y-55568449D02*
X130191695Y-55611306D01*
X130191695Y-55611306D02*
X130239909Y-55654163D01*
X130239909Y-55654163D02*
X130277409Y-55611306D01*
X130277409Y-55611306D02*
X130229195Y-55568449D01*
X130229195Y-55568449D02*
X130239909Y-55654163D01*
X129114910Y-55225592D02*
X129136339Y-55397020D01*
X128772053Y-55225592D02*
X128793482Y-55397020D01*
X128498839Y-56125592D02*
X128386339Y-55225592D01*
X128439910Y-55654163D02*
X127925625Y-55654163D01*
X127984553Y-56125592D02*
X127872053Y-55225592D01*
X127207768Y-56082735D02*
X127298839Y-56125592D01*
X127298839Y-56125592D02*
X127470268Y-56125592D01*
X127470268Y-56125592D02*
X127550625Y-56082735D01*
X127550625Y-56082735D02*
X127582768Y-55997020D01*
X127582768Y-55997020D02*
X127539911Y-55654163D01*
X127539911Y-55654163D02*
X127486339Y-55568449D01*
X127486339Y-55568449D02*
X127395268Y-55525592D01*
X127395268Y-55525592D02*
X127223839Y-55525592D01*
X127223839Y-55525592D02*
X127143482Y-55568449D01*
X127143482Y-55568449D02*
X127111339Y-55654163D01*
X127111339Y-55654163D02*
X127122053Y-55739877D01*
X127122053Y-55739877D02*
X127561339Y-55825592D01*
X126629196Y-55225592D02*
X126736339Y-55397020D01*
X126393482Y-56082735D02*
X126313125Y-56125592D01*
X126313125Y-56125592D02*
X126141696Y-56125592D01*
X126141696Y-56125592D02*
X126050625Y-56082735D01*
X126050625Y-56082735D02*
X125997053Y-55997020D01*
X125997053Y-55997020D02*
X125991696Y-55954163D01*
X125991696Y-55954163D02*
X126023839Y-55868449D01*
X126023839Y-55868449D02*
X126104196Y-55825592D01*
X126104196Y-55825592D02*
X126232768Y-55825592D01*
X126232768Y-55825592D02*
X126313125Y-55782735D01*
X126313125Y-55782735D02*
X126345268Y-55697020D01*
X126345268Y-55697020D02*
X126339911Y-55654163D01*
X126339911Y-55654163D02*
X126286339Y-55568449D01*
X126286339Y-55568449D02*
X126195268Y-55525592D01*
X126195268Y-55525592D02*
X126066696Y-55525592D01*
X126066696Y-55525592D02*
X125986339Y-55568449D01*
X124979197Y-56082735D02*
X124898840Y-56125592D01*
X124898840Y-56125592D02*
X124727411Y-56125592D01*
X124727411Y-56125592D02*
X124636340Y-56082735D01*
X124636340Y-56082735D02*
X124582768Y-55997020D01*
X124582768Y-55997020D02*
X124577411Y-55954163D01*
X124577411Y-55954163D02*
X124609554Y-55868449D01*
X124609554Y-55868449D02*
X124689911Y-55825592D01*
X124689911Y-55825592D02*
X124818483Y-55825592D01*
X124818483Y-55825592D02*
X124898840Y-55782735D01*
X124898840Y-55782735D02*
X124930983Y-55697020D01*
X124930983Y-55697020D02*
X124925626Y-55654163D01*
X124925626Y-55654163D02*
X124872054Y-55568449D01*
X124872054Y-55568449D02*
X124780983Y-55525592D01*
X124780983Y-55525592D02*
X124652411Y-55525592D01*
X124652411Y-55525592D02*
X124572054Y-55568449D01*
X124138126Y-55525592D02*
X124250626Y-56425592D01*
X124143483Y-55568449D02*
X124052412Y-55525592D01*
X124052412Y-55525592D02*
X123880983Y-55525592D01*
X123880983Y-55525592D02*
X123800626Y-55568449D01*
X123800626Y-55568449D02*
X123763126Y-55611306D01*
X123763126Y-55611306D02*
X123730983Y-55697020D01*
X123730983Y-55697020D02*
X123763126Y-55954163D01*
X123763126Y-55954163D02*
X123816697Y-56039877D01*
X123816697Y-56039877D02*
X123864912Y-56082735D01*
X123864912Y-56082735D02*
X123955983Y-56125592D01*
X123955983Y-56125592D02*
X124127412Y-56125592D01*
X124127412Y-56125592D02*
X124207769Y-56082735D01*
X123050626Y-56082735D02*
X123141697Y-56125592D01*
X123141697Y-56125592D02*
X123313126Y-56125592D01*
X123313126Y-56125592D02*
X123393483Y-56082735D01*
X123393483Y-56082735D02*
X123425626Y-55997020D01*
X123425626Y-55997020D02*
X123382769Y-55654163D01*
X123382769Y-55654163D02*
X123329197Y-55568449D01*
X123329197Y-55568449D02*
X123238126Y-55525592D01*
X123238126Y-55525592D02*
X123066697Y-55525592D01*
X123066697Y-55525592D02*
X122986340Y-55568449D01*
X122986340Y-55568449D02*
X122954197Y-55654163D01*
X122954197Y-55654163D02*
X122964911Y-55739877D01*
X122964911Y-55739877D02*
X123404197Y-55825592D01*
X122552411Y-55525592D02*
X122627411Y-56125592D01*
X122563125Y-55611306D02*
X122514911Y-55568449D01*
X122514911Y-55568449D02*
X122423840Y-55525592D01*
X122423840Y-55525592D02*
X122295268Y-55525592D01*
X122295268Y-55525592D02*
X122214911Y-55568449D01*
X122214911Y-55568449D02*
X122182768Y-55654163D01*
X122182768Y-55654163D02*
X122241697Y-56125592D01*
X121427411Y-56125592D02*
X121314911Y-55225592D01*
X121422054Y-56082735D02*
X121513125Y-56125592D01*
X121513125Y-56125592D02*
X121684554Y-56125592D01*
X121684554Y-56125592D02*
X121764911Y-56082735D01*
X121764911Y-56082735D02*
X121802411Y-56039877D01*
X121802411Y-56039877D02*
X121834554Y-55954163D01*
X121834554Y-55954163D02*
X121802411Y-55697020D01*
X121802411Y-55697020D02*
X121748839Y-55611306D01*
X121748839Y-55611306D02*
X121700625Y-55568449D01*
X121700625Y-55568449D02*
X121609554Y-55525592D01*
X121609554Y-55525592D02*
X121438125Y-55525592D01*
X121438125Y-55525592D02*
X121357768Y-55568449D01*
X120998839Y-56125592D02*
X120923839Y-55525592D01*
X120886339Y-55225592D02*
X120934553Y-55268449D01*
X120934553Y-55268449D02*
X120897053Y-55311306D01*
X120897053Y-55311306D02*
X120848839Y-55268449D01*
X120848839Y-55268449D02*
X120886339Y-55225592D01*
X120886339Y-55225592D02*
X120897053Y-55311306D01*
X120495268Y-55525592D02*
X120570268Y-56125592D01*
X120505982Y-55611306D02*
X120457768Y-55568449D01*
X120457768Y-55568449D02*
X120366697Y-55525592D01*
X120366697Y-55525592D02*
X120238125Y-55525592D01*
X120238125Y-55525592D02*
X120157768Y-55568449D01*
X120157768Y-55568449D02*
X120125625Y-55654163D01*
X120125625Y-55654163D02*
X120184554Y-56125592D01*
X119295268Y-55525592D02*
X119386339Y-56254163D01*
X119386339Y-56254163D02*
X119439911Y-56339877D01*
X119439911Y-56339877D02*
X119488125Y-56382735D01*
X119488125Y-56382735D02*
X119579196Y-56425592D01*
X119579196Y-56425592D02*
X119707768Y-56425592D01*
X119707768Y-56425592D02*
X119788125Y-56382735D01*
X119364911Y-56082735D02*
X119455982Y-56125592D01*
X119455982Y-56125592D02*
X119627411Y-56125592D01*
X119627411Y-56125592D02*
X119707768Y-56082735D01*
X119707768Y-56082735D02*
X119745268Y-56039877D01*
X119745268Y-56039877D02*
X119777411Y-55954163D01*
X119777411Y-55954163D02*
X119745268Y-55697020D01*
X119745268Y-55697020D02*
X119691696Y-55611306D01*
X119691696Y-55611306D02*
X119643482Y-55568449D01*
X119643482Y-55568449D02*
X119552411Y-55525592D01*
X119552411Y-55525592D02*
X119380982Y-55525592D01*
X119380982Y-55525592D02*
X119300625Y-55568449D01*
X117870268Y-56125592D02*
X117811339Y-55654163D01*
X117811339Y-55654163D02*
X117843482Y-55568449D01*
X117843482Y-55568449D02*
X117923839Y-55525592D01*
X117923839Y-55525592D02*
X118095268Y-55525592D01*
X118095268Y-55525592D02*
X118186339Y-55568449D01*
X117864911Y-56082735D02*
X117955982Y-56125592D01*
X117955982Y-56125592D02*
X118170268Y-56125592D01*
X118170268Y-56125592D02*
X118250625Y-56082735D01*
X118250625Y-56082735D02*
X118282768Y-55997020D01*
X118282768Y-55997020D02*
X118272053Y-55911306D01*
X118272053Y-55911306D02*
X118218482Y-55825592D01*
X118218482Y-55825592D02*
X118127411Y-55782735D01*
X118127411Y-55782735D02*
X117913125Y-55782735D01*
X117913125Y-55782735D02*
X117822053Y-55739877D01*
X116766696Y-55525592D02*
X116627411Y-56125592D01*
X116338125Y-55525592D02*
X116627411Y-56125592D01*
X116627411Y-56125592D02*
X116739911Y-56339877D01*
X116739911Y-56339877D02*
X116788125Y-56382735D01*
X116788125Y-56382735D02*
X116879196Y-56425592D01*
X115722054Y-56082735D02*
X115813125Y-56125592D01*
X115813125Y-56125592D02*
X115984554Y-56125592D01*
X115984554Y-56125592D02*
X116064911Y-56082735D01*
X116064911Y-56082735D02*
X116097054Y-55997020D01*
X116097054Y-55997020D02*
X116054197Y-55654163D01*
X116054197Y-55654163D02*
X116000625Y-55568449D01*
X116000625Y-55568449D02*
X115909554Y-55525592D01*
X115909554Y-55525592D02*
X115738125Y-55525592D01*
X115738125Y-55525592D02*
X115657768Y-55568449D01*
X115657768Y-55568449D02*
X115625625Y-55654163D01*
X115625625Y-55654163D02*
X115636339Y-55739877D01*
X115636339Y-55739877D02*
X116075625Y-55825592D01*
X114913125Y-56125592D02*
X114854196Y-55654163D01*
X114854196Y-55654163D02*
X114886339Y-55568449D01*
X114886339Y-55568449D02*
X114966696Y-55525592D01*
X114966696Y-55525592D02*
X115138125Y-55525592D01*
X115138125Y-55525592D02*
X115229196Y-55568449D01*
X114907768Y-56082735D02*
X114998839Y-56125592D01*
X114998839Y-56125592D02*
X115213125Y-56125592D01*
X115213125Y-56125592D02*
X115293482Y-56082735D01*
X115293482Y-56082735D02*
X115325625Y-55997020D01*
X115325625Y-55997020D02*
X115314910Y-55911306D01*
X115314910Y-55911306D02*
X115261339Y-55825592D01*
X115261339Y-55825592D02*
X115170268Y-55782735D01*
X115170268Y-55782735D02*
X114955982Y-55782735D01*
X114955982Y-55782735D02*
X114864910Y-55739877D01*
X114484553Y-56125592D02*
X114409553Y-55525592D01*
X114430982Y-55697020D02*
X114377410Y-55611306D01*
X114377410Y-55611306D02*
X114329196Y-55568449D01*
X114329196Y-55568449D02*
X114238124Y-55525592D01*
X114238124Y-55525592D02*
X114152410Y-55525592D01*
X112855982Y-56125592D02*
X112743482Y-55225592D01*
X112850625Y-56082735D02*
X112941696Y-56125592D01*
X112941696Y-56125592D02*
X113113125Y-56125592D01*
X113113125Y-56125592D02*
X113193482Y-56082735D01*
X113193482Y-56082735D02*
X113230982Y-56039877D01*
X113230982Y-56039877D02*
X113263125Y-55954163D01*
X113263125Y-55954163D02*
X113230982Y-55697020D01*
X113230982Y-55697020D02*
X113177410Y-55611306D01*
X113177410Y-55611306D02*
X113129196Y-55568449D01*
X113129196Y-55568449D02*
X113038125Y-55525592D01*
X113038125Y-55525592D02*
X112866696Y-55525592D01*
X112866696Y-55525592D02*
X112786339Y-55568449D01*
X112079196Y-56082735D02*
X112170267Y-56125592D01*
X112170267Y-56125592D02*
X112341696Y-56125592D01*
X112341696Y-56125592D02*
X112422053Y-56082735D01*
X112422053Y-56082735D02*
X112454196Y-55997020D01*
X112454196Y-55997020D02*
X112411339Y-55654163D01*
X112411339Y-55654163D02*
X112357767Y-55568449D01*
X112357767Y-55568449D02*
X112266696Y-55525592D01*
X112266696Y-55525592D02*
X112095267Y-55525592D01*
X112095267Y-55525592D02*
X112014910Y-55568449D01*
X112014910Y-55568449D02*
X111982767Y-55654163D01*
X111982767Y-55654163D02*
X111993481Y-55739877D01*
X111993481Y-55739877D02*
X112432767Y-55825592D01*
X111270267Y-56125592D02*
X111211338Y-55654163D01*
X111211338Y-55654163D02*
X111243481Y-55568449D01*
X111243481Y-55568449D02*
X111323838Y-55525592D01*
X111323838Y-55525592D02*
X111495267Y-55525592D01*
X111495267Y-55525592D02*
X111586338Y-55568449D01*
X111264910Y-56082735D02*
X111355981Y-56125592D01*
X111355981Y-56125592D02*
X111570267Y-56125592D01*
X111570267Y-56125592D02*
X111650624Y-56082735D01*
X111650624Y-56082735D02*
X111682767Y-55997020D01*
X111682767Y-55997020D02*
X111672052Y-55911306D01*
X111672052Y-55911306D02*
X111618481Y-55825592D01*
X111618481Y-55825592D02*
X111527410Y-55782735D01*
X111527410Y-55782735D02*
X111313124Y-55782735D01*
X111313124Y-55782735D02*
X111222052Y-55739877D01*
X110455981Y-56125592D02*
X110343481Y-55225592D01*
X110450624Y-56082735D02*
X110541695Y-56125592D01*
X110541695Y-56125592D02*
X110713124Y-56125592D01*
X110713124Y-56125592D02*
X110793481Y-56082735D01*
X110793481Y-56082735D02*
X110830981Y-56039877D01*
X110830981Y-56039877D02*
X110863124Y-55954163D01*
X110863124Y-55954163D02*
X110830981Y-55697020D01*
X110830981Y-55697020D02*
X110777409Y-55611306D01*
X110777409Y-55611306D02*
X110729195Y-55568449D01*
X110729195Y-55568449D02*
X110638124Y-55525592D01*
X110638124Y-55525592D02*
X110466695Y-55525592D01*
X110466695Y-55525592D02*
X110386338Y-55568449D01*
X109395266Y-55525592D02*
X109052409Y-55525592D01*
X109341695Y-56125592D02*
X109245266Y-55354163D01*
X109245266Y-55354163D02*
X109191695Y-55268449D01*
X109191695Y-55268449D02*
X109100624Y-55225592D01*
X109100624Y-55225592D02*
X109014909Y-55225592D01*
X108698838Y-56125592D02*
X108779195Y-56082735D01*
X108779195Y-56082735D02*
X108816695Y-56039877D01*
X108816695Y-56039877D02*
X108848838Y-55954163D01*
X108848838Y-55954163D02*
X108816695Y-55697020D01*
X108816695Y-55697020D02*
X108763123Y-55611306D01*
X108763123Y-55611306D02*
X108714909Y-55568449D01*
X108714909Y-55568449D02*
X108623838Y-55525592D01*
X108623838Y-55525592D02*
X108495266Y-55525592D01*
X108495266Y-55525592D02*
X108414909Y-55568449D01*
X108414909Y-55568449D02*
X108377409Y-55611306D01*
X108377409Y-55611306D02*
X108345266Y-55697020D01*
X108345266Y-55697020D02*
X108377409Y-55954163D01*
X108377409Y-55954163D02*
X108430980Y-56039877D01*
X108430980Y-56039877D02*
X108479195Y-56082735D01*
X108479195Y-56082735D02*
X108570266Y-56125592D01*
X108570266Y-56125592D02*
X108698838Y-56125592D01*
X108013123Y-56125592D02*
X107938123Y-55525592D01*
X107959552Y-55697020D02*
X107905980Y-55611306D01*
X107905980Y-55611306D02*
X107857766Y-55568449D01*
X107857766Y-55568449D02*
X107766694Y-55525592D01*
X107766694Y-55525592D02*
X107680980Y-55525592D01*
X106823837Y-55525592D02*
X106480980Y-55525592D01*
X106657766Y-55225592D02*
X106754195Y-55997020D01*
X106754195Y-55997020D02*
X106722052Y-56082735D01*
X106722052Y-56082735D02*
X106641695Y-56125592D01*
X106641695Y-56125592D02*
X106555980Y-56125592D01*
X105870266Y-56125592D02*
X105811337Y-55654163D01*
X105811337Y-55654163D02*
X105843480Y-55568449D01*
X105843480Y-55568449D02*
X105923837Y-55525592D01*
X105923837Y-55525592D02*
X106095266Y-55525592D01*
X106095266Y-55525592D02*
X106186337Y-55568449D01*
X105864909Y-56082735D02*
X105955980Y-56125592D01*
X105955980Y-56125592D02*
X106170266Y-56125592D01*
X106170266Y-56125592D02*
X106250623Y-56082735D01*
X106250623Y-56082735D02*
X106282766Y-55997020D01*
X106282766Y-55997020D02*
X106272051Y-55911306D01*
X106272051Y-55911306D02*
X106218480Y-55825592D01*
X106218480Y-55825592D02*
X106127409Y-55782735D01*
X106127409Y-55782735D02*
X105913123Y-55782735D01*
X105913123Y-55782735D02*
X105822051Y-55739877D01*
X105527408Y-56125592D02*
X104980980Y-55525592D01*
X105452408Y-55525592D02*
X105055980Y-56125592D01*
X103952409Y-55525592D02*
X104064909Y-56425592D01*
X103957766Y-55568449D02*
X103866695Y-55525592D01*
X103866695Y-55525592D02*
X103695266Y-55525592D01*
X103695266Y-55525592D02*
X103614909Y-55568449D01*
X103614909Y-55568449D02*
X103577409Y-55611306D01*
X103577409Y-55611306D02*
X103545266Y-55697020D01*
X103545266Y-55697020D02*
X103577409Y-55954163D01*
X103577409Y-55954163D02*
X103630980Y-56039877D01*
X103630980Y-56039877D02*
X103679195Y-56082735D01*
X103679195Y-56082735D02*
X103770266Y-56125592D01*
X103770266Y-56125592D02*
X103941695Y-56125592D01*
X103941695Y-56125592D02*
X104022052Y-56082735D01*
X102752409Y-55525592D02*
X102827409Y-56125592D01*
X103138123Y-55525592D02*
X103197052Y-55997020D01*
X103197052Y-55997020D02*
X103164909Y-56082735D01*
X103164909Y-56082735D02*
X103084552Y-56125592D01*
X103084552Y-56125592D02*
X102955980Y-56125592D01*
X102955980Y-56125592D02*
X102864909Y-56082735D01*
X102864909Y-56082735D02*
X102816694Y-56039877D01*
X102398837Y-56125592D02*
X102323837Y-55525592D01*
X102345266Y-55697020D02*
X102291694Y-55611306D01*
X102291694Y-55611306D02*
X102243480Y-55568449D01*
X102243480Y-55568449D02*
X102152408Y-55525592D01*
X102152408Y-55525592D02*
X102066694Y-55525592D01*
X101766694Y-55525592D02*
X101879194Y-56425592D01*
X101772051Y-55568449D02*
X101680980Y-55525592D01*
X101680980Y-55525592D02*
X101509551Y-55525592D01*
X101509551Y-55525592D02*
X101429194Y-55568449D01*
X101429194Y-55568449D02*
X101391694Y-55611306D01*
X101391694Y-55611306D02*
X101359551Y-55697020D01*
X101359551Y-55697020D02*
X101391694Y-55954163D01*
X101391694Y-55954163D02*
X101445265Y-56039877D01*
X101445265Y-56039877D02*
X101493480Y-56082735D01*
X101493480Y-56082735D02*
X101584551Y-56125592D01*
X101584551Y-56125592D02*
X101755980Y-56125592D01*
X101755980Y-56125592D02*
X101836337Y-56082735D01*
X100898837Y-56125592D02*
X100979194Y-56082735D01*
X100979194Y-56082735D02*
X101016694Y-56039877D01*
X101016694Y-56039877D02*
X101048837Y-55954163D01*
X101048837Y-55954163D02*
X101016694Y-55697020D01*
X101016694Y-55697020D02*
X100963122Y-55611306D01*
X100963122Y-55611306D02*
X100914908Y-55568449D01*
X100914908Y-55568449D02*
X100823837Y-55525592D01*
X100823837Y-55525592D02*
X100695265Y-55525592D01*
X100695265Y-55525592D02*
X100614908Y-55568449D01*
X100614908Y-55568449D02*
X100577408Y-55611306D01*
X100577408Y-55611306D02*
X100545265Y-55697020D01*
X100545265Y-55697020D02*
X100577408Y-55954163D01*
X100577408Y-55954163D02*
X100630979Y-56039877D01*
X100630979Y-56039877D02*
X100679194Y-56082735D01*
X100679194Y-56082735D02*
X100770265Y-56125592D01*
X100770265Y-56125592D02*
X100898837Y-56125592D01*
X100250622Y-56082735D02*
X100170265Y-56125592D01*
X100170265Y-56125592D02*
X99998836Y-56125592D01*
X99998836Y-56125592D02*
X99907765Y-56082735D01*
X99907765Y-56082735D02*
X99854193Y-55997020D01*
X99854193Y-55997020D02*
X99848836Y-55954163D01*
X99848836Y-55954163D02*
X99880979Y-55868449D01*
X99880979Y-55868449D02*
X99961336Y-55825592D01*
X99961336Y-55825592D02*
X100089908Y-55825592D01*
X100089908Y-55825592D02*
X100170265Y-55782735D01*
X100170265Y-55782735D02*
X100202408Y-55697020D01*
X100202408Y-55697020D02*
X100197051Y-55654163D01*
X100197051Y-55654163D02*
X100143479Y-55568449D01*
X100143479Y-55568449D02*
X100052408Y-55525592D01*
X100052408Y-55525592D02*
X99923836Y-55525592D01*
X99923836Y-55525592D02*
X99843479Y-55568449D01*
X99136337Y-56082735D02*
X99227408Y-56125592D01*
X99227408Y-56125592D02*
X99398837Y-56125592D01*
X99398837Y-56125592D02*
X99479194Y-56082735D01*
X99479194Y-56082735D02*
X99511337Y-55997020D01*
X99511337Y-55997020D02*
X99468480Y-55654163D01*
X99468480Y-55654163D02*
X99414908Y-55568449D01*
X99414908Y-55568449D02*
X99323837Y-55525592D01*
X99323837Y-55525592D02*
X99152408Y-55525592D01*
X99152408Y-55525592D02*
X99072051Y-55568449D01*
X99072051Y-55568449D02*
X99039908Y-55654163D01*
X99039908Y-55654163D02*
X99050622Y-55739877D01*
X99050622Y-55739877D02*
X99489908Y-55825592D01*
X98750622Y-56082735D02*
X98670265Y-56125592D01*
X98670265Y-56125592D02*
X98498836Y-56125592D01*
X98498836Y-56125592D02*
X98407765Y-56082735D01*
X98407765Y-56082735D02*
X98354193Y-55997020D01*
X98354193Y-55997020D02*
X98348836Y-55954163D01*
X98348836Y-55954163D02*
X98380979Y-55868449D01*
X98380979Y-55868449D02*
X98461336Y-55825592D01*
X98461336Y-55825592D02*
X98589908Y-55825592D01*
X98589908Y-55825592D02*
X98670265Y-55782735D01*
X98670265Y-55782735D02*
X98702408Y-55697020D01*
X98702408Y-55697020D02*
X98697051Y-55654163D01*
X98697051Y-55654163D02*
X98643479Y-55568449D01*
X98643479Y-55568449D02*
X98552408Y-55525592D01*
X98552408Y-55525592D02*
X98423836Y-55525592D01*
X98423836Y-55525592D02*
X98343479Y-55568449D01*
X97914908Y-55225592D02*
X97936337Y-55397020D01*
X97572051Y-55225592D02*
X97593480Y-55397020D01*
D11*
X83604819Y-63986666D02*
X84319104Y-63986666D01*
X84319104Y-63986666D02*
X84461961Y-63939047D01*
X84461961Y-63939047D02*
X84557200Y-63843809D01*
X84557200Y-63843809D02*
X84604819Y-63700952D01*
X84604819Y-63700952D02*
X84604819Y-63605714D01*
X84604819Y-64986666D02*
X84604819Y-64415238D01*
X84604819Y-64700952D02*
X83604819Y-64700952D01*
X83604819Y-64700952D02*
X83747676Y-64605714D01*
X83747676Y-64605714D02*
X83842914Y-64510476D01*
X83842914Y-64510476D02*
X83890533Y-64415238D01*
D10*
X85590000Y-61720000D02*
X85590000Y-64320000D01*
X85590000Y-61720000D02*
X136510000Y-61720000D01*
X85590000Y-64320000D02*
X88190000Y-64320000D01*
X85590000Y-65590000D02*
X85590000Y-66920000D01*
X85590000Y-66920000D02*
X86920000Y-66920000D01*
X88190000Y-64320000D02*
X88190000Y-66920000D01*
X88190000Y-66920000D02*
X136510000Y-66920000D01*
X136510000Y-61720000D02*
X136510000Y-66920000D01*
D12*
X143510000Y-65024000D02*
X143499680Y-50291999D01*
X78499680Y-50291999D02*
X78499680Y-76576830D01*
X80400000Y-51400000D02*
G75*
G02*
X79248000Y-51400000I-576000J0D01*
G01*
X79248000Y-51400000D02*
G75*
G02*
X80400000Y-51400000I576000J0D01*
G01*
D13*
X99314000Y-76582066D02*
X99314000Y-71013528D01*
D12*
X140176000Y-48700000D02*
G75*
G02*
X139024000Y-48700000I-576000J0D01*
G01*
X139024000Y-48700000D02*
G75*
G02*
X140176000Y-48700000I576000J0D01*
G01*
X99314000Y-76582066D02*
G75*
G02*
X96314005Y-79576805I-3000000J5266D01*
G01*
X80276000Y-72200000D02*
G75*
G02*
X79124000Y-72200000I-576000J0D01*
G01*
X79124000Y-72200000D02*
G75*
G02*
X80276000Y-72200000I576000J0D01*
G01*
X140499680Y-47291999D02*
X81499680Y-47291999D01*
X81499680Y-79576830D02*
X96314005Y-79576830D01*
X99314000Y-71013528D02*
G75*
G02*
X102313995Y-68018795I3000000J-5272D01*
G01*
D13*
X140510005Y-68018764D02*
X102313995Y-68018764D01*
D12*
X140499680Y-47291999D02*
G75*
G02*
X143499701Y-50291999I20J-3000001D01*
G01*
X78499680Y-50291999D02*
G75*
G02*
X81499680Y-47291980I3000020J-1D01*
G01*
X143510000Y-65024000D02*
G75*
G02*
X140510005Y-68018805I-3000000J5200D01*
G01*
X81499680Y-79576830D02*
G75*
G02*
X78499670Y-76576830I20J3000030D01*
G01*
M02*
