G04 #@! TF.GenerationSoftware,KiCad,Pcbnew,8.0.7*
G04 #@! TF.CreationDate,2025-02-16T20:08:39+00:00*
G04 #@! TF.ProjectId,retropie-hat-2L,72657472-6f70-4696-952d-6861742d324c,rev?*
G04 #@! TF.SameCoordinates,Original*
G04 #@! TF.FileFunction,Legend,Top*
G04 #@! TF.FilePolarity,Positive*
%FSLAX46Y46*%
G04 Gerber Fmt 4.6, Leading zero omitted, Abs format (unit mm)*
G04 Created by KiCad (PCBNEW 8.0.7) date 2025-02-16 20:08:39*
%MOMM*%
%LPD*%
G01*
G04 APERTURE LIST*
%ADD10C,0.150000*%
%ADD11C,0.090000*%
%ADD12C,0.100000*%
%ADD13C,0.120000*%
G04 #@! TA.AperFunction,Profile*
%ADD14C,0.100000*%
G04 #@! TD*
G04 #@! TA.AperFunction,Profile*
%ADD15C,0.150000*%
G04 #@! TD*
G04 APERTURE END LIST*
D10*
X107188000Y-50038000D02*
X107950000Y-50038000D01*
X102997000Y-49149000D02*
X107188000Y-49149000D01*
X107188000Y-50927000D01*
X102997000Y-50927000D01*
X102997000Y-49149000D01*
X82067961Y-77400000D02*
G75*
G02*
X80932039Y-77400000I-567961J0D01*
G01*
X80932039Y-77400000D02*
G75*
G02*
X82067961Y-77400000I567961J0D01*
G01*
X105092500Y-49149000D02*
X105092500Y-50927000D01*
X81867961Y-67300000D02*
G75*
G02*
X80732039Y-67300000I-567961J0D01*
G01*
X80732039Y-67300000D02*
G75*
G02*
X81867961Y-67300000I567961J0D01*
G01*
D11*
X118068605Y-56122856D02*
X118097177Y-56037142D01*
X118097177Y-56037142D02*
X118125748Y-56008571D01*
X118125748Y-56008571D02*
X118182891Y-55979999D01*
X118182891Y-55979999D02*
X118268605Y-55979999D01*
X118268605Y-55979999D02*
X118325748Y-56008571D01*
X118325748Y-56008571D02*
X118354320Y-56037142D01*
X118354320Y-56037142D02*
X118382891Y-56094285D01*
X118382891Y-56094285D02*
X118382891Y-56322856D01*
X118382891Y-56322856D02*
X117782891Y-56322856D01*
X117782891Y-56322856D02*
X117782891Y-56122856D01*
X117782891Y-56122856D02*
X117811462Y-56065714D01*
X117811462Y-56065714D02*
X117840034Y-56037142D01*
X117840034Y-56037142D02*
X117897177Y-56008571D01*
X117897177Y-56008571D02*
X117954320Y-56008571D01*
X117954320Y-56008571D02*
X118011462Y-56037142D01*
X118011462Y-56037142D02*
X118040034Y-56065714D01*
X118040034Y-56065714D02*
X118068605Y-56122856D01*
X118068605Y-56122856D02*
X118068605Y-56322856D01*
X117782891Y-55779999D02*
X117782891Y-55408571D01*
X117782891Y-55408571D02*
X118011462Y-55608571D01*
X118011462Y-55608571D02*
X118011462Y-55522856D01*
X118011462Y-55522856D02*
X118040034Y-55465714D01*
X118040034Y-55465714D02*
X118068605Y-55437142D01*
X118068605Y-55437142D02*
X118125748Y-55408571D01*
X118125748Y-55408571D02*
X118268605Y-55408571D01*
X118268605Y-55408571D02*
X118325748Y-55437142D01*
X118325748Y-55437142D02*
X118354320Y-55465714D01*
X118354320Y-55465714D02*
X118382891Y-55522856D01*
X118382891Y-55522856D02*
X118382891Y-55694285D01*
X118382891Y-55694285D02*
X118354320Y-55751428D01*
X118354320Y-55751428D02*
X118325748Y-55779999D01*
X116509856Y-48244034D02*
X116538428Y-48215462D01*
X116538428Y-48215462D02*
X116595571Y-48186891D01*
X116595571Y-48186891D02*
X116738428Y-48186891D01*
X116738428Y-48186891D02*
X116795571Y-48215462D01*
X116795571Y-48215462D02*
X116824142Y-48244034D01*
X116824142Y-48244034D02*
X116852713Y-48301177D01*
X116852713Y-48301177D02*
X116852713Y-48358320D01*
X116852713Y-48358320D02*
X116824142Y-48444034D01*
X116824142Y-48444034D02*
X116481285Y-48786891D01*
X116481285Y-48786891D02*
X116852713Y-48786891D01*
X117367000Y-48186891D02*
X117252714Y-48186891D01*
X117252714Y-48186891D02*
X117195571Y-48215462D01*
X117195571Y-48215462D02*
X117167000Y-48244034D01*
X117167000Y-48244034D02*
X117109857Y-48329748D01*
X117109857Y-48329748D02*
X117081285Y-48444034D01*
X117081285Y-48444034D02*
X117081285Y-48672605D01*
X117081285Y-48672605D02*
X117109857Y-48729748D01*
X117109857Y-48729748D02*
X117138428Y-48758320D01*
X117138428Y-48758320D02*
X117195571Y-48786891D01*
X117195571Y-48786891D02*
X117309857Y-48786891D01*
X117309857Y-48786891D02*
X117367000Y-48758320D01*
X117367000Y-48758320D02*
X117395571Y-48729748D01*
X117395571Y-48729748D02*
X117424142Y-48672605D01*
X117424142Y-48672605D02*
X117424142Y-48529748D01*
X117424142Y-48529748D02*
X117395571Y-48472605D01*
X117395571Y-48472605D02*
X117367000Y-48444034D01*
X117367000Y-48444034D02*
X117309857Y-48415462D01*
X117309857Y-48415462D02*
X117195571Y-48415462D01*
X117195571Y-48415462D02*
X117138428Y-48444034D01*
X117138428Y-48444034D02*
X117109857Y-48472605D01*
X117109857Y-48472605D02*
X117081285Y-48529748D01*
X109048571Y-48244034D02*
X109077143Y-48215462D01*
X109077143Y-48215462D02*
X109134286Y-48186891D01*
X109134286Y-48186891D02*
X109277143Y-48186891D01*
X109277143Y-48186891D02*
X109334286Y-48215462D01*
X109334286Y-48215462D02*
X109362857Y-48244034D01*
X109362857Y-48244034D02*
X109391428Y-48301177D01*
X109391428Y-48301177D02*
X109391428Y-48358320D01*
X109391428Y-48358320D02*
X109362857Y-48444034D01*
X109362857Y-48444034D02*
X109020000Y-48786891D01*
X109020000Y-48786891D02*
X109391428Y-48786891D01*
X115528605Y-56122856D02*
X115557177Y-56037142D01*
X115557177Y-56037142D02*
X115585748Y-56008571D01*
X115585748Y-56008571D02*
X115642891Y-55979999D01*
X115642891Y-55979999D02*
X115728605Y-55979999D01*
X115728605Y-55979999D02*
X115785748Y-56008571D01*
X115785748Y-56008571D02*
X115814320Y-56037142D01*
X115814320Y-56037142D02*
X115842891Y-56094285D01*
X115842891Y-56094285D02*
X115842891Y-56322856D01*
X115842891Y-56322856D02*
X115242891Y-56322856D01*
X115242891Y-56322856D02*
X115242891Y-56122856D01*
X115242891Y-56122856D02*
X115271462Y-56065714D01*
X115271462Y-56065714D02*
X115300034Y-56037142D01*
X115300034Y-56037142D02*
X115357177Y-56008571D01*
X115357177Y-56008571D02*
X115414320Y-56008571D01*
X115414320Y-56008571D02*
X115471462Y-56037142D01*
X115471462Y-56037142D02*
X115500034Y-56065714D01*
X115500034Y-56065714D02*
X115528605Y-56122856D01*
X115528605Y-56122856D02*
X115528605Y-56322856D01*
X115442891Y-55465714D02*
X115842891Y-55465714D01*
X115214320Y-55608571D02*
X115642891Y-55751428D01*
X115642891Y-55751428D02*
X115642891Y-55379999D01*
X113842857Y-48215462D02*
X113785715Y-48186891D01*
X113785715Y-48186891D02*
X113700000Y-48186891D01*
X113700000Y-48186891D02*
X113614286Y-48215462D01*
X113614286Y-48215462D02*
X113557143Y-48272605D01*
X113557143Y-48272605D02*
X113528572Y-48329748D01*
X113528572Y-48329748D02*
X113500000Y-48444034D01*
X113500000Y-48444034D02*
X113500000Y-48529748D01*
X113500000Y-48529748D02*
X113528572Y-48644034D01*
X113528572Y-48644034D02*
X113557143Y-48701177D01*
X113557143Y-48701177D02*
X113614286Y-48758320D01*
X113614286Y-48758320D02*
X113700000Y-48786891D01*
X113700000Y-48786891D02*
X113757143Y-48786891D01*
X113757143Y-48786891D02*
X113842857Y-48758320D01*
X113842857Y-48758320D02*
X113871429Y-48729748D01*
X113871429Y-48729748D02*
X113871429Y-48529748D01*
X113871429Y-48529748D02*
X113757143Y-48529748D01*
X114128572Y-48786891D02*
X114128572Y-48186891D01*
X114128572Y-48186891D02*
X114471429Y-48786891D01*
X114471429Y-48786891D02*
X114471429Y-48186891D01*
X114757143Y-48786891D02*
X114757143Y-48186891D01*
X114757143Y-48186891D02*
X114900000Y-48186891D01*
X114900000Y-48186891D02*
X114985714Y-48215462D01*
X114985714Y-48215462D02*
X115042857Y-48272605D01*
X115042857Y-48272605D02*
X115071428Y-48329748D01*
X115071428Y-48329748D02*
X115100000Y-48444034D01*
X115100000Y-48444034D02*
X115100000Y-48529748D01*
X115100000Y-48529748D02*
X115071428Y-48644034D01*
X115071428Y-48644034D02*
X115042857Y-48701177D01*
X115042857Y-48701177D02*
X114985714Y-48758320D01*
X114985714Y-48758320D02*
X114900000Y-48786891D01*
X114900000Y-48786891D02*
X114757143Y-48786891D01*
X135812286Y-55517891D02*
X135812286Y-54917891D01*
X135812286Y-55489320D02*
X135755143Y-55517891D01*
X135755143Y-55517891D02*
X135640857Y-55517891D01*
X135640857Y-55517891D02*
X135583714Y-55489320D01*
X135583714Y-55489320D02*
X135555143Y-55460748D01*
X135555143Y-55460748D02*
X135526571Y-55403605D01*
X135526571Y-55403605D02*
X135526571Y-55232177D01*
X135526571Y-55232177D02*
X135555143Y-55175034D01*
X135555143Y-55175034D02*
X135583714Y-55146462D01*
X135583714Y-55146462D02*
X135640857Y-55117891D01*
X135640857Y-55117891D02*
X135755143Y-55117891D01*
X135755143Y-55117891D02*
X135812286Y-55146462D01*
X136355143Y-55517891D02*
X136355143Y-55203605D01*
X136355143Y-55203605D02*
X136326571Y-55146462D01*
X136326571Y-55146462D02*
X136269428Y-55117891D01*
X136269428Y-55117891D02*
X136155143Y-55117891D01*
X136155143Y-55117891D02*
X136098000Y-55146462D01*
X136355143Y-55489320D02*
X136298000Y-55517891D01*
X136298000Y-55517891D02*
X136155143Y-55517891D01*
X136155143Y-55517891D02*
X136098000Y-55489320D01*
X136098000Y-55489320D02*
X136069428Y-55432177D01*
X136069428Y-55432177D02*
X136069428Y-55375034D01*
X136069428Y-55375034D02*
X136098000Y-55317891D01*
X136098000Y-55317891D02*
X136155143Y-55289320D01*
X136155143Y-55289320D02*
X136298000Y-55289320D01*
X136298000Y-55289320D02*
X136355143Y-55260748D01*
X136555142Y-55117891D02*
X136783714Y-55117891D01*
X136640857Y-54917891D02*
X136640857Y-55432177D01*
X136640857Y-55432177D02*
X136669428Y-55489320D01*
X136669428Y-55489320D02*
X136726571Y-55517891D01*
X136726571Y-55517891D02*
X136783714Y-55517891D01*
X137240857Y-55517891D02*
X137240857Y-55203605D01*
X137240857Y-55203605D02*
X137212285Y-55146462D01*
X137212285Y-55146462D02*
X137155142Y-55117891D01*
X137155142Y-55117891D02*
X137040857Y-55117891D01*
X137040857Y-55117891D02*
X136983714Y-55146462D01*
X137240857Y-55489320D02*
X137183714Y-55517891D01*
X137183714Y-55517891D02*
X137040857Y-55517891D01*
X137040857Y-55517891D02*
X136983714Y-55489320D01*
X136983714Y-55489320D02*
X136955142Y-55432177D01*
X136955142Y-55432177D02*
X136955142Y-55375034D01*
X136955142Y-55375034D02*
X136983714Y-55317891D01*
X136983714Y-55317891D02*
X137040857Y-55289320D01*
X137040857Y-55289320D02*
X137183714Y-55289320D01*
X137183714Y-55289320D02*
X137240857Y-55260748D01*
X107908605Y-55995856D02*
X107937177Y-55910142D01*
X107937177Y-55910142D02*
X107965748Y-55881571D01*
X107965748Y-55881571D02*
X108022891Y-55852999D01*
X108022891Y-55852999D02*
X108108605Y-55852999D01*
X108108605Y-55852999D02*
X108165748Y-55881571D01*
X108165748Y-55881571D02*
X108194320Y-55910142D01*
X108194320Y-55910142D02*
X108222891Y-55967285D01*
X108222891Y-55967285D02*
X108222891Y-56195856D01*
X108222891Y-56195856D02*
X107622891Y-56195856D01*
X107622891Y-56195856D02*
X107622891Y-55995856D01*
X107622891Y-55995856D02*
X107651462Y-55938714D01*
X107651462Y-55938714D02*
X107680034Y-55910142D01*
X107680034Y-55910142D02*
X107737177Y-55881571D01*
X107737177Y-55881571D02*
X107794320Y-55881571D01*
X107794320Y-55881571D02*
X107851462Y-55910142D01*
X107851462Y-55910142D02*
X107880034Y-55938714D01*
X107880034Y-55938714D02*
X107908605Y-55995856D01*
X107908605Y-55995856D02*
X107908605Y-56195856D01*
X107622891Y-55338714D02*
X107622891Y-55452999D01*
X107622891Y-55452999D02*
X107651462Y-55510142D01*
X107651462Y-55510142D02*
X107680034Y-55538714D01*
X107680034Y-55538714D02*
X107765748Y-55595856D01*
X107765748Y-55595856D02*
X107880034Y-55624428D01*
X107880034Y-55624428D02*
X108108605Y-55624428D01*
X108108605Y-55624428D02*
X108165748Y-55595856D01*
X108165748Y-55595856D02*
X108194320Y-55567285D01*
X108194320Y-55567285D02*
X108222891Y-55510142D01*
X108222891Y-55510142D02*
X108222891Y-55395856D01*
X108222891Y-55395856D02*
X108194320Y-55338714D01*
X108194320Y-55338714D02*
X108165748Y-55310142D01*
X108165748Y-55310142D02*
X108108605Y-55281571D01*
X108108605Y-55281571D02*
X107965748Y-55281571D01*
X107965748Y-55281571D02*
X107908605Y-55310142D01*
X107908605Y-55310142D02*
X107880034Y-55338714D01*
X107880034Y-55338714D02*
X107851462Y-55395856D01*
X107851462Y-55395856D02*
X107851462Y-55510142D01*
X107851462Y-55510142D02*
X107880034Y-55567285D01*
X107880034Y-55567285D02*
X107908605Y-55595856D01*
X107908605Y-55595856D02*
X107965748Y-55624428D01*
X136394857Y-52822320D02*
X136337714Y-52850891D01*
X136337714Y-52850891D02*
X136223428Y-52850891D01*
X136223428Y-52850891D02*
X136166285Y-52822320D01*
X136166285Y-52822320D02*
X136137714Y-52793748D01*
X136137714Y-52793748D02*
X136109142Y-52736605D01*
X136109142Y-52736605D02*
X136109142Y-52565177D01*
X136109142Y-52565177D02*
X136137714Y-52508034D01*
X136137714Y-52508034D02*
X136166285Y-52479462D01*
X136166285Y-52479462D02*
X136223428Y-52450891D01*
X136223428Y-52450891D02*
X136337714Y-52450891D01*
X136337714Y-52450891D02*
X136394857Y-52479462D01*
X136737714Y-52850891D02*
X136680571Y-52822320D01*
X136680571Y-52822320D02*
X136652000Y-52765177D01*
X136652000Y-52765177D02*
X136652000Y-52250891D01*
X136966286Y-52850891D02*
X136966286Y-52250891D01*
X137023429Y-52622320D02*
X137194857Y-52850891D01*
X137194857Y-52450891D02*
X136966286Y-52679462D01*
X125602891Y-56149857D02*
X126002891Y-56149857D01*
X125602891Y-56406999D02*
X125917177Y-56406999D01*
X125917177Y-56406999D02*
X125974320Y-56378428D01*
X125974320Y-56378428D02*
X126002891Y-56321285D01*
X126002891Y-56321285D02*
X126002891Y-56235571D01*
X126002891Y-56235571D02*
X125974320Y-56178428D01*
X125974320Y-56178428D02*
X125945748Y-56149857D01*
X125602891Y-55864142D02*
X126202891Y-55864142D01*
X125631462Y-55864142D02*
X125602891Y-55807000D01*
X125602891Y-55807000D02*
X125602891Y-55692714D01*
X125602891Y-55692714D02*
X125631462Y-55635571D01*
X125631462Y-55635571D02*
X125660034Y-55607000D01*
X125660034Y-55607000D02*
X125717177Y-55578428D01*
X125717177Y-55578428D02*
X125888605Y-55578428D01*
X125888605Y-55578428D02*
X125945748Y-55607000D01*
X125945748Y-55607000D02*
X125974320Y-55635571D01*
X125974320Y-55635571D02*
X126002891Y-55692714D01*
X126002891Y-55692714D02*
X126002891Y-55807000D01*
X126002891Y-55807000D02*
X125974320Y-55864142D01*
X111560000Y-48186891D02*
X111931428Y-48186891D01*
X111931428Y-48186891D02*
X111731428Y-48415462D01*
X111731428Y-48415462D02*
X111817143Y-48415462D01*
X111817143Y-48415462D02*
X111874286Y-48444034D01*
X111874286Y-48444034D02*
X111902857Y-48472605D01*
X111902857Y-48472605D02*
X111931428Y-48529748D01*
X111931428Y-48529748D02*
X111931428Y-48672605D01*
X111931428Y-48672605D02*
X111902857Y-48729748D01*
X111902857Y-48729748D02*
X111874286Y-48758320D01*
X111874286Y-48758320D02*
X111817143Y-48786891D01*
X111817143Y-48786891D02*
X111645714Y-48786891D01*
X111645714Y-48786891D02*
X111588571Y-48758320D01*
X111588571Y-48758320D02*
X111560000Y-48729748D01*
X92827320Y-56187856D02*
X92855891Y-56130713D01*
X92855891Y-56130713D02*
X92855891Y-56016427D01*
X92855891Y-56016427D02*
X92827320Y-55959284D01*
X92827320Y-55959284D02*
X92770177Y-55930713D01*
X92770177Y-55930713D02*
X92741605Y-55930713D01*
X92741605Y-55930713D02*
X92684462Y-55959284D01*
X92684462Y-55959284D02*
X92655891Y-56016427D01*
X92655891Y-56016427D02*
X92655891Y-56102142D01*
X92655891Y-56102142D02*
X92627320Y-56159284D01*
X92627320Y-56159284D02*
X92570177Y-56187856D01*
X92570177Y-56187856D02*
X92541605Y-56187856D01*
X92541605Y-56187856D02*
X92484462Y-56159284D01*
X92484462Y-56159284D02*
X92455891Y-56102142D01*
X92455891Y-56102142D02*
X92455891Y-56016427D01*
X92455891Y-56016427D02*
X92484462Y-55959284D01*
X92855891Y-55673570D02*
X92255891Y-55673570D01*
X92855891Y-55416428D02*
X92541605Y-55416428D01*
X92541605Y-55416428D02*
X92484462Y-55444999D01*
X92484462Y-55444999D02*
X92455891Y-55502142D01*
X92455891Y-55502142D02*
X92455891Y-55587856D01*
X92455891Y-55587856D02*
X92484462Y-55644999D01*
X92484462Y-55644999D02*
X92513034Y-55673570D01*
X92855891Y-54873571D02*
X92255891Y-54873571D01*
X92827320Y-54873571D02*
X92855891Y-54930713D01*
X92855891Y-54930713D02*
X92855891Y-55044999D01*
X92855891Y-55044999D02*
X92827320Y-55102142D01*
X92827320Y-55102142D02*
X92798748Y-55130713D01*
X92798748Y-55130713D02*
X92741605Y-55159285D01*
X92741605Y-55159285D02*
X92570177Y-55159285D01*
X92570177Y-55159285D02*
X92513034Y-55130713D01*
X92513034Y-55130713D02*
X92484462Y-55102142D01*
X92484462Y-55102142D02*
X92455891Y-55044999D01*
X92455891Y-55044999D02*
X92455891Y-54930713D01*
X92455891Y-54930713D02*
X92484462Y-54873571D01*
X92455891Y-54587856D02*
X92855891Y-54587856D01*
X92513034Y-54587856D02*
X92484462Y-54559285D01*
X92484462Y-54559285D02*
X92455891Y-54502142D01*
X92455891Y-54502142D02*
X92455891Y-54416428D01*
X92455891Y-54416428D02*
X92484462Y-54359285D01*
X92484462Y-54359285D02*
X92541605Y-54330714D01*
X92541605Y-54330714D02*
X92855891Y-54330714D01*
X136109143Y-57457891D02*
X136252000Y-58057891D01*
X136252000Y-58057891D02*
X136366286Y-57629320D01*
X136366286Y-57629320D02*
X136480571Y-58057891D01*
X136480571Y-58057891D02*
X136623429Y-57457891D01*
X136823428Y-58029320D02*
X136909143Y-58057891D01*
X136909143Y-58057891D02*
X137052000Y-58057891D01*
X137052000Y-58057891D02*
X137109143Y-58029320D01*
X137109143Y-58029320D02*
X137137714Y-58000748D01*
X137137714Y-58000748D02*
X137166285Y-57943605D01*
X137166285Y-57943605D02*
X137166285Y-57886462D01*
X137166285Y-57886462D02*
X137137714Y-57829320D01*
X137137714Y-57829320D02*
X137109143Y-57800748D01*
X137109143Y-57800748D02*
X137052000Y-57772177D01*
X137052000Y-57772177D02*
X136937714Y-57743605D01*
X136937714Y-57743605D02*
X136880571Y-57715034D01*
X136880571Y-57715034D02*
X136852000Y-57686462D01*
X136852000Y-57686462D02*
X136823428Y-57629320D01*
X136823428Y-57629320D02*
X136823428Y-57572177D01*
X136823428Y-57572177D02*
X136852000Y-57515034D01*
X136852000Y-57515034D02*
X136880571Y-57486462D01*
X136880571Y-57486462D02*
X136937714Y-57457891D01*
X136937714Y-57457891D02*
X137080571Y-57457891D01*
X137080571Y-57457891D02*
X137166285Y-57486462D01*
X120608605Y-56122856D02*
X120637177Y-56037142D01*
X120637177Y-56037142D02*
X120665748Y-56008571D01*
X120665748Y-56008571D02*
X120722891Y-55979999D01*
X120722891Y-55979999D02*
X120808605Y-55979999D01*
X120808605Y-55979999D02*
X120865748Y-56008571D01*
X120865748Y-56008571D02*
X120894320Y-56037142D01*
X120894320Y-56037142D02*
X120922891Y-56094285D01*
X120922891Y-56094285D02*
X120922891Y-56322856D01*
X120922891Y-56322856D02*
X120322891Y-56322856D01*
X120322891Y-56322856D02*
X120322891Y-56122856D01*
X120322891Y-56122856D02*
X120351462Y-56065714D01*
X120351462Y-56065714D02*
X120380034Y-56037142D01*
X120380034Y-56037142D02*
X120437177Y-56008571D01*
X120437177Y-56008571D02*
X120494320Y-56008571D01*
X120494320Y-56008571D02*
X120551462Y-56037142D01*
X120551462Y-56037142D02*
X120580034Y-56065714D01*
X120580034Y-56065714D02*
X120608605Y-56122856D01*
X120608605Y-56122856D02*
X120608605Y-56322856D01*
X120380034Y-55751428D02*
X120351462Y-55722856D01*
X120351462Y-55722856D02*
X120322891Y-55665714D01*
X120322891Y-55665714D02*
X120322891Y-55522856D01*
X120322891Y-55522856D02*
X120351462Y-55465714D01*
X120351462Y-55465714D02*
X120380034Y-55437142D01*
X120380034Y-55437142D02*
X120437177Y-55408571D01*
X120437177Y-55408571D02*
X120494320Y-55408571D01*
X120494320Y-55408571D02*
X120580034Y-55437142D01*
X120580034Y-55437142D02*
X120922891Y-55779999D01*
X120922891Y-55779999D02*
X120922891Y-55408571D01*
X102828605Y-56213285D02*
X102828605Y-56013285D01*
X103142891Y-55927571D02*
X103142891Y-56213285D01*
X103142891Y-56213285D02*
X102542891Y-56213285D01*
X102542891Y-56213285D02*
X102542891Y-55927571D01*
X103114320Y-55699000D02*
X103142891Y-55613286D01*
X103142891Y-55613286D02*
X103142891Y-55470428D01*
X103142891Y-55470428D02*
X103114320Y-55413286D01*
X103114320Y-55413286D02*
X103085748Y-55384714D01*
X103085748Y-55384714D02*
X103028605Y-55356143D01*
X103028605Y-55356143D02*
X102971462Y-55356143D01*
X102971462Y-55356143D02*
X102914320Y-55384714D01*
X102914320Y-55384714D02*
X102885748Y-55413286D01*
X102885748Y-55413286D02*
X102857177Y-55470428D01*
X102857177Y-55470428D02*
X102828605Y-55584714D01*
X102828605Y-55584714D02*
X102800034Y-55641857D01*
X102800034Y-55641857D02*
X102771462Y-55670428D01*
X102771462Y-55670428D02*
X102714320Y-55699000D01*
X102714320Y-55699000D02*
X102657177Y-55699000D01*
X102657177Y-55699000D02*
X102600034Y-55670428D01*
X102600034Y-55670428D02*
X102571462Y-55641857D01*
X102571462Y-55641857D02*
X102542891Y-55584714D01*
X102542891Y-55584714D02*
X102542891Y-55441857D01*
X102542891Y-55441857D02*
X102571462Y-55356143D01*
X103085748Y-54756142D02*
X103114320Y-54784714D01*
X103114320Y-54784714D02*
X103142891Y-54870428D01*
X103142891Y-54870428D02*
X103142891Y-54927571D01*
X103142891Y-54927571D02*
X103114320Y-55013285D01*
X103114320Y-55013285D02*
X103057177Y-55070428D01*
X103057177Y-55070428D02*
X103000034Y-55098999D01*
X103000034Y-55098999D02*
X102885748Y-55127571D01*
X102885748Y-55127571D02*
X102800034Y-55127571D01*
X102800034Y-55127571D02*
X102685748Y-55098999D01*
X102685748Y-55098999D02*
X102628605Y-55070428D01*
X102628605Y-55070428D02*
X102571462Y-55013285D01*
X102571462Y-55013285D02*
X102542891Y-54927571D01*
X102542891Y-54927571D02*
X102542891Y-54870428D01*
X102542891Y-54870428D02*
X102571462Y-54784714D01*
X102571462Y-54784714D02*
X102600034Y-54756142D01*
X84232857Y-54536891D02*
X84604285Y-54536891D01*
X84604285Y-54536891D02*
X84404285Y-54765462D01*
X84404285Y-54765462D02*
X84490000Y-54765462D01*
X84490000Y-54765462D02*
X84547143Y-54794034D01*
X84547143Y-54794034D02*
X84575714Y-54822605D01*
X84575714Y-54822605D02*
X84604285Y-54879748D01*
X84604285Y-54879748D02*
X84604285Y-55022605D01*
X84604285Y-55022605D02*
X84575714Y-55079748D01*
X84575714Y-55079748D02*
X84547143Y-55108320D01*
X84547143Y-55108320D02*
X84490000Y-55136891D01*
X84490000Y-55136891D02*
X84318571Y-55136891D01*
X84318571Y-55136891D02*
X84261428Y-55108320D01*
X84261428Y-55108320D02*
X84232857Y-55079748D01*
X84861429Y-55079748D02*
X84890000Y-55108320D01*
X84890000Y-55108320D02*
X84861429Y-55136891D01*
X84861429Y-55136891D02*
X84832857Y-55108320D01*
X84832857Y-55108320D02*
X84861429Y-55079748D01*
X84861429Y-55079748D02*
X84861429Y-55136891D01*
X85090000Y-54536891D02*
X85461428Y-54536891D01*
X85461428Y-54536891D02*
X85261428Y-54765462D01*
X85261428Y-54765462D02*
X85347143Y-54765462D01*
X85347143Y-54765462D02*
X85404286Y-54794034D01*
X85404286Y-54794034D02*
X85432857Y-54822605D01*
X85432857Y-54822605D02*
X85461428Y-54879748D01*
X85461428Y-54879748D02*
X85461428Y-55022605D01*
X85461428Y-55022605D02*
X85432857Y-55079748D01*
X85432857Y-55079748D02*
X85404286Y-55108320D01*
X85404286Y-55108320D02*
X85347143Y-55136891D01*
X85347143Y-55136891D02*
X85175714Y-55136891D01*
X85175714Y-55136891D02*
X85118571Y-55108320D01*
X85118571Y-55108320D02*
X85090000Y-55079748D01*
X85661429Y-54736891D02*
X85804286Y-55136891D01*
X85804286Y-55136891D02*
X85947143Y-54736891D01*
X100673285Y-50310891D02*
X100673285Y-49710891D01*
X100930427Y-49768034D02*
X100958999Y-49739462D01*
X100958999Y-49739462D02*
X101016142Y-49710891D01*
X101016142Y-49710891D02*
X101158999Y-49710891D01*
X101158999Y-49710891D02*
X101216142Y-49739462D01*
X101216142Y-49739462D02*
X101244713Y-49768034D01*
X101244713Y-49768034D02*
X101273284Y-49825177D01*
X101273284Y-49825177D02*
X101273284Y-49882320D01*
X101273284Y-49882320D02*
X101244713Y-49968034D01*
X101244713Y-49968034D02*
X100901856Y-50310891D01*
X100901856Y-50310891D02*
X101273284Y-50310891D01*
X101873285Y-50253748D02*
X101844713Y-50282320D01*
X101844713Y-50282320D02*
X101758999Y-50310891D01*
X101758999Y-50310891D02*
X101701856Y-50310891D01*
X101701856Y-50310891D02*
X101616142Y-50282320D01*
X101616142Y-50282320D02*
X101558999Y-50225177D01*
X101558999Y-50225177D02*
X101530428Y-50168034D01*
X101530428Y-50168034D02*
X101501856Y-50053748D01*
X101501856Y-50053748D02*
X101501856Y-49968034D01*
X101501856Y-49968034D02*
X101530428Y-49853748D01*
X101530428Y-49853748D02*
X101558999Y-49796605D01*
X101558999Y-49796605D02*
X101616142Y-49739462D01*
X101616142Y-49739462D02*
X101701856Y-49710891D01*
X101701856Y-49710891D02*
X101758999Y-49710891D01*
X101758999Y-49710891D02*
X101844713Y-49739462D01*
X101844713Y-49739462D02*
X101873285Y-49768034D01*
X102130428Y-50082320D02*
X102587571Y-50082320D01*
X103301856Y-50282320D02*
X103387571Y-50310891D01*
X103387571Y-50310891D02*
X103530428Y-50310891D01*
X103530428Y-50310891D02*
X103587571Y-50282320D01*
X103587571Y-50282320D02*
X103616142Y-50253748D01*
X103616142Y-50253748D02*
X103644713Y-50196605D01*
X103644713Y-50196605D02*
X103644713Y-50139462D01*
X103644713Y-50139462D02*
X103616142Y-50082320D01*
X103616142Y-50082320D02*
X103587571Y-50053748D01*
X103587571Y-50053748D02*
X103530428Y-50025177D01*
X103530428Y-50025177D02*
X103416142Y-49996605D01*
X103416142Y-49996605D02*
X103358999Y-49968034D01*
X103358999Y-49968034D02*
X103330428Y-49939462D01*
X103330428Y-49939462D02*
X103301856Y-49882320D01*
X103301856Y-49882320D02*
X103301856Y-49825177D01*
X103301856Y-49825177D02*
X103330428Y-49768034D01*
X103330428Y-49768034D02*
X103358999Y-49739462D01*
X103358999Y-49739462D02*
X103416142Y-49710891D01*
X103416142Y-49710891D02*
X103558999Y-49710891D01*
X103558999Y-49710891D02*
X103644713Y-49739462D01*
X103901857Y-50310891D02*
X103901857Y-49710891D01*
X103901857Y-49710891D02*
X104044714Y-49710891D01*
X104044714Y-49710891D02*
X104130428Y-49739462D01*
X104130428Y-49739462D02*
X104187571Y-49796605D01*
X104187571Y-49796605D02*
X104216142Y-49853748D01*
X104216142Y-49853748D02*
X104244714Y-49968034D01*
X104244714Y-49968034D02*
X104244714Y-50053748D01*
X104244714Y-50053748D02*
X104216142Y-50168034D01*
X104216142Y-50168034D02*
X104187571Y-50225177D01*
X104187571Y-50225177D02*
X104130428Y-50282320D01*
X104130428Y-50282320D02*
X104044714Y-50310891D01*
X104044714Y-50310891D02*
X103901857Y-50310891D01*
X104473285Y-50139462D02*
X104759000Y-50139462D01*
X104416142Y-50310891D02*
X104616142Y-49710891D01*
X104616142Y-49710891D02*
X104816142Y-50310891D01*
X105444714Y-50282320D02*
X105530429Y-50310891D01*
X105530429Y-50310891D02*
X105673286Y-50310891D01*
X105673286Y-50310891D02*
X105730429Y-50282320D01*
X105730429Y-50282320D02*
X105759000Y-50253748D01*
X105759000Y-50253748D02*
X105787571Y-50196605D01*
X105787571Y-50196605D02*
X105787571Y-50139462D01*
X105787571Y-50139462D02*
X105759000Y-50082320D01*
X105759000Y-50082320D02*
X105730429Y-50053748D01*
X105730429Y-50053748D02*
X105673286Y-50025177D01*
X105673286Y-50025177D02*
X105559000Y-49996605D01*
X105559000Y-49996605D02*
X105501857Y-49968034D01*
X105501857Y-49968034D02*
X105473286Y-49939462D01*
X105473286Y-49939462D02*
X105444714Y-49882320D01*
X105444714Y-49882320D02*
X105444714Y-49825177D01*
X105444714Y-49825177D02*
X105473286Y-49768034D01*
X105473286Y-49768034D02*
X105501857Y-49739462D01*
X105501857Y-49739462D02*
X105559000Y-49710891D01*
X105559000Y-49710891D02*
X105701857Y-49710891D01*
X105701857Y-49710891D02*
X105787571Y-49739462D01*
X106387572Y-50253748D02*
X106359000Y-50282320D01*
X106359000Y-50282320D02*
X106273286Y-50310891D01*
X106273286Y-50310891D02*
X106216143Y-50310891D01*
X106216143Y-50310891D02*
X106130429Y-50282320D01*
X106130429Y-50282320D02*
X106073286Y-50225177D01*
X106073286Y-50225177D02*
X106044715Y-50168034D01*
X106044715Y-50168034D02*
X106016143Y-50053748D01*
X106016143Y-50053748D02*
X106016143Y-49968034D01*
X106016143Y-49968034D02*
X106044715Y-49853748D01*
X106044715Y-49853748D02*
X106073286Y-49796605D01*
X106073286Y-49796605D02*
X106130429Y-49739462D01*
X106130429Y-49739462D02*
X106216143Y-49710891D01*
X106216143Y-49710891D02*
X106273286Y-49710891D01*
X106273286Y-49710891D02*
X106359000Y-49739462D01*
X106359000Y-49739462D02*
X106387572Y-49768034D01*
X106930429Y-50310891D02*
X106644715Y-50310891D01*
X106644715Y-50310891D02*
X106644715Y-49710891D01*
X111645713Y-55390891D02*
X111302856Y-55390891D01*
X111474285Y-55390891D02*
X111474285Y-54790891D01*
X111474285Y-54790891D02*
X111417142Y-54876605D01*
X111417142Y-54876605D02*
X111359999Y-54933748D01*
X111359999Y-54933748D02*
X111302856Y-54962320D01*
X112188571Y-54790891D02*
X111902857Y-54790891D01*
X111902857Y-54790891D02*
X111874285Y-55076605D01*
X111874285Y-55076605D02*
X111902857Y-55048034D01*
X111902857Y-55048034D02*
X111960000Y-55019462D01*
X111960000Y-55019462D02*
X112102857Y-55019462D01*
X112102857Y-55019462D02*
X112160000Y-55048034D01*
X112160000Y-55048034D02*
X112188571Y-55076605D01*
X112188571Y-55076605D02*
X112217142Y-55133748D01*
X112217142Y-55133748D02*
X112217142Y-55276605D01*
X112217142Y-55276605D02*
X112188571Y-55333748D01*
X112188571Y-55333748D02*
X112160000Y-55362320D01*
X112160000Y-55362320D02*
X112102857Y-55390891D01*
X112102857Y-55390891D02*
X111960000Y-55390891D01*
X111960000Y-55390891D02*
X111902857Y-55362320D01*
X111902857Y-55362320D02*
X111874285Y-55333748D01*
X81071429Y-67344320D02*
X81528572Y-67344320D01*
X81300000Y-67572891D02*
X81300000Y-67115748D01*
X118377000Y-50155320D02*
X118434143Y-50183891D01*
X118434143Y-50183891D02*
X118548429Y-50183891D01*
X118548429Y-50183891D02*
X118605572Y-50155320D01*
X118605572Y-50155320D02*
X118634143Y-50098177D01*
X118634143Y-50098177D02*
X118634143Y-50069605D01*
X118634143Y-50069605D02*
X118605572Y-50012462D01*
X118605572Y-50012462D02*
X118548429Y-49983891D01*
X118548429Y-49983891D02*
X118462715Y-49983891D01*
X118462715Y-49983891D02*
X118405572Y-49955320D01*
X118405572Y-49955320D02*
X118377000Y-49898177D01*
X118377000Y-49898177D02*
X118377000Y-49869605D01*
X118377000Y-49869605D02*
X118405572Y-49812462D01*
X118405572Y-49812462D02*
X118462715Y-49783891D01*
X118462715Y-49783891D02*
X118548429Y-49783891D01*
X118548429Y-49783891D02*
X118605572Y-49812462D01*
X118891286Y-49783891D02*
X118891286Y-50383891D01*
X118891286Y-49812462D02*
X118948429Y-49783891D01*
X118948429Y-49783891D02*
X119062714Y-49783891D01*
X119062714Y-49783891D02*
X119119857Y-49812462D01*
X119119857Y-49812462D02*
X119148429Y-49841034D01*
X119148429Y-49841034D02*
X119177000Y-49898177D01*
X119177000Y-49898177D02*
X119177000Y-50069605D01*
X119177000Y-50069605D02*
X119148429Y-50126748D01*
X119148429Y-50126748D02*
X119119857Y-50155320D01*
X119119857Y-50155320D02*
X119062714Y-50183891D01*
X119062714Y-50183891D02*
X118948429Y-50183891D01*
X118948429Y-50183891D02*
X118891286Y-50155320D01*
X119691286Y-50183891D02*
X119691286Y-49869605D01*
X119691286Y-49869605D02*
X119662714Y-49812462D01*
X119662714Y-49812462D02*
X119605571Y-49783891D01*
X119605571Y-49783891D02*
X119491286Y-49783891D01*
X119491286Y-49783891D02*
X119434143Y-49812462D01*
X119691286Y-50155320D02*
X119634143Y-50183891D01*
X119634143Y-50183891D02*
X119491286Y-50183891D01*
X119491286Y-50183891D02*
X119434143Y-50155320D01*
X119434143Y-50155320D02*
X119405571Y-50098177D01*
X119405571Y-50098177D02*
X119405571Y-50041034D01*
X119405571Y-50041034D02*
X119434143Y-49983891D01*
X119434143Y-49983891D02*
X119491286Y-49955320D01*
X119491286Y-49955320D02*
X119634143Y-49955320D01*
X119634143Y-49955320D02*
X119691286Y-49926748D01*
X119977000Y-50183891D02*
X119977000Y-49783891D01*
X119977000Y-49898177D02*
X120005571Y-49841034D01*
X120005571Y-49841034D02*
X120034143Y-49812462D01*
X120034143Y-49812462D02*
X120091285Y-49783891D01*
X120091285Y-49783891D02*
X120148428Y-49783891D01*
X120577000Y-50155320D02*
X120519857Y-50183891D01*
X120519857Y-50183891D02*
X120405572Y-50183891D01*
X120405572Y-50183891D02*
X120348429Y-50155320D01*
X120348429Y-50155320D02*
X120319857Y-50098177D01*
X120319857Y-50098177D02*
X120319857Y-49869605D01*
X120319857Y-49869605D02*
X120348429Y-49812462D01*
X120348429Y-49812462D02*
X120405572Y-49783891D01*
X120405572Y-49783891D02*
X120519857Y-49783891D01*
X120519857Y-49783891D02*
X120577000Y-49812462D01*
X120577000Y-49812462D02*
X120605572Y-49869605D01*
X120605572Y-49869605D02*
X120605572Y-49926748D01*
X120605572Y-49926748D02*
X120319857Y-49983891D01*
X121634143Y-49612462D02*
X121577001Y-49583891D01*
X121577001Y-49583891D02*
X121491286Y-49583891D01*
X121491286Y-49583891D02*
X121405572Y-49612462D01*
X121405572Y-49612462D02*
X121348429Y-49669605D01*
X121348429Y-49669605D02*
X121319858Y-49726748D01*
X121319858Y-49726748D02*
X121291286Y-49841034D01*
X121291286Y-49841034D02*
X121291286Y-49926748D01*
X121291286Y-49926748D02*
X121319858Y-50041034D01*
X121319858Y-50041034D02*
X121348429Y-50098177D01*
X121348429Y-50098177D02*
X121405572Y-50155320D01*
X121405572Y-50155320D02*
X121491286Y-50183891D01*
X121491286Y-50183891D02*
X121548429Y-50183891D01*
X121548429Y-50183891D02*
X121634143Y-50155320D01*
X121634143Y-50155320D02*
X121662715Y-50126748D01*
X121662715Y-50126748D02*
X121662715Y-49926748D01*
X121662715Y-49926748D02*
X121548429Y-49926748D01*
X121919858Y-50183891D02*
X121919858Y-49583891D01*
X121919858Y-49583891D02*
X122148429Y-49583891D01*
X122148429Y-49583891D02*
X122205572Y-49612462D01*
X122205572Y-49612462D02*
X122234143Y-49641034D01*
X122234143Y-49641034D02*
X122262715Y-49698177D01*
X122262715Y-49698177D02*
X122262715Y-49783891D01*
X122262715Y-49783891D02*
X122234143Y-49841034D01*
X122234143Y-49841034D02*
X122205572Y-49869605D01*
X122205572Y-49869605D02*
X122148429Y-49898177D01*
X122148429Y-49898177D02*
X121919858Y-49898177D01*
X122519858Y-50183891D02*
X122519858Y-49583891D01*
X122919857Y-49583891D02*
X123034143Y-49583891D01*
X123034143Y-49583891D02*
X123091286Y-49612462D01*
X123091286Y-49612462D02*
X123148429Y-49669605D01*
X123148429Y-49669605D02*
X123177000Y-49783891D01*
X123177000Y-49783891D02*
X123177000Y-49983891D01*
X123177000Y-49983891D02*
X123148429Y-50098177D01*
X123148429Y-50098177D02*
X123091286Y-50155320D01*
X123091286Y-50155320D02*
X123034143Y-50183891D01*
X123034143Y-50183891D02*
X122919857Y-50183891D01*
X122919857Y-50183891D02*
X122862715Y-50155320D01*
X122862715Y-50155320D02*
X122805572Y-50098177D01*
X122805572Y-50098177D02*
X122777000Y-49983891D01*
X122777000Y-49983891D02*
X122777000Y-49783891D01*
X122777000Y-49783891D02*
X122805572Y-49669605D01*
X122805572Y-49669605D02*
X122862715Y-49612462D01*
X122862715Y-49612462D02*
X122919857Y-49583891D01*
X84623285Y-59489891D02*
X84337571Y-59489891D01*
X84337571Y-59489891D02*
X84308999Y-59775605D01*
X84308999Y-59775605D02*
X84337571Y-59747034D01*
X84337571Y-59747034D02*
X84394714Y-59718462D01*
X84394714Y-59718462D02*
X84537571Y-59718462D01*
X84537571Y-59718462D02*
X84594714Y-59747034D01*
X84594714Y-59747034D02*
X84623285Y-59775605D01*
X84623285Y-59775605D02*
X84651856Y-59832748D01*
X84651856Y-59832748D02*
X84651856Y-59975605D01*
X84651856Y-59975605D02*
X84623285Y-60032748D01*
X84623285Y-60032748D02*
X84594714Y-60061320D01*
X84594714Y-60061320D02*
X84537571Y-60089891D01*
X84537571Y-60089891D02*
X84394714Y-60089891D01*
X84394714Y-60089891D02*
X84337571Y-60061320D01*
X84337571Y-60061320D02*
X84308999Y-60032748D01*
X84851857Y-59689891D02*
X84994714Y-60089891D01*
X84994714Y-60089891D02*
X85137571Y-59689891D01*
D10*
X108080951Y-60154819D02*
X108080951Y-60869104D01*
X108080951Y-60869104D02*
X108033332Y-61011961D01*
X108033332Y-61011961D02*
X107938094Y-61107200D01*
X107938094Y-61107200D02*
X107795237Y-61154819D01*
X107795237Y-61154819D02*
X107699999Y-61154819D01*
X109033332Y-61154819D02*
X108557142Y-61154819D01*
X108557142Y-61154819D02*
X108557142Y-60154819D01*
X109938094Y-61059580D02*
X109890475Y-61107200D01*
X109890475Y-61107200D02*
X109747618Y-61154819D01*
X109747618Y-61154819D02*
X109652380Y-61154819D01*
X109652380Y-61154819D02*
X109509523Y-61107200D01*
X109509523Y-61107200D02*
X109414285Y-61011961D01*
X109414285Y-61011961D02*
X109366666Y-60916723D01*
X109366666Y-60916723D02*
X109319047Y-60726247D01*
X109319047Y-60726247D02*
X109319047Y-60583390D01*
X109319047Y-60583390D02*
X109366666Y-60392914D01*
X109366666Y-60392914D02*
X109414285Y-60297676D01*
X109414285Y-60297676D02*
X109509523Y-60202438D01*
X109509523Y-60202438D02*
X109652380Y-60154819D01*
X109652380Y-60154819D02*
X109747618Y-60154819D01*
X109747618Y-60154819D02*
X109890475Y-60202438D01*
X109890475Y-60202438D02*
X109938094Y-60250057D01*
X110652380Y-60154819D02*
X110652380Y-60869104D01*
X110652380Y-60869104D02*
X110604761Y-61011961D01*
X110604761Y-61011961D02*
X110509523Y-61107200D01*
X110509523Y-61107200D02*
X110366666Y-61154819D01*
X110366666Y-61154819D02*
X110271428Y-61154819D01*
X111604761Y-61154819D02*
X111128571Y-61154819D01*
X111128571Y-61154819D02*
X111128571Y-60154819D01*
X112509523Y-61059580D02*
X112461904Y-61107200D01*
X112461904Y-61107200D02*
X112319047Y-61154819D01*
X112319047Y-61154819D02*
X112223809Y-61154819D01*
X112223809Y-61154819D02*
X112080952Y-61107200D01*
X112080952Y-61107200D02*
X111985714Y-61011961D01*
X111985714Y-61011961D02*
X111938095Y-60916723D01*
X111938095Y-60916723D02*
X111890476Y-60726247D01*
X111890476Y-60726247D02*
X111890476Y-60583390D01*
X111890476Y-60583390D02*
X111938095Y-60392914D01*
X111938095Y-60392914D02*
X111985714Y-60297676D01*
X111985714Y-60297676D02*
X112080952Y-60202438D01*
X112080952Y-60202438D02*
X112223809Y-60154819D01*
X112223809Y-60154819D02*
X112319047Y-60154819D01*
X112319047Y-60154819D02*
X112461904Y-60202438D01*
X112461904Y-60202438D02*
X112509523Y-60250057D01*
X113223809Y-60154819D02*
X113223809Y-60869104D01*
X113223809Y-60869104D02*
X113176190Y-61011961D01*
X113176190Y-61011961D02*
X113080952Y-61107200D01*
X113080952Y-61107200D02*
X112938095Y-61154819D01*
X112938095Y-61154819D02*
X112842857Y-61154819D01*
X114176190Y-61154819D02*
X113700000Y-61154819D01*
X113700000Y-61154819D02*
X113700000Y-60154819D01*
X115080952Y-61059580D02*
X115033333Y-61107200D01*
X115033333Y-61107200D02*
X114890476Y-61154819D01*
X114890476Y-61154819D02*
X114795238Y-61154819D01*
X114795238Y-61154819D02*
X114652381Y-61107200D01*
X114652381Y-61107200D02*
X114557143Y-61011961D01*
X114557143Y-61011961D02*
X114509524Y-60916723D01*
X114509524Y-60916723D02*
X114461905Y-60726247D01*
X114461905Y-60726247D02*
X114461905Y-60583390D01*
X114461905Y-60583390D02*
X114509524Y-60392914D01*
X114509524Y-60392914D02*
X114557143Y-60297676D01*
X114557143Y-60297676D02*
X114652381Y-60202438D01*
X114652381Y-60202438D02*
X114795238Y-60154819D01*
X114795238Y-60154819D02*
X114890476Y-60154819D01*
X114890476Y-60154819D02*
X115033333Y-60202438D01*
X115033333Y-60202438D02*
X115080952Y-60250057D01*
X115795238Y-60154819D02*
X115795238Y-60869104D01*
X115795238Y-60869104D02*
X115747619Y-61011961D01*
X115747619Y-61011961D02*
X115652381Y-61107200D01*
X115652381Y-61107200D02*
X115509524Y-61154819D01*
X115509524Y-61154819D02*
X115414286Y-61154819D01*
X116747619Y-61154819D02*
X116271429Y-61154819D01*
X116271429Y-61154819D02*
X116271429Y-60154819D01*
X117652381Y-61059580D02*
X117604762Y-61107200D01*
X117604762Y-61107200D02*
X117461905Y-61154819D01*
X117461905Y-61154819D02*
X117366667Y-61154819D01*
X117366667Y-61154819D02*
X117223810Y-61107200D01*
X117223810Y-61107200D02*
X117128572Y-61011961D01*
X117128572Y-61011961D02*
X117080953Y-60916723D01*
X117080953Y-60916723D02*
X117033334Y-60726247D01*
X117033334Y-60726247D02*
X117033334Y-60583390D01*
X117033334Y-60583390D02*
X117080953Y-60392914D01*
X117080953Y-60392914D02*
X117128572Y-60297676D01*
X117128572Y-60297676D02*
X117223810Y-60202438D01*
X117223810Y-60202438D02*
X117366667Y-60154819D01*
X117366667Y-60154819D02*
X117461905Y-60154819D01*
X117461905Y-60154819D02*
X117604762Y-60202438D01*
X117604762Y-60202438D02*
X117652381Y-60250057D01*
D11*
X110448605Y-55995856D02*
X110477177Y-55910142D01*
X110477177Y-55910142D02*
X110505748Y-55881571D01*
X110505748Y-55881571D02*
X110562891Y-55852999D01*
X110562891Y-55852999D02*
X110648605Y-55852999D01*
X110648605Y-55852999D02*
X110705748Y-55881571D01*
X110705748Y-55881571D02*
X110734320Y-55910142D01*
X110734320Y-55910142D02*
X110762891Y-55967285D01*
X110762891Y-55967285D02*
X110762891Y-56195856D01*
X110762891Y-56195856D02*
X110162891Y-56195856D01*
X110162891Y-56195856D02*
X110162891Y-55995856D01*
X110162891Y-55995856D02*
X110191462Y-55938714D01*
X110191462Y-55938714D02*
X110220034Y-55910142D01*
X110220034Y-55910142D02*
X110277177Y-55881571D01*
X110277177Y-55881571D02*
X110334320Y-55881571D01*
X110334320Y-55881571D02*
X110391462Y-55910142D01*
X110391462Y-55910142D02*
X110420034Y-55938714D01*
X110420034Y-55938714D02*
X110448605Y-55995856D01*
X110448605Y-55995856D02*
X110448605Y-56195856D01*
X110162891Y-55310142D02*
X110162891Y-55595856D01*
X110162891Y-55595856D02*
X110448605Y-55624428D01*
X110448605Y-55624428D02*
X110420034Y-55595856D01*
X110420034Y-55595856D02*
X110391462Y-55538714D01*
X110391462Y-55538714D02*
X110391462Y-55395856D01*
X110391462Y-55395856D02*
X110420034Y-55338714D01*
X110420034Y-55338714D02*
X110448605Y-55310142D01*
X110448605Y-55310142D02*
X110505748Y-55281571D01*
X110505748Y-55281571D02*
X110648605Y-55281571D01*
X110648605Y-55281571D02*
X110705748Y-55310142D01*
X110705748Y-55310142D02*
X110734320Y-55338714D01*
X110734320Y-55338714D02*
X110762891Y-55395856D01*
X110762891Y-55395856D02*
X110762891Y-55538714D01*
X110762891Y-55538714D02*
X110734320Y-55595856D01*
X110734320Y-55595856D02*
X110705748Y-55624428D01*
X84632857Y-56978462D02*
X84575715Y-56949891D01*
X84575715Y-56949891D02*
X84490000Y-56949891D01*
X84490000Y-56949891D02*
X84404286Y-56978462D01*
X84404286Y-56978462D02*
X84347143Y-57035605D01*
X84347143Y-57035605D02*
X84318572Y-57092748D01*
X84318572Y-57092748D02*
X84290000Y-57207034D01*
X84290000Y-57207034D02*
X84290000Y-57292748D01*
X84290000Y-57292748D02*
X84318572Y-57407034D01*
X84318572Y-57407034D02*
X84347143Y-57464177D01*
X84347143Y-57464177D02*
X84404286Y-57521320D01*
X84404286Y-57521320D02*
X84490000Y-57549891D01*
X84490000Y-57549891D02*
X84547143Y-57549891D01*
X84547143Y-57549891D02*
X84632857Y-57521320D01*
X84632857Y-57521320D02*
X84661429Y-57492748D01*
X84661429Y-57492748D02*
X84661429Y-57292748D01*
X84661429Y-57292748D02*
X84547143Y-57292748D01*
X84918572Y-57549891D02*
X84918572Y-56949891D01*
X84918572Y-56949891D02*
X85261429Y-57549891D01*
X85261429Y-57549891D02*
X85261429Y-56949891D01*
X85547143Y-57549891D02*
X85547143Y-56949891D01*
X85547143Y-56949891D02*
X85690000Y-56949891D01*
X85690000Y-56949891D02*
X85775714Y-56978462D01*
X85775714Y-56978462D02*
X85832857Y-57035605D01*
X85832857Y-57035605D02*
X85861428Y-57092748D01*
X85861428Y-57092748D02*
X85890000Y-57207034D01*
X85890000Y-57207034D02*
X85890000Y-57292748D01*
X85890000Y-57292748D02*
X85861428Y-57407034D01*
X85861428Y-57407034D02*
X85832857Y-57464177D01*
X85832857Y-57464177D02*
X85775714Y-57521320D01*
X85775714Y-57521320D02*
X85690000Y-57549891D01*
X85690000Y-57549891D02*
X85547143Y-57549891D01*
X81271429Y-77444320D02*
X81728572Y-77444320D01*
X123021605Y-56249856D02*
X123050177Y-56164142D01*
X123050177Y-56164142D02*
X123078748Y-56135571D01*
X123078748Y-56135571D02*
X123135891Y-56106999D01*
X123135891Y-56106999D02*
X123221605Y-56106999D01*
X123221605Y-56106999D02*
X123278748Y-56135571D01*
X123278748Y-56135571D02*
X123307320Y-56164142D01*
X123307320Y-56164142D02*
X123335891Y-56221285D01*
X123335891Y-56221285D02*
X123335891Y-56449856D01*
X123335891Y-56449856D02*
X122735891Y-56449856D01*
X122735891Y-56449856D02*
X122735891Y-56249856D01*
X122735891Y-56249856D02*
X122764462Y-56192714D01*
X122764462Y-56192714D02*
X122793034Y-56164142D01*
X122793034Y-56164142D02*
X122850177Y-56135571D01*
X122850177Y-56135571D02*
X122907320Y-56135571D01*
X122907320Y-56135571D02*
X122964462Y-56164142D01*
X122964462Y-56164142D02*
X122993034Y-56192714D01*
X122993034Y-56192714D02*
X123021605Y-56249856D01*
X123021605Y-56249856D02*
X123021605Y-56449856D01*
X123335891Y-55535571D02*
X123335891Y-55878428D01*
X123335891Y-55706999D02*
X122735891Y-55706999D01*
X122735891Y-55706999D02*
X122821605Y-55764142D01*
X122821605Y-55764142D02*
X122878748Y-55821285D01*
X122878748Y-55821285D02*
X122907320Y-55878428D01*
X114100000Y-54790891D02*
X114500000Y-54790891D01*
X114500000Y-54790891D02*
X114242857Y-55390891D01*
D12*
X138176095Y-60435895D02*
X138176095Y-59635895D01*
X138518951Y-59712085D02*
X138557047Y-59673990D01*
X138557047Y-59673990D02*
X138633237Y-59635895D01*
X138633237Y-59635895D02*
X138823713Y-59635895D01*
X138823713Y-59635895D02*
X138899904Y-59673990D01*
X138899904Y-59673990D02*
X138937999Y-59712085D01*
X138937999Y-59712085D02*
X138976094Y-59788276D01*
X138976094Y-59788276D02*
X138976094Y-59864466D01*
X138976094Y-59864466D02*
X138937999Y-59978752D01*
X138937999Y-59978752D02*
X138480856Y-60435895D01*
X138480856Y-60435895D02*
X138976094Y-60435895D01*
X139280856Y-60397800D02*
X139395142Y-60435895D01*
X139395142Y-60435895D02*
X139585618Y-60435895D01*
X139585618Y-60435895D02*
X139661809Y-60397800D01*
X139661809Y-60397800D02*
X139699904Y-60359704D01*
X139699904Y-60359704D02*
X139737999Y-60283514D01*
X139737999Y-60283514D02*
X139737999Y-60207323D01*
X139737999Y-60207323D02*
X139699904Y-60131133D01*
X139699904Y-60131133D02*
X139661809Y-60093038D01*
X139661809Y-60093038D02*
X139585618Y-60054942D01*
X139585618Y-60054942D02*
X139433237Y-60016847D01*
X139433237Y-60016847D02*
X139357047Y-59978752D01*
X139357047Y-59978752D02*
X139318952Y-59940657D01*
X139318952Y-59940657D02*
X139280856Y-59864466D01*
X139280856Y-59864466D02*
X139280856Y-59788276D01*
X139280856Y-59788276D02*
X139318952Y-59712085D01*
X139318952Y-59712085D02*
X139357047Y-59673990D01*
X139357047Y-59673990D02*
X139433237Y-59635895D01*
X139433237Y-59635895D02*
X139623714Y-59635895D01*
X139623714Y-59635895D02*
X139737999Y-59673990D01*
D11*
X98034320Y-56016428D02*
X98062891Y-56073571D01*
X98062891Y-56073571D02*
X98062891Y-56187857D01*
X98062891Y-56187857D02*
X98034320Y-56244999D01*
X98034320Y-56244999D02*
X97977177Y-56273571D01*
X97977177Y-56273571D02*
X97748605Y-56273571D01*
X97748605Y-56273571D02*
X97691462Y-56244999D01*
X97691462Y-56244999D02*
X97662891Y-56187857D01*
X97662891Y-56187857D02*
X97662891Y-56073571D01*
X97662891Y-56073571D02*
X97691462Y-56016428D01*
X97691462Y-56016428D02*
X97748605Y-55987857D01*
X97748605Y-55987857D02*
X97805748Y-55987857D01*
X97805748Y-55987857D02*
X97862891Y-56273571D01*
X97662891Y-55730713D02*
X98062891Y-55730713D01*
X97720034Y-55730713D02*
X97691462Y-55702142D01*
X97691462Y-55702142D02*
X97662891Y-55644999D01*
X97662891Y-55644999D02*
X97662891Y-55559285D01*
X97662891Y-55559285D02*
X97691462Y-55502142D01*
X97691462Y-55502142D02*
X97748605Y-55473571D01*
X97748605Y-55473571D02*
X98062891Y-55473571D01*
X97662891Y-55273571D02*
X97662891Y-55044999D01*
X97462891Y-55187856D02*
X97977177Y-55187856D01*
X97977177Y-55187856D02*
X98034320Y-55159285D01*
X98034320Y-55159285D02*
X98062891Y-55102142D01*
X98062891Y-55102142D02*
X98062891Y-55044999D01*
X98034320Y-54616428D02*
X98062891Y-54673571D01*
X98062891Y-54673571D02*
X98062891Y-54787857D01*
X98062891Y-54787857D02*
X98034320Y-54844999D01*
X98034320Y-54844999D02*
X97977177Y-54873571D01*
X97977177Y-54873571D02*
X97748605Y-54873571D01*
X97748605Y-54873571D02*
X97691462Y-54844999D01*
X97691462Y-54844999D02*
X97662891Y-54787857D01*
X97662891Y-54787857D02*
X97662891Y-54673571D01*
X97662891Y-54673571D02*
X97691462Y-54616428D01*
X97691462Y-54616428D02*
X97748605Y-54587857D01*
X97748605Y-54587857D02*
X97805748Y-54587857D01*
X97805748Y-54587857D02*
X97862891Y-54873571D01*
X98062891Y-54330713D02*
X97662891Y-54330713D01*
X97777177Y-54330713D02*
X97720034Y-54302142D01*
X97720034Y-54302142D02*
X97691462Y-54273571D01*
X97691462Y-54273571D02*
X97662891Y-54216428D01*
X97662891Y-54216428D02*
X97662891Y-54159285D01*
X105527320Y-56173571D02*
X105555891Y-56116428D01*
X105555891Y-56116428D02*
X105555891Y-56002142D01*
X105555891Y-56002142D02*
X105527320Y-55944999D01*
X105527320Y-55944999D02*
X105470177Y-55916428D01*
X105470177Y-55916428D02*
X105441605Y-55916428D01*
X105441605Y-55916428D02*
X105384462Y-55944999D01*
X105384462Y-55944999D02*
X105355891Y-56002142D01*
X105355891Y-56002142D02*
X105355891Y-56087857D01*
X105355891Y-56087857D02*
X105327320Y-56144999D01*
X105327320Y-56144999D02*
X105270177Y-56173571D01*
X105270177Y-56173571D02*
X105241605Y-56173571D01*
X105241605Y-56173571D02*
X105184462Y-56144999D01*
X105184462Y-56144999D02*
X105155891Y-56087857D01*
X105155891Y-56087857D02*
X105155891Y-56002142D01*
X105155891Y-56002142D02*
X105184462Y-55944999D01*
X105155891Y-55745000D02*
X105155891Y-55516428D01*
X104955891Y-55659285D02*
X105470177Y-55659285D01*
X105470177Y-55659285D02*
X105527320Y-55630714D01*
X105527320Y-55630714D02*
X105555891Y-55573571D01*
X105555891Y-55573571D02*
X105555891Y-55516428D01*
X105555891Y-55059286D02*
X105241605Y-55059286D01*
X105241605Y-55059286D02*
X105184462Y-55087857D01*
X105184462Y-55087857D02*
X105155891Y-55145000D01*
X105155891Y-55145000D02*
X105155891Y-55259286D01*
X105155891Y-55259286D02*
X105184462Y-55316428D01*
X105527320Y-55059286D02*
X105555891Y-55116428D01*
X105555891Y-55116428D02*
X105555891Y-55259286D01*
X105555891Y-55259286D02*
X105527320Y-55316428D01*
X105527320Y-55316428D02*
X105470177Y-55345000D01*
X105470177Y-55345000D02*
X105413034Y-55345000D01*
X105413034Y-55345000D02*
X105355891Y-55316428D01*
X105355891Y-55316428D02*
X105327320Y-55259286D01*
X105327320Y-55259286D02*
X105327320Y-55116428D01*
X105327320Y-55116428D02*
X105298748Y-55059286D01*
X105555891Y-54773571D02*
X105155891Y-54773571D01*
X105270177Y-54773571D02*
X105213034Y-54745000D01*
X105213034Y-54745000D02*
X105184462Y-54716429D01*
X105184462Y-54716429D02*
X105155891Y-54659286D01*
X105155891Y-54659286D02*
X105155891Y-54602143D01*
X105155891Y-54487857D02*
X105155891Y-54259285D01*
X104955891Y-54402142D02*
X105470177Y-54402142D01*
X105470177Y-54402142D02*
X105527320Y-54373571D01*
X105527320Y-54373571D02*
X105555891Y-54316428D01*
X105555891Y-54316428D02*
X105555891Y-54259285D01*
X128415891Y-56100571D02*
X127815891Y-56100571D01*
X128387320Y-56100571D02*
X128415891Y-56157713D01*
X128415891Y-56157713D02*
X128415891Y-56271999D01*
X128415891Y-56271999D02*
X128387320Y-56329142D01*
X128387320Y-56329142D02*
X128358748Y-56357713D01*
X128358748Y-56357713D02*
X128301605Y-56386285D01*
X128301605Y-56386285D02*
X128130177Y-56386285D01*
X128130177Y-56386285D02*
X128073034Y-56357713D01*
X128073034Y-56357713D02*
X128044462Y-56329142D01*
X128044462Y-56329142D02*
X128015891Y-56271999D01*
X128015891Y-56271999D02*
X128015891Y-56157713D01*
X128015891Y-56157713D02*
X128044462Y-56100571D01*
X128415891Y-55729142D02*
X128387320Y-55786285D01*
X128387320Y-55786285D02*
X128358748Y-55814856D01*
X128358748Y-55814856D02*
X128301605Y-55843428D01*
X128301605Y-55843428D02*
X128130177Y-55843428D01*
X128130177Y-55843428D02*
X128073034Y-55814856D01*
X128073034Y-55814856D02*
X128044462Y-55786285D01*
X128044462Y-55786285D02*
X128015891Y-55729142D01*
X128015891Y-55729142D02*
X128015891Y-55643428D01*
X128015891Y-55643428D02*
X128044462Y-55586285D01*
X128044462Y-55586285D02*
X128073034Y-55557714D01*
X128073034Y-55557714D02*
X128130177Y-55529142D01*
X128130177Y-55529142D02*
X128301605Y-55529142D01*
X128301605Y-55529142D02*
X128358748Y-55557714D01*
X128358748Y-55557714D02*
X128387320Y-55586285D01*
X128387320Y-55586285D02*
X128415891Y-55643428D01*
X128415891Y-55643428D02*
X128415891Y-55729142D01*
X128015891Y-55329142D02*
X128415891Y-55214857D01*
X128415891Y-55214857D02*
X128130177Y-55100571D01*
X128130177Y-55100571D02*
X128415891Y-54986285D01*
X128415891Y-54986285D02*
X128015891Y-54871999D01*
X128015891Y-54643428D02*
X128415891Y-54643428D01*
X128073034Y-54643428D02*
X128044462Y-54614857D01*
X128044462Y-54614857D02*
X128015891Y-54557714D01*
X128015891Y-54557714D02*
X128015891Y-54472000D01*
X128015891Y-54472000D02*
X128044462Y-54414857D01*
X128044462Y-54414857D02*
X128101605Y-54386286D01*
X128101605Y-54386286D02*
X128415891Y-54386286D01*
X109105713Y-55390891D02*
X108762856Y-55390891D01*
X108934285Y-55390891D02*
X108934285Y-54790891D01*
X108934285Y-54790891D02*
X108877142Y-54876605D01*
X108877142Y-54876605D02*
X108819999Y-54933748D01*
X108819999Y-54933748D02*
X108762856Y-54962320D01*
X109620000Y-54990891D02*
X109620000Y-55390891D01*
X109477142Y-54762320D02*
X109334285Y-55190891D01*
X109334285Y-55190891D02*
X109705714Y-55190891D01*
X100447320Y-56041857D02*
X100475891Y-56098999D01*
X100475891Y-56098999D02*
X100475891Y-56213285D01*
X100475891Y-56213285D02*
X100447320Y-56270428D01*
X100447320Y-56270428D02*
X100418748Y-56298999D01*
X100418748Y-56298999D02*
X100361605Y-56327571D01*
X100361605Y-56327571D02*
X100190177Y-56327571D01*
X100190177Y-56327571D02*
X100133034Y-56298999D01*
X100133034Y-56298999D02*
X100104462Y-56270428D01*
X100104462Y-56270428D02*
X100075891Y-56213285D01*
X100075891Y-56213285D02*
X100075891Y-56098999D01*
X100075891Y-56098999D02*
X100104462Y-56041857D01*
X100475891Y-55698999D02*
X100447320Y-55756142D01*
X100447320Y-55756142D02*
X100418748Y-55784713D01*
X100418748Y-55784713D02*
X100361605Y-55813285D01*
X100361605Y-55813285D02*
X100190177Y-55813285D01*
X100190177Y-55813285D02*
X100133034Y-55784713D01*
X100133034Y-55784713D02*
X100104462Y-55756142D01*
X100104462Y-55756142D02*
X100075891Y-55698999D01*
X100075891Y-55698999D02*
X100075891Y-55613285D01*
X100075891Y-55613285D02*
X100104462Y-55556142D01*
X100104462Y-55556142D02*
X100133034Y-55527571D01*
X100133034Y-55527571D02*
X100190177Y-55498999D01*
X100190177Y-55498999D02*
X100361605Y-55498999D01*
X100361605Y-55498999D02*
X100418748Y-55527571D01*
X100418748Y-55527571D02*
X100447320Y-55556142D01*
X100447320Y-55556142D02*
X100475891Y-55613285D01*
X100475891Y-55613285D02*
X100475891Y-55698999D01*
X100475891Y-55241856D02*
X100075891Y-55241856D01*
X99875891Y-55241856D02*
X99904462Y-55270428D01*
X99904462Y-55270428D02*
X99933034Y-55241856D01*
X99933034Y-55241856D02*
X99904462Y-55213285D01*
X99904462Y-55213285D02*
X99875891Y-55241856D01*
X99875891Y-55241856D02*
X99933034Y-55241856D01*
X100075891Y-54956142D02*
X100475891Y-54956142D01*
X100133034Y-54956142D02*
X100104462Y-54927571D01*
X100104462Y-54927571D02*
X100075891Y-54870428D01*
X100075891Y-54870428D02*
X100075891Y-54784714D01*
X100075891Y-54784714D02*
X100104462Y-54727571D01*
X100104462Y-54727571D02*
X100161605Y-54699000D01*
X100161605Y-54699000D02*
X100475891Y-54699000D01*
X94995891Y-56254570D02*
X95595891Y-56254570D01*
X95024462Y-56254570D02*
X94995891Y-56197428D01*
X94995891Y-56197428D02*
X94995891Y-56083142D01*
X94995891Y-56083142D02*
X95024462Y-56025999D01*
X95024462Y-56025999D02*
X95053034Y-55997428D01*
X95053034Y-55997428D02*
X95110177Y-55968856D01*
X95110177Y-55968856D02*
X95281605Y-55968856D01*
X95281605Y-55968856D02*
X95338748Y-55997428D01*
X95338748Y-55997428D02*
X95367320Y-56025999D01*
X95367320Y-56025999D02*
X95395891Y-56083142D01*
X95395891Y-56083142D02*
X95395891Y-56197428D01*
X95395891Y-56197428D02*
X95367320Y-56254570D01*
X94995891Y-55768856D02*
X95395891Y-55654571D01*
X95395891Y-55654571D02*
X95110177Y-55540285D01*
X95110177Y-55540285D02*
X95395891Y-55425999D01*
X95395891Y-55425999D02*
X94995891Y-55311713D01*
X95395891Y-55083142D02*
X94995891Y-55083142D01*
X95110177Y-55083142D02*
X95053034Y-55054571D01*
X95053034Y-55054571D02*
X95024462Y-55026000D01*
X95024462Y-55026000D02*
X94995891Y-54968857D01*
X94995891Y-54968857D02*
X94995891Y-54911714D01*
X116725713Y-55390891D02*
X116382856Y-55390891D01*
X116554285Y-55390891D02*
X116554285Y-54790891D01*
X116554285Y-54790891D02*
X116497142Y-54876605D01*
X116497142Y-54876605D02*
X116439999Y-54933748D01*
X116439999Y-54933748D02*
X116382856Y-54962320D01*
X116925714Y-54790891D02*
X117297142Y-54790891D01*
X117297142Y-54790891D02*
X117097142Y-55019462D01*
X117097142Y-55019462D02*
X117182857Y-55019462D01*
X117182857Y-55019462D02*
X117240000Y-55048034D01*
X117240000Y-55048034D02*
X117268571Y-55076605D01*
X117268571Y-55076605D02*
X117297142Y-55133748D01*
X117297142Y-55133748D02*
X117297142Y-55276605D01*
X117297142Y-55276605D02*
X117268571Y-55333748D01*
X117268571Y-55333748D02*
X117240000Y-55362320D01*
X117240000Y-55362320D02*
X117182857Y-55390891D01*
X117182857Y-55390891D02*
X117011428Y-55390891D01*
X117011428Y-55390891D02*
X116954285Y-55362320D01*
X116954285Y-55362320D02*
X116925714Y-55333748D01*
X133622891Y-56281571D02*
X133594320Y-56338714D01*
X133594320Y-56338714D02*
X133537177Y-56367285D01*
X133537177Y-56367285D02*
X133022891Y-56367285D01*
X133594320Y-55824428D02*
X133622891Y-55881571D01*
X133622891Y-55881571D02*
X133622891Y-55995857D01*
X133622891Y-55995857D02*
X133594320Y-56052999D01*
X133594320Y-56052999D02*
X133537177Y-56081571D01*
X133537177Y-56081571D02*
X133308605Y-56081571D01*
X133308605Y-56081571D02*
X133251462Y-56052999D01*
X133251462Y-56052999D02*
X133222891Y-55995857D01*
X133222891Y-55995857D02*
X133222891Y-55881571D01*
X133222891Y-55881571D02*
X133251462Y-55824428D01*
X133251462Y-55824428D02*
X133308605Y-55795857D01*
X133308605Y-55795857D02*
X133365748Y-55795857D01*
X133365748Y-55795857D02*
X133422891Y-56081571D01*
X133222891Y-55624428D02*
X133222891Y-55395856D01*
X133622891Y-55538713D02*
X133108605Y-55538713D01*
X133108605Y-55538713D02*
X133051462Y-55510142D01*
X133051462Y-55510142D02*
X133022891Y-55452999D01*
X133022891Y-55452999D02*
X133022891Y-55395856D01*
X133222891Y-55281571D02*
X133222891Y-55052999D01*
X133022891Y-55195856D02*
X133537177Y-55195856D01*
X133537177Y-55195856D02*
X133594320Y-55167285D01*
X133594320Y-55167285D02*
X133622891Y-55110142D01*
X133622891Y-55110142D02*
X133622891Y-55052999D01*
X130955891Y-56398999D02*
X130555891Y-56398999D01*
X130670177Y-56398999D02*
X130613034Y-56370428D01*
X130613034Y-56370428D02*
X130584462Y-56341857D01*
X130584462Y-56341857D02*
X130555891Y-56284714D01*
X130555891Y-56284714D02*
X130555891Y-56227571D01*
X130955891Y-56027570D02*
X130555891Y-56027570D01*
X130355891Y-56027570D02*
X130384462Y-56056142D01*
X130384462Y-56056142D02*
X130413034Y-56027570D01*
X130413034Y-56027570D02*
X130384462Y-55998999D01*
X130384462Y-55998999D02*
X130355891Y-56027570D01*
X130355891Y-56027570D02*
X130413034Y-56027570D01*
X130555891Y-55484714D02*
X131041605Y-55484714D01*
X131041605Y-55484714D02*
X131098748Y-55513285D01*
X131098748Y-55513285D02*
X131127320Y-55541856D01*
X131127320Y-55541856D02*
X131155891Y-55598999D01*
X131155891Y-55598999D02*
X131155891Y-55684714D01*
X131155891Y-55684714D02*
X131127320Y-55741856D01*
X130927320Y-55484714D02*
X130955891Y-55541856D01*
X130955891Y-55541856D02*
X130955891Y-55656142D01*
X130955891Y-55656142D02*
X130927320Y-55713285D01*
X130927320Y-55713285D02*
X130898748Y-55741856D01*
X130898748Y-55741856D02*
X130841605Y-55770428D01*
X130841605Y-55770428D02*
X130670177Y-55770428D01*
X130670177Y-55770428D02*
X130613034Y-55741856D01*
X130613034Y-55741856D02*
X130584462Y-55713285D01*
X130584462Y-55713285D02*
X130555891Y-55656142D01*
X130555891Y-55656142D02*
X130555891Y-55541856D01*
X130555891Y-55541856D02*
X130584462Y-55484714D01*
X130955891Y-55198999D02*
X130355891Y-55198999D01*
X130955891Y-54941857D02*
X130641605Y-54941857D01*
X130641605Y-54941857D02*
X130584462Y-54970428D01*
X130584462Y-54970428D02*
X130555891Y-55027571D01*
X130555891Y-55027571D02*
X130555891Y-55113285D01*
X130555891Y-55113285D02*
X130584462Y-55170428D01*
X130584462Y-55170428D02*
X130613034Y-55198999D01*
X130555891Y-54741857D02*
X130555891Y-54513285D01*
X130355891Y-54656142D02*
X130870177Y-54656142D01*
X130870177Y-54656142D02*
X130927320Y-54627571D01*
X130927320Y-54627571D02*
X130955891Y-54570428D01*
X130955891Y-54570428D02*
X130955891Y-54513285D01*
D10*
X81338095Y-64854819D02*
X81338095Y-63854819D01*
X81338095Y-64331009D02*
X81909523Y-64331009D01*
X81909523Y-64854819D02*
X81909523Y-63854819D01*
X82909523Y-64854819D02*
X82338095Y-64854819D01*
X82623809Y-64854819D02*
X82623809Y-63854819D01*
X82623809Y-63854819D02*
X82528571Y-63997676D01*
X82528571Y-63997676D02*
X82433333Y-64092914D01*
X82433333Y-64092914D02*
X82338095Y-64140533D01*
X139338095Y-64874819D02*
X139338095Y-63874819D01*
X139338095Y-64351009D02*
X139909523Y-64351009D01*
X139909523Y-64874819D02*
X139909523Y-63874819D01*
X140338095Y-63970057D02*
X140385714Y-63922438D01*
X140385714Y-63922438D02*
X140480952Y-63874819D01*
X140480952Y-63874819D02*
X140719047Y-63874819D01*
X140719047Y-63874819D02*
X140814285Y-63922438D01*
X140814285Y-63922438D02*
X140861904Y-63970057D01*
X140861904Y-63970057D02*
X140909523Y-64065295D01*
X140909523Y-64065295D02*
X140909523Y-64160533D01*
X140909523Y-64160533D02*
X140861904Y-64303390D01*
X140861904Y-64303390D02*
X140290476Y-64874819D01*
X140290476Y-64874819D02*
X140909523Y-64874819D01*
X85733333Y-77754819D02*
X85400000Y-77278628D01*
X85161905Y-77754819D02*
X85161905Y-76754819D01*
X85161905Y-76754819D02*
X85542857Y-76754819D01*
X85542857Y-76754819D02*
X85638095Y-76802438D01*
X85638095Y-76802438D02*
X85685714Y-76850057D01*
X85685714Y-76850057D02*
X85733333Y-76945295D01*
X85733333Y-76945295D02*
X85733333Y-77088152D01*
X85733333Y-77088152D02*
X85685714Y-77183390D01*
X85685714Y-77183390D02*
X85638095Y-77231009D01*
X85638095Y-77231009D02*
X85542857Y-77278628D01*
X85542857Y-77278628D02*
X85161905Y-77278628D01*
X86685714Y-77754819D02*
X86114286Y-77754819D01*
X86400000Y-77754819D02*
X86400000Y-76754819D01*
X86400000Y-76754819D02*
X86304762Y-76897676D01*
X86304762Y-76897676D02*
X86209524Y-76992914D01*
X86209524Y-76992914D02*
X86114286Y-77040533D01*
X90233333Y-76254819D02*
X89900000Y-75778628D01*
X89661905Y-76254819D02*
X89661905Y-75254819D01*
X89661905Y-75254819D02*
X90042857Y-75254819D01*
X90042857Y-75254819D02*
X90138095Y-75302438D01*
X90138095Y-75302438D02*
X90185714Y-75350057D01*
X90185714Y-75350057D02*
X90233333Y-75445295D01*
X90233333Y-75445295D02*
X90233333Y-75588152D01*
X90233333Y-75588152D02*
X90185714Y-75683390D01*
X90185714Y-75683390D02*
X90138095Y-75731009D01*
X90138095Y-75731009D02*
X90042857Y-75778628D01*
X90042857Y-75778628D02*
X89661905Y-75778628D01*
X90614286Y-75350057D02*
X90661905Y-75302438D01*
X90661905Y-75302438D02*
X90757143Y-75254819D01*
X90757143Y-75254819D02*
X90995238Y-75254819D01*
X90995238Y-75254819D02*
X91090476Y-75302438D01*
X91090476Y-75302438D02*
X91138095Y-75350057D01*
X91138095Y-75350057D02*
X91185714Y-75445295D01*
X91185714Y-75445295D02*
X91185714Y-75540533D01*
X91185714Y-75540533D02*
X91138095Y-75683390D01*
X91138095Y-75683390D02*
X90566667Y-76254819D01*
X90566667Y-76254819D02*
X91185714Y-76254819D01*
X90074761Y-70273057D02*
X89979523Y-70225438D01*
X89979523Y-70225438D02*
X89884285Y-70130200D01*
X89884285Y-70130200D02*
X89741428Y-69987342D01*
X89741428Y-69987342D02*
X89646190Y-69939723D01*
X89646190Y-69939723D02*
X89550952Y-69939723D01*
X89598571Y-70177819D02*
X89503333Y-70130200D01*
X89503333Y-70130200D02*
X89408095Y-70034961D01*
X89408095Y-70034961D02*
X89360476Y-69844485D01*
X89360476Y-69844485D02*
X89360476Y-69511152D01*
X89360476Y-69511152D02*
X89408095Y-69320676D01*
X89408095Y-69320676D02*
X89503333Y-69225438D01*
X89503333Y-69225438D02*
X89598571Y-69177819D01*
X89598571Y-69177819D02*
X89789047Y-69177819D01*
X89789047Y-69177819D02*
X89884285Y-69225438D01*
X89884285Y-69225438D02*
X89979523Y-69320676D01*
X89979523Y-69320676D02*
X90027142Y-69511152D01*
X90027142Y-69511152D02*
X90027142Y-69844485D01*
X90027142Y-69844485D02*
X89979523Y-70034961D01*
X89979523Y-70034961D02*
X89884285Y-70130200D01*
X89884285Y-70130200D02*
X89789047Y-70177819D01*
X89789047Y-70177819D02*
X89598571Y-70177819D01*
X90979523Y-70177819D02*
X90408095Y-70177819D01*
X90693809Y-70177819D02*
X90693809Y-69177819D01*
X90693809Y-69177819D02*
X90598571Y-69320676D01*
X90598571Y-69320676D02*
X90503333Y-69415914D01*
X90503333Y-69415914D02*
X90408095Y-69463533D01*
X90384333Y-68177580D02*
X90336714Y-68225200D01*
X90336714Y-68225200D02*
X90193857Y-68272819D01*
X90193857Y-68272819D02*
X90098619Y-68272819D01*
X90098619Y-68272819D02*
X89955762Y-68225200D01*
X89955762Y-68225200D02*
X89860524Y-68129961D01*
X89860524Y-68129961D02*
X89812905Y-68034723D01*
X89812905Y-68034723D02*
X89765286Y-67844247D01*
X89765286Y-67844247D02*
X89765286Y-67701390D01*
X89765286Y-67701390D02*
X89812905Y-67510914D01*
X89812905Y-67510914D02*
X89860524Y-67415676D01*
X89860524Y-67415676D02*
X89955762Y-67320438D01*
X89955762Y-67320438D02*
X90098619Y-67272819D01*
X90098619Y-67272819D02*
X90193857Y-67272819D01*
X90193857Y-67272819D02*
X90336714Y-67320438D01*
X90336714Y-67320438D02*
X90384333Y-67368057D01*
X91336714Y-68272819D02*
X90765286Y-68272819D01*
X91051000Y-68272819D02*
X91051000Y-67272819D01*
X91051000Y-67272819D02*
X90955762Y-67415676D01*
X90955762Y-67415676D02*
X90860524Y-67510914D01*
X90860524Y-67510914D02*
X90765286Y-67558533D01*
X106556666Y-51270819D02*
X106556666Y-51985104D01*
X106556666Y-51985104D02*
X106509047Y-52127961D01*
X106509047Y-52127961D02*
X106413809Y-52223200D01*
X106413809Y-52223200D02*
X106270952Y-52270819D01*
X106270952Y-52270819D02*
X106175714Y-52270819D01*
X107461428Y-51604152D02*
X107461428Y-52270819D01*
X107223333Y-51223200D02*
X106985238Y-51937485D01*
X106985238Y-51937485D02*
X107604285Y-51937485D01*
X138731666Y-49844819D02*
X138731666Y-50559104D01*
X138731666Y-50559104D02*
X138684047Y-50701961D01*
X138684047Y-50701961D02*
X138588809Y-50797200D01*
X138588809Y-50797200D02*
X138445952Y-50844819D01*
X138445952Y-50844819D02*
X138350714Y-50844819D01*
X139112619Y-49844819D02*
X139779285Y-49844819D01*
X139779285Y-49844819D02*
X139350714Y-50844819D01*
X82166666Y-51554819D02*
X82166666Y-52269104D01*
X82166666Y-52269104D02*
X82119047Y-52411961D01*
X82119047Y-52411961D02*
X82023809Y-52507200D01*
X82023809Y-52507200D02*
X81880952Y-52554819D01*
X81880952Y-52554819D02*
X81785714Y-52554819D01*
X82785714Y-51983390D02*
X82690476Y-51935771D01*
X82690476Y-51935771D02*
X82642857Y-51888152D01*
X82642857Y-51888152D02*
X82595238Y-51792914D01*
X82595238Y-51792914D02*
X82595238Y-51745295D01*
X82595238Y-51745295D02*
X82642857Y-51650057D01*
X82642857Y-51650057D02*
X82690476Y-51602438D01*
X82690476Y-51602438D02*
X82785714Y-51554819D01*
X82785714Y-51554819D02*
X82976190Y-51554819D01*
X82976190Y-51554819D02*
X83071428Y-51602438D01*
X83071428Y-51602438D02*
X83119047Y-51650057D01*
X83119047Y-51650057D02*
X83166666Y-51745295D01*
X83166666Y-51745295D02*
X83166666Y-51792914D01*
X83166666Y-51792914D02*
X83119047Y-51888152D01*
X83119047Y-51888152D02*
X83071428Y-51935771D01*
X83071428Y-51935771D02*
X82976190Y-51983390D01*
X82976190Y-51983390D02*
X82785714Y-51983390D01*
X82785714Y-51983390D02*
X82690476Y-52031009D01*
X82690476Y-52031009D02*
X82642857Y-52078628D01*
X82642857Y-52078628D02*
X82595238Y-52173866D01*
X82595238Y-52173866D02*
X82595238Y-52364342D01*
X82595238Y-52364342D02*
X82642857Y-52459580D01*
X82642857Y-52459580D02*
X82690476Y-52507200D01*
X82690476Y-52507200D02*
X82785714Y-52554819D01*
X82785714Y-52554819D02*
X82976190Y-52554819D01*
X82976190Y-52554819D02*
X83071428Y-52507200D01*
X83071428Y-52507200D02*
X83119047Y-52459580D01*
X83119047Y-52459580D02*
X83166666Y-52364342D01*
X83166666Y-52364342D02*
X83166666Y-52173866D01*
X83166666Y-52173866D02*
X83119047Y-52078628D01*
X83119047Y-52078628D02*
X83071428Y-52031009D01*
X83071428Y-52031009D02*
X82976190Y-51983390D01*
X112411666Y-57504819D02*
X112411666Y-58219104D01*
X112411666Y-58219104D02*
X112364047Y-58361961D01*
X112364047Y-58361961D02*
X112268809Y-58457200D01*
X112268809Y-58457200D02*
X112125952Y-58504819D01*
X112125952Y-58504819D02*
X112030714Y-58504819D01*
X113364047Y-57504819D02*
X112887857Y-57504819D01*
X112887857Y-57504819D02*
X112840238Y-57981009D01*
X112840238Y-57981009D02*
X112887857Y-57933390D01*
X112887857Y-57933390D02*
X112983095Y-57885771D01*
X112983095Y-57885771D02*
X113221190Y-57885771D01*
X113221190Y-57885771D02*
X113316428Y-57933390D01*
X113316428Y-57933390D02*
X113364047Y-57981009D01*
X113364047Y-57981009D02*
X113411666Y-58076247D01*
X113411666Y-58076247D02*
X113411666Y-58314342D01*
X113411666Y-58314342D02*
X113364047Y-58409580D01*
X113364047Y-58409580D02*
X113316428Y-58457200D01*
X113316428Y-58457200D02*
X113221190Y-58504819D01*
X113221190Y-58504819D02*
X112983095Y-58504819D01*
X112983095Y-58504819D02*
X112887857Y-58457200D01*
X112887857Y-58457200D02*
X112840238Y-58409580D01*
X90455761Y-74083057D02*
X90360523Y-74035438D01*
X90360523Y-74035438D02*
X90265285Y-73940200D01*
X90265285Y-73940200D02*
X90122428Y-73797342D01*
X90122428Y-73797342D02*
X90027190Y-73749723D01*
X90027190Y-73749723D02*
X89931952Y-73749723D01*
X89979571Y-73987819D02*
X89884333Y-73940200D01*
X89884333Y-73940200D02*
X89789095Y-73844961D01*
X89789095Y-73844961D02*
X89741476Y-73654485D01*
X89741476Y-73654485D02*
X89741476Y-73321152D01*
X89741476Y-73321152D02*
X89789095Y-73130676D01*
X89789095Y-73130676D02*
X89884333Y-73035438D01*
X89884333Y-73035438D02*
X89979571Y-72987819D01*
X89979571Y-72987819D02*
X90170047Y-72987819D01*
X90170047Y-72987819D02*
X90265285Y-73035438D01*
X90265285Y-73035438D02*
X90360523Y-73130676D01*
X90360523Y-73130676D02*
X90408142Y-73321152D01*
X90408142Y-73321152D02*
X90408142Y-73654485D01*
X90408142Y-73654485D02*
X90360523Y-73844961D01*
X90360523Y-73844961D02*
X90265285Y-73940200D01*
X90265285Y-73940200D02*
X90170047Y-73987819D01*
X90170047Y-73987819D02*
X89979571Y-73987819D01*
X90789095Y-73083057D02*
X90836714Y-73035438D01*
X90836714Y-73035438D02*
X90931952Y-72987819D01*
X90931952Y-72987819D02*
X91170047Y-72987819D01*
X91170047Y-72987819D02*
X91265285Y-73035438D01*
X91265285Y-73035438D02*
X91312904Y-73083057D01*
X91312904Y-73083057D02*
X91360523Y-73178295D01*
X91360523Y-73178295D02*
X91360523Y-73273533D01*
X91360523Y-73273533D02*
X91312904Y-73416390D01*
X91312904Y-73416390D02*
X90741476Y-73987819D01*
X90741476Y-73987819D02*
X91360523Y-73987819D01*
X83166666Y-76754819D02*
X83166666Y-77469104D01*
X83166666Y-77469104D02*
X83119047Y-77611961D01*
X83119047Y-77611961D02*
X83023809Y-77707200D01*
X83023809Y-77707200D02*
X82880952Y-77754819D01*
X82880952Y-77754819D02*
X82785714Y-77754819D01*
X83595238Y-76850057D02*
X83642857Y-76802438D01*
X83642857Y-76802438D02*
X83738095Y-76754819D01*
X83738095Y-76754819D02*
X83976190Y-76754819D01*
X83976190Y-76754819D02*
X84071428Y-76802438D01*
X84071428Y-76802438D02*
X84119047Y-76850057D01*
X84119047Y-76850057D02*
X84166666Y-76945295D01*
X84166666Y-76945295D02*
X84166666Y-77040533D01*
X84166666Y-77040533D02*
X84119047Y-77183390D01*
X84119047Y-77183390D02*
X83547619Y-77754819D01*
X83547619Y-77754819D02*
X84166666Y-77754819D01*
X91338095Y-76654819D02*
X91338095Y-77464342D01*
X91338095Y-77464342D02*
X91385714Y-77559580D01*
X91385714Y-77559580D02*
X91433333Y-77607200D01*
X91433333Y-77607200D02*
X91528571Y-77654819D01*
X91528571Y-77654819D02*
X91719047Y-77654819D01*
X91719047Y-77654819D02*
X91814285Y-77607200D01*
X91814285Y-77607200D02*
X91861904Y-77559580D01*
X91861904Y-77559580D02*
X91909523Y-77464342D01*
X91909523Y-77464342D02*
X91909523Y-76654819D01*
X92909523Y-77654819D02*
X92338095Y-77654819D01*
X92623809Y-77654819D02*
X92623809Y-76654819D01*
X92623809Y-76654819D02*
X92528571Y-76797676D01*
X92528571Y-76797676D02*
X92433333Y-76892914D01*
X92433333Y-76892914D02*
X92338095Y-76940533D01*
X118792666Y-51016819D02*
X118792666Y-51731104D01*
X118792666Y-51731104D02*
X118745047Y-51873961D01*
X118745047Y-51873961D02*
X118649809Y-51969200D01*
X118649809Y-51969200D02*
X118506952Y-52016819D01*
X118506952Y-52016819D02*
X118411714Y-52016819D01*
X119173619Y-51016819D02*
X119792666Y-51016819D01*
X119792666Y-51016819D02*
X119459333Y-51397771D01*
X119459333Y-51397771D02*
X119602190Y-51397771D01*
X119602190Y-51397771D02*
X119697428Y-51445390D01*
X119697428Y-51445390D02*
X119745047Y-51493009D01*
X119745047Y-51493009D02*
X119792666Y-51588247D01*
X119792666Y-51588247D02*
X119792666Y-51826342D01*
X119792666Y-51826342D02*
X119745047Y-51921580D01*
X119745047Y-51921580D02*
X119697428Y-51969200D01*
X119697428Y-51969200D02*
X119602190Y-52016819D01*
X119602190Y-52016819D02*
X119316476Y-52016819D01*
X119316476Y-52016819D02*
X119221238Y-51969200D01*
X119221238Y-51969200D02*
X119173619Y-51921580D01*
X89553666Y-57493819D02*
X89553666Y-58208104D01*
X89553666Y-58208104D02*
X89506047Y-58350961D01*
X89506047Y-58350961D02*
X89410809Y-58446200D01*
X89410809Y-58446200D02*
X89267952Y-58493819D01*
X89267952Y-58493819D02*
X89172714Y-58493819D01*
X90458428Y-57493819D02*
X90267952Y-57493819D01*
X90267952Y-57493819D02*
X90172714Y-57541438D01*
X90172714Y-57541438D02*
X90125095Y-57589057D01*
X90125095Y-57589057D02*
X90029857Y-57731914D01*
X90029857Y-57731914D02*
X89982238Y-57922390D01*
X89982238Y-57922390D02*
X89982238Y-58303342D01*
X89982238Y-58303342D02*
X90029857Y-58398580D01*
X90029857Y-58398580D02*
X90077476Y-58446200D01*
X90077476Y-58446200D02*
X90172714Y-58493819D01*
X90172714Y-58493819D02*
X90363190Y-58493819D01*
X90363190Y-58493819D02*
X90458428Y-58446200D01*
X90458428Y-58446200D02*
X90506047Y-58398580D01*
X90506047Y-58398580D02*
X90553666Y-58303342D01*
X90553666Y-58303342D02*
X90553666Y-58065247D01*
X90553666Y-58065247D02*
X90506047Y-57970009D01*
X90506047Y-57970009D02*
X90458428Y-57922390D01*
X90458428Y-57922390D02*
X90363190Y-57874771D01*
X90363190Y-57874771D02*
X90172714Y-57874771D01*
X90172714Y-57874771D02*
X90077476Y-57922390D01*
X90077476Y-57922390D02*
X90029857Y-57970009D01*
X90029857Y-57970009D02*
X89982238Y-58065247D01*
X99020333Y-68177580D02*
X98972714Y-68225200D01*
X98972714Y-68225200D02*
X98829857Y-68272819D01*
X98829857Y-68272819D02*
X98734619Y-68272819D01*
X98734619Y-68272819D02*
X98591762Y-68225200D01*
X98591762Y-68225200D02*
X98496524Y-68129961D01*
X98496524Y-68129961D02*
X98448905Y-68034723D01*
X98448905Y-68034723D02*
X98401286Y-67844247D01*
X98401286Y-67844247D02*
X98401286Y-67701390D01*
X98401286Y-67701390D02*
X98448905Y-67510914D01*
X98448905Y-67510914D02*
X98496524Y-67415676D01*
X98496524Y-67415676D02*
X98591762Y-67320438D01*
X98591762Y-67320438D02*
X98734619Y-67272819D01*
X98734619Y-67272819D02*
X98829857Y-67272819D01*
X98829857Y-67272819D02*
X98972714Y-67320438D01*
X98972714Y-67320438D02*
X99020333Y-67368057D01*
X99401286Y-67368057D02*
X99448905Y-67320438D01*
X99448905Y-67320438D02*
X99544143Y-67272819D01*
X99544143Y-67272819D02*
X99782238Y-67272819D01*
X99782238Y-67272819D02*
X99877476Y-67320438D01*
X99877476Y-67320438D02*
X99925095Y-67368057D01*
X99925095Y-67368057D02*
X99972714Y-67463295D01*
X99972714Y-67463295D02*
X99972714Y-67558533D01*
X99972714Y-67558533D02*
X99925095Y-67701390D01*
X99925095Y-67701390D02*
X99353667Y-68272819D01*
X99353667Y-68272819D02*
X99972714Y-68272819D01*
D13*
X88275769Y-76777500D02*
X87801253Y-76777500D01*
X88275769Y-77822500D02*
X87801253Y-77822500D01*
X87801253Y-75277500D02*
X88275769Y-75277500D01*
X87801253Y-76322500D02*
X88275769Y-76322500D01*
X86840000Y-68020000D02*
X86840000Y-68950000D01*
X86840000Y-68020000D02*
X88300000Y-68020000D01*
X86840000Y-71180000D02*
X86840000Y-70250000D01*
X86840000Y-71180000D02*
X89000000Y-71180000D01*
X92569420Y-67816000D02*
X92850580Y-67816000D01*
X92569420Y-68836000D02*
X92850580Y-68836000D01*
X107890000Y-49216000D02*
X113090000Y-49216000D01*
X107890000Y-51816000D02*
X107890000Y-49216000D01*
X107890000Y-54416000D02*
X107890000Y-53086000D01*
X109220000Y-54416000D02*
X107890000Y-54416000D01*
X110490000Y-51816000D02*
X107890000Y-51816000D01*
X110490000Y-54416000D02*
X110490000Y-51816000D01*
X110490000Y-54416000D02*
X113090000Y-54416000D01*
X113090000Y-54416000D02*
X113090000Y-49216000D01*
X137735000Y-51390000D02*
X139065000Y-51390000D01*
X137735000Y-52720000D02*
X137735000Y-51390000D01*
X137735000Y-53990000D02*
X137735000Y-59130000D01*
X137735000Y-53990000D02*
X140395000Y-53990000D01*
X137735000Y-59130000D02*
X140395000Y-59130000D01*
X140395000Y-53990000D02*
X140395000Y-59130000D01*
X78680000Y-53407000D02*
X80010000Y-53407000D01*
X78680000Y-54737000D02*
X78680000Y-53407000D01*
X78680000Y-56007000D02*
X78680000Y-61147000D01*
X78680000Y-56007000D02*
X81280000Y-56007000D01*
X78680000Y-61147000D02*
X83880000Y-61147000D01*
X81280000Y-53407000D02*
X83880000Y-53407000D01*
X81280000Y-56007000D02*
X81280000Y-53407000D01*
X83880000Y-53407000D02*
X83880000Y-61147000D01*
X113745000Y-59380000D02*
X113745000Y-58050000D01*
X115075000Y-59380000D02*
X113745000Y-59380000D01*
X116345000Y-56720000D02*
X134185000Y-56720000D01*
X116345000Y-59380000D02*
X116345000Y-56720000D01*
X116345000Y-59380000D02*
X134185000Y-59380000D01*
X134185000Y-59380000D02*
X134185000Y-56720000D01*
X87311000Y-74693000D02*
X89211000Y-74693000D01*
X88711000Y-72373000D02*
X87311000Y-72373000D01*
X78201000Y-68290000D02*
X85321000Y-68290000D01*
X78201000Y-76110000D02*
X78201000Y-68290000D01*
X78201000Y-76110000D02*
X85321000Y-76110000D01*
X83761000Y-76110000D02*
X83761000Y-68290000D01*
X83821000Y-76350000D02*
X85561000Y-76350000D01*
X85321000Y-76110000D02*
X85321000Y-68290000D01*
X85561000Y-76350000D02*
X85561000Y-74850000D01*
X80228891Y-74557742D02*
G75*
G02*
X80229000Y-73342000I1432109J607742D01*
G01*
X81053258Y-72517891D02*
G75*
G02*
X82269000Y-72518000I607743J-1432112D01*
G01*
X82268742Y-75382109D02*
G75*
G02*
X81053000Y-75382000I-607742J1432109D01*
G01*
X83092385Y-73342413D02*
G75*
G02*
X83216000Y-73950000I-1431385J-607587D01*
G01*
X83216493Y-73922989D02*
G75*
G02*
X83093000Y-74558000I-1555481J-27013D01*
G01*
X83216000Y-70450000D02*
G75*
G02*
X80106000Y-70450000I-1555000J0D01*
G01*
X80106000Y-70450000D02*
G75*
G02*
X83216000Y-70450000I1555000J0D01*
G01*
X91713000Y-71937000D02*
X91713000Y-75697000D01*
X91713000Y-75697000D02*
X92973000Y-75697000D01*
X98533000Y-69687000D02*
X98533000Y-75697000D01*
X98533000Y-75697000D02*
X97273000Y-75697000D01*
X112975000Y-54421000D02*
X112975000Y-49221000D01*
X115575000Y-51821000D02*
X115575000Y-54421000D01*
X115575000Y-54421000D02*
X112975000Y-54421000D01*
X118175000Y-49221000D02*
X112975000Y-49221000D01*
X118175000Y-51821000D02*
X115575000Y-51821000D01*
X118175000Y-51821000D02*
X118175000Y-49221000D01*
X118175000Y-53091000D02*
X118175000Y-54421000D01*
X118175000Y-54421000D02*
X116845000Y-54421000D01*
X90887000Y-59369000D02*
X90887000Y-58039000D01*
X92217000Y-59369000D02*
X90887000Y-59369000D01*
X93487000Y-56709000D02*
X111327000Y-56709000D01*
X93487000Y-59369000D02*
X93487000Y-56709000D01*
X93487000Y-59369000D02*
X111327000Y-59369000D01*
X111327000Y-59369000D02*
X111327000Y-56709000D01*
X96760420Y-67816000D02*
X97041580Y-67816000D01*
X96760420Y-68836000D02*
X97041580Y-68836000D01*
D14*
X143510000Y-65024000D02*
X143499680Y-50291999D01*
X78499680Y-50291999D02*
X78499680Y-76576830D01*
X80400000Y-51400000D02*
G75*
G02*
X79248000Y-51400000I-576000J0D01*
G01*
X79248000Y-51400000D02*
G75*
G02*
X80400000Y-51400000I576000J0D01*
G01*
D15*
X99314000Y-76582066D02*
X99314000Y-71013528D01*
D14*
X140176000Y-48700000D02*
G75*
G02*
X139024000Y-48700000I-576000J0D01*
G01*
X139024000Y-48700000D02*
G75*
G02*
X140176000Y-48700000I576000J0D01*
G01*
X99314000Y-76582066D02*
G75*
G02*
X96314005Y-79576805I-3000000J5266D01*
G01*
X80276000Y-72200000D02*
G75*
G02*
X79124000Y-72200000I-576000J0D01*
G01*
X79124000Y-72200000D02*
G75*
G02*
X80276000Y-72200000I576000J0D01*
G01*
X140499680Y-47291999D02*
X81499680Y-47291999D01*
X81499680Y-79576830D02*
X96314005Y-79576830D01*
X99314000Y-71013528D02*
G75*
G02*
X102313995Y-68018795I3000000J-5272D01*
G01*
D15*
X140510005Y-68018764D02*
X102313995Y-68018764D01*
D14*
X140499680Y-47291999D02*
G75*
G02*
X143499701Y-50291999I20J-3000001D01*
G01*
X78499680Y-50291999D02*
G75*
G02*
X81499680Y-47291980I3000020J-1D01*
G01*
X143510000Y-65024000D02*
G75*
G02*
X140510005Y-68018805I-3000000J5200D01*
G01*
X81499680Y-79576830D02*
G75*
G02*
X78499670Y-76576830I20J3000030D01*
G01*
M02*
