G04 #@! TF.GenerationSoftware,KiCad,Pcbnew,8.0.7*
G04 #@! TF.CreationDate,2025-02-16T20:08:39+00:00*
G04 #@! TF.ProjectId,retropie-hat-2L,72657472-6f70-4696-952d-6861742d324c,rev?*
G04 #@! TF.SameCoordinates,Original*
G04 #@! TF.FileFunction,Soldermask,Bot*
G04 #@! TF.FilePolarity,Negative*
%FSLAX46Y46*%
G04 Gerber Fmt 4.6, Leading zero omitted, Abs format (unit mm)*
G04 Created by KiCad (PCBNEW 8.0.7) date 2025-02-16 20:08:39*
%MOMM*%
%LPD*%
G01*
G04 APERTURE LIST*
%ADD10C,0.100000*%
%ADD11C,3.000000*%
%ADD12R,1.700000X1.700000*%
%ADD13O,1.700000X1.700000*%
%ADD14R,2.400000X2.400000*%
%ADD15C,2.400000*%
G04 #@! TA.AperFunction,Profile*
%ADD16C,0.100000*%
G04 #@! TD*
G04 #@! TA.AperFunction,Profile*
%ADD17C,0.150000*%
G04 #@! TD*
G04 APERTURE END LIST*
D10*
X126492000Y-48895000D02*
X133096000Y-48895000D01*
X133096000Y-51562000D01*
X126492000Y-51562000D01*
X126492000Y-48895000D01*
G36*
X126492000Y-48895000D02*
G01*
X133096000Y-48895000D01*
X133096000Y-51562000D01*
X126492000Y-51562000D01*
X126492000Y-48895000D01*
G37*
D11*
X82040000Y-64310000D03*
X140040000Y-64330000D03*
D12*
X109220000Y-53086000D03*
D13*
X109220000Y-50546000D03*
X111760000Y-53086000D03*
X111760000Y-50546000D03*
D12*
X139065000Y-52720000D03*
D13*
X139065000Y-55260000D03*
X139065000Y-57800000D03*
D12*
X80010000Y-54737000D03*
D13*
X82550000Y-54737000D03*
X80010000Y-57277000D03*
X82550000Y-57277000D03*
X80010000Y-59817000D03*
X82550000Y-59817000D03*
D12*
X115075000Y-58050000D03*
D13*
X117615000Y-58050000D03*
X120155000Y-58050000D03*
X122695000Y-58050000D03*
X125235000Y-58050000D03*
X127775000Y-58050000D03*
X130315000Y-58050000D03*
X132855000Y-58050000D03*
D14*
X81661000Y-73950000D03*
D15*
X81661000Y-70450000D03*
D12*
X116845000Y-53091000D03*
D13*
X114305000Y-53091000D03*
X116845000Y-50551000D03*
X114305000Y-50551000D03*
D12*
X92217000Y-58039000D03*
D13*
X94757000Y-58039000D03*
X97297000Y-58039000D03*
X99837000Y-58039000D03*
X102377000Y-58039000D03*
X104917000Y-58039000D03*
X107457000Y-58039000D03*
X109997000Y-58039000D03*
D12*
X86920000Y-65590000D03*
D13*
X86920000Y-63050000D03*
X89460000Y-65590000D03*
X89460000Y-63050000D03*
X92000000Y-65590000D03*
X92000000Y-63050000D03*
X94540000Y-65590000D03*
X94540000Y-63050000D03*
X97080000Y-65590000D03*
X97080000Y-63050000D03*
X99620000Y-65590000D03*
X99620000Y-63050000D03*
X102160000Y-65590000D03*
X102160000Y-63050000D03*
X104700000Y-65590000D03*
X104700000Y-63050000D03*
X107240000Y-65590000D03*
X107240000Y-63050000D03*
X109780000Y-65590000D03*
X109780000Y-63050000D03*
X112320000Y-65590000D03*
X112320000Y-63050000D03*
X114860000Y-65590000D03*
X114860000Y-63050000D03*
X117400000Y-65590000D03*
X117400000Y-63050000D03*
X119940000Y-65590000D03*
X119940000Y-63050000D03*
X122480000Y-65590000D03*
X122480000Y-63050000D03*
X125020000Y-65590000D03*
X125020000Y-63050000D03*
X127560000Y-65590000D03*
X127560000Y-63050000D03*
X130100000Y-65590000D03*
X130100000Y-63050000D03*
X132640000Y-65590000D03*
X132640000Y-63050000D03*
X135180000Y-65590000D03*
X135180000Y-63050000D03*
D16*
X143510000Y-65024000D02*
X143499680Y-50291999D01*
X78499680Y-50291999D02*
X78499680Y-76576830D01*
X80400000Y-51400000D02*
G75*
G02*
X79248000Y-51400000I-576000J0D01*
G01*
X79248000Y-51400000D02*
G75*
G02*
X80400000Y-51400000I576000J0D01*
G01*
D17*
X99314000Y-76582066D02*
X99314000Y-71013528D01*
D16*
X140176000Y-48700000D02*
G75*
G02*
X139024000Y-48700000I-576000J0D01*
G01*
X139024000Y-48700000D02*
G75*
G02*
X140176000Y-48700000I576000J0D01*
G01*
X99314000Y-76582066D02*
G75*
G02*
X96314005Y-79576805I-3000000J5266D01*
G01*
X80276000Y-72200000D02*
G75*
G02*
X79124000Y-72200000I-576000J0D01*
G01*
X79124000Y-72200000D02*
G75*
G02*
X80276000Y-72200000I576000J0D01*
G01*
X140499680Y-47291999D02*
X81499680Y-47291999D01*
X81499680Y-79576830D02*
X96314005Y-79576830D01*
X99314000Y-71013528D02*
G75*
G02*
X102313995Y-68018795I3000000J-5272D01*
G01*
D17*
X140510005Y-68018764D02*
X102313995Y-68018764D01*
D16*
X140499680Y-47291999D02*
G75*
G02*
X143499701Y-50291999I20J-3000001D01*
G01*
X78499680Y-50291999D02*
G75*
G02*
X81499680Y-47291980I3000020J-1D01*
G01*
X143510000Y-65024000D02*
G75*
G02*
X140510005Y-68018805I-3000000J5200D01*
G01*
X81499680Y-79576830D02*
G75*
G02*
X78499670Y-76576830I20J3000030D01*
G01*
M02*
