G04 #@! TF.GenerationSoftware,KiCad,Pcbnew,(6.0.1)*
G04 #@! TF.CreationDate,2022-12-05T14:44:52+00:00*
G04 #@! TF.ProjectId,retropie-minicade-hat,72657472-6f70-4696-952d-6d696e696361,rev?*
G04 #@! TF.SameCoordinates,Original*
G04 #@! TF.FileFunction,Copper,L2,Inr*
G04 #@! TF.FilePolarity,Positive*
%FSLAX46Y46*%
G04 Gerber Fmt 4.6, Leading zero omitted, Abs format (unit mm)*
G04 Created by KiCad (PCBNEW (6.0.1)) date 2022-12-05 14:44:52*
%MOMM*%
%LPD*%
G01*
G04 APERTURE LIST*
G04 #@! TA.AperFunction,Profile*
%ADD10C,0.100000*%
G04 #@! TD*
G04 #@! TA.AperFunction,Profile*
%ADD11C,0.150000*%
G04 #@! TD*
G04 #@! TA.AperFunction,WasherPad*
%ADD12C,3.000000*%
G04 #@! TD*
G04 #@! TA.AperFunction,ComponentPad*
%ADD13R,1.700000X1.700000*%
G04 #@! TD*
G04 #@! TA.AperFunction,ComponentPad*
%ADD14O,1.700000X1.700000*%
G04 #@! TD*
G04 #@! TA.AperFunction,ComponentPad*
%ADD15R,3.000000X3.000000*%
G04 #@! TD*
G04 #@! TA.AperFunction,ComponentPad*
%ADD16C,3.000000*%
G04 #@! TD*
G04 #@! TA.AperFunction,ViaPad*
%ADD17C,0.600000*%
G04 #@! TD*
G04 #@! TA.AperFunction,ViaPad*
%ADD18C,0.400000*%
G04 #@! TD*
G04 #@! TA.AperFunction,Conductor*
%ADD19C,0.150000*%
G04 #@! TD*
G04 APERTURE END LIST*
D10*
X143510000Y-65024000D02*
X143499680Y-50291999D01*
X78499680Y-50291999D02*
X78499680Y-77013320D01*
D11*
X99314000Y-77018556D02*
X99314000Y-71013528D01*
D10*
X96314005Y-80013321D02*
G75*
G03*
X99314000Y-77018556I-2J3000002D01*
G01*
X140499680Y-47291999D02*
X81499680Y-47291999D01*
X81499680Y-80013320D02*
X96314005Y-80013320D01*
X102313995Y-68018763D02*
G75*
G03*
X99314000Y-71013528I2J-3000002D01*
G01*
D11*
X140510005Y-68018764D02*
X102313995Y-68018764D01*
D10*
X143499680Y-50291999D02*
G75*
G03*
X140499680Y-47291999I-3000001J-1D01*
G01*
X81499680Y-47291999D02*
G75*
G03*
X78499680Y-50291999I1J-3000001D01*
G01*
X140510005Y-68018765D02*
G75*
G03*
X143510000Y-65024000I-2J3000002D01*
G01*
X78499680Y-77013320D02*
G75*
G03*
X81499680Y-80013320I3000001J1D01*
G01*
D12*
X82040000Y-64310000D03*
X140040000Y-64330000D03*
D13*
X109220000Y-53086000D03*
D14*
X109220000Y-50546000D03*
X111760000Y-53086000D03*
X111760000Y-50546000D03*
D13*
X139065000Y-52720000D03*
D14*
X139065000Y-55260000D03*
X139065000Y-57800000D03*
D13*
X80010000Y-54737000D03*
D14*
X82550000Y-54737000D03*
X80010000Y-57277000D03*
X82550000Y-57277000D03*
X80010000Y-59817000D03*
X82550000Y-59817000D03*
D13*
X115077000Y-58166000D03*
D14*
X117617000Y-58166000D03*
X120157000Y-58166000D03*
X122697000Y-58166000D03*
X125237000Y-58166000D03*
X127777000Y-58166000D03*
X130317000Y-58166000D03*
X132857000Y-58166000D03*
D15*
X81661000Y-75311000D03*
D16*
X81661000Y-70231000D03*
D13*
X116845000Y-53091000D03*
D14*
X114305000Y-53091000D03*
X116845000Y-50551000D03*
X114305000Y-50551000D03*
D13*
X92217000Y-58039000D03*
D14*
X94757000Y-58039000D03*
X97297000Y-58039000D03*
X99837000Y-58039000D03*
X102377000Y-58039000D03*
X104917000Y-58039000D03*
X107457000Y-58039000D03*
X109997000Y-58039000D03*
D13*
X86920000Y-65590000D03*
D14*
X86920000Y-63050000D03*
X89460000Y-65590000D03*
X89460000Y-63050000D03*
X92000000Y-65590000D03*
X92000000Y-63050000D03*
X94540000Y-65590000D03*
X94540000Y-63050000D03*
X97080000Y-65590000D03*
X97080000Y-63050000D03*
X99620000Y-65590000D03*
X99620000Y-63050000D03*
X102160000Y-65590000D03*
X102160000Y-63050000D03*
X104700000Y-65590000D03*
X104700000Y-63050000D03*
X107240000Y-65590000D03*
X107240000Y-63050000D03*
X109780000Y-65590000D03*
X109780000Y-63050000D03*
X112320000Y-65590000D03*
X112320000Y-63050000D03*
X114860000Y-65590000D03*
X114860000Y-63050000D03*
X117400000Y-65590000D03*
X117400000Y-63050000D03*
X119940000Y-65590000D03*
X119940000Y-63050000D03*
X122480000Y-65590000D03*
X122480000Y-63050000D03*
X125020000Y-65590000D03*
X125020000Y-63050000D03*
X127560000Y-65590000D03*
X127560000Y-63050000D03*
X130100000Y-65590000D03*
X130100000Y-63050000D03*
X132640000Y-65590000D03*
X132640000Y-63050000D03*
X135180000Y-65590000D03*
X135180000Y-63050000D03*
D17*
X95504000Y-60137500D03*
X98425000Y-66929000D03*
X117094000Y-60071000D03*
X88011000Y-77123500D03*
D18*
X94107000Y-68326000D03*
D17*
X126746000Y-60198000D03*
X114427000Y-60452000D03*
X106045000Y-60579000D03*
X91122000Y-70676000D03*
X91122000Y-69786000D03*
D19*
X90875489Y-62584211D02*
X90875489Y-64174511D01*
X109220000Y-50546000D02*
X105410000Y-50546000D01*
X105410000Y-50546000D02*
X98421511Y-57534489D01*
X97363300Y-59563000D02*
X93896700Y-59563000D01*
X90875489Y-64174511D02*
X89460000Y-65590000D01*
X98421511Y-57534489D02*
X98421511Y-58504789D01*
X98421511Y-58504789D02*
X97363300Y-59563000D01*
X93896700Y-59563000D02*
X90875489Y-62584211D01*
X103501511Y-57804489D02*
X103501511Y-58504789D01*
X96249000Y-61341000D02*
X94540000Y-63050000D01*
X109220000Y-53086000D02*
X108220000Y-53086000D01*
X100665300Y-61341000D02*
X96249000Y-61341000D01*
X103501511Y-58504789D02*
X100665300Y-61341000D01*
X108220000Y-53086000D02*
X103501511Y-57804489D01*
X111760000Y-53086000D02*
X107931511Y-56914489D01*
X102620811Y-61925489D02*
X98204511Y-61925489D01*
X98204511Y-61925489D02*
X97080000Y-63050000D01*
X106991211Y-56914489D02*
X106041511Y-57864189D01*
X107931511Y-56914489D02*
X106991211Y-56914489D01*
X106041511Y-58504789D02*
X102620811Y-61925489D01*
X106041511Y-57864189D02*
X106041511Y-58504789D01*
X123895489Y-63515789D02*
X124554211Y-64174511D01*
X124554211Y-64174511D02*
X126144511Y-64174511D01*
X123895489Y-62584211D02*
X123895489Y-63515789D01*
X126144511Y-64174511D02*
X127560000Y-65590000D01*
X121572489Y-57818489D02*
X121572489Y-60261211D01*
X121572489Y-60261211D02*
X123895489Y-62584211D01*
X116845000Y-53091000D02*
X121572489Y-57818489D01*
X100961511Y-58504789D02*
X98754299Y-60712001D01*
X100961511Y-57864189D02*
X100961511Y-58504789D01*
X93124511Y-64465489D02*
X92000000Y-65590000D01*
X95116999Y-60712001D02*
X93124511Y-62704489D01*
X106864211Y-51961489D02*
X100961511Y-57864189D01*
X111760000Y-50546000D02*
X110344511Y-51961489D01*
X110344511Y-51961489D02*
X106864211Y-51961489D01*
X98754299Y-60712001D02*
X95116999Y-60712001D01*
X93124511Y-62704489D02*
X93124511Y-64465489D01*
X114305000Y-53091000D02*
X116492489Y-55278489D01*
X116492489Y-55278489D02*
X116492489Y-62142489D01*
X116492489Y-62142489D02*
X117400000Y-63050000D01*
X127181700Y-64262000D02*
X131312000Y-64262000D01*
X126238000Y-62103000D02*
X126238000Y-63318300D01*
X124112489Y-59977489D02*
X126238000Y-62103000D01*
X124112489Y-57818489D02*
X124112489Y-59977489D01*
X126238000Y-63318300D02*
X127181700Y-64262000D01*
X131312000Y-64262000D02*
X132640000Y-65590000D01*
X116845000Y-50551000D02*
X124112489Y-57818489D01*
G04 #@! TA.AperFunction,Conductor*
G36*
X84969026Y-58359009D02*
G01*
X84992682Y-58383132D01*
X85375782Y-58938151D01*
X87054043Y-61369546D01*
X87122000Y-61468000D01*
X87130270Y-61468041D01*
X87130272Y-61468041D01*
X91342825Y-61488738D01*
X91400923Y-61507931D01*
X91436643Y-61557607D01*
X91436342Y-61618792D01*
X91412343Y-61657741D01*
X90706758Y-62363326D01*
X90691756Y-62375637D01*
X90676865Y-62385587D01*
X90661496Y-62408588D01*
X90661495Y-62408589D01*
X90644018Y-62434746D01*
X90615974Y-62476716D01*
X90615974Y-62476717D01*
X90612597Y-62493696D01*
X90611905Y-62497173D01*
X90582008Y-62550557D01*
X90526443Y-62576173D01*
X90466433Y-62564236D01*
X90426017Y-62521645D01*
X90403933Y-62476864D01*
X90399209Y-62469154D01*
X90283678Y-62314440D01*
X90277629Y-62307722D01*
X90135837Y-62176650D01*
X90128670Y-62171151D01*
X89965369Y-62068117D01*
X89957315Y-62064013D01*
X89777969Y-61992460D01*
X89769306Y-61989894D01*
X89729379Y-61981952D01*
X89716133Y-61983520D01*
X89716099Y-61983551D01*
X89714000Y-61991597D01*
X89714000Y-64109074D01*
X89718122Y-64121759D01*
X89719293Y-64122610D01*
X89721800Y-64122824D01*
X89722189Y-64122731D01*
X89905026Y-64060666D01*
X89913288Y-64056988D01*
X90081755Y-63962641D01*
X90089209Y-63957518D01*
X90237650Y-63834061D01*
X90244061Y-63827650D01*
X90367518Y-63679209D01*
X90372641Y-63671755D01*
X90414612Y-63596811D01*
X90459542Y-63555279D01*
X90520303Y-63548087D01*
X90573687Y-63577984D01*
X90599303Y-63633549D01*
X90599989Y-63645185D01*
X90599989Y-64019387D01*
X90581082Y-64077578D01*
X90570993Y-64089391D01*
X90034450Y-64625934D01*
X89979933Y-64653711D01*
X89917359Y-64643015D01*
X89873309Y-64619197D01*
X89873308Y-64619197D01*
X89869055Y-64616897D01*
X89799764Y-64595448D01*
X89676875Y-64557407D01*
X89676871Y-64557406D01*
X89672254Y-64555977D01*
X89667446Y-64555472D01*
X89667443Y-64555471D01*
X89472185Y-64534949D01*
X89472183Y-64534949D01*
X89467369Y-64534443D01*
X89411800Y-64539500D01*
X89267022Y-64552675D01*
X89267017Y-64552676D01*
X89262203Y-64553114D01*
X89064572Y-64611280D01*
X89060288Y-64613519D01*
X89060287Y-64613520D01*
X89003869Y-64643015D01*
X88882002Y-64706726D01*
X88878231Y-64709758D01*
X88725220Y-64832781D01*
X88725217Y-64832783D01*
X88721447Y-64835815D01*
X88718333Y-64839526D01*
X88718332Y-64839527D01*
X88624401Y-64951470D01*
X88589024Y-64993630D01*
X88586689Y-64997878D01*
X88586688Y-64997879D01*
X88576848Y-65015778D01*
X88489776Y-65174162D01*
X88427484Y-65370532D01*
X88426944Y-65375344D01*
X88426944Y-65375345D01*
X88425865Y-65384970D01*
X88404520Y-65575262D01*
X88421759Y-65780553D01*
X88478544Y-65978586D01*
X88572712Y-66161818D01*
X88700677Y-66323270D01*
X88704357Y-66326402D01*
X88704359Y-66326404D01*
X88817017Y-66422283D01*
X88857564Y-66456791D01*
X88861787Y-66459151D01*
X88861791Y-66459154D01*
X88901342Y-66481258D01*
X89037398Y-66557297D01*
X89041996Y-66558791D01*
X89228724Y-66619463D01*
X89228726Y-66619464D01*
X89233329Y-66620959D01*
X89437894Y-66645351D01*
X89442716Y-66644980D01*
X89442719Y-66644980D01*
X89513259Y-66639552D01*
X89643300Y-66629546D01*
X89841725Y-66574145D01*
X89846038Y-66571966D01*
X89846044Y-66571964D01*
X90021289Y-66483441D01*
X90021291Y-66483440D01*
X90025610Y-66481258D01*
X90060943Y-66453653D01*
X90184135Y-66357406D01*
X90184139Y-66357402D01*
X90187951Y-66354424D01*
X90227918Y-66308122D01*
X90247313Y-66285651D01*
X90322564Y-66198472D01*
X90341231Y-66165613D01*
X90421934Y-66023550D01*
X90421935Y-66023547D01*
X90424323Y-66019344D01*
X90437882Y-65978586D01*
X90487824Y-65828454D01*
X90487824Y-65828452D01*
X90489351Y-65823863D01*
X90515171Y-65619474D01*
X90515583Y-65590000D01*
X90513667Y-65570454D01*
X90495952Y-65389780D01*
X90495951Y-65389776D01*
X90495480Y-65384970D01*
X90435935Y-65187749D01*
X90406429Y-65132256D01*
X90395805Y-65072004D01*
X90423838Y-65015778D01*
X91044220Y-64395396D01*
X91059222Y-64383085D01*
X91066003Y-64378554D01*
X91074113Y-64373135D01*
X91135004Y-64282006D01*
X91150989Y-64201644D01*
X91150989Y-64201643D01*
X91156386Y-64174511D01*
X91152891Y-64156939D01*
X91150989Y-64137626D01*
X91150989Y-63921195D01*
X91169896Y-63863004D01*
X91219396Y-63827040D01*
X91280582Y-63827040D01*
X91314153Y-63845803D01*
X91393876Y-63913653D01*
X91393881Y-63913656D01*
X91397564Y-63916791D01*
X91401787Y-63919151D01*
X91401791Y-63919154D01*
X91518702Y-63984493D01*
X91577398Y-64017297D01*
X91581996Y-64018791D01*
X91768724Y-64079463D01*
X91768726Y-64079464D01*
X91773329Y-64080959D01*
X91977894Y-64105351D01*
X91982716Y-64104980D01*
X91982719Y-64104980D01*
X92050541Y-64099761D01*
X92183300Y-64089546D01*
X92381725Y-64034145D01*
X92386038Y-64031966D01*
X92386044Y-64031964D01*
X92561289Y-63943441D01*
X92561291Y-63943440D01*
X92565610Y-63941258D01*
X92589209Y-63922821D01*
X92689061Y-63844808D01*
X92746556Y-63823881D01*
X92805371Y-63840746D01*
X92843041Y-63888961D01*
X92849011Y-63922821D01*
X92849011Y-64310365D01*
X92830104Y-64368556D01*
X92820015Y-64380369D01*
X92574450Y-64625934D01*
X92519933Y-64653711D01*
X92457359Y-64643015D01*
X92413309Y-64619197D01*
X92413308Y-64619197D01*
X92409055Y-64616897D01*
X92339764Y-64595448D01*
X92216875Y-64557407D01*
X92216871Y-64557406D01*
X92212254Y-64555977D01*
X92207446Y-64555472D01*
X92207443Y-64555471D01*
X92012185Y-64534949D01*
X92012183Y-64534949D01*
X92007369Y-64534443D01*
X91951800Y-64539500D01*
X91807022Y-64552675D01*
X91807017Y-64552676D01*
X91802203Y-64553114D01*
X91604572Y-64611280D01*
X91600288Y-64613519D01*
X91600287Y-64613520D01*
X91543869Y-64643015D01*
X91422002Y-64706726D01*
X91418231Y-64709758D01*
X91265220Y-64832781D01*
X91265217Y-64832783D01*
X91261447Y-64835815D01*
X91258333Y-64839526D01*
X91258332Y-64839527D01*
X91164401Y-64951470D01*
X91129024Y-64993630D01*
X91126689Y-64997878D01*
X91126688Y-64997879D01*
X91116848Y-65015778D01*
X91029776Y-65174162D01*
X90967484Y-65370532D01*
X90966944Y-65375344D01*
X90966944Y-65375345D01*
X90965865Y-65384970D01*
X90944520Y-65575262D01*
X90961759Y-65780553D01*
X91018544Y-65978586D01*
X91112712Y-66161818D01*
X91240677Y-66323270D01*
X91244357Y-66326402D01*
X91244359Y-66326404D01*
X91357017Y-66422283D01*
X91397564Y-66456791D01*
X91401787Y-66459151D01*
X91401791Y-66459154D01*
X91441342Y-66481258D01*
X91577398Y-66557297D01*
X91581996Y-66558791D01*
X91768724Y-66619463D01*
X91768726Y-66619464D01*
X91773329Y-66620959D01*
X91977894Y-66645351D01*
X91982716Y-66644980D01*
X91982719Y-66644980D01*
X92053259Y-66639552D01*
X92183300Y-66629546D01*
X92381725Y-66574145D01*
X92386038Y-66571966D01*
X92386044Y-66571964D01*
X92561289Y-66483441D01*
X92561291Y-66483440D01*
X92565610Y-66481258D01*
X92600943Y-66453653D01*
X92724135Y-66357406D01*
X92724139Y-66357402D01*
X92727951Y-66354424D01*
X92767918Y-66308122D01*
X92787313Y-66285651D01*
X92862564Y-66198472D01*
X92881231Y-66165613D01*
X92961934Y-66023550D01*
X92961935Y-66023547D01*
X92964323Y-66019344D01*
X92977882Y-65978586D01*
X93027824Y-65828454D01*
X93027824Y-65828452D01*
X93029351Y-65823863D01*
X93055171Y-65619474D01*
X93055583Y-65590000D01*
X93053667Y-65570454D01*
X93035952Y-65389780D01*
X93035951Y-65389776D01*
X93035480Y-65384970D01*
X92975935Y-65187749D01*
X92946429Y-65132256D01*
X92935805Y-65072004D01*
X92963838Y-65015778D01*
X93293242Y-64686374D01*
X93308244Y-64674063D01*
X93315025Y-64669532D01*
X93323135Y-64664113D01*
X93384026Y-64572984D01*
X93387125Y-64557407D01*
X93400011Y-64492622D01*
X93400011Y-64492621D01*
X93403506Y-64475051D01*
X93405408Y-64465489D01*
X93401913Y-64447917D01*
X93400011Y-64428604D01*
X93400011Y-63539331D01*
X93418918Y-63481140D01*
X93468418Y-63445176D01*
X93529604Y-63445176D01*
X93579104Y-63481140D01*
X93587063Y-63494078D01*
X93624052Y-63566051D01*
X93635000Y-63611304D01*
X93635000Y-65030101D01*
X93622754Y-65077794D01*
X93618845Y-65084905D01*
X93569776Y-65174162D01*
X93507484Y-65370532D01*
X93506944Y-65375344D01*
X93506944Y-65375345D01*
X93505865Y-65384970D01*
X93484520Y-65575262D01*
X93501759Y-65780553D01*
X93558544Y-65978586D01*
X93560759Y-65982896D01*
X93624052Y-66106051D01*
X93635000Y-66151304D01*
X93635000Y-71220000D01*
X93616093Y-71278191D01*
X93566593Y-71314155D01*
X93536000Y-71319000D01*
X91267980Y-71319000D01*
X91209789Y-71300093D01*
X91175585Y-71255556D01*
X90505948Y-69515455D01*
X90505947Y-69515454D01*
X90500000Y-69500000D01*
X89548065Y-68928839D01*
X89507895Y-68882687D01*
X89500000Y-68843947D01*
X89500000Y-66913000D01*
X84034462Y-66913000D01*
X83976271Y-66894093D01*
X83940307Y-66844593D01*
X83940307Y-66783407D01*
X83970298Y-66738608D01*
X83975343Y-66734315D01*
X84151313Y-66584552D01*
X84179430Y-66560623D01*
X84179433Y-66560620D01*
X84181534Y-66558832D01*
X84274580Y-66459748D01*
X85869500Y-66459748D01*
X85881133Y-66518231D01*
X85925448Y-66584552D01*
X85991769Y-66628867D01*
X86001332Y-66630769D01*
X86001334Y-66630770D01*
X86024005Y-66635279D01*
X86050252Y-66640500D01*
X87789748Y-66640500D01*
X87815995Y-66635279D01*
X87838666Y-66630770D01*
X87838668Y-66630769D01*
X87848231Y-66628867D01*
X87914552Y-66584552D01*
X87958867Y-66518231D01*
X87970500Y-66459748D01*
X87970500Y-64720252D01*
X87963761Y-64686374D01*
X87960770Y-64671334D01*
X87960769Y-64671332D01*
X87958867Y-64661769D01*
X87914552Y-64595448D01*
X87848231Y-64551133D01*
X87838668Y-64549231D01*
X87838666Y-64549230D01*
X87815995Y-64544721D01*
X87789748Y-64539500D01*
X86050252Y-64539500D01*
X86024005Y-64544721D01*
X86001334Y-64549230D01*
X86001332Y-64549231D01*
X85991769Y-64551133D01*
X85925448Y-64595448D01*
X85881133Y-64661769D01*
X85879231Y-64671332D01*
X85879230Y-64671334D01*
X85876239Y-64686374D01*
X85869500Y-64720252D01*
X85869500Y-66459748D01*
X84274580Y-66459748D01*
X84418863Y-66306103D01*
X84493134Y-66206823D01*
X84624881Y-66030714D01*
X84624887Y-66030705D01*
X84626541Y-66028494D01*
X84627937Y-66026114D01*
X84627942Y-66026107D01*
X84800581Y-65731849D01*
X84801980Y-65729465D01*
X84942994Y-65412744D01*
X84954858Y-65375345D01*
X85046991Y-65084905D01*
X85046992Y-65084899D01*
X85047824Y-65082278D01*
X85062957Y-65005849D01*
X85114628Y-64744895D01*
X85114629Y-64744888D01*
X85115164Y-64742186D01*
X85144174Y-64396707D01*
X85144567Y-64368556D01*
X85145361Y-64311747D01*
X85145361Y-64311736D01*
X85145385Y-64310000D01*
X85126032Y-63963846D01*
X85070166Y-63633549D01*
X85068674Y-63624726D01*
X85068674Y-63624724D01*
X85068214Y-63622007D01*
X85008675Y-63414368D01*
X84980925Y-63317591D01*
X85852958Y-63317591D01*
X85877536Y-63414368D01*
X85880551Y-63422880D01*
X85961386Y-63598225D01*
X85965917Y-63606072D01*
X86077348Y-63763744D01*
X86083222Y-63770622D01*
X86221532Y-63905357D01*
X86228555Y-63911044D01*
X86389099Y-64018317D01*
X86397054Y-64022635D01*
X86574446Y-64098849D01*
X86583057Y-64101647D01*
X86650706Y-64116954D01*
X86663603Y-64115769D01*
X86665444Y-64109074D01*
X87174000Y-64109074D01*
X87178122Y-64121759D01*
X87179293Y-64122610D01*
X87181800Y-64122824D01*
X87182189Y-64122731D01*
X87365026Y-64060666D01*
X87373288Y-64056988D01*
X87541755Y-63962641D01*
X87549209Y-63957518D01*
X87697650Y-63834061D01*
X87704061Y-63827650D01*
X87827518Y-63679209D01*
X87832641Y-63671755D01*
X87926988Y-63503288D01*
X87930666Y-63495026D01*
X87990896Y-63317591D01*
X88392958Y-63317591D01*
X88417536Y-63414368D01*
X88420551Y-63422880D01*
X88501386Y-63598225D01*
X88505917Y-63606072D01*
X88617348Y-63763744D01*
X88623222Y-63770622D01*
X88761532Y-63905357D01*
X88768555Y-63911044D01*
X88929099Y-64018317D01*
X88937054Y-64022635D01*
X89114446Y-64098849D01*
X89123057Y-64101647D01*
X89190706Y-64116954D01*
X89203603Y-64115769D01*
X89206000Y-64107051D01*
X89206000Y-63319680D01*
X89201878Y-63306995D01*
X89197757Y-63304000D01*
X88405186Y-63304000D01*
X88393276Y-63307870D01*
X88392958Y-63317591D01*
X87990896Y-63317591D01*
X87991744Y-63315094D01*
X87990246Y-63306372D01*
X87989209Y-63305363D01*
X87983365Y-63304000D01*
X87189680Y-63304000D01*
X87176995Y-63308122D01*
X87174000Y-63312243D01*
X87174000Y-64109074D01*
X86665444Y-64109074D01*
X86666000Y-64107051D01*
X86666000Y-63319680D01*
X86661878Y-63306995D01*
X86657757Y-63304000D01*
X85865186Y-63304000D01*
X85853276Y-63307870D01*
X85852958Y-63317591D01*
X84980925Y-63317591D01*
X84973415Y-63291402D01*
X84973414Y-63291398D01*
X84972652Y-63288742D01*
X84840537Y-62968207D01*
X84737632Y-62781024D01*
X85851629Y-62781024D01*
X85851781Y-62792650D01*
X85862327Y-62796000D01*
X86650320Y-62796000D01*
X86663005Y-62791878D01*
X86666000Y-62787757D01*
X86666000Y-62780320D01*
X87174000Y-62780320D01*
X87178122Y-62793005D01*
X87182243Y-62796000D01*
X87975676Y-62796000D01*
X87987166Y-62792267D01*
X87987370Y-62781866D01*
X87987133Y-62781024D01*
X88391629Y-62781024D01*
X88391781Y-62792650D01*
X88402327Y-62796000D01*
X89190320Y-62796000D01*
X89203005Y-62791878D01*
X89206000Y-62787757D01*
X89206000Y-61993124D01*
X89201878Y-61980439D01*
X89201274Y-61980000D01*
X89194127Y-61979484D01*
X89178555Y-61982160D01*
X89169819Y-61984501D01*
X88988668Y-62051331D01*
X88980506Y-62055224D01*
X88814562Y-62153950D01*
X88807260Y-62159255D01*
X88662081Y-62286575D01*
X88655858Y-62293133D01*
X88536322Y-62444763D01*
X88531397Y-62452346D01*
X88441490Y-62623231D01*
X88438032Y-62631579D01*
X88391629Y-62781024D01*
X87987133Y-62781024D01*
X87952571Y-62658478D01*
X87949330Y-62650035D01*
X87863928Y-62476855D01*
X87859209Y-62469154D01*
X87743678Y-62314440D01*
X87737629Y-62307722D01*
X87595837Y-62176650D01*
X87588670Y-62171151D01*
X87425369Y-62068117D01*
X87417315Y-62064013D01*
X87237969Y-61992460D01*
X87229306Y-61989894D01*
X87189379Y-61981952D01*
X87176133Y-61983520D01*
X87176099Y-61983551D01*
X87174000Y-61991597D01*
X87174000Y-62780320D01*
X86666000Y-62780320D01*
X86666000Y-61993124D01*
X86661878Y-61980439D01*
X86661274Y-61980000D01*
X86654127Y-61979484D01*
X86638555Y-61982160D01*
X86629819Y-61984501D01*
X86448668Y-62051331D01*
X86440506Y-62055224D01*
X86274562Y-62153950D01*
X86267260Y-62159255D01*
X86122081Y-62286575D01*
X86115858Y-62293133D01*
X85996322Y-62444763D01*
X85991397Y-62452346D01*
X85901490Y-62623231D01*
X85898032Y-62631579D01*
X85851629Y-62781024D01*
X84737632Y-62781024D01*
X84673516Y-62664397D01*
X84661772Y-62647749D01*
X84475259Y-62383349D01*
X84475255Y-62383345D01*
X84473670Y-62381097D01*
X84243490Y-62121839D01*
X84241441Y-62119994D01*
X84241437Y-62119990D01*
X84023500Y-61923760D01*
X83985846Y-61889856D01*
X83890461Y-61821567D01*
X83706203Y-61689651D01*
X83706198Y-61689648D01*
X83703948Y-61688037D01*
X83635418Y-61649737D01*
X83403733Y-61520251D01*
X83403724Y-61520247D01*
X83401311Y-61518898D01*
X83081706Y-61384549D01*
X82749117Y-61286663D01*
X82535665Y-61249025D01*
X82410408Y-61226939D01*
X82410403Y-61226938D01*
X82407690Y-61226460D01*
X82061680Y-61204691D01*
X82058919Y-61204826D01*
X82058915Y-61204826D01*
X81763713Y-61219264D01*
X81715399Y-61221627D01*
X81373164Y-61277057D01*
X81039241Y-61370290D01*
X81003949Y-61384549D01*
X80720352Y-61499129D01*
X80720348Y-61499131D01*
X80717791Y-61500164D01*
X80715367Y-61501475D01*
X80715362Y-61501477D01*
X80415251Y-61663746D01*
X80415242Y-61663751D01*
X80412822Y-61665060D01*
X80410560Y-61666632D01*
X80410557Y-61666634D01*
X80205807Y-61808939D01*
X80128134Y-61862923D01*
X79867276Y-62091287D01*
X79865415Y-62093325D01*
X79865414Y-62093326D01*
X79824518Y-62138113D01*
X79633499Y-62347306D01*
X79429717Y-62627787D01*
X79258470Y-62929237D01*
X79257381Y-62931779D01*
X79257377Y-62931786D01*
X79179018Y-63114613D01*
X79121893Y-63247896D01*
X79121097Y-63250531D01*
X79121096Y-63250535D01*
X79031260Y-63548087D01*
X79021687Y-63579793D01*
X79021048Y-63579600D01*
X78990383Y-63629453D01*
X78933816Y-63652773D01*
X78874345Y-63638389D01*
X78834686Y-63591797D01*
X78827214Y-63553941D01*
X78829372Y-61833380D01*
X78831247Y-60338798D01*
X78850227Y-60280632D01*
X78899772Y-60244730D01*
X78960958Y-60244807D01*
X79010413Y-60280833D01*
X79020153Y-60297476D01*
X79051385Y-60365225D01*
X79055917Y-60373072D01*
X79167348Y-60530744D01*
X79173222Y-60537622D01*
X79311532Y-60672357D01*
X79318555Y-60678044D01*
X79479099Y-60785317D01*
X79487054Y-60789635D01*
X79664446Y-60865849D01*
X79673057Y-60868647D01*
X79740706Y-60883954D01*
X79753603Y-60882769D01*
X79755444Y-60876074D01*
X80264000Y-60876074D01*
X80268122Y-60888759D01*
X80269293Y-60889610D01*
X80271800Y-60889824D01*
X80272189Y-60889731D01*
X80455026Y-60827666D01*
X80463288Y-60823988D01*
X80631755Y-60729641D01*
X80639209Y-60724518D01*
X80787650Y-60601061D01*
X80794061Y-60594650D01*
X80917518Y-60446209D01*
X80922641Y-60438755D01*
X81016988Y-60270288D01*
X81020666Y-60262026D01*
X81080896Y-60084591D01*
X81482958Y-60084591D01*
X81507536Y-60181368D01*
X81510551Y-60189880D01*
X81591386Y-60365225D01*
X81595917Y-60373072D01*
X81707348Y-60530744D01*
X81713222Y-60537622D01*
X81851532Y-60672357D01*
X81858555Y-60678044D01*
X82019099Y-60785317D01*
X82027054Y-60789635D01*
X82204446Y-60865849D01*
X82213057Y-60868647D01*
X82280706Y-60883954D01*
X82293603Y-60882769D01*
X82295444Y-60876074D01*
X82804000Y-60876074D01*
X82808122Y-60888759D01*
X82809293Y-60889610D01*
X82811800Y-60889824D01*
X82812189Y-60889731D01*
X82995026Y-60827666D01*
X83003288Y-60823988D01*
X83171755Y-60729641D01*
X83179209Y-60724518D01*
X83327650Y-60601061D01*
X83334061Y-60594650D01*
X83457518Y-60446209D01*
X83462641Y-60438755D01*
X83556988Y-60270288D01*
X83560666Y-60262026D01*
X83621744Y-60082094D01*
X83620246Y-60073372D01*
X83619209Y-60072363D01*
X83613365Y-60071000D01*
X82819680Y-60071000D01*
X82806995Y-60075122D01*
X82804000Y-60079243D01*
X82804000Y-60876074D01*
X82295444Y-60876074D01*
X82296000Y-60874051D01*
X82296000Y-60086680D01*
X82291878Y-60073995D01*
X82287757Y-60071000D01*
X81495186Y-60071000D01*
X81483276Y-60074870D01*
X81482958Y-60084591D01*
X81080896Y-60084591D01*
X81081744Y-60082094D01*
X81080246Y-60073372D01*
X81079209Y-60072363D01*
X81073365Y-60071000D01*
X80279680Y-60071000D01*
X80266995Y-60075122D01*
X80264000Y-60079243D01*
X80264000Y-60876074D01*
X79755444Y-60876074D01*
X79756000Y-60874051D01*
X79756000Y-59547320D01*
X80264000Y-59547320D01*
X80268122Y-59560005D01*
X80272243Y-59563000D01*
X81065676Y-59563000D01*
X81077166Y-59559267D01*
X81077370Y-59548866D01*
X81077133Y-59548024D01*
X81481629Y-59548024D01*
X81481781Y-59559650D01*
X81492327Y-59563000D01*
X82280320Y-59563000D01*
X82293005Y-59558878D01*
X82296000Y-59554757D01*
X82296000Y-59547320D01*
X82804000Y-59547320D01*
X82808122Y-59560005D01*
X82812243Y-59563000D01*
X83605676Y-59563000D01*
X83617166Y-59559267D01*
X83617370Y-59548866D01*
X83582571Y-59425478D01*
X83579330Y-59417035D01*
X83493928Y-59243855D01*
X83489209Y-59236154D01*
X83373678Y-59081440D01*
X83367629Y-59074722D01*
X83225837Y-58943650D01*
X83218670Y-58938151D01*
X83055369Y-58835117D01*
X83047315Y-58831013D01*
X82867969Y-58759460D01*
X82859306Y-58756894D01*
X82819379Y-58748952D01*
X82806133Y-58750520D01*
X82806099Y-58750551D01*
X82804000Y-58758597D01*
X82804000Y-59547320D01*
X82296000Y-59547320D01*
X82296000Y-58760124D01*
X82291878Y-58747439D01*
X82291274Y-58747000D01*
X82284127Y-58746484D01*
X82268555Y-58749160D01*
X82259819Y-58751501D01*
X82078668Y-58818331D01*
X82070506Y-58822224D01*
X81904562Y-58920950D01*
X81897260Y-58926255D01*
X81752081Y-59053575D01*
X81745858Y-59060133D01*
X81626322Y-59211763D01*
X81621397Y-59219346D01*
X81531490Y-59390231D01*
X81528032Y-59398579D01*
X81481629Y-59548024D01*
X81077133Y-59548024D01*
X81042571Y-59425478D01*
X81039330Y-59417035D01*
X80953928Y-59243855D01*
X80949209Y-59236154D01*
X80833678Y-59081440D01*
X80827629Y-59074722D01*
X80685837Y-58943650D01*
X80678670Y-58938151D01*
X80515369Y-58835117D01*
X80507315Y-58831013D01*
X80327969Y-58759460D01*
X80319306Y-58756894D01*
X80279379Y-58748952D01*
X80266133Y-58750520D01*
X80266099Y-58750551D01*
X80264000Y-58758597D01*
X80264000Y-59547320D01*
X79756000Y-59547320D01*
X79756000Y-58760124D01*
X79751878Y-58747439D01*
X79751274Y-58747000D01*
X79744127Y-58746484D01*
X79728555Y-58749160D01*
X79719819Y-58751501D01*
X79538668Y-58818331D01*
X79530506Y-58822224D01*
X79364562Y-58920950D01*
X79357260Y-58926255D01*
X79212081Y-59053575D01*
X79205858Y-59060133D01*
X79086322Y-59211763D01*
X79081397Y-59219346D01*
X79019175Y-59337610D01*
X78975347Y-59380305D01*
X78914795Y-59389084D01*
X78860647Y-59360595D01*
X78833585Y-59305720D01*
X78832561Y-59291390D01*
X78832652Y-59219346D01*
X78832861Y-59052680D01*
X78833596Y-58466873D01*
X78852576Y-58408706D01*
X78902122Y-58372804D01*
X78932138Y-58367998D01*
X84910750Y-58340371D01*
X84969026Y-58359009D01*
G37*
G04 #@! TD.AperFunction*
M02*
