G04 #@! TF.GenerationSoftware,KiCad,Pcbnew,(6.0.1)*
G04 #@! TF.CreationDate,2022-12-01T14:29:06+00:00*
G04 #@! TF.ProjectId,retropie-minicade-hat,72657472-6f70-4696-952d-6d696e696361,rev?*
G04 #@! TF.SameCoordinates,Original*
G04 #@! TF.FileFunction,Copper,L1,Top*
G04 #@! TF.FilePolarity,Positive*
%FSLAX46Y46*%
G04 Gerber Fmt 4.6, Leading zero omitted, Abs format (unit mm)*
G04 Created by KiCad (PCBNEW (6.0.1)) date 2022-12-01 14:29:06*
%MOMM*%
%LPD*%
G01*
G04 APERTURE LIST*
G04 Aperture macros list*
%AMRoundRect*
0 Rectangle with rounded corners*
0 $1 Rounding radius*
0 $2 $3 $4 $5 $6 $7 $8 $9 X,Y pos of 4 corners*
0 Add a 4 corners polygon primitive as box body*
4,1,4,$2,$3,$4,$5,$6,$7,$8,$9,$2,$3,0*
0 Add four circle primitives for the rounded corners*
1,1,$1+$1,$2,$3*
1,1,$1+$1,$4,$5*
1,1,$1+$1,$6,$7*
1,1,$1+$1,$8,$9*
0 Add four rect primitives between the rounded corners*
20,1,$1+$1,$2,$3,$4,$5,0*
20,1,$1+$1,$4,$5,$6,$7,0*
20,1,$1+$1,$6,$7,$8,$9,0*
20,1,$1+$1,$8,$9,$2,$3,0*%
G04 Aperture macros list end*
%ADD10C,0.200000*%
G04 #@! TA.AperFunction,NonConductor*
%ADD11C,0.200000*%
G04 #@! TD*
%ADD12C,0.300000*%
G04 #@! TA.AperFunction,NonConductor*
%ADD13C,0.300000*%
G04 #@! TD*
%ADD14C,0.120000*%
G04 #@! TA.AperFunction,NonConductor*
%ADD15C,0.120000*%
G04 #@! TD*
G04 #@! TA.AperFunction,Profile*
%ADD16C,0.100000*%
G04 #@! TD*
G04 #@! TA.AperFunction,Profile*
%ADD17C,0.150000*%
G04 #@! TD*
G04 #@! TA.AperFunction,SMDPad,CuDef*
%ADD18RoundRect,0.225000X-0.225000X-0.250000X0.225000X-0.250000X0.225000X0.250000X-0.225000X0.250000X0*%
G04 #@! TD*
G04 #@! TA.AperFunction,SMDPad,CuDef*
%ADD19RoundRect,0.200000X-0.275000X0.200000X-0.275000X-0.200000X0.275000X-0.200000X0.275000X0.200000X0*%
G04 #@! TD*
G04 #@! TA.AperFunction,SMDPad,CuDef*
%ADD20R,0.650000X0.400000*%
G04 #@! TD*
G04 #@! TA.AperFunction,WasherPad*
%ADD21C,3.000000*%
G04 #@! TD*
G04 #@! TA.AperFunction,SMDPad,CuDef*
%ADD22R,0.900000X0.800000*%
G04 #@! TD*
G04 #@! TA.AperFunction,ComponentPad*
%ADD23R,1.700000X1.700000*%
G04 #@! TD*
G04 #@! TA.AperFunction,ComponentPad*
%ADD24O,1.700000X1.700000*%
G04 #@! TD*
G04 #@! TA.AperFunction,ComponentPad*
%ADD25R,3.000000X3.000000*%
G04 #@! TD*
G04 #@! TA.AperFunction,ComponentPad*
%ADD26C,3.000000*%
G04 #@! TD*
G04 #@! TA.AperFunction,SMDPad,CuDef*
%ADD27R,1.500000X2.000000*%
G04 #@! TD*
G04 #@! TA.AperFunction,SMDPad,CuDef*
%ADD28R,3.800000X2.000000*%
G04 #@! TD*
G04 #@! TA.AperFunction,ViaPad*
%ADD29C,0.400000*%
G04 #@! TD*
G04 #@! TA.AperFunction,ViaPad*
%ADD30C,0.600000*%
G04 #@! TD*
G04 #@! TA.AperFunction,Conductor*
%ADD31C,1.000000*%
G04 #@! TD*
G04 #@! TA.AperFunction,Conductor*
%ADD32C,0.600000*%
G04 #@! TD*
G04 #@! TA.AperFunction,Conductor*
%ADD33C,0.250000*%
G04 #@! TD*
G04 #@! TA.AperFunction,Conductor*
%ADD34C,0.400000*%
G04 #@! TD*
G04 #@! TA.AperFunction,Conductor*
%ADD35C,0.150000*%
G04 #@! TD*
G04 APERTURE END LIST*
D10*
D11*
X87408190Y-52903380D02*
X87408190Y-51903380D01*
X87408190Y-52379571D02*
X87979619Y-52379571D01*
X87979619Y-52903380D02*
X87979619Y-51903380D01*
X88646285Y-51903380D02*
X88836761Y-51903380D01*
X88932000Y-51951000D01*
X89027238Y-52046238D01*
X89074857Y-52236714D01*
X89074857Y-52570047D01*
X89027238Y-52760523D01*
X88932000Y-52855761D01*
X88836761Y-52903380D01*
X88646285Y-52903380D01*
X88551047Y-52855761D01*
X88455809Y-52760523D01*
X88408190Y-52570047D01*
X88408190Y-52236714D01*
X88455809Y-52046238D01*
X88551047Y-51951000D01*
X88646285Y-51903380D01*
X89360571Y-51903380D02*
X89932000Y-51903380D01*
X89646285Y-52903380D02*
X89646285Y-51903380D01*
X90598666Y-52379571D02*
X90741523Y-52427190D01*
X90789142Y-52474809D01*
X90836761Y-52570047D01*
X90836761Y-52712904D01*
X90789142Y-52808142D01*
X90741523Y-52855761D01*
X90646285Y-52903380D01*
X90265333Y-52903380D01*
X90265333Y-51903380D01*
X90598666Y-51903380D01*
X90693904Y-51951000D01*
X90741523Y-51998619D01*
X90789142Y-52093857D01*
X90789142Y-52189095D01*
X90741523Y-52284333D01*
X90693904Y-52331952D01*
X90598666Y-52379571D01*
X90265333Y-52379571D01*
X91741523Y-52903380D02*
X91265333Y-52903380D01*
X91265333Y-51903380D01*
X92027238Y-52617666D02*
X92503428Y-52617666D01*
X91932000Y-52903380D02*
X92265333Y-51903380D01*
X92598666Y-52903380D01*
X93503428Y-52808142D02*
X93455809Y-52855761D01*
X93312952Y-52903380D01*
X93217714Y-52903380D01*
X93074857Y-52855761D01*
X92979619Y-52760523D01*
X92932000Y-52665285D01*
X92884380Y-52474809D01*
X92884380Y-52331952D01*
X92932000Y-52141476D01*
X92979619Y-52046238D01*
X93074857Y-51951000D01*
X93217714Y-51903380D01*
X93312952Y-51903380D01*
X93455809Y-51951000D01*
X93503428Y-51998619D01*
X93932000Y-52903380D02*
X93932000Y-51903380D01*
X94503428Y-52903380D02*
X94074857Y-52331952D01*
X94503428Y-51903380D02*
X93932000Y-52474809D01*
D12*
D13*
X127186857Y-50970571D02*
X127186857Y-49970571D01*
X127186857Y-50256285D02*
X127258285Y-50113428D01*
X127329714Y-50042000D01*
X127472571Y-49970571D01*
X127615428Y-49970571D01*
X128686857Y-50899142D02*
X128544000Y-50970571D01*
X128258285Y-50970571D01*
X128115428Y-50899142D01*
X128044000Y-50756285D01*
X128044000Y-50184857D01*
X128115428Y-50042000D01*
X128258285Y-49970571D01*
X128544000Y-49970571D01*
X128686857Y-50042000D01*
X128758285Y-50184857D01*
X128758285Y-50327714D01*
X128044000Y-50470571D01*
X129258285Y-49970571D02*
X129615428Y-50970571D01*
X129972571Y-49970571D01*
X132472571Y-50970571D02*
X131615428Y-50970571D01*
X132044000Y-50970571D02*
X132044000Y-49470571D01*
X131901142Y-49684857D01*
X131758285Y-49827714D01*
X131615428Y-49899142D01*
D14*
D15*
X82812142Y-49120642D02*
X82812142Y-49720642D01*
X82812142Y-49206357D02*
X82854999Y-49163500D01*
X82940714Y-49120642D01*
X83069285Y-49120642D01*
X83154999Y-49163500D01*
X83197857Y-49249214D01*
X83197857Y-49720642D01*
X83754999Y-49720642D02*
X83669285Y-49677785D01*
X83626428Y-49634928D01*
X83583571Y-49549214D01*
X83583571Y-49292071D01*
X83626428Y-49206357D01*
X83669285Y-49163500D01*
X83754999Y-49120642D01*
X83883571Y-49120642D01*
X83969285Y-49163500D01*
X84012142Y-49206357D01*
X84054999Y-49292071D01*
X84054999Y-49549214D01*
X84012142Y-49634928D01*
X83969285Y-49677785D01*
X83883571Y-49720642D01*
X83754999Y-49720642D01*
X84312142Y-49120642D02*
X84654999Y-49120642D01*
X84440714Y-48820642D02*
X84440714Y-49592071D01*
X84483571Y-49677785D01*
X84569285Y-49720642D01*
X84654999Y-49720642D01*
X84954999Y-49377785D02*
X85640714Y-49377785D01*
X86454999Y-49720642D02*
X86454999Y-49249214D01*
X86412142Y-49163500D01*
X86326428Y-49120642D01*
X86154999Y-49120642D01*
X86069285Y-49163500D01*
X86454999Y-49677785D02*
X86369285Y-49720642D01*
X86154999Y-49720642D01*
X86069285Y-49677785D01*
X86026428Y-49592071D01*
X86026428Y-49506357D01*
X86069285Y-49420642D01*
X86154999Y-49377785D01*
X86369285Y-49377785D01*
X86454999Y-49334928D01*
X86883571Y-49377785D02*
X87569285Y-49377785D01*
X87997857Y-49720642D02*
X87997857Y-48820642D01*
X88340714Y-48820642D01*
X88426428Y-48863500D01*
X88469285Y-48906357D01*
X88512142Y-48992071D01*
X88512142Y-49120642D01*
X88469285Y-49206357D01*
X88426428Y-49249214D01*
X88340714Y-49292071D01*
X87997857Y-49292071D01*
X88897857Y-49720642D02*
X88897857Y-48820642D01*
X89840714Y-49634928D02*
X89797857Y-49677785D01*
X89669285Y-49720642D01*
X89583571Y-49720642D01*
X89454999Y-49677785D01*
X89369285Y-49592071D01*
X89326428Y-49506357D01*
X89283571Y-49334928D01*
X89283571Y-49206357D01*
X89326428Y-49034928D01*
X89369285Y-48949214D01*
X89454999Y-48863500D01*
X89583571Y-48820642D01*
X89669285Y-48820642D01*
X89797857Y-48863500D01*
X89840714Y-48906357D01*
X90183571Y-49463500D02*
X90612142Y-49463500D01*
X90097857Y-49720642D02*
X90397857Y-48820642D01*
X90697857Y-49720642D01*
X90997857Y-49720642D02*
X90997857Y-48820642D01*
X91212142Y-48820642D01*
X91340714Y-48863500D01*
X91426428Y-48949214D01*
X91469285Y-49034928D01*
X91512142Y-49206357D01*
X91512142Y-49334928D01*
X91469285Y-49506357D01*
X91426428Y-49592071D01*
X91340714Y-49677785D01*
X91212142Y-49720642D01*
X90997857Y-49720642D01*
X91897857Y-49249214D02*
X92197857Y-49249214D01*
X92326428Y-49720642D02*
X91897857Y-49720642D01*
X91897857Y-48820642D01*
X92326428Y-48820642D01*
X93397857Y-49720642D02*
X93397857Y-48820642D01*
X93397857Y-49163500D02*
X93483571Y-49120642D01*
X93654999Y-49120642D01*
X93740714Y-49163500D01*
X93783571Y-49206357D01*
X93826428Y-49292071D01*
X93826428Y-49549214D01*
X93783571Y-49634928D01*
X93740714Y-49677785D01*
X93654999Y-49720642D01*
X93483571Y-49720642D01*
X93397857Y-49677785D01*
X94212142Y-49720642D02*
X94212142Y-49120642D01*
X94212142Y-49292071D02*
X94254999Y-49206357D01*
X94297857Y-49163500D01*
X94383571Y-49120642D01*
X94469285Y-49120642D01*
X95112142Y-49677785D02*
X95026428Y-49720642D01*
X94854999Y-49720642D01*
X94769285Y-49677785D01*
X94726428Y-49592071D01*
X94726428Y-49249214D01*
X94769285Y-49163500D01*
X94854999Y-49120642D01*
X95026428Y-49120642D01*
X95112142Y-49163500D01*
X95154999Y-49249214D01*
X95154999Y-49334928D01*
X94726428Y-49420642D01*
X95926428Y-49720642D02*
X95926428Y-49249214D01*
X95883571Y-49163500D01*
X95797857Y-49120642D01*
X95626428Y-49120642D01*
X95540714Y-49163500D01*
X95926428Y-49677785D02*
X95840714Y-49720642D01*
X95626428Y-49720642D01*
X95540714Y-49677785D01*
X95497857Y-49592071D01*
X95497857Y-49506357D01*
X95540714Y-49420642D01*
X95626428Y-49377785D01*
X95840714Y-49377785D01*
X95926428Y-49334928D01*
X96354999Y-49720642D02*
X96354999Y-48820642D01*
X96440714Y-49377785D02*
X96697857Y-49720642D01*
X96697857Y-49120642D02*
X96354999Y-49463500D01*
X97212142Y-49720642D02*
X97126428Y-49677785D01*
X97083571Y-49634928D01*
X97040714Y-49549214D01*
X97040714Y-49292071D01*
X97083571Y-49206357D01*
X97126428Y-49163500D01*
X97212142Y-49120642D01*
X97340714Y-49120642D01*
X97426428Y-49163500D01*
X97469285Y-49206357D01*
X97512142Y-49292071D01*
X97512142Y-49549214D01*
X97469285Y-49634928D01*
X97426428Y-49677785D01*
X97340714Y-49720642D01*
X97212142Y-49720642D01*
X98283571Y-49120642D02*
X98283571Y-49720642D01*
X97897857Y-49120642D02*
X97897857Y-49592071D01*
X97940714Y-49677785D01*
X98026428Y-49720642D01*
X98154999Y-49720642D01*
X98240714Y-49677785D01*
X98283571Y-49634928D01*
X98583571Y-49120642D02*
X98926428Y-49120642D01*
X98712142Y-48820642D02*
X98712142Y-49592071D01*
X98754999Y-49677785D01*
X98840714Y-49720642D01*
X98926428Y-49720642D01*
X82876428Y-51126785D02*
X82790714Y-51169642D01*
X82619285Y-51169642D01*
X82533571Y-51126785D01*
X82490714Y-51083928D01*
X82447857Y-50998214D01*
X82447857Y-50741071D01*
X82490714Y-50655357D01*
X82533571Y-50612500D01*
X82619285Y-50569642D01*
X82790714Y-50569642D01*
X82876428Y-50612500D01*
X83390714Y-51169642D02*
X83305000Y-51126785D01*
X83262142Y-51083928D01*
X83219285Y-50998214D01*
X83219285Y-50741071D01*
X83262142Y-50655357D01*
X83305000Y-50612500D01*
X83390714Y-50569642D01*
X83519285Y-50569642D01*
X83605000Y-50612500D01*
X83647857Y-50655357D01*
X83690714Y-50741071D01*
X83690714Y-50998214D01*
X83647857Y-51083928D01*
X83605000Y-51126785D01*
X83519285Y-51169642D01*
X83390714Y-51169642D01*
X84076428Y-50569642D02*
X84076428Y-51169642D01*
X84076428Y-50655357D02*
X84119285Y-50612500D01*
X84205000Y-50569642D01*
X84333571Y-50569642D01*
X84419285Y-50612500D01*
X84462142Y-50698214D01*
X84462142Y-51169642D01*
X84762142Y-50569642D02*
X85105000Y-50569642D01*
X84890714Y-50269642D02*
X84890714Y-51041071D01*
X84933571Y-51126785D01*
X85019285Y-51169642D01*
X85105000Y-51169642D01*
X85405000Y-51169642D02*
X85405000Y-50569642D01*
X85405000Y-50741071D02*
X85447857Y-50655357D01*
X85490714Y-50612500D01*
X85576428Y-50569642D01*
X85662142Y-50569642D01*
X86090714Y-51169642D02*
X86005000Y-51126785D01*
X85962142Y-51083928D01*
X85919285Y-50998214D01*
X85919285Y-50741071D01*
X85962142Y-50655357D01*
X86005000Y-50612500D01*
X86090714Y-50569642D01*
X86219285Y-50569642D01*
X86305000Y-50612500D01*
X86347857Y-50655357D01*
X86390714Y-50741071D01*
X86390714Y-50998214D01*
X86347857Y-51083928D01*
X86305000Y-51126785D01*
X86219285Y-51169642D01*
X86090714Y-51169642D01*
X86905000Y-51169642D02*
X86819285Y-51126785D01*
X86776428Y-51041071D01*
X86776428Y-50269642D01*
X87933571Y-50569642D02*
X87933571Y-51469642D01*
X87933571Y-50612500D02*
X88019285Y-50569642D01*
X88190714Y-50569642D01*
X88276428Y-50612500D01*
X88319285Y-50655357D01*
X88362142Y-50741071D01*
X88362142Y-50998214D01*
X88319285Y-51083928D01*
X88276428Y-51126785D01*
X88190714Y-51169642D01*
X88019285Y-51169642D01*
X87933571Y-51126785D01*
X89133571Y-51169642D02*
X89133571Y-50698214D01*
X89090714Y-50612500D01*
X89005000Y-50569642D01*
X88833571Y-50569642D01*
X88747857Y-50612500D01*
X89133571Y-51126785D02*
X89047857Y-51169642D01*
X88833571Y-51169642D01*
X88747857Y-51126785D01*
X88705000Y-51041071D01*
X88705000Y-50955357D01*
X88747857Y-50869642D01*
X88833571Y-50826785D01*
X89047857Y-50826785D01*
X89133571Y-50783928D01*
X89562142Y-50569642D02*
X89562142Y-51169642D01*
X89562142Y-50655357D02*
X89605000Y-50612500D01*
X89690714Y-50569642D01*
X89819285Y-50569642D01*
X89905000Y-50612500D01*
X89947857Y-50698214D01*
X89947857Y-51169642D01*
X90719285Y-51126785D02*
X90633571Y-51169642D01*
X90462142Y-51169642D01*
X90376428Y-51126785D01*
X90333571Y-51041071D01*
X90333571Y-50698214D01*
X90376428Y-50612500D01*
X90462142Y-50569642D01*
X90633571Y-50569642D01*
X90719285Y-50612500D01*
X90762142Y-50698214D01*
X90762142Y-50783928D01*
X90333571Y-50869642D01*
X91276428Y-51169642D02*
X91190714Y-51126785D01*
X91147857Y-51041071D01*
X91147857Y-50269642D01*
X92262142Y-50226785D02*
X91490714Y-51383928D01*
X92562142Y-51169642D02*
X92562142Y-50269642D01*
X92947857Y-50355357D02*
X92990714Y-50312500D01*
X93076428Y-50269642D01*
X93290714Y-50269642D01*
X93376428Y-50312500D01*
X93419285Y-50355357D01*
X93462142Y-50441071D01*
X93462142Y-50526785D01*
X93419285Y-50655357D01*
X92905000Y-51169642D01*
X93462142Y-51169642D01*
X93805000Y-51126785D02*
X93933571Y-51169642D01*
X94147857Y-51169642D01*
X94233571Y-51126785D01*
X94276428Y-51083928D01*
X94319285Y-50998214D01*
X94319285Y-50912500D01*
X94276428Y-50826785D01*
X94233571Y-50783928D01*
X94147857Y-50741071D01*
X93976428Y-50698214D01*
X93890714Y-50655357D01*
X93847857Y-50612500D01*
X93805000Y-50526785D01*
X93805000Y-50441071D01*
X93847857Y-50355357D01*
X93890714Y-50312500D01*
X93976428Y-50269642D01*
X94190714Y-50269642D01*
X94319285Y-50312500D01*
X95347857Y-50226785D02*
X94576428Y-51383928D01*
X95647857Y-50569642D02*
X95647857Y-51469642D01*
X95647857Y-50612500D02*
X95733571Y-50569642D01*
X95905000Y-50569642D01*
X95990714Y-50612500D01*
X96033571Y-50655357D01*
X96076428Y-50741071D01*
X96076428Y-50998214D01*
X96033571Y-51083928D01*
X95990714Y-51126785D01*
X95905000Y-51169642D01*
X95733571Y-51169642D01*
X95647857Y-51126785D01*
X96590714Y-51169642D02*
X96505000Y-51126785D01*
X96462142Y-51083928D01*
X96419285Y-50998214D01*
X96419285Y-50741071D01*
X96462142Y-50655357D01*
X96505000Y-50612500D01*
X96590714Y-50569642D01*
X96719285Y-50569642D01*
X96805000Y-50612500D01*
X96847857Y-50655357D01*
X96890714Y-50741071D01*
X96890714Y-50998214D01*
X96847857Y-51083928D01*
X96805000Y-51126785D01*
X96719285Y-51169642D01*
X96590714Y-51169642D01*
X97190714Y-50569642D02*
X97362142Y-51169642D01*
X97533571Y-50741071D01*
X97705000Y-51169642D01*
X97876428Y-50569642D01*
X98562142Y-51126785D02*
X98476428Y-51169642D01*
X98305000Y-51169642D01*
X98219285Y-51126785D01*
X98176428Y-51041071D01*
X98176428Y-50698214D01*
X98219285Y-50612500D01*
X98305000Y-50569642D01*
X98476428Y-50569642D01*
X98562142Y-50612500D01*
X98605000Y-50698214D01*
X98605000Y-50783928D01*
X98176428Y-50869642D01*
X98990714Y-51169642D02*
X98990714Y-50569642D01*
X98990714Y-50741071D02*
X99033571Y-50655357D01*
X99076428Y-50612500D01*
X99162142Y-50569642D01*
X99247857Y-50569642D01*
D16*
X143510000Y-65024000D02*
X143499680Y-50291999D01*
X78499680Y-50291999D02*
X78499680Y-77013320D01*
D17*
X99314000Y-77018556D02*
X99314000Y-71013528D01*
D16*
X96314005Y-80013321D02*
G75*
G03*
X99314000Y-77018556I-2J3000002D01*
G01*
X140499680Y-47291999D02*
X81499680Y-47291999D01*
X81499680Y-80013320D02*
X96314005Y-80013320D01*
X102313995Y-68018763D02*
G75*
G03*
X99314000Y-71013528I2J-3000002D01*
G01*
D17*
X140510005Y-68018764D02*
X102313995Y-68018764D01*
D16*
X143499680Y-50291999D02*
G75*
G03*
X140499680Y-47291999I-3000001J-1D01*
G01*
X81499680Y-47291999D02*
G75*
G03*
X78499680Y-50291999I1J-3000001D01*
G01*
X140510005Y-68018765D02*
G75*
G03*
X143510000Y-65024000I-2J3000002D01*
G01*
X78499680Y-77013320D02*
G75*
G03*
X81499680Y-80013320I3000001J1D01*
G01*
D18*
X96126000Y-68326000D03*
X97676000Y-68326000D03*
X91935000Y-68326000D03*
X93485000Y-68326000D03*
D19*
X86868000Y-77122500D03*
X86868000Y-75472500D03*
X89154000Y-77122500D03*
X89154000Y-75472500D03*
D20*
X88961000Y-74183000D03*
X88961000Y-73533000D03*
X88961000Y-72883000D03*
X87061000Y-72883000D03*
X87061000Y-73533000D03*
X87061000Y-74183000D03*
D21*
X82040000Y-64310000D03*
X140040000Y-64330000D03*
D22*
X88600000Y-70550000D03*
X88600000Y-68650000D03*
X86600000Y-69600000D03*
D23*
X109220000Y-53086000D03*
D24*
X109220000Y-50546000D03*
X111760000Y-53086000D03*
X111760000Y-50546000D03*
D23*
X139065000Y-52720000D03*
D24*
X139065000Y-55260000D03*
X139065000Y-57800000D03*
D23*
X80010000Y-54737000D03*
D24*
X82550000Y-54737000D03*
X80010000Y-57277000D03*
X82550000Y-57277000D03*
X80010000Y-59817000D03*
X82550000Y-59817000D03*
D23*
X115077000Y-58166000D03*
D24*
X117617000Y-58166000D03*
X120157000Y-58166000D03*
X122697000Y-58166000D03*
X125237000Y-58166000D03*
X127777000Y-58166000D03*
X130317000Y-58166000D03*
X132857000Y-58166000D03*
D25*
X81661000Y-75311000D03*
D26*
X81661000Y-70231000D03*
D27*
X97423000Y-70637000D03*
D28*
X95123000Y-76937000D03*
D27*
X95123000Y-70637000D03*
X92823000Y-70637000D03*
D23*
X116845000Y-53091000D03*
D24*
X114305000Y-53091000D03*
X116845000Y-50551000D03*
X114305000Y-50551000D03*
D23*
X92217000Y-58039000D03*
D24*
X94757000Y-58039000D03*
X97297000Y-58039000D03*
X99837000Y-58039000D03*
X102377000Y-58039000D03*
X104917000Y-58039000D03*
X107457000Y-58039000D03*
X109997000Y-58039000D03*
D23*
X86920000Y-65590000D03*
D24*
X86920000Y-63050000D03*
X89460000Y-65590000D03*
X89460000Y-63050000D03*
X92000000Y-65590000D03*
X92000000Y-63050000D03*
X94540000Y-65590000D03*
X94540000Y-63050000D03*
X97080000Y-65590000D03*
X97080000Y-63050000D03*
X99620000Y-65590000D03*
X99620000Y-63050000D03*
X102160000Y-65590000D03*
X102160000Y-63050000D03*
X104700000Y-65590000D03*
X104700000Y-63050000D03*
X107240000Y-65590000D03*
X107240000Y-63050000D03*
X109780000Y-65590000D03*
X109780000Y-63050000D03*
X112320000Y-65590000D03*
X112320000Y-63050000D03*
X114860000Y-65590000D03*
X114860000Y-63050000D03*
X117400000Y-65590000D03*
X117400000Y-63050000D03*
X119940000Y-65590000D03*
X119940000Y-63050000D03*
X122480000Y-65590000D03*
X122480000Y-63050000D03*
X125020000Y-65590000D03*
X125020000Y-63050000D03*
X127560000Y-65590000D03*
X127560000Y-63050000D03*
X130100000Y-65590000D03*
X130100000Y-63050000D03*
X132640000Y-65590000D03*
X132640000Y-63050000D03*
X135180000Y-65590000D03*
X135180000Y-63050000D03*
D29*
X94107000Y-68326000D03*
D30*
X95504000Y-60137500D03*
X98425000Y-66929000D03*
X117094000Y-60071000D03*
X88011000Y-77123500D03*
X126746000Y-60198000D03*
X114427000Y-60452000D03*
X106045000Y-60579000D03*
X91122000Y-70676000D03*
X91122000Y-69786000D03*
D31*
X83185000Y-70231000D02*
X83816000Y-69600000D01*
X83816000Y-69600000D02*
X86600000Y-69600000D01*
X81661000Y-70231000D02*
X83185000Y-70231000D01*
D32*
X92450500Y-71252500D02*
X92969500Y-71252500D01*
X91186000Y-72517000D02*
X92450500Y-71252500D01*
X91122000Y-70676000D02*
X91122000Y-72517000D01*
X91122000Y-72517000D02*
X91186000Y-72517000D01*
D33*
X90932511Y-72833489D02*
X89010511Y-72833489D01*
D32*
X91122000Y-72644000D02*
X90932511Y-72833489D01*
D34*
X83561000Y-54605000D02*
X82418000Y-54605000D01*
X92312076Y-61595000D02*
X90551000Y-61595000D01*
X90551000Y-61595000D02*
X83561000Y-54605000D01*
X93249511Y-66735511D02*
X93249511Y-62532435D01*
X93249511Y-62532435D02*
X92312076Y-61595000D01*
X93697000Y-67183000D02*
X93249511Y-66735511D01*
X95123000Y-67691000D02*
X94615000Y-67183000D01*
X95123000Y-68326000D02*
X95123000Y-67691000D01*
X94615000Y-67183000D02*
X93697000Y-67183000D01*
D35*
X89288022Y-74930000D02*
X89288022Y-75338478D01*
X89288022Y-75338478D02*
X89154000Y-75472500D01*
X87808000Y-74930000D02*
X87061000Y-74183000D01*
X89288022Y-74930000D02*
X87808000Y-74930000D01*
X89601511Y-73698511D02*
X89601511Y-74616511D01*
X89601511Y-74616511D02*
X89288022Y-74930000D01*
X95022000Y-68326000D02*
X95631000Y-68326000D01*
X96126000Y-68326000D02*
X95123000Y-68326000D01*
D34*
X95123000Y-68326000D02*
X95123000Y-76937000D01*
D35*
X86461489Y-75065989D02*
X86868000Y-75472500D01*
X86461489Y-73007511D02*
X86461489Y-75065989D01*
X86586000Y-72883000D02*
X86461489Y-73007511D01*
X87061000Y-72883000D02*
X86586000Y-72883000D01*
X89436000Y-73533000D02*
X89601511Y-73698511D01*
X88961000Y-73533000D02*
X89436000Y-73533000D01*
D33*
X88136489Y-74232511D02*
X88911489Y-74232511D01*
X88011000Y-74107022D02*
X88136489Y-74232511D01*
X88011000Y-72308978D02*
X88011000Y-74107022D01*
X88937511Y-71844489D02*
X88475489Y-71844489D01*
X89662000Y-69912000D02*
X89662000Y-71120000D01*
X89662000Y-71120000D02*
X88937511Y-71844489D01*
X89346000Y-69596000D02*
X89662000Y-69912000D01*
X86614000Y-69596000D02*
X89346000Y-69596000D01*
X88475489Y-71844489D02*
X88011000Y-72308978D01*
X87061000Y-72089000D02*
X87061000Y-72883000D01*
X88600000Y-70550000D02*
X87061000Y-72089000D01*
X88600760Y-70550000D02*
X88600000Y-70550000D01*
D35*
X87061000Y-74183000D02*
X87061000Y-73533000D01*
X126238000Y-64372000D02*
X126238000Y-62245000D01*
X126238000Y-62245000D02*
X130317000Y-58166000D01*
X125020000Y-65590000D02*
X126238000Y-64372000D01*
X99837000Y-58187000D02*
X99837000Y-58039000D01*
X104700000Y-63050000D02*
X99837000Y-58187000D01*
X89165500Y-77123500D02*
X89200000Y-77089000D01*
D34*
X86900000Y-77089000D02*
X87976500Y-77089000D01*
X88011000Y-77123500D02*
X89165500Y-77123500D01*
D35*
X87976500Y-77089000D02*
X88011000Y-77123500D01*
D34*
X80010000Y-54737000D02*
X82550000Y-54737000D01*
D32*
X82550000Y-59817000D02*
X80010000Y-59817000D01*
X86920000Y-63050000D02*
X83687000Y-59817000D01*
D34*
X82691000Y-59817000D02*
X82550000Y-59817000D01*
X91122000Y-69786000D02*
X89986000Y-68650000D01*
D32*
X83687000Y-59817000D02*
X82550000Y-59817000D01*
D34*
X91122000Y-70676000D02*
X91122000Y-69786000D01*
D32*
X88700000Y-68650000D02*
X88700000Y-68600000D01*
X89986000Y-68650000D02*
X88600000Y-68650000D01*
D35*
X95664511Y-64465489D02*
X94540000Y-65590000D01*
X95664511Y-61486511D02*
X95664511Y-64465489D01*
X92217000Y-58039000D02*
X95664511Y-61486511D01*
X98204511Y-64174511D02*
X99620000Y-65590000D01*
X98204511Y-58946511D02*
X98204511Y-64174511D01*
X97297000Y-58039000D02*
X98204511Y-58946511D01*
X107457000Y-60975000D02*
X108364511Y-61882511D01*
X107457000Y-58039000D02*
X107457000Y-60975000D01*
X108364511Y-61882511D02*
X108364511Y-64174511D01*
X108364511Y-64174511D02*
X109780000Y-65590000D01*
X113444511Y-59798489D02*
X115077000Y-58166000D01*
X113444511Y-64465489D02*
X113444511Y-59798489D01*
X112320000Y-65590000D02*
X113444511Y-64465489D01*
X116275489Y-64174511D02*
X116275489Y-62047511D01*
X116275489Y-64174511D02*
X114860000Y-65590000D01*
X116275489Y-62047511D02*
X120157000Y-58166000D01*
X114860000Y-60923000D02*
X114860000Y-63050000D01*
X117617000Y-58166000D02*
X114860000Y-60923000D01*
X123895489Y-59507511D02*
X125237000Y-58166000D01*
X123895489Y-64174511D02*
X122480000Y-65590000D01*
X123895489Y-64174511D02*
X123895489Y-59507511D01*
X132640000Y-63050000D02*
X132640000Y-58383000D01*
X132640000Y-58383000D02*
X132857000Y-58166000D01*
X139065000Y-55260000D02*
X135180000Y-59145000D01*
X135180000Y-59145000D02*
X135180000Y-63050000D01*
G04 #@! TA.AperFunction,Conductor*
G36*
X81657644Y-47710906D02*
G01*
X81693608Y-47760406D01*
X81693608Y-47821592D01*
X81679545Y-47849190D01*
X81672417Y-47859000D01*
X81666429Y-47859000D01*
X81666429Y-52217000D01*
X86421095Y-52217000D01*
X86479286Y-52235907D01*
X86515250Y-52285407D01*
X86520095Y-52316000D01*
X86520095Y-54106000D01*
X95343905Y-54106000D01*
X95343905Y-52316000D01*
X95362812Y-52257809D01*
X95412312Y-52221845D01*
X95442905Y-52217000D01*
X99943572Y-52217000D01*
X99943572Y-50546000D01*
X107964723Y-50546000D01*
X107983793Y-50763977D01*
X108040425Y-50975330D01*
X108132898Y-51173638D01*
X108258402Y-51352877D01*
X108413123Y-51507598D01*
X108592361Y-51633102D01*
X108597761Y-51635620D01*
X108621687Y-51646777D01*
X108666435Y-51688505D01*
X108678110Y-51748566D01*
X108652252Y-51804019D01*
X108598738Y-51833682D01*
X108579849Y-51835501D01*
X108338482Y-51835501D01*
X108334639Y-51836110D01*
X108334634Y-51836110D01*
X108303065Y-51841110D01*
X108244696Y-51850354D01*
X108203470Y-51871360D01*
X108138597Y-51904414D01*
X108138595Y-51904415D01*
X108131658Y-51907950D01*
X108041950Y-51997658D01*
X108038415Y-52004595D01*
X108038414Y-52004597D01*
X107987890Y-52103756D01*
X107984354Y-52110696D01*
X107983135Y-52118390D01*
X107983135Y-52118391D01*
X107970109Y-52200634D01*
X107969500Y-52204481D01*
X107969501Y-53967518D01*
X107970110Y-53971361D01*
X107970110Y-53971366D01*
X107974537Y-53999318D01*
X107984354Y-54061304D01*
X108001158Y-54094284D01*
X108029340Y-54149593D01*
X108041950Y-54174342D01*
X108131658Y-54264050D01*
X108138595Y-54267585D01*
X108138597Y-54267586D01*
X108194212Y-54295923D01*
X108244696Y-54321646D01*
X108252390Y-54322865D01*
X108252391Y-54322865D01*
X108334635Y-54335891D01*
X108334637Y-54335891D01*
X108338481Y-54336500D01*
X109219886Y-54336500D01*
X110101518Y-54336499D01*
X110105361Y-54335890D01*
X110105366Y-54335890D01*
X110156035Y-54327865D01*
X110195304Y-54321646D01*
X110251823Y-54292848D01*
X110301403Y-54267586D01*
X110301405Y-54267585D01*
X110308342Y-54264050D01*
X110398050Y-54174342D01*
X110410661Y-54149593D01*
X110452110Y-54068244D01*
X110452110Y-54068243D01*
X110455646Y-54061304D01*
X110459194Y-54038907D01*
X110469891Y-53971365D01*
X110469891Y-53971363D01*
X110470500Y-53967519D01*
X110470500Y-53726153D01*
X110489407Y-53667962D01*
X110538907Y-53631998D01*
X110600093Y-53631998D01*
X110649593Y-53667962D01*
X110659224Y-53684313D01*
X110672898Y-53713638D01*
X110798402Y-53892877D01*
X110953123Y-54047598D01*
X111132361Y-54173102D01*
X111330670Y-54265575D01*
X111417220Y-54288766D01*
X111537846Y-54321088D01*
X111537848Y-54321088D01*
X111542023Y-54322207D01*
X111760000Y-54341277D01*
X111977977Y-54322207D01*
X111982152Y-54321088D01*
X111982154Y-54321088D01*
X112102780Y-54288766D01*
X112189330Y-54265575D01*
X112387639Y-54173102D01*
X112566877Y-54047598D01*
X112721598Y-53892877D01*
X112847102Y-53713638D01*
X112939575Y-53515330D01*
X112939795Y-53515433D01*
X112976236Y-53468797D01*
X113035052Y-53451937D01*
X113092546Y-53472868D01*
X113124488Y-53516831D01*
X113125425Y-53520330D01*
X113217898Y-53718638D01*
X113220379Y-53722181D01*
X113220380Y-53722183D01*
X113243189Y-53754757D01*
X113343402Y-53897877D01*
X113498123Y-54052598D01*
X113551996Y-54090320D01*
X113673474Y-54175380D01*
X113677361Y-54178102D01*
X113875670Y-54270575D01*
X113962220Y-54293766D01*
X114082846Y-54326088D01*
X114082848Y-54326088D01*
X114087023Y-54327207D01*
X114305000Y-54346277D01*
X114522977Y-54327207D01*
X114527152Y-54326088D01*
X114527154Y-54326088D01*
X114647780Y-54293766D01*
X114734330Y-54270575D01*
X114932639Y-54178102D01*
X114936527Y-54175380D01*
X115058004Y-54090320D01*
X115111877Y-54052598D01*
X115266598Y-53897877D01*
X115366811Y-53754757D01*
X115389620Y-53722183D01*
X115389621Y-53722181D01*
X115392102Y-53718638D01*
X115405777Y-53689312D01*
X115447505Y-53644564D01*
X115507566Y-53632889D01*
X115563019Y-53658747D01*
X115592682Y-53712261D01*
X115594501Y-53731150D01*
X115594501Y-53972518D01*
X115595110Y-53976361D01*
X115595110Y-53976366D01*
X115599167Y-54001981D01*
X115609354Y-54066304D01*
X115627480Y-54101878D01*
X115660867Y-54167403D01*
X115666950Y-54179342D01*
X115756658Y-54269050D01*
X115763595Y-54272585D01*
X115763597Y-54272586D01*
X115814264Y-54298402D01*
X115869696Y-54326646D01*
X115877390Y-54327865D01*
X115877391Y-54327865D01*
X115959635Y-54340891D01*
X115959637Y-54340891D01*
X115963481Y-54341500D01*
X116844886Y-54341500D01*
X117726518Y-54341499D01*
X117730361Y-54340890D01*
X117730366Y-54340890D01*
X117767217Y-54335053D01*
X117820304Y-54326646D01*
X117880601Y-54295923D01*
X117926403Y-54272586D01*
X117926405Y-54272585D01*
X117933342Y-54269050D01*
X118023050Y-54179342D01*
X118029134Y-54167403D01*
X118077110Y-54073244D01*
X118077110Y-54073243D01*
X118080646Y-54066304D01*
X118084093Y-54044544D01*
X118094891Y-53976365D01*
X118094891Y-53976363D01*
X118095500Y-53972519D01*
X118095499Y-52499500D01*
X126129715Y-52499500D01*
X133458286Y-52499500D01*
X133458286Y-48084500D01*
X126129715Y-48084500D01*
X126129715Y-52499500D01*
X118095499Y-52499500D01*
X118095499Y-52209482D01*
X118094708Y-52204482D01*
X118083300Y-52132456D01*
X118080646Y-52115696D01*
X118023050Y-52002658D01*
X117933342Y-51912950D01*
X117926405Y-51909415D01*
X117926403Y-51909414D01*
X117827244Y-51858890D01*
X117827243Y-51858890D01*
X117820304Y-51855354D01*
X117812610Y-51854135D01*
X117812609Y-51854135D01*
X117730365Y-51841109D01*
X117730363Y-51841109D01*
X117726519Y-51840500D01*
X117485154Y-51840500D01*
X117426963Y-51821593D01*
X117390999Y-51772093D01*
X117390999Y-51710907D01*
X117426963Y-51661407D01*
X117443315Y-51651776D01*
X117450864Y-51648256D01*
X117472639Y-51638102D01*
X117477167Y-51634932D01*
X117536996Y-51593039D01*
X117651877Y-51512598D01*
X117806598Y-51357877D01*
X117932102Y-51178638D01*
X118024575Y-50980330D01*
X118081207Y-50768977D01*
X118100277Y-50551000D01*
X118081207Y-50333023D01*
X118078613Y-50323340D01*
X118047766Y-50208220D01*
X118024575Y-50121670D01*
X117932102Y-49923362D01*
X117806598Y-49744123D01*
X117651877Y-49589402D01*
X117503491Y-49485501D01*
X117476184Y-49466380D01*
X117476182Y-49466379D01*
X117472639Y-49463898D01*
X117274330Y-49371425D01*
X117187780Y-49348234D01*
X117067154Y-49315912D01*
X117067152Y-49315912D01*
X117062977Y-49314793D01*
X116845000Y-49295723D01*
X116627023Y-49314793D01*
X116622848Y-49315912D01*
X116622846Y-49315912D01*
X116502220Y-49348234D01*
X116415670Y-49371425D01*
X116217362Y-49463898D01*
X116213819Y-49466379D01*
X116213817Y-49466380D01*
X116176375Y-49492597D01*
X116038123Y-49589402D01*
X115883402Y-49744123D01*
X115757898Y-49923362D01*
X115665425Y-50121670D01*
X115642234Y-50208220D01*
X115611388Y-50323340D01*
X115608793Y-50333023D01*
X115608416Y-50337334D01*
X115598130Y-50454902D01*
X115574223Y-50511224D01*
X115521777Y-50542737D01*
X115460825Y-50537404D01*
X115414647Y-50497263D01*
X115400922Y-50455333D01*
X115391629Y-50354200D01*
X115389982Y-50345314D01*
X115337570Y-50159473D01*
X115334332Y-50151038D01*
X115248928Y-49977855D01*
X115244209Y-49970154D01*
X115128678Y-49815440D01*
X115122629Y-49808722D01*
X114980837Y-49677650D01*
X114973670Y-49672151D01*
X114810369Y-49569117D01*
X114802315Y-49565013D01*
X114622969Y-49493460D01*
X114614306Y-49490894D01*
X114574379Y-49482952D01*
X114561133Y-49484520D01*
X114561099Y-49484551D01*
X114559000Y-49492597D01*
X114559000Y-50706000D01*
X114540093Y-50764191D01*
X114490593Y-50800155D01*
X114460000Y-50805000D01*
X113250186Y-50805000D01*
X113238276Y-50808870D01*
X113237958Y-50818591D01*
X113262536Y-50915368D01*
X113265551Y-50923880D01*
X113346386Y-51099225D01*
X113350917Y-51107072D01*
X113462348Y-51264744D01*
X113468222Y-51271622D01*
X113606532Y-51406357D01*
X113613555Y-51412044D01*
X113774099Y-51519317D01*
X113782054Y-51523635D01*
X113959446Y-51599849D01*
X113968058Y-51602647D01*
X114156380Y-51645261D01*
X114165339Y-51646440D01*
X114193258Y-51647537D01*
X114250662Y-51668714D01*
X114284655Y-51719588D01*
X114282253Y-51780726D01*
X114244374Y-51828776D01*
X114198000Y-51845084D01*
X114087023Y-51854793D01*
X114082848Y-51855912D01*
X114082846Y-51855912D01*
X114025194Y-51871360D01*
X113875670Y-51911425D01*
X113677362Y-52003898D01*
X113498123Y-52129402D01*
X113343402Y-52284123D01*
X113217898Y-52463362D01*
X113125425Y-52661670D01*
X113125205Y-52661567D01*
X113088764Y-52708203D01*
X113029948Y-52725063D01*
X112972454Y-52704132D01*
X112940512Y-52660169D01*
X112939575Y-52656670D01*
X112847102Y-52458362D01*
X112838341Y-52445849D01*
X112724077Y-52282664D01*
X112721598Y-52279123D01*
X112566877Y-52124402D01*
X112402919Y-52009597D01*
X112391184Y-52001380D01*
X112391182Y-52001379D01*
X112387639Y-51998898D01*
X112189330Y-51906425D01*
X112190056Y-51904868D01*
X112147168Y-51871360D01*
X112130303Y-51812545D01*
X112151230Y-51755050D01*
X112189954Y-51726914D01*
X112189330Y-51725575D01*
X112268827Y-51688505D01*
X112387639Y-51633102D01*
X112566877Y-51507598D01*
X112721598Y-51352877D01*
X112847102Y-51173638D01*
X112939575Y-50975330D01*
X112996207Y-50763977D01*
X113015277Y-50546000D01*
X112996207Y-50328023D01*
X112992975Y-50315959D01*
X112983882Y-50282024D01*
X113236629Y-50282024D01*
X113236781Y-50293650D01*
X113247327Y-50297000D01*
X114035320Y-50297000D01*
X114048005Y-50292878D01*
X114051000Y-50288757D01*
X114051000Y-49494124D01*
X114046878Y-49481439D01*
X114046274Y-49481000D01*
X114039127Y-49480484D01*
X114023555Y-49483160D01*
X114014819Y-49485501D01*
X113833668Y-49552331D01*
X113825506Y-49556224D01*
X113659562Y-49654950D01*
X113652260Y-49660255D01*
X113507081Y-49787575D01*
X113500858Y-49794133D01*
X113381322Y-49945763D01*
X113376397Y-49953346D01*
X113286490Y-50124231D01*
X113283032Y-50132579D01*
X113236629Y-50282024D01*
X112983882Y-50282024D01*
X112940693Y-50120843D01*
X112939575Y-50116670D01*
X112847102Y-49918362D01*
X112721598Y-49739123D01*
X112566877Y-49584402D01*
X112418467Y-49480484D01*
X112391184Y-49461380D01*
X112391182Y-49461379D01*
X112387639Y-49458898D01*
X112189330Y-49366425D01*
X112102780Y-49343234D01*
X111982154Y-49310912D01*
X111982152Y-49310912D01*
X111977977Y-49309793D01*
X111760000Y-49290723D01*
X111542023Y-49309793D01*
X111537848Y-49310912D01*
X111537846Y-49310912D01*
X111417220Y-49343234D01*
X111330670Y-49366425D01*
X111132362Y-49458898D01*
X111128819Y-49461379D01*
X111128817Y-49461380D01*
X111094369Y-49485501D01*
X110953123Y-49584402D01*
X110798402Y-49739123D01*
X110672898Y-49918362D01*
X110580425Y-50116670D01*
X110578868Y-50115944D01*
X110545360Y-50158832D01*
X110486545Y-50175697D01*
X110429050Y-50154770D01*
X110400914Y-50116046D01*
X110399575Y-50116670D01*
X110348175Y-50006443D01*
X110307102Y-49918362D01*
X110181598Y-49739123D01*
X110026877Y-49584402D01*
X109878467Y-49480484D01*
X109851184Y-49461380D01*
X109851182Y-49461379D01*
X109847639Y-49458898D01*
X109649330Y-49366425D01*
X109562780Y-49343234D01*
X109442154Y-49310912D01*
X109442152Y-49310912D01*
X109437977Y-49309793D01*
X109220000Y-49290723D01*
X109002023Y-49309793D01*
X108997848Y-49310912D01*
X108997846Y-49310912D01*
X108877220Y-49343234D01*
X108790670Y-49366425D01*
X108592362Y-49458898D01*
X108588819Y-49461379D01*
X108588817Y-49461380D01*
X108554369Y-49485501D01*
X108413123Y-49584402D01*
X108258402Y-49739123D01*
X108132898Y-49918362D01*
X108040425Y-50116670D01*
X108039307Y-50120843D01*
X107987026Y-50315959D01*
X107983793Y-50328023D01*
X107964723Y-50546000D01*
X99943572Y-50546000D01*
X99943572Y-47859000D01*
X99938477Y-47859000D01*
X99934667Y-47847274D01*
X99916008Y-47821591D01*
X99916009Y-47760405D01*
X99951973Y-47710906D01*
X100010163Y-47691999D01*
X140460409Y-47691999D01*
X140475895Y-47693218D01*
X140499680Y-47696985D01*
X140507376Y-47695766D01*
X140512459Y-47694961D01*
X140533497Y-47693898D01*
X140566761Y-47695766D01*
X140785241Y-47708036D01*
X140796261Y-47709277D01*
X141072749Y-47756255D01*
X141083572Y-47758725D01*
X141089407Y-47760406D01*
X141353069Y-47836366D01*
X141363542Y-47840031D01*
X141622642Y-47947353D01*
X141632639Y-47952167D01*
X141878102Y-48087830D01*
X141887487Y-48093726D01*
X142116230Y-48256028D01*
X142124898Y-48262941D01*
X142334019Y-48449824D01*
X142341855Y-48457660D01*
X142528738Y-48666781D01*
X142535651Y-48675449D01*
X142697953Y-48904192D01*
X142703849Y-48913577D01*
X142839509Y-49159034D01*
X142844326Y-49169037D01*
X142951648Y-49428137D01*
X142955313Y-49438610D01*
X142971307Y-49494124D01*
X143032954Y-49708107D01*
X143035424Y-49718929D01*
X143078110Y-49970154D01*
X143082401Y-49995410D01*
X143083644Y-50006443D01*
X143097781Y-50258182D01*
X143096718Y-50279220D01*
X143094694Y-50291999D01*
X143095913Y-50299695D01*
X143098489Y-50315959D01*
X143099707Y-50331375D01*
X143104298Y-56885478D01*
X143108664Y-63116914D01*
X143108679Y-63138712D01*
X143089812Y-63196916D01*
X143040338Y-63232914D01*
X142979152Y-63232957D01*
X142929627Y-63197028D01*
X142918149Y-63176507D01*
X142841590Y-62990762D01*
X142840537Y-62988207D01*
X142821875Y-62954260D01*
X142674848Y-62686820D01*
X142673516Y-62684397D01*
X142649389Y-62650195D01*
X142475259Y-62403349D01*
X142475255Y-62403345D01*
X142473670Y-62401097D01*
X142243490Y-62141839D01*
X142241441Y-62139994D01*
X142241437Y-62139990D01*
X142101849Y-62014305D01*
X141985846Y-61909856D01*
X141872747Y-61828885D01*
X141706203Y-61709651D01*
X141706198Y-61709648D01*
X141703948Y-61708037D01*
X141695048Y-61703063D01*
X141403733Y-61540251D01*
X141403724Y-61540247D01*
X141401311Y-61538898D01*
X141081706Y-61404549D01*
X140749117Y-61306663D01*
X140497580Y-61262310D01*
X140410408Y-61246939D01*
X140410403Y-61246938D01*
X140407690Y-61246460D01*
X140061680Y-61224691D01*
X140058919Y-61224826D01*
X140058915Y-61224826D01*
X139765820Y-61239161D01*
X139715399Y-61241627D01*
X139373164Y-61297057D01*
X139039241Y-61390290D01*
X138911403Y-61441940D01*
X138720352Y-61519129D01*
X138720348Y-61519131D01*
X138717791Y-61520164D01*
X138715367Y-61521475D01*
X138715362Y-61521477D01*
X138415251Y-61683746D01*
X138415242Y-61683751D01*
X138412822Y-61685060D01*
X138410560Y-61686632D01*
X138410557Y-61686634D01*
X138316129Y-61752263D01*
X138128134Y-61882923D01*
X137867276Y-62111287D01*
X137865415Y-62113325D01*
X137865414Y-62113326D01*
X137828319Y-62153950D01*
X137633499Y-62367306D01*
X137429717Y-62647787D01*
X137428350Y-62650194D01*
X137428349Y-62650195D01*
X137423478Y-62658770D01*
X137258470Y-62949237D01*
X137257381Y-62951779D01*
X137257377Y-62951786D01*
X137186604Y-63116914D01*
X137121893Y-63267896D01*
X137121097Y-63270531D01*
X137121096Y-63270535D01*
X137084324Y-63392329D01*
X137021687Y-63599793D01*
X137021190Y-63602501D01*
X137021189Y-63602505D01*
X136959882Y-63936544D01*
X136959102Y-63940792D01*
X136955475Y-63992655D01*
X136935402Y-64279726D01*
X136934918Y-64286642D01*
X136943982Y-64502898D01*
X136948815Y-64618204D01*
X136949436Y-64633032D01*
X136962381Y-64716650D01*
X137000419Y-64962362D01*
X137002475Y-64975646D01*
X137025214Y-65059338D01*
X137068783Y-65219697D01*
X137093375Y-65310212D01*
X137094393Y-65312784D01*
X137094395Y-65312789D01*
X137219985Y-65629994D01*
X137221001Y-65632560D01*
X137222290Y-65634985D01*
X137222295Y-65634995D01*
X137382469Y-65936236D01*
X137383765Y-65938673D01*
X137398575Y-65960303D01*
X137578075Y-66222457D01*
X137578080Y-66222463D01*
X137579636Y-66224736D01*
X137581433Y-66226818D01*
X137581437Y-66226823D01*
X137668876Y-66328122D01*
X137806173Y-66487182D01*
X138060553Y-66722740D01*
X138339605Y-66928475D01*
X138639852Y-67101823D01*
X138770788Y-67159027D01*
X138911772Y-67220621D01*
X138957550Y-67240621D01*
X138960191Y-67241439D01*
X138960195Y-67241440D01*
X139286086Y-67342321D01*
X139286090Y-67342322D01*
X139288739Y-67343142D01*
X139291465Y-67343662D01*
X139600954Y-67402700D01*
X139629293Y-67408106D01*
X139797594Y-67421056D01*
X139854163Y-67444372D01*
X139886223Y-67496485D01*
X139881529Y-67557490D01*
X139841874Y-67604085D01*
X139789999Y-67618764D01*
X102353266Y-67618764D01*
X102337779Y-67617545D01*
X102313995Y-67613778D01*
X102310977Y-67614256D01*
X101958504Y-67632708D01*
X101606900Y-67688334D01*
X101604396Y-67689004D01*
X101604392Y-67689005D01*
X101442114Y-67732437D01*
X101263026Y-67780368D01*
X101260621Y-67781290D01*
X101260612Y-67781293D01*
X100933061Y-67906875D01*
X100930641Y-67907803D01*
X100928337Y-67908976D01*
X100928329Y-67908979D01*
X100814033Y-67967141D01*
X100613378Y-68069248D01*
X100314707Y-68262936D01*
X100312695Y-68264562D01*
X100312696Y-68264562D01*
X100039894Y-68485130D01*
X100039888Y-68485135D01*
X100037891Y-68486750D01*
X100036072Y-68488566D01*
X99814428Y-68709824D01*
X99785958Y-68738244D01*
X99784334Y-68740246D01*
X99784329Y-68740251D01*
X99628975Y-68931711D01*
X99561661Y-69014669D01*
X99367452Y-69313002D01*
X99366282Y-69315292D01*
X99366277Y-69315300D01*
X99239571Y-69563225D01*
X99205454Y-69629982D01*
X99077439Y-69962144D01*
X99076763Y-69964651D01*
X99076763Y-69964652D01*
X99020168Y-70174647D01*
X98984805Y-70305858D01*
X98928565Y-70657364D01*
X98928426Y-70659938D01*
X98928425Y-70659945D01*
X98912189Y-70960059D01*
X98909498Y-71009804D01*
X98909015Y-71012821D01*
X98910220Y-71020516D01*
X98910220Y-71020517D01*
X98912808Y-71037043D01*
X98914000Y-71052359D01*
X98914000Y-76978847D01*
X98912754Y-76994504D01*
X98909015Y-77017849D01*
X98910221Y-77025550D01*
X98910221Y-77025552D01*
X98911017Y-77030638D01*
X98912044Y-77051671D01*
X98897500Y-77303075D01*
X98896240Y-77314092D01*
X98881203Y-77401767D01*
X98848885Y-77590203D01*
X98846405Y-77600993D01*
X98796792Y-77772282D01*
X98768466Y-77870077D01*
X98764793Y-77880528D01*
X98658464Y-78136282D01*
X98657248Y-78139207D01*
X98652424Y-78149192D01*
X98518000Y-78391735D01*
X98516627Y-78394212D01*
X98510717Y-78403595D01*
X98348365Y-78631895D01*
X98341442Y-78640558D01*
X98154580Y-78849265D01*
X98146731Y-78857100D01*
X97937704Y-79043593D01*
X97929029Y-79050501D01*
X97700447Y-79212453D01*
X97691054Y-79218347D01*
X97445798Y-79353716D01*
X97435804Y-79358523D01*
X97288715Y-79419374D01*
X97176934Y-79465618D01*
X97166472Y-79469274D01*
X97036029Y-79506810D01*
X96897264Y-79546740D01*
X96886452Y-79549205D01*
X96792516Y-79565148D01*
X96610265Y-79596079D01*
X96599258Y-79597318D01*
X96402889Y-79608334D01*
X96347822Y-79611423D01*
X96326790Y-79610359D01*
X96321701Y-79609553D01*
X96314005Y-79608334D01*
X96290221Y-79612101D01*
X96274734Y-79613320D01*
X81538951Y-79613320D01*
X81523464Y-79612101D01*
X81499680Y-79608334D01*
X81491984Y-79609553D01*
X81486901Y-79610358D01*
X81465863Y-79611421D01*
X81415489Y-79608592D01*
X81214119Y-79597283D01*
X81203099Y-79596042D01*
X80926610Y-79549064D01*
X80915788Y-79546594D01*
X80823736Y-79520074D01*
X80646291Y-79468953D01*
X80635818Y-79465288D01*
X80376718Y-79357966D01*
X80366721Y-79353152D01*
X80121258Y-79217489D01*
X80111873Y-79211593D01*
X79883130Y-79049291D01*
X79874462Y-79042378D01*
X79665341Y-78855495D01*
X79657505Y-78847659D01*
X79470622Y-78638538D01*
X79463709Y-78629870D01*
X79301407Y-78401127D01*
X79295511Y-78391742D01*
X79159848Y-78146279D01*
X79155034Y-78136282D01*
X79047712Y-77877182D01*
X79044045Y-77866704D01*
X79016906Y-77772500D01*
X78966406Y-77597212D01*
X78963936Y-77586389D01*
X78934554Y-77413464D01*
X78929989Y-77386597D01*
X86143977Y-77386597D01*
X86145411Y-77401770D01*
X86147976Y-77413464D01*
X86188362Y-77528466D01*
X86195209Y-77541399D01*
X86266808Y-77638335D01*
X86277165Y-77648692D01*
X86374101Y-77720291D01*
X86387034Y-77727138D01*
X86502031Y-77767522D01*
X86513734Y-77770090D01*
X86536918Y-77772282D01*
X86541554Y-77772500D01*
X86598320Y-77772500D01*
X86611005Y-77768378D01*
X86614000Y-77764257D01*
X86614000Y-77756819D01*
X87122000Y-77756819D01*
X87126122Y-77769504D01*
X87130243Y-77772499D01*
X87194443Y-77772499D01*
X87199086Y-77772280D01*
X87222269Y-77770089D01*
X87233965Y-77767524D01*
X87348966Y-77727138D01*
X87361899Y-77720291D01*
X87458835Y-77648692D01*
X87469192Y-77638335D01*
X87540791Y-77541399D01*
X87547638Y-77528466D01*
X87588023Y-77413467D01*
X87590590Y-77401767D01*
X87591503Y-77392108D01*
X87590271Y-77386597D01*
X88429977Y-77386597D01*
X88431411Y-77401770D01*
X88433976Y-77413464D01*
X88474362Y-77528466D01*
X88481209Y-77541399D01*
X88552808Y-77638335D01*
X88563165Y-77648692D01*
X88660101Y-77720291D01*
X88673034Y-77727138D01*
X88788031Y-77767522D01*
X88799734Y-77770090D01*
X88822918Y-77772282D01*
X88827554Y-77772500D01*
X88884320Y-77772500D01*
X88897005Y-77768378D01*
X88900000Y-77764257D01*
X88900000Y-77756819D01*
X89408000Y-77756819D01*
X89412122Y-77769504D01*
X89416243Y-77772499D01*
X89480443Y-77772499D01*
X89485086Y-77772280D01*
X89508269Y-77770089D01*
X89519965Y-77767524D01*
X89634966Y-77727138D01*
X89647899Y-77720291D01*
X89744835Y-77648692D01*
X89755192Y-77638335D01*
X89826791Y-77541399D01*
X89833638Y-77528466D01*
X89874023Y-77413467D01*
X89876590Y-77401767D01*
X89877503Y-77392108D01*
X89874594Y-77379094D01*
X89872515Y-77377262D01*
X89868835Y-77376500D01*
X89423680Y-77376500D01*
X89410995Y-77380622D01*
X89408000Y-77384743D01*
X89408000Y-77756819D01*
X88900000Y-77756819D01*
X88900000Y-77392180D01*
X88895878Y-77379495D01*
X88891757Y-77376500D01*
X88444703Y-77376500D01*
X88432018Y-77380622D01*
X88430389Y-77382863D01*
X88429977Y-77386597D01*
X87590271Y-77386597D01*
X87588594Y-77379094D01*
X87586515Y-77377262D01*
X87582835Y-77376500D01*
X87137680Y-77376500D01*
X87124995Y-77380622D01*
X87122000Y-77384743D01*
X87122000Y-77756819D01*
X86614000Y-77756819D01*
X86614000Y-77392180D01*
X86609878Y-77379495D01*
X86605757Y-77376500D01*
X86158703Y-77376500D01*
X86146018Y-77380622D01*
X86144389Y-77382863D01*
X86143977Y-77386597D01*
X78929989Y-77386597D01*
X78916958Y-77309901D01*
X78915716Y-77298876D01*
X78901579Y-77047137D01*
X78902642Y-77026099D01*
X78903447Y-77021016D01*
X78904666Y-77013320D01*
X78900899Y-76989535D01*
X78899680Y-76974049D01*
X78899680Y-76830766D01*
X79911000Y-76830766D01*
X79911948Y-76840388D01*
X79923603Y-76898983D01*
X79930922Y-76916651D01*
X79975341Y-76983130D01*
X79988870Y-76996659D01*
X80055349Y-77041078D01*
X80073017Y-77048397D01*
X80131612Y-77060052D01*
X80141234Y-77061000D01*
X81391320Y-77061000D01*
X81404005Y-77056878D01*
X81407000Y-77052757D01*
X81407000Y-77045320D01*
X81915000Y-77045320D01*
X81919122Y-77058005D01*
X81923243Y-77061000D01*
X83180766Y-77061000D01*
X83190388Y-77060052D01*
X83248983Y-77048397D01*
X83266651Y-77041078D01*
X83333130Y-76996659D01*
X83346659Y-76983130D01*
X83391078Y-76916651D01*
X83398397Y-76898983D01*
X83407565Y-76852892D01*
X86144497Y-76852892D01*
X86147406Y-76865906D01*
X86149485Y-76867738D01*
X86153165Y-76868500D01*
X86598320Y-76868500D01*
X86611005Y-76864378D01*
X86614000Y-76860257D01*
X86614000Y-76852820D01*
X87122000Y-76852820D01*
X87126122Y-76865505D01*
X87130243Y-76868500D01*
X87577297Y-76868500D01*
X87589982Y-76864378D01*
X87591611Y-76862137D01*
X87592023Y-76858403D01*
X87591502Y-76852892D01*
X88430497Y-76852892D01*
X88433406Y-76865906D01*
X88435485Y-76867738D01*
X88439165Y-76868500D01*
X88884320Y-76868500D01*
X88897005Y-76864378D01*
X88900000Y-76860257D01*
X88900000Y-76852820D01*
X89408000Y-76852820D01*
X89412122Y-76865505D01*
X89416243Y-76868500D01*
X89863297Y-76868500D01*
X89875982Y-76864378D01*
X89877611Y-76862137D01*
X89878023Y-76858403D01*
X89876589Y-76843230D01*
X89874024Y-76831536D01*
X89833638Y-76716534D01*
X89826791Y-76703601D01*
X89755192Y-76606665D01*
X89744835Y-76596308D01*
X89647899Y-76524709D01*
X89634966Y-76517862D01*
X89519969Y-76477478D01*
X89508266Y-76474910D01*
X89485082Y-76472718D01*
X89480446Y-76472500D01*
X89423680Y-76472500D01*
X89410995Y-76476622D01*
X89408000Y-76480743D01*
X89408000Y-76852820D01*
X88900000Y-76852820D01*
X88900000Y-76488181D01*
X88895878Y-76475496D01*
X88891757Y-76472501D01*
X88827557Y-76472501D01*
X88822914Y-76472720D01*
X88799731Y-76474911D01*
X88788035Y-76477476D01*
X88673034Y-76517862D01*
X88660101Y-76524709D01*
X88563165Y-76596308D01*
X88552808Y-76606665D01*
X88481209Y-76703601D01*
X88474362Y-76716534D01*
X88433977Y-76831533D01*
X88431410Y-76843233D01*
X88430497Y-76852892D01*
X87591502Y-76852892D01*
X87590589Y-76843230D01*
X87588024Y-76831536D01*
X87547638Y-76716534D01*
X87540791Y-76703601D01*
X87469192Y-76606665D01*
X87458835Y-76596308D01*
X87361899Y-76524709D01*
X87348966Y-76517862D01*
X87233969Y-76477478D01*
X87222266Y-76474910D01*
X87199082Y-76472718D01*
X87194446Y-76472500D01*
X87137680Y-76472500D01*
X87124995Y-76476622D01*
X87122000Y-76480743D01*
X87122000Y-76852820D01*
X86614000Y-76852820D01*
X86614000Y-76488181D01*
X86609878Y-76475496D01*
X86605757Y-76472501D01*
X86541557Y-76472501D01*
X86536914Y-76472720D01*
X86513731Y-76474911D01*
X86502035Y-76477476D01*
X86387034Y-76517862D01*
X86374101Y-76524709D01*
X86277165Y-76596308D01*
X86266808Y-76606665D01*
X86195209Y-76703601D01*
X86188362Y-76716534D01*
X86147977Y-76831533D01*
X86145410Y-76843233D01*
X86144497Y-76852892D01*
X83407565Y-76852892D01*
X83410052Y-76840388D01*
X83411000Y-76830766D01*
X83411000Y-75580680D01*
X83406878Y-75567995D01*
X83402757Y-75565000D01*
X81930680Y-75565000D01*
X81917995Y-75569122D01*
X81915000Y-75573243D01*
X81915000Y-77045320D01*
X81407000Y-77045320D01*
X81407000Y-75580680D01*
X81402878Y-75567995D01*
X81398757Y-75565000D01*
X79926680Y-75565000D01*
X79913995Y-75569122D01*
X79911000Y-75573243D01*
X79911000Y-76830766D01*
X78899680Y-76830766D01*
X78899680Y-75041320D01*
X79911000Y-75041320D01*
X79915122Y-75054005D01*
X79919243Y-75057000D01*
X81391320Y-75057000D01*
X81404005Y-75052878D01*
X81407000Y-75048757D01*
X81407000Y-75041320D01*
X81915000Y-75041320D01*
X81919122Y-75054005D01*
X81923243Y-75057000D01*
X83395320Y-75057000D01*
X83408005Y-75052878D01*
X83411000Y-75048757D01*
X83411000Y-73791234D01*
X83410052Y-73781612D01*
X83398397Y-73723017D01*
X83391078Y-73705349D01*
X83346659Y-73638870D01*
X83333130Y-73625341D01*
X83266651Y-73580922D01*
X83248983Y-73573603D01*
X83190388Y-73561948D01*
X83180766Y-73561000D01*
X81930680Y-73561000D01*
X81917995Y-73565122D01*
X81915000Y-73569243D01*
X81915000Y-75041320D01*
X81407000Y-75041320D01*
X81407000Y-73576680D01*
X81402878Y-73563995D01*
X81398757Y-73561000D01*
X80141234Y-73561000D01*
X80131612Y-73561948D01*
X80073017Y-73573603D01*
X80055349Y-73580922D01*
X79988870Y-73625341D01*
X79975341Y-73638870D01*
X79930922Y-73705349D01*
X79923603Y-73723017D01*
X79911948Y-73781612D01*
X79911000Y-73791234D01*
X79911000Y-75041320D01*
X78899680Y-75041320D01*
X78899680Y-65318700D01*
X78918587Y-65260509D01*
X78968087Y-65224545D01*
X79029273Y-65224545D01*
X79078773Y-65260509D01*
X79092617Y-65287447D01*
X79092654Y-65287558D01*
X79093375Y-65290212D01*
X79221001Y-65612560D01*
X79222290Y-65614985D01*
X79222295Y-65614995D01*
X79348443Y-65852243D01*
X79383765Y-65918673D01*
X79385327Y-65920954D01*
X79578075Y-66202457D01*
X79578080Y-66202463D01*
X79579636Y-66204736D01*
X79581433Y-66206818D01*
X79581437Y-66206823D01*
X79671034Y-66310622D01*
X79806173Y-66467182D01*
X80060553Y-66702740D01*
X80339605Y-66908475D01*
X80639852Y-67081823D01*
X80957550Y-67220621D01*
X80960191Y-67221439D01*
X80960195Y-67221440D01*
X81286086Y-67322321D01*
X81286090Y-67322322D01*
X81288739Y-67323142D01*
X81291465Y-67323662D01*
X81602579Y-67383010D01*
X81629293Y-67388106D01*
X81974966Y-67414704D01*
X81977718Y-67414608D01*
X81977723Y-67414608D01*
X82187288Y-67407289D01*
X82321449Y-67402604D01*
X82664424Y-67351958D01*
X82667093Y-67351253D01*
X82667097Y-67351252D01*
X82996957Y-67264100D01*
X82996960Y-67264099D01*
X82999617Y-67263397D01*
X83002185Y-67262401D01*
X83320261Y-67139027D01*
X83320270Y-67139023D01*
X83322848Y-67138023D01*
X83589379Y-66998684D01*
X83627636Y-66978684D01*
X83627637Y-66978683D01*
X83630090Y-66977401D01*
X83645640Y-66966912D01*
X83704453Y-66950047D01*
X83761949Y-66970973D01*
X83796164Y-67021697D01*
X83800000Y-67048987D01*
X83800000Y-68605155D01*
X83781093Y-68663346D01*
X83731593Y-68699310D01*
X83706181Y-68704019D01*
X83679542Y-68705415D01*
X83679540Y-68705415D01*
X83674355Y-68705687D01*
X83669345Y-68707029D01*
X83669335Y-68707031D01*
X83658912Y-68709824D01*
X83643642Y-68712654D01*
X83632910Y-68713782D01*
X83632900Y-68713784D01*
X83627744Y-68714326D01*
X83562625Y-68735485D01*
X83557660Y-68736956D01*
X83491512Y-68754680D01*
X83486886Y-68757037D01*
X83477266Y-68761938D01*
X83462923Y-68767880D01*
X83447716Y-68772821D01*
X83443227Y-68775413D01*
X83443224Y-68775414D01*
X83411963Y-68793463D01*
X83388391Y-68807072D01*
X83383885Y-68809519D01*
X83322851Y-68840617D01*
X83310427Y-68850678D01*
X83297628Y-68859474D01*
X83283784Y-68867467D01*
X83279934Y-68870933D01*
X83279925Y-68870940D01*
X83232890Y-68913291D01*
X83228960Y-68916647D01*
X83212620Y-68929880D01*
X83199788Y-68942712D01*
X83145271Y-68970489D01*
X83084839Y-68960918D01*
X83059233Y-68942160D01*
X83048947Y-68931711D01*
X82921034Y-68801772D01*
X82787025Y-68699500D01*
X82709869Y-68640616D01*
X82709867Y-68640615D01*
X82707083Y-68638490D01*
X82472261Y-68506983D01*
X82221251Y-68409875D01*
X82217845Y-68409086D01*
X82217840Y-68409084D01*
X82055420Y-68371437D01*
X81959063Y-68349103D01*
X81749043Y-68330913D01*
X81694416Y-68326182D01*
X81694415Y-68326182D01*
X81690928Y-68325880D01*
X81575211Y-68332248D01*
X81425695Y-68340476D01*
X81425689Y-68340477D01*
X81422196Y-68340669D01*
X81158228Y-68393176D01*
X80904292Y-68482352D01*
X80901191Y-68483963D01*
X80901186Y-68483965D01*
X80856875Y-68506983D01*
X80665455Y-68606418D01*
X80662614Y-68608448D01*
X80662611Y-68608450D01*
X80585792Y-68663346D01*
X80446481Y-68762899D01*
X80394912Y-68812093D01*
X80254271Y-68946257D01*
X80254267Y-68946261D01*
X80251740Y-68948672D01*
X80085118Y-69160032D01*
X80083362Y-69163054D01*
X80083360Y-69163058D01*
X80058092Y-69206560D01*
X79949939Y-69392760D01*
X79904577Y-69504753D01*
X79850924Y-69637217D01*
X79848900Y-69642213D01*
X79784017Y-69903414D01*
X79783660Y-69906898D01*
X79778248Y-69959724D01*
X79756585Y-70171151D01*
X79767152Y-70440083D01*
X79815505Y-70704843D01*
X79816612Y-70708161D01*
X79816613Y-70708165D01*
X79885401Y-70914347D01*
X79900682Y-70960148D01*
X79902247Y-70963280D01*
X79902249Y-70963285D01*
X79931318Y-71021460D01*
X80020981Y-71200905D01*
X80174003Y-71422309D01*
X80356695Y-71619944D01*
X80359405Y-71622151D01*
X80359409Y-71622154D01*
X80561932Y-71787034D01*
X80565411Y-71789866D01*
X80795987Y-71928684D01*
X80881869Y-71965050D01*
X81019942Y-72023516D01*
X81043822Y-72033628D01*
X81303972Y-72102606D01*
X81307445Y-72103017D01*
X81307450Y-72103018D01*
X81512812Y-72127324D01*
X81571245Y-72134240D01*
X81574734Y-72134158D01*
X81574739Y-72134158D01*
X81697338Y-72131268D01*
X81840310Y-72127899D01*
X82105796Y-72083710D01*
X82109128Y-72082656D01*
X82109133Y-72082655D01*
X82205373Y-72052218D01*
X82362408Y-72002554D01*
X82365566Y-72001038D01*
X82365570Y-72001036D01*
X82601867Y-71887568D01*
X82601873Y-71887565D01*
X82605025Y-71886051D01*
X82779841Y-71769243D01*
X82825894Y-71738472D01*
X82825897Y-71738470D01*
X82828806Y-71736526D01*
X82831414Y-71734190D01*
X82831418Y-71734187D01*
X83026675Y-71559300D01*
X83026678Y-71559297D01*
X83029286Y-71556961D01*
X83202465Y-71350940D01*
X83323197Y-71157351D01*
X83370033Y-71117980D01*
X83376577Y-71115595D01*
X83438389Y-71095511D01*
X83443331Y-71094047D01*
X83504477Y-71077663D01*
X83504480Y-71077662D01*
X83509488Y-71076320D01*
X83514115Y-71073963D01*
X83523734Y-71069062D01*
X83538077Y-71063120D01*
X83553284Y-71058179D01*
X83557773Y-71055587D01*
X83557776Y-71055586D01*
X83589893Y-71037043D01*
X83612609Y-71023928D01*
X83617115Y-71021481D01*
X83678149Y-70990383D01*
X83690572Y-70980323D01*
X83703372Y-70971526D01*
X83712721Y-70966128D01*
X83717216Y-70963533D01*
X83768104Y-70917713D01*
X83772045Y-70914347D01*
X83786362Y-70902753D01*
X83788380Y-70901119D01*
X83803251Y-70886248D01*
X83807011Y-70882681D01*
X83854035Y-70840341D01*
X83854038Y-70840337D01*
X83857888Y-70836871D01*
X83860934Y-70832678D01*
X83860938Y-70832674D01*
X83867285Y-70823938D01*
X83877375Y-70812124D01*
X84080504Y-70608996D01*
X84135020Y-70581219D01*
X84150507Y-70580000D01*
X87501000Y-70580000D01*
X87559191Y-70598907D01*
X87595155Y-70648407D01*
X87600000Y-70679000D01*
X87600000Y-70765823D01*
X87581093Y-70824014D01*
X87571004Y-70835827D01*
X86699229Y-71707602D01*
X86696235Y-71710472D01*
X86657259Y-71746312D01*
X86657256Y-71746316D01*
X86652288Y-71750884D01*
X86648731Y-71756621D01*
X86629874Y-71787034D01*
X86624591Y-71794721D01*
X86603385Y-71822659D01*
X86598872Y-71828604D01*
X86596389Y-71834875D01*
X86596388Y-71834877D01*
X86592888Y-71843717D01*
X86584979Y-71859442D01*
X86580245Y-71867078D01*
X86576418Y-71873250D01*
X86573621Y-71882878D01*
X86564550Y-71914098D01*
X86561530Y-71922918D01*
X86548356Y-71956194D01*
X86548355Y-71956197D01*
X86545871Y-71962472D01*
X86545165Y-71969185D01*
X86545164Y-71969191D01*
X86544171Y-71978635D01*
X86540783Y-71995904D01*
X86537696Y-72006529D01*
X86537695Y-72006535D01*
X86536249Y-72011512D01*
X86535500Y-72021712D01*
X86535500Y-72055954D01*
X86534958Y-72066300D01*
X86530821Y-72105662D01*
X86531946Y-72112312D01*
X86534114Y-72125131D01*
X86535500Y-72141641D01*
X86535500Y-72278519D01*
X86516593Y-72336710D01*
X86499075Y-72354228D01*
X86497658Y-72354950D01*
X86428193Y-72424415D01*
X86391805Y-72447529D01*
X86360470Y-72458841D01*
X86353013Y-72464289D01*
X86335590Y-72474470D01*
X86333599Y-72475375D01*
X86333596Y-72475377D01*
X86327180Y-72478294D01*
X86293055Y-72507698D01*
X86286861Y-72512616D01*
X86275965Y-72520577D01*
X86265209Y-72531333D01*
X86259829Y-72536328D01*
X86229336Y-72562602D01*
X86229333Y-72562605D01*
X86223996Y-72567204D01*
X86220161Y-72573121D01*
X86220159Y-72573123D01*
X86219838Y-72573618D01*
X86206767Y-72589775D01*
X86170767Y-72625775D01*
X86161402Y-72633257D01*
X86161474Y-72633342D01*
X86156104Y-72637912D01*
X86150139Y-72641676D01*
X86116439Y-72679834D01*
X86112239Y-72684303D01*
X86101116Y-72695426D01*
X86099006Y-72698242D01*
X86099002Y-72698246D01*
X86094800Y-72703853D01*
X86089786Y-72710011D01*
X86064643Y-72738480D01*
X86064639Y-72738486D01*
X86059976Y-72743766D01*
X86056982Y-72750144D01*
X86056979Y-72750148D01*
X86056051Y-72752125D01*
X86045655Y-72769426D01*
X86044349Y-72771168D01*
X86044346Y-72771174D01*
X86040117Y-72776816D01*
X86037642Y-72783418D01*
X86037641Y-72783420D01*
X86024308Y-72818987D01*
X86021229Y-72826295D01*
X86002090Y-72867059D01*
X86000669Y-72876184D01*
X85995549Y-72895701D01*
X85992305Y-72904354D01*
X85990108Y-72933933D01*
X85988969Y-72949259D01*
X85988064Y-72957144D01*
X85985989Y-72970467D01*
X85985989Y-72985679D01*
X85985717Y-72993014D01*
X85982212Y-73040185D01*
X85983684Y-73047079D01*
X85983684Y-73047084D01*
X85983808Y-73047663D01*
X85985989Y-73068329D01*
X85985989Y-75001632D01*
X85984658Y-75013544D01*
X85984769Y-75013553D01*
X85984203Y-75020583D01*
X85982647Y-75027462D01*
X85983084Y-75034500D01*
X85985799Y-75078267D01*
X85985989Y-75084397D01*
X85985989Y-75100134D01*
X85986489Y-75103625D01*
X85987483Y-75110564D01*
X85988293Y-75118469D01*
X85990644Y-75156371D01*
X85990645Y-75156375D01*
X85991081Y-75163406D01*
X85993473Y-75170033D01*
X85994562Y-75175290D01*
X85995772Y-75208287D01*
X85992500Y-75233139D01*
X85992501Y-75711860D01*
X86007956Y-75829262D01*
X86010438Y-75835254D01*
X86010439Y-75835258D01*
X86041140Y-75909376D01*
X86068464Y-75975341D01*
X86164718Y-76100782D01*
X86290159Y-76197036D01*
X86436238Y-76257544D01*
X86553639Y-76273000D01*
X86867951Y-76273000D01*
X87182360Y-76272999D01*
X87185571Y-76272576D01*
X87185576Y-76272576D01*
X87267329Y-76261814D01*
X87299762Y-76257544D01*
X87305754Y-76255062D01*
X87305758Y-76255061D01*
X87405753Y-76213641D01*
X87445841Y-76197036D01*
X87571282Y-76100782D01*
X87667536Y-75975341D01*
X87728044Y-75829262D01*
X87743500Y-75711861D01*
X87743499Y-75507379D01*
X87762406Y-75449190D01*
X87811906Y-75413226D01*
X87834635Y-75408828D01*
X87840674Y-75409277D01*
X87847568Y-75407805D01*
X87847573Y-75407805D01*
X87848152Y-75407681D01*
X87868818Y-75405500D01*
X88179500Y-75405500D01*
X88237691Y-75424407D01*
X88273655Y-75473907D01*
X88278500Y-75504500D01*
X88278501Y-75608950D01*
X88278501Y-75711860D01*
X88293956Y-75829262D01*
X88296438Y-75835254D01*
X88296439Y-75835258D01*
X88327140Y-75909376D01*
X88354464Y-75975341D01*
X88450718Y-76100782D01*
X88576159Y-76197036D01*
X88722238Y-76257544D01*
X88839639Y-76273000D01*
X89153951Y-76273000D01*
X89468360Y-76272999D01*
X89471571Y-76272576D01*
X89471576Y-76272576D01*
X89553329Y-76261814D01*
X89585762Y-76257544D01*
X89591754Y-76255062D01*
X89591758Y-76255061D01*
X89691753Y-76213641D01*
X89731841Y-76197036D01*
X89857282Y-76100782D01*
X89953536Y-75975341D01*
X90014044Y-75829262D01*
X90029500Y-75711861D01*
X90029499Y-75233140D01*
X90026228Y-75208287D01*
X90014891Y-75122173D01*
X90014044Y-75115738D01*
X89967778Y-75004042D01*
X89962977Y-74943045D01*
X89985039Y-74900621D01*
X89998357Y-74885542D01*
X89998361Y-74885536D01*
X90003024Y-74880256D01*
X90006018Y-74873878D01*
X90006021Y-74873874D01*
X90006949Y-74871897D01*
X90017345Y-74854596D01*
X90018653Y-74852851D01*
X90018656Y-74852846D01*
X90022883Y-74847206D01*
X90038692Y-74805034D01*
X90041779Y-74797710D01*
X90057911Y-74763351D01*
X90057911Y-74763350D01*
X90060910Y-74756963D01*
X90061997Y-74749986D01*
X90062333Y-74747830D01*
X90067450Y-74728322D01*
X90068218Y-74726273D01*
X90070694Y-74719668D01*
X90074031Y-74674766D01*
X90074937Y-74666874D01*
X90077011Y-74653555D01*
X90077011Y-74638340D01*
X90077283Y-74631003D01*
X90080265Y-74590870D01*
X90080788Y-74583837D01*
X90079316Y-74576943D01*
X90079316Y-74576938D01*
X90079192Y-74576359D01*
X90077011Y-74555693D01*
X90077011Y-74039000D01*
X90095918Y-73980809D01*
X90145418Y-73944845D01*
X90176011Y-73940000D01*
X94423500Y-73940000D01*
X94481691Y-73958907D01*
X94517655Y-74008407D01*
X94522500Y-74039000D01*
X94522500Y-75437501D01*
X94503593Y-75495692D01*
X94454093Y-75531656D01*
X94423500Y-75536501D01*
X93191482Y-75536501D01*
X93187639Y-75537110D01*
X93187634Y-75537110D01*
X93150783Y-75542947D01*
X93097696Y-75551354D01*
X93054737Y-75573243D01*
X92991597Y-75605414D01*
X92991595Y-75605415D01*
X92984658Y-75608950D01*
X92894950Y-75698658D01*
X92891415Y-75705595D01*
X92891414Y-75705597D01*
X92840890Y-75804756D01*
X92837354Y-75811696D01*
X92822500Y-75905481D01*
X92822501Y-77968518D01*
X92837354Y-78062304D01*
X92841245Y-78069940D01*
X92880145Y-78146285D01*
X92894950Y-78175342D01*
X92984658Y-78265050D01*
X92991595Y-78268585D01*
X92991597Y-78268586D01*
X93090756Y-78319110D01*
X93097696Y-78322646D01*
X93105390Y-78323865D01*
X93105391Y-78323865D01*
X93187635Y-78336891D01*
X93187637Y-78336891D01*
X93191481Y-78337500D01*
X95122751Y-78337500D01*
X97054518Y-78337499D01*
X97058361Y-78336890D01*
X97058366Y-78336890D01*
X97095217Y-78331053D01*
X97148304Y-78322646D01*
X97204823Y-78293848D01*
X97254403Y-78268586D01*
X97254405Y-78268585D01*
X97261342Y-78265050D01*
X97351050Y-78175342D01*
X97365856Y-78146285D01*
X97405110Y-78069244D01*
X97405110Y-78069243D01*
X97408646Y-78062304D01*
X97423500Y-77968519D01*
X97423499Y-75905482D01*
X97408646Y-75811696D01*
X97379848Y-75755177D01*
X97354586Y-75705597D01*
X97354585Y-75705595D01*
X97351050Y-75698658D01*
X97261342Y-75608950D01*
X97254405Y-75605415D01*
X97254403Y-75605414D01*
X97155244Y-75554890D01*
X97155243Y-75554890D01*
X97148304Y-75551354D01*
X97140610Y-75550135D01*
X97140609Y-75550135D01*
X97058365Y-75537109D01*
X97058363Y-75537109D01*
X97054519Y-75536500D01*
X95822500Y-75536500D01*
X95764309Y-75517593D01*
X95728345Y-75468093D01*
X95723500Y-75437500D01*
X95723500Y-72136499D01*
X95742407Y-72078308D01*
X95791907Y-72042344D01*
X95822500Y-72037499D01*
X95904518Y-72037499D01*
X95908361Y-72036890D01*
X95908366Y-72036890D01*
X95945217Y-72031053D01*
X95998304Y-72022646D01*
X96067443Y-71987418D01*
X96104403Y-71968586D01*
X96104405Y-71968585D01*
X96111342Y-71965050D01*
X96201050Y-71875342D01*
X96209152Y-71859442D01*
X96234787Y-71809130D01*
X96258646Y-71762304D01*
X96259769Y-71755213D01*
X96295549Y-71705963D01*
X96353739Y-71687054D01*
X96411930Y-71705960D01*
X96435517Y-71735874D01*
X96437505Y-71734545D01*
X96487341Y-71809130D01*
X96500870Y-71822659D01*
X96567349Y-71867078D01*
X96585017Y-71874397D01*
X96643612Y-71886052D01*
X96653234Y-71887000D01*
X97153320Y-71887000D01*
X97166005Y-71882878D01*
X97169000Y-71878757D01*
X97169000Y-71871320D01*
X97677000Y-71871320D01*
X97681122Y-71884005D01*
X97685243Y-71887000D01*
X98192766Y-71887000D01*
X98202388Y-71886052D01*
X98260983Y-71874397D01*
X98278651Y-71867078D01*
X98345130Y-71822659D01*
X98358659Y-71809130D01*
X98403078Y-71742651D01*
X98410397Y-71724983D01*
X98422052Y-71666388D01*
X98423000Y-71656766D01*
X98423000Y-70906680D01*
X98418878Y-70893995D01*
X98414757Y-70891000D01*
X97692680Y-70891000D01*
X97679995Y-70895122D01*
X97677000Y-70899243D01*
X97677000Y-71871320D01*
X97169000Y-71871320D01*
X97169000Y-70367320D01*
X97677000Y-70367320D01*
X97681122Y-70380005D01*
X97685243Y-70383000D01*
X98407320Y-70383000D01*
X98420005Y-70378878D01*
X98423000Y-70374757D01*
X98423000Y-69617234D01*
X98422052Y-69607612D01*
X98410397Y-69549017D01*
X98403078Y-69531349D01*
X98358659Y-69464870D01*
X98345130Y-69451341D01*
X98278651Y-69406922D01*
X98260983Y-69399603D01*
X98202388Y-69387948D01*
X98192766Y-69387000D01*
X97692680Y-69387000D01*
X97679995Y-69391122D01*
X97677000Y-69395243D01*
X97677000Y-70367320D01*
X97169000Y-70367320D01*
X97169000Y-69402680D01*
X97164878Y-69389995D01*
X97160757Y-69387000D01*
X96653234Y-69387000D01*
X96643612Y-69387948D01*
X96585017Y-69399603D01*
X96567349Y-69406922D01*
X96500870Y-69451341D01*
X96487341Y-69464870D01*
X96437505Y-69539455D01*
X96435001Y-69537782D01*
X96405466Y-69572360D01*
X96345971Y-69586642D01*
X96289444Y-69563225D01*
X96259774Y-69518817D01*
X96258646Y-69511696D01*
X96201050Y-69398658D01*
X96172895Y-69370503D01*
X96145118Y-69315986D01*
X96154689Y-69255554D01*
X96197954Y-69212289D01*
X96242898Y-69201499D01*
X96414162Y-69201499D01*
X96416106Y-69201346D01*
X96416108Y-69201346D01*
X96444586Y-69199106D01*
X96444590Y-69199105D01*
X96449627Y-69198709D01*
X96601390Y-69154618D01*
X96737420Y-69074170D01*
X96849170Y-68962420D01*
X96905022Y-68867980D01*
X96950918Y-68827517D01*
X97011831Y-68821759D01*
X97064496Y-68852905D01*
X97069456Y-68859003D01*
X97107438Y-68909683D01*
X97117318Y-68919563D01*
X97214907Y-68992701D01*
X97227150Y-68999404D01*
X97342141Y-69042511D01*
X97354120Y-69045360D01*
X97403375Y-69050711D01*
X97406661Y-69050889D01*
X97419005Y-69046878D01*
X97422000Y-69042757D01*
X97422000Y-69035320D01*
X97930000Y-69035320D01*
X97934122Y-69048005D01*
X97938243Y-69051000D01*
X97943291Y-69051000D01*
X97948625Y-69050711D01*
X97997880Y-69045360D01*
X98009859Y-69042511D01*
X98124850Y-68999404D01*
X98137093Y-68992701D01*
X98234682Y-68919563D01*
X98244563Y-68909682D01*
X98317701Y-68812093D01*
X98324404Y-68799850D01*
X98367511Y-68684859D01*
X98370360Y-68672880D01*
X98375711Y-68623625D01*
X98376000Y-68618291D01*
X98376000Y-68595680D01*
X98371878Y-68582995D01*
X98367757Y-68580000D01*
X97945680Y-68580000D01*
X97932995Y-68584122D01*
X97930000Y-68588243D01*
X97930000Y-69035320D01*
X97422000Y-69035320D01*
X97422000Y-68056320D01*
X97930000Y-68056320D01*
X97934122Y-68069005D01*
X97938243Y-68072000D01*
X98360320Y-68072000D01*
X98373005Y-68067878D01*
X98376000Y-68063757D01*
X98376000Y-68033709D01*
X98375711Y-68028375D01*
X98370360Y-67979120D01*
X98367511Y-67967141D01*
X98324404Y-67852150D01*
X98317701Y-67839907D01*
X98244563Y-67742318D01*
X98234682Y-67732437D01*
X98137093Y-67659299D01*
X98124850Y-67652596D01*
X98009859Y-67609489D01*
X97997880Y-67606640D01*
X97948625Y-67601289D01*
X97945339Y-67601111D01*
X97932995Y-67605122D01*
X97930000Y-67609243D01*
X97930000Y-68056320D01*
X97422000Y-68056320D01*
X97422000Y-67616680D01*
X97417878Y-67603995D01*
X97413757Y-67601000D01*
X97408709Y-67601000D01*
X97403375Y-67601289D01*
X97354120Y-67606640D01*
X97342141Y-67609489D01*
X97227150Y-67652596D01*
X97214907Y-67659299D01*
X97117318Y-67732437D01*
X97107438Y-67742317D01*
X97069456Y-67792997D01*
X97019428Y-67828223D01*
X96958250Y-67827316D01*
X96909288Y-67790622D01*
X96905022Y-67784020D01*
X96852343Y-67694945D01*
X96852342Y-67694944D01*
X96849170Y-67689580D01*
X96737420Y-67577830D01*
X96601390Y-67497382D01*
X96595408Y-67495644D01*
X96454485Y-67454702D01*
X96454482Y-67454701D01*
X96449627Y-67453291D01*
X96444587Y-67452894D01*
X96444585Y-67452894D01*
X96429109Y-67451676D01*
X96414163Y-67450500D01*
X96126074Y-67450500D01*
X95837838Y-67450501D01*
X95835894Y-67450654D01*
X95835892Y-67450654D01*
X95807414Y-67452894D01*
X95807410Y-67452895D01*
X95802373Y-67453291D01*
X95773398Y-67461709D01*
X95712245Y-67459787D01*
X95663899Y-67422287D01*
X95654315Y-67404526D01*
X95653352Y-67402201D01*
X95647536Y-67388159D01*
X95575450Y-67294214D01*
X95575449Y-67294213D01*
X95551282Y-67262718D01*
X95524936Y-67242502D01*
X95515200Y-67233964D01*
X95330223Y-67048987D01*
X95124874Y-66843639D01*
X95097096Y-66789122D01*
X95106667Y-66728690D01*
X95153036Y-66683912D01*
X95163713Y-66678933D01*
X95163715Y-66678932D01*
X95167639Y-66677102D01*
X95217966Y-66641863D01*
X95231996Y-66632039D01*
X95346877Y-66551598D01*
X95501598Y-66396877D01*
X95627102Y-66217638D01*
X95719575Y-66019330D01*
X95765919Y-65846372D01*
X95775088Y-65812154D01*
X95775088Y-65812152D01*
X95776207Y-65807977D01*
X95786145Y-65694382D01*
X95786710Y-65687927D01*
X95810617Y-65631605D01*
X95863063Y-65600092D01*
X95924015Y-65605425D01*
X95970193Y-65645566D01*
X95984121Y-65690081D01*
X95988591Y-65758289D01*
X95990004Y-65767210D01*
X96037534Y-65954359D01*
X96040554Y-65962887D01*
X96121386Y-66138225D01*
X96125917Y-66146072D01*
X96237348Y-66303744D01*
X96243222Y-66310622D01*
X96381532Y-66445357D01*
X96388555Y-66451044D01*
X96549099Y-66558317D01*
X96557054Y-66562635D01*
X96734446Y-66638849D01*
X96743057Y-66641647D01*
X96810706Y-66656954D01*
X96823603Y-66655769D01*
X96826000Y-66647051D01*
X96826000Y-65435000D01*
X96844907Y-65376809D01*
X96894407Y-65340845D01*
X96925000Y-65336000D01*
X97235000Y-65336000D01*
X97293191Y-65354907D01*
X97329155Y-65404407D01*
X97334000Y-65435000D01*
X97334000Y-66649074D01*
X97338122Y-66661759D01*
X97339293Y-66662610D01*
X97341800Y-66662824D01*
X97342189Y-66662731D01*
X97525026Y-66600666D01*
X97533288Y-66596988D01*
X97701755Y-66502641D01*
X97709209Y-66497518D01*
X97857650Y-66374061D01*
X97864061Y-66367650D01*
X97987518Y-66219209D01*
X97992641Y-66211755D01*
X98086988Y-66043288D01*
X98090666Y-66035026D01*
X98152730Y-65852191D01*
X98154841Y-65843399D01*
X98177256Y-65688804D01*
X98204318Y-65633929D01*
X98258466Y-65605440D01*
X98319018Y-65614219D01*
X98362846Y-65656914D01*
X98373855Y-65694382D01*
X98383793Y-65807977D01*
X98384912Y-65812152D01*
X98384912Y-65812154D01*
X98394081Y-65846372D01*
X98440425Y-66019330D01*
X98532898Y-66217638D01*
X98658402Y-66396877D01*
X98813123Y-66551598D01*
X98928004Y-66632039D01*
X98942035Y-66641863D01*
X98992361Y-66677102D01*
X99190670Y-66769575D01*
X99210439Y-66774872D01*
X99397846Y-66825088D01*
X99397848Y-66825088D01*
X99402023Y-66826207D01*
X99620000Y-66845277D01*
X99837977Y-66826207D01*
X99842152Y-66825088D01*
X99842154Y-66825088D01*
X100029561Y-66774872D01*
X100049330Y-66769575D01*
X100247639Y-66677102D01*
X100297966Y-66641863D01*
X100311996Y-66632039D01*
X100426877Y-66551598D01*
X100581598Y-66396877D01*
X100707102Y-66217638D01*
X100799575Y-66019330D01*
X100801132Y-66020056D01*
X100834640Y-65977168D01*
X100893455Y-65960303D01*
X100950950Y-65981230D01*
X100979086Y-66019954D01*
X100980425Y-66019330D01*
X101072898Y-66217638D01*
X101198402Y-66396877D01*
X101353123Y-66551598D01*
X101468004Y-66632039D01*
X101482035Y-66641863D01*
X101532361Y-66677102D01*
X101730670Y-66769575D01*
X101750439Y-66774872D01*
X101937846Y-66825088D01*
X101937848Y-66825088D01*
X101942023Y-66826207D01*
X102160000Y-66845277D01*
X102377977Y-66826207D01*
X102382152Y-66825088D01*
X102382154Y-66825088D01*
X102569561Y-66774872D01*
X102589330Y-66769575D01*
X102787639Y-66677102D01*
X102837966Y-66641863D01*
X102851996Y-66632039D01*
X102966877Y-66551598D01*
X103121598Y-66396877D01*
X103247102Y-66217638D01*
X103339575Y-66019330D01*
X103341132Y-66020056D01*
X103374640Y-65977168D01*
X103433455Y-65960303D01*
X103490950Y-65981230D01*
X103519086Y-66019954D01*
X103520425Y-66019330D01*
X103612898Y-66217638D01*
X103738402Y-66396877D01*
X103893123Y-66551598D01*
X104008004Y-66632039D01*
X104022035Y-66641863D01*
X104072361Y-66677102D01*
X104270670Y-66769575D01*
X104290439Y-66774872D01*
X104477846Y-66825088D01*
X104477848Y-66825088D01*
X104482023Y-66826207D01*
X104700000Y-66845277D01*
X104917977Y-66826207D01*
X104922152Y-66825088D01*
X104922154Y-66825088D01*
X105109561Y-66774872D01*
X105129330Y-66769575D01*
X105327639Y-66677102D01*
X105377966Y-66641863D01*
X105391996Y-66632039D01*
X105506877Y-66551598D01*
X105661598Y-66396877D01*
X105787102Y-66217638D01*
X105879575Y-66019330D01*
X105881132Y-66020056D01*
X105914640Y-65977168D01*
X105973455Y-65960303D01*
X106030950Y-65981230D01*
X106059086Y-66019954D01*
X106060425Y-66019330D01*
X106152898Y-66217638D01*
X106278402Y-66396877D01*
X106433123Y-66551598D01*
X106548004Y-66632039D01*
X106562035Y-66641863D01*
X106612361Y-66677102D01*
X106810670Y-66769575D01*
X106830439Y-66774872D01*
X107017846Y-66825088D01*
X107017848Y-66825088D01*
X107022023Y-66826207D01*
X107240000Y-66845277D01*
X107457977Y-66826207D01*
X107462152Y-66825088D01*
X107462154Y-66825088D01*
X107649561Y-66774872D01*
X107669330Y-66769575D01*
X107867639Y-66677102D01*
X107917966Y-66641863D01*
X107931996Y-66632039D01*
X108046877Y-66551598D01*
X108201598Y-66396877D01*
X108327102Y-66217638D01*
X108419575Y-66019330D01*
X108421132Y-66020056D01*
X108454640Y-65977168D01*
X108513455Y-65960303D01*
X108570950Y-65981230D01*
X108599086Y-66019954D01*
X108600425Y-66019330D01*
X108692898Y-66217638D01*
X108818402Y-66396877D01*
X108973123Y-66551598D01*
X109088004Y-66632039D01*
X109102035Y-66641863D01*
X109152361Y-66677102D01*
X109350670Y-66769575D01*
X109370439Y-66774872D01*
X109557846Y-66825088D01*
X109557848Y-66825088D01*
X109562023Y-66826207D01*
X109780000Y-66845277D01*
X109997977Y-66826207D01*
X110002152Y-66825088D01*
X110002154Y-66825088D01*
X110189561Y-66774872D01*
X110209330Y-66769575D01*
X110407639Y-66677102D01*
X110457966Y-66641863D01*
X110471996Y-66632039D01*
X110586877Y-66551598D01*
X110741598Y-66396877D01*
X110867102Y-66217638D01*
X110959575Y-66019330D01*
X110961132Y-66020056D01*
X110994640Y-65977168D01*
X111053455Y-65960303D01*
X111110950Y-65981230D01*
X111139086Y-66019954D01*
X111140425Y-66019330D01*
X111232898Y-66217638D01*
X111358402Y-66396877D01*
X111513123Y-66551598D01*
X111628004Y-66632039D01*
X111642035Y-66641863D01*
X111692361Y-66677102D01*
X111890670Y-66769575D01*
X111910439Y-66774872D01*
X112097846Y-66825088D01*
X112097848Y-66825088D01*
X112102023Y-66826207D01*
X112320000Y-66845277D01*
X112537977Y-66826207D01*
X112542152Y-66825088D01*
X112542154Y-66825088D01*
X112729561Y-66774872D01*
X112749330Y-66769575D01*
X112947639Y-66677102D01*
X112997966Y-66641863D01*
X113011996Y-66632039D01*
X113126877Y-66551598D01*
X113281598Y-66396877D01*
X113407102Y-66217638D01*
X113499575Y-66019330D01*
X113501132Y-66020056D01*
X113534640Y-65977168D01*
X113593455Y-65960303D01*
X113650950Y-65981230D01*
X113679086Y-66019954D01*
X113680425Y-66019330D01*
X113772898Y-66217638D01*
X113898402Y-66396877D01*
X114053123Y-66551598D01*
X114168004Y-66632039D01*
X114182035Y-66641863D01*
X114232361Y-66677102D01*
X114430670Y-66769575D01*
X114450439Y-66774872D01*
X114637846Y-66825088D01*
X114637848Y-66825088D01*
X114642023Y-66826207D01*
X114860000Y-66845277D01*
X115077977Y-66826207D01*
X115082152Y-66825088D01*
X115082154Y-66825088D01*
X115269561Y-66774872D01*
X115289330Y-66769575D01*
X115487639Y-66677102D01*
X115537966Y-66641863D01*
X115551996Y-66632039D01*
X115666877Y-66551598D01*
X115821598Y-66396877D01*
X115947102Y-66217638D01*
X116039575Y-66019330D01*
X116085919Y-65846372D01*
X116095088Y-65812154D01*
X116095088Y-65812152D01*
X116096207Y-65807977D01*
X116106145Y-65694382D01*
X116106710Y-65687927D01*
X116130617Y-65631605D01*
X116183063Y-65600092D01*
X116244015Y-65605425D01*
X116290193Y-65645566D01*
X116304121Y-65690081D01*
X116308591Y-65758289D01*
X116310004Y-65767210D01*
X116357534Y-65954359D01*
X116360554Y-65962887D01*
X116441386Y-66138225D01*
X116445917Y-66146072D01*
X116557348Y-66303744D01*
X116563222Y-66310622D01*
X116701532Y-66445357D01*
X116708555Y-66451044D01*
X116869099Y-66558317D01*
X116877054Y-66562635D01*
X117054446Y-66638849D01*
X117063057Y-66641647D01*
X117130706Y-66656954D01*
X117143603Y-66655769D01*
X117146000Y-66647051D01*
X117146000Y-65435000D01*
X117164907Y-65376809D01*
X117214407Y-65340845D01*
X117245000Y-65336000D01*
X117555000Y-65336000D01*
X117613191Y-65354907D01*
X117649155Y-65404407D01*
X117654000Y-65435000D01*
X117654000Y-66649074D01*
X117658122Y-66661759D01*
X117659293Y-66662610D01*
X117661800Y-66662824D01*
X117662189Y-66662731D01*
X117845026Y-66600666D01*
X117853288Y-66596988D01*
X118021755Y-66502641D01*
X118029209Y-66497518D01*
X118177650Y-66374061D01*
X118184061Y-66367650D01*
X118307518Y-66219209D01*
X118312641Y-66211755D01*
X118406988Y-66043288D01*
X118410666Y-66035026D01*
X118472730Y-65852191D01*
X118474841Y-65843399D01*
X118497256Y-65688804D01*
X118524318Y-65633929D01*
X118578466Y-65605440D01*
X118639018Y-65614219D01*
X118682846Y-65656914D01*
X118693855Y-65694382D01*
X118703793Y-65807977D01*
X118704912Y-65812152D01*
X118704912Y-65812154D01*
X118714081Y-65846372D01*
X118760425Y-66019330D01*
X118852898Y-66217638D01*
X118978402Y-66396877D01*
X119133123Y-66551598D01*
X119248004Y-66632039D01*
X119262035Y-66641863D01*
X119312361Y-66677102D01*
X119510670Y-66769575D01*
X119530439Y-66774872D01*
X119717846Y-66825088D01*
X119717848Y-66825088D01*
X119722023Y-66826207D01*
X119940000Y-66845277D01*
X120157977Y-66826207D01*
X120162152Y-66825088D01*
X120162154Y-66825088D01*
X120349561Y-66774872D01*
X120369330Y-66769575D01*
X120567639Y-66677102D01*
X120617966Y-66641863D01*
X120631996Y-66632039D01*
X120746877Y-66551598D01*
X120901598Y-66396877D01*
X121027102Y-66217638D01*
X121119575Y-66019330D01*
X121121132Y-66020056D01*
X121154640Y-65977168D01*
X121213455Y-65960303D01*
X121270950Y-65981230D01*
X121299086Y-66019954D01*
X121300425Y-66019330D01*
X121392898Y-66217638D01*
X121518402Y-66396877D01*
X121673123Y-66551598D01*
X121788004Y-66632039D01*
X121802035Y-66641863D01*
X121852361Y-66677102D01*
X122050670Y-66769575D01*
X122070439Y-66774872D01*
X122257846Y-66825088D01*
X122257848Y-66825088D01*
X122262023Y-66826207D01*
X122480000Y-66845277D01*
X122697977Y-66826207D01*
X122702152Y-66825088D01*
X122702154Y-66825088D01*
X122889561Y-66774872D01*
X122909330Y-66769575D01*
X123107639Y-66677102D01*
X123157966Y-66641863D01*
X123171996Y-66632039D01*
X123286877Y-66551598D01*
X123441598Y-66396877D01*
X123567102Y-66217638D01*
X123659575Y-66019330D01*
X123661132Y-66020056D01*
X123694640Y-65977168D01*
X123753455Y-65960303D01*
X123810950Y-65981230D01*
X123839086Y-66019954D01*
X123840425Y-66019330D01*
X123932898Y-66217638D01*
X124058402Y-66396877D01*
X124213123Y-66551598D01*
X124328004Y-66632039D01*
X124342035Y-66641863D01*
X124392361Y-66677102D01*
X124590670Y-66769575D01*
X124610439Y-66774872D01*
X124797846Y-66825088D01*
X124797848Y-66825088D01*
X124802023Y-66826207D01*
X125020000Y-66845277D01*
X125237977Y-66826207D01*
X125242152Y-66825088D01*
X125242154Y-66825088D01*
X125429561Y-66774872D01*
X125449330Y-66769575D01*
X125647639Y-66677102D01*
X125697966Y-66641863D01*
X125711996Y-66632039D01*
X125826877Y-66551598D01*
X125981598Y-66396877D01*
X126107102Y-66217638D01*
X126199575Y-66019330D01*
X126201132Y-66020056D01*
X126234640Y-65977168D01*
X126293455Y-65960303D01*
X126350950Y-65981230D01*
X126379086Y-66019954D01*
X126380425Y-66019330D01*
X126472898Y-66217638D01*
X126598402Y-66396877D01*
X126753123Y-66551598D01*
X126868004Y-66632039D01*
X126882035Y-66641863D01*
X126932361Y-66677102D01*
X127130670Y-66769575D01*
X127150439Y-66774872D01*
X127337846Y-66825088D01*
X127337848Y-66825088D01*
X127342023Y-66826207D01*
X127560000Y-66845277D01*
X127777977Y-66826207D01*
X127782152Y-66825088D01*
X127782154Y-66825088D01*
X127969561Y-66774872D01*
X127989330Y-66769575D01*
X128187639Y-66677102D01*
X128237966Y-66641863D01*
X128251996Y-66632039D01*
X128366877Y-66551598D01*
X128521598Y-66396877D01*
X128647102Y-66217638D01*
X128739575Y-66019330D01*
X128741132Y-66020056D01*
X128774640Y-65977168D01*
X128833455Y-65960303D01*
X128890950Y-65981230D01*
X128919086Y-66019954D01*
X128920425Y-66019330D01*
X129012898Y-66217638D01*
X129138402Y-66396877D01*
X129293123Y-66551598D01*
X129408004Y-66632039D01*
X129422035Y-66641863D01*
X129472361Y-66677102D01*
X129670670Y-66769575D01*
X129690439Y-66774872D01*
X129877846Y-66825088D01*
X129877848Y-66825088D01*
X129882023Y-66826207D01*
X130100000Y-66845277D01*
X130317977Y-66826207D01*
X130322152Y-66825088D01*
X130322154Y-66825088D01*
X130509561Y-66774872D01*
X130529330Y-66769575D01*
X130727639Y-66677102D01*
X130777966Y-66641863D01*
X130791996Y-66632039D01*
X130906877Y-66551598D01*
X131061598Y-66396877D01*
X131187102Y-66217638D01*
X131279575Y-66019330D01*
X131281132Y-66020056D01*
X131314640Y-65977168D01*
X131373455Y-65960303D01*
X131430950Y-65981230D01*
X131459086Y-66019954D01*
X131460425Y-66019330D01*
X131552898Y-66217638D01*
X131678402Y-66396877D01*
X131833123Y-66551598D01*
X131948004Y-66632039D01*
X131962035Y-66641863D01*
X132012361Y-66677102D01*
X132210670Y-66769575D01*
X132230439Y-66774872D01*
X132417846Y-66825088D01*
X132417848Y-66825088D01*
X132422023Y-66826207D01*
X132640000Y-66845277D01*
X132857977Y-66826207D01*
X132862152Y-66825088D01*
X132862154Y-66825088D01*
X133049561Y-66774872D01*
X133069330Y-66769575D01*
X133267639Y-66677102D01*
X133317966Y-66641863D01*
X133331996Y-66632039D01*
X133446877Y-66551598D01*
X133601598Y-66396877D01*
X133727102Y-66217638D01*
X133819575Y-66019330D01*
X133865919Y-65846372D01*
X133875088Y-65812154D01*
X133875088Y-65812152D01*
X133876207Y-65807977D01*
X133886145Y-65694382D01*
X133886710Y-65687927D01*
X133910617Y-65631605D01*
X133963063Y-65600092D01*
X134024015Y-65605425D01*
X134070193Y-65645566D01*
X134084121Y-65690081D01*
X134088591Y-65758289D01*
X134090004Y-65767210D01*
X134137534Y-65954359D01*
X134140554Y-65962887D01*
X134221386Y-66138225D01*
X134225917Y-66146072D01*
X134337348Y-66303744D01*
X134343222Y-66310622D01*
X134481532Y-66445357D01*
X134488555Y-66451044D01*
X134649099Y-66558317D01*
X134657054Y-66562635D01*
X134834446Y-66638849D01*
X134843057Y-66641647D01*
X134910706Y-66656954D01*
X134923603Y-66655769D01*
X134925444Y-66649074D01*
X135434000Y-66649074D01*
X135438122Y-66661759D01*
X135439293Y-66662610D01*
X135441800Y-66662824D01*
X135442189Y-66662731D01*
X135625026Y-66600666D01*
X135633288Y-66596988D01*
X135801755Y-66502641D01*
X135809209Y-66497518D01*
X135957650Y-66374061D01*
X135964061Y-66367650D01*
X136087518Y-66219209D01*
X136092641Y-66211755D01*
X136186988Y-66043288D01*
X136190666Y-66035026D01*
X136251744Y-65855094D01*
X136250246Y-65846372D01*
X136249209Y-65845363D01*
X136243365Y-65844000D01*
X135449680Y-65844000D01*
X135436995Y-65848122D01*
X135434000Y-65852243D01*
X135434000Y-66649074D01*
X134925444Y-66649074D01*
X134926000Y-66647051D01*
X134926000Y-65435000D01*
X134944907Y-65376809D01*
X134994407Y-65340845D01*
X135025000Y-65336000D01*
X136235676Y-65336000D01*
X136247166Y-65332267D01*
X136247370Y-65321866D01*
X136212571Y-65198478D01*
X136209330Y-65190035D01*
X136123928Y-65016855D01*
X136119209Y-65009154D01*
X136003678Y-64854440D01*
X135997629Y-64847722D01*
X135855837Y-64716650D01*
X135848670Y-64711151D01*
X135685369Y-64608117D01*
X135677315Y-64604013D01*
X135497969Y-64532460D01*
X135489306Y-64529894D01*
X135299926Y-64492225D01*
X135297285Y-64491947D01*
X135296279Y-64491499D01*
X135295474Y-64491339D01*
X135295510Y-64491157D01*
X135241389Y-64467061D01*
X135210796Y-64414074D01*
X135217190Y-64353224D01*
X135258131Y-64307753D01*
X135299004Y-64294866D01*
X135361491Y-64289399D01*
X135397977Y-64286207D01*
X135402152Y-64285088D01*
X135402154Y-64285088D01*
X135603519Y-64231132D01*
X135609330Y-64229575D01*
X135807639Y-64137102D01*
X135825150Y-64124841D01*
X135871996Y-64092039D01*
X135986877Y-64011598D01*
X136141598Y-63856877D01*
X136267102Y-63677638D01*
X136359575Y-63479330D01*
X136382887Y-63392329D01*
X136415088Y-63272154D01*
X136415088Y-63272152D01*
X136416207Y-63267977D01*
X136435277Y-63050000D01*
X136416207Y-62832023D01*
X136411910Y-62815984D01*
X136360693Y-62624843D01*
X136359575Y-62620670D01*
X136267102Y-62422362D01*
X136250771Y-62399038D01*
X136213118Y-62345265D01*
X136141598Y-62243123D01*
X135986877Y-62088402D01*
X135838491Y-61984501D01*
X135811184Y-61965380D01*
X135811182Y-61965379D01*
X135807639Y-61962898D01*
X135712661Y-61918609D01*
X135667913Y-61876881D01*
X135655500Y-61828885D01*
X135655500Y-59382966D01*
X135674407Y-59324775D01*
X135684496Y-59312962D01*
X137718835Y-57278623D01*
X137773351Y-57250847D01*
X137833783Y-57260418D01*
X137877048Y-57303683D01*
X137886619Y-57364115D01*
X137884465Y-57374251D01*
X137840492Y-57538362D01*
X137828793Y-57582023D01*
X137809723Y-57800000D01*
X137828793Y-58017977D01*
X137829912Y-58022152D01*
X137829912Y-58022154D01*
X137840337Y-58061061D01*
X137885425Y-58229330D01*
X137977898Y-58427638D01*
X137980379Y-58431181D01*
X137980380Y-58431183D01*
X138022208Y-58490919D01*
X138103402Y-58606877D01*
X138258123Y-58761598D01*
X138357054Y-58830870D01*
X138429011Y-58881255D01*
X138437361Y-58887102D01*
X138635670Y-58979575D01*
X138673983Y-58989841D01*
X138842846Y-59035088D01*
X138842848Y-59035088D01*
X138847023Y-59036207D01*
X139065000Y-59055277D01*
X139282977Y-59036207D01*
X139287152Y-59035088D01*
X139287154Y-59035088D01*
X139456017Y-58989841D01*
X139494330Y-58979575D01*
X139692639Y-58887102D01*
X139700990Y-58881255D01*
X139772946Y-58830870D01*
X139871877Y-58761598D01*
X140026598Y-58606877D01*
X140107792Y-58490919D01*
X140149620Y-58431183D01*
X140149621Y-58431181D01*
X140152102Y-58427638D01*
X140244575Y-58229330D01*
X140289663Y-58061061D01*
X140300088Y-58022154D01*
X140300088Y-58022152D01*
X140301207Y-58017977D01*
X140320277Y-57800000D01*
X140301207Y-57582023D01*
X140288573Y-57534870D01*
X140255478Y-57411362D01*
X140244575Y-57370670D01*
X140152102Y-57172362D01*
X140026598Y-56993123D01*
X139871877Y-56838402D01*
X139703599Y-56720572D01*
X139696184Y-56715380D01*
X139696182Y-56715379D01*
X139692639Y-56712898D01*
X139494330Y-56620425D01*
X139495056Y-56618868D01*
X139452168Y-56585360D01*
X139435303Y-56526545D01*
X139456230Y-56469050D01*
X139494954Y-56440914D01*
X139494330Y-56439575D01*
X139608675Y-56386255D01*
X139692639Y-56347102D01*
X139871877Y-56221598D01*
X140026598Y-56066877D01*
X140152102Y-55887638D01*
X140244575Y-55689330D01*
X140301207Y-55477977D01*
X140320277Y-55260000D01*
X140301207Y-55042023D01*
X140244575Y-54830670D01*
X140152102Y-54632362D01*
X140026598Y-54453123D01*
X139871877Y-54298402D01*
X139743080Y-54208217D01*
X139696184Y-54175380D01*
X139696182Y-54175379D01*
X139692639Y-54172898D01*
X139663313Y-54159223D01*
X139618565Y-54117495D01*
X139606890Y-54057434D01*
X139632748Y-54001981D01*
X139686262Y-53972318D01*
X139705151Y-53970499D01*
X139946518Y-53970499D01*
X139950361Y-53969890D01*
X139950366Y-53969890D01*
X139989916Y-53963626D01*
X140040304Y-53955646D01*
X140096823Y-53926848D01*
X140146403Y-53901586D01*
X140146405Y-53901585D01*
X140153342Y-53898050D01*
X140243050Y-53808342D01*
X140266818Y-53761696D01*
X140297110Y-53702244D01*
X140297110Y-53702243D01*
X140300646Y-53695304D01*
X140307445Y-53652380D01*
X140314891Y-53605365D01*
X140314891Y-53605363D01*
X140315500Y-53601519D01*
X140315499Y-51838482D01*
X140314271Y-51830723D01*
X140309053Y-51797783D01*
X140300646Y-51744696D01*
X140258191Y-51661373D01*
X140246586Y-51638597D01*
X140246585Y-51638595D01*
X140243050Y-51631658D01*
X140153342Y-51541950D01*
X140146405Y-51538415D01*
X140146403Y-51538414D01*
X140047244Y-51487890D01*
X140047243Y-51487890D01*
X140040304Y-51484354D01*
X140032610Y-51483135D01*
X140032609Y-51483135D01*
X139950365Y-51470109D01*
X139950363Y-51470109D01*
X139946519Y-51469500D01*
X139065114Y-51469500D01*
X138183482Y-51469501D01*
X138179639Y-51470110D01*
X138179634Y-51470110D01*
X138142783Y-51475947D01*
X138089696Y-51484354D01*
X138050071Y-51504544D01*
X137983597Y-51538414D01*
X137983595Y-51538415D01*
X137976658Y-51541950D01*
X137886950Y-51631658D01*
X137883415Y-51638595D01*
X137883414Y-51638597D01*
X137871809Y-51661373D01*
X137829354Y-51744696D01*
X137828135Y-51752390D01*
X137828135Y-51752391D01*
X137819166Y-51809019D01*
X137814500Y-51838481D01*
X137814501Y-53601518D01*
X137829354Y-53695304D01*
X137847619Y-53731151D01*
X137863183Y-53761696D01*
X137886950Y-53808342D01*
X137976658Y-53898050D01*
X137983595Y-53901585D01*
X137983597Y-53901586D01*
X138046548Y-53933661D01*
X138089696Y-53955646D01*
X138097390Y-53956865D01*
X138097391Y-53956865D01*
X138179635Y-53969891D01*
X138179637Y-53969891D01*
X138183481Y-53970500D01*
X138424847Y-53970500D01*
X138483038Y-53989407D01*
X138519002Y-54038907D01*
X138519002Y-54100093D01*
X138483038Y-54149593D01*
X138466688Y-54159223D01*
X138437362Y-54172898D01*
X138433819Y-54175379D01*
X138433817Y-54175380D01*
X138394280Y-54203064D01*
X138258123Y-54298402D01*
X138103402Y-54453123D01*
X137977898Y-54632362D01*
X137885425Y-54830670D01*
X137828793Y-55042023D01*
X137809723Y-55260000D01*
X137828793Y-55477977D01*
X137884926Y-55687467D01*
X137885425Y-55689330D01*
X137884995Y-55689445D01*
X137887042Y-55747938D01*
X137861879Y-55790662D01*
X134889278Y-58763264D01*
X134879913Y-58770746D01*
X134879985Y-58770831D01*
X134874615Y-58775401D01*
X134868650Y-58779165D01*
X134855868Y-58793638D01*
X134834950Y-58817323D01*
X134830750Y-58821792D01*
X134819627Y-58832915D01*
X134817517Y-58835731D01*
X134817513Y-58835735D01*
X134813311Y-58841342D01*
X134808297Y-58847500D01*
X134783154Y-58875969D01*
X134783150Y-58875975D01*
X134778487Y-58881255D01*
X134775493Y-58887633D01*
X134775490Y-58887637D01*
X134774562Y-58889614D01*
X134764166Y-58906915D01*
X134762860Y-58908657D01*
X134762857Y-58908663D01*
X134758628Y-58914305D01*
X134756153Y-58920907D01*
X134756152Y-58920909D01*
X134742819Y-58956476D01*
X134739740Y-58963784D01*
X134720601Y-59004548D01*
X134719180Y-59013673D01*
X134714060Y-59033190D01*
X134710816Y-59041843D01*
X134709061Y-59065472D01*
X134707480Y-59086748D01*
X134706575Y-59094633D01*
X134704500Y-59107956D01*
X134704500Y-59123168D01*
X134704228Y-59130503D01*
X134700723Y-59177674D01*
X134702195Y-59184568D01*
X134702195Y-59184573D01*
X134702319Y-59185152D01*
X134704500Y-59205818D01*
X134704500Y-61828886D01*
X134685593Y-61887077D01*
X134647343Y-61918608D01*
X134552362Y-61962898D01*
X134548819Y-61965379D01*
X134548817Y-61965380D01*
X134511612Y-61991431D01*
X134373123Y-62088402D01*
X134218402Y-62243123D01*
X134146882Y-62345265D01*
X134109230Y-62399038D01*
X134092898Y-62422362D01*
X134000425Y-62620670D01*
X133998868Y-62619944D01*
X133965360Y-62662832D01*
X133906545Y-62679697D01*
X133849050Y-62658770D01*
X133820914Y-62620046D01*
X133819575Y-62620670D01*
X133772323Y-62519338D01*
X133727102Y-62422362D01*
X133710771Y-62399038D01*
X133673118Y-62345265D01*
X133601598Y-62243123D01*
X133446877Y-62088402D01*
X133298491Y-61984501D01*
X133271184Y-61965380D01*
X133271182Y-61965379D01*
X133267639Y-61962898D01*
X133172661Y-61918609D01*
X133127913Y-61876881D01*
X133115500Y-61828885D01*
X133115500Y-59467315D01*
X133134407Y-59409124D01*
X133188876Y-59371688D01*
X133215690Y-59364503D01*
X133286330Y-59345575D01*
X133484639Y-59253102D01*
X133521987Y-59226951D01*
X133567009Y-59195426D01*
X133663877Y-59127598D01*
X133818598Y-58972877D01*
X133910699Y-58841342D01*
X133941620Y-58797183D01*
X133941621Y-58797181D01*
X133944102Y-58793638D01*
X134036575Y-58595330D01*
X134070410Y-58469056D01*
X134092088Y-58388154D01*
X134092088Y-58388152D01*
X134093207Y-58383977D01*
X134112277Y-58166000D01*
X134093207Y-57948023D01*
X134086668Y-57923617D01*
X134037693Y-57740843D01*
X134036575Y-57736670D01*
X133944102Y-57538362D01*
X133939902Y-57532363D01*
X133829605Y-57374843D01*
X133818598Y-57359123D01*
X133663877Y-57204402D01*
X133484639Y-57078898D01*
X133286330Y-56986425D01*
X133150644Y-56950068D01*
X133079154Y-56930912D01*
X133079152Y-56930912D01*
X133074977Y-56929793D01*
X132857000Y-56910723D01*
X132639023Y-56929793D01*
X132634848Y-56930912D01*
X132634846Y-56930912D01*
X132563356Y-56950068D01*
X132427670Y-56986425D01*
X132229362Y-57078898D01*
X132050123Y-57204402D01*
X131895402Y-57359123D01*
X131884395Y-57374843D01*
X131774099Y-57532363D01*
X131769898Y-57538362D01*
X131677425Y-57736670D01*
X131675868Y-57735944D01*
X131642360Y-57778832D01*
X131583545Y-57795697D01*
X131526050Y-57774770D01*
X131497914Y-57736046D01*
X131496575Y-57736670D01*
X131489746Y-57722026D01*
X131404102Y-57538362D01*
X131399902Y-57532363D01*
X131289605Y-57374843D01*
X131278598Y-57359123D01*
X131123877Y-57204402D01*
X130944639Y-57078898D01*
X130746330Y-56986425D01*
X130610644Y-56950068D01*
X130539154Y-56930912D01*
X130539152Y-56930912D01*
X130534977Y-56929793D01*
X130317000Y-56910723D01*
X130099023Y-56929793D01*
X130094848Y-56930912D01*
X130094846Y-56930912D01*
X130023356Y-56950068D01*
X129887670Y-56986425D01*
X129689362Y-57078898D01*
X129510123Y-57204402D01*
X129355402Y-57359123D01*
X129344395Y-57374843D01*
X129234099Y-57532363D01*
X129229898Y-57538362D01*
X129137425Y-57736670D01*
X129135868Y-57735944D01*
X129102360Y-57778832D01*
X129043545Y-57795697D01*
X128986050Y-57774770D01*
X128957914Y-57736046D01*
X128956575Y-57736670D01*
X128949746Y-57722026D01*
X128864102Y-57538362D01*
X128859902Y-57532363D01*
X128749605Y-57374843D01*
X128738598Y-57359123D01*
X128583877Y-57204402D01*
X128404639Y-57078898D01*
X128206330Y-56986425D01*
X128070644Y-56950068D01*
X127999154Y-56930912D01*
X127999152Y-56930912D01*
X127994977Y-56929793D01*
X127777000Y-56910723D01*
X127559023Y-56929793D01*
X127554848Y-56930912D01*
X127554846Y-56930912D01*
X127483356Y-56950068D01*
X127347670Y-56986425D01*
X127149362Y-57078898D01*
X126970123Y-57204402D01*
X126815402Y-57359123D01*
X126804395Y-57374843D01*
X126694099Y-57532363D01*
X126689898Y-57538362D01*
X126597425Y-57736670D01*
X126595868Y-57735944D01*
X126562360Y-57778832D01*
X126503545Y-57795697D01*
X126446050Y-57774770D01*
X126417914Y-57736046D01*
X126416575Y-57736670D01*
X126409746Y-57722026D01*
X126324102Y-57538362D01*
X126319902Y-57532363D01*
X126209605Y-57374843D01*
X126198598Y-57359123D01*
X126043877Y-57204402D01*
X125864639Y-57078898D01*
X125666330Y-56986425D01*
X125530644Y-56950068D01*
X125459154Y-56930912D01*
X125459152Y-56930912D01*
X125454977Y-56929793D01*
X125237000Y-56910723D01*
X125019023Y-56929793D01*
X125014848Y-56930912D01*
X125014846Y-56930912D01*
X124943356Y-56950068D01*
X124807670Y-56986425D01*
X124609362Y-57078898D01*
X124430123Y-57204402D01*
X124275402Y-57359123D01*
X124264395Y-57374843D01*
X124154099Y-57532363D01*
X124149898Y-57538362D01*
X124057425Y-57736670D01*
X124055868Y-57735944D01*
X124022360Y-57778832D01*
X123963545Y-57795697D01*
X123906050Y-57774770D01*
X123877914Y-57736046D01*
X123876575Y-57736670D01*
X123869746Y-57722026D01*
X123784102Y-57538362D01*
X123779902Y-57532363D01*
X123669605Y-57374843D01*
X123658598Y-57359123D01*
X123503877Y-57204402D01*
X123324639Y-57078898D01*
X123126330Y-56986425D01*
X122990644Y-56950068D01*
X122919154Y-56930912D01*
X122919152Y-56930912D01*
X122914977Y-56929793D01*
X122697000Y-56910723D01*
X122479023Y-56929793D01*
X122474848Y-56930912D01*
X122474846Y-56930912D01*
X122403356Y-56950068D01*
X122267670Y-56986425D01*
X122069362Y-57078898D01*
X121890123Y-57204402D01*
X121735402Y-57359123D01*
X121724395Y-57374843D01*
X121614099Y-57532363D01*
X121609898Y-57538362D01*
X121517425Y-57736670D01*
X121515868Y-57735944D01*
X121482360Y-57778832D01*
X121423545Y-57795697D01*
X121366050Y-57774770D01*
X121337914Y-57736046D01*
X121336575Y-57736670D01*
X121329746Y-57722026D01*
X121244102Y-57538362D01*
X121239902Y-57532363D01*
X121129605Y-57374843D01*
X121118598Y-57359123D01*
X120963877Y-57204402D01*
X120784639Y-57078898D01*
X120586330Y-56986425D01*
X120450644Y-56950068D01*
X120379154Y-56930912D01*
X120379152Y-56930912D01*
X120374977Y-56929793D01*
X120157000Y-56910723D01*
X119939023Y-56929793D01*
X119934848Y-56930912D01*
X119934846Y-56930912D01*
X119863356Y-56950068D01*
X119727670Y-56986425D01*
X119529362Y-57078898D01*
X119350123Y-57204402D01*
X119195402Y-57359123D01*
X119184395Y-57374843D01*
X119074099Y-57532363D01*
X119069898Y-57538362D01*
X118977425Y-57736670D01*
X118975868Y-57735944D01*
X118942360Y-57778832D01*
X118883545Y-57795697D01*
X118826050Y-57774770D01*
X118797914Y-57736046D01*
X118796575Y-57736670D01*
X118789746Y-57722026D01*
X118704102Y-57538362D01*
X118699902Y-57532363D01*
X118589605Y-57374843D01*
X118578598Y-57359123D01*
X118423877Y-57204402D01*
X118244639Y-57078898D01*
X118046330Y-56986425D01*
X117910644Y-56950068D01*
X117839154Y-56930912D01*
X117839152Y-56930912D01*
X117834977Y-56929793D01*
X117617000Y-56910723D01*
X117399023Y-56929793D01*
X117394848Y-56930912D01*
X117394846Y-56930912D01*
X117323356Y-56950068D01*
X117187670Y-56986425D01*
X116989362Y-57078898D01*
X116810123Y-57204402D01*
X116655402Y-57359123D01*
X116644395Y-57374843D01*
X116534099Y-57532363D01*
X116529898Y-57538362D01*
X116516223Y-57567688D01*
X116474495Y-57612436D01*
X116414434Y-57624111D01*
X116358981Y-57598253D01*
X116329318Y-57544739D01*
X116327499Y-57525849D01*
X116327499Y-57284482D01*
X116326572Y-57278624D01*
X116315300Y-57207456D01*
X116312646Y-57190696D01*
X116283848Y-57134177D01*
X116258586Y-57084597D01*
X116258585Y-57084595D01*
X116255050Y-57077658D01*
X116165342Y-56987950D01*
X116158405Y-56984415D01*
X116158403Y-56984414D01*
X116059244Y-56933890D01*
X116059243Y-56933890D01*
X116052304Y-56930354D01*
X116044610Y-56929135D01*
X116044609Y-56929135D01*
X115962365Y-56916109D01*
X115962363Y-56916109D01*
X115958519Y-56915500D01*
X115077114Y-56915500D01*
X114195482Y-56915501D01*
X114191639Y-56916110D01*
X114191634Y-56916110D01*
X114154783Y-56921947D01*
X114101696Y-56930354D01*
X114059414Y-56951898D01*
X113995597Y-56984414D01*
X113995595Y-56984415D01*
X113988658Y-56987950D01*
X113898950Y-57077658D01*
X113895415Y-57084595D01*
X113895414Y-57084597D01*
X113858278Y-57157481D01*
X113841354Y-57190696D01*
X113840135Y-57198390D01*
X113840135Y-57198391D01*
X113834232Y-57235664D01*
X113826500Y-57284481D01*
X113826501Y-58013666D01*
X113826501Y-58703033D01*
X113807594Y-58761224D01*
X113797505Y-58773037D01*
X113153789Y-59416753D01*
X113144424Y-59424235D01*
X113144496Y-59424320D01*
X113139126Y-59428890D01*
X113133161Y-59432654D01*
X113099766Y-59470467D01*
X113099461Y-59470812D01*
X113095261Y-59475281D01*
X113084138Y-59486404D01*
X113082028Y-59489220D01*
X113082024Y-59489224D01*
X113077822Y-59494831D01*
X113072808Y-59500989D01*
X113047665Y-59529458D01*
X113047661Y-59529464D01*
X113042998Y-59534744D01*
X113040004Y-59541122D01*
X113040001Y-59541126D01*
X113039073Y-59543103D01*
X113028677Y-59560404D01*
X113027371Y-59562146D01*
X113027368Y-59562152D01*
X113023139Y-59567794D01*
X113020664Y-59574396D01*
X113020663Y-59574398D01*
X113007330Y-59609965D01*
X113004251Y-59617273D01*
X112985112Y-59658037D01*
X112983691Y-59667162D01*
X112978571Y-59686679D01*
X112975327Y-59695332D01*
X112974805Y-59702362D01*
X112971991Y-59740237D01*
X112971086Y-59748122D01*
X112969011Y-59761445D01*
X112969011Y-59776657D01*
X112968739Y-59783992D01*
X112965234Y-59831163D01*
X112966706Y-59838057D01*
X112966706Y-59838062D01*
X112966830Y-59838641D01*
X112969011Y-59859307D01*
X112969011Y-61817466D01*
X112950104Y-61875657D01*
X112900604Y-61911621D01*
X112839418Y-61911621D01*
X112828183Y-61907195D01*
X112749330Y-61870425D01*
X112661455Y-61846879D01*
X112542154Y-61814912D01*
X112542152Y-61814912D01*
X112537977Y-61813793D01*
X112320000Y-61794723D01*
X112102023Y-61813793D01*
X112097848Y-61814912D01*
X112097846Y-61814912D01*
X111978545Y-61846879D01*
X111890670Y-61870425D01*
X111692362Y-61962898D01*
X111688819Y-61965379D01*
X111688817Y-61965380D01*
X111651612Y-61991431D01*
X111513123Y-62088402D01*
X111358402Y-62243123D01*
X111286882Y-62345265D01*
X111249230Y-62399038D01*
X111232898Y-62422362D01*
X111140425Y-62620670D01*
X111139307Y-62624843D01*
X111088091Y-62815984D01*
X111083793Y-62832023D01*
X111083416Y-62836334D01*
X111073130Y-62953902D01*
X111049223Y-63010224D01*
X110996777Y-63041737D01*
X110935825Y-63036404D01*
X110889647Y-62996263D01*
X110875922Y-62954333D01*
X110866629Y-62853200D01*
X110864982Y-62844314D01*
X110812570Y-62658473D01*
X110809332Y-62650038D01*
X110723928Y-62476855D01*
X110719209Y-62469154D01*
X110603678Y-62314440D01*
X110597629Y-62307722D01*
X110455837Y-62176650D01*
X110448670Y-62171151D01*
X110285369Y-62068117D01*
X110277315Y-62064013D01*
X110097969Y-61992460D01*
X110089306Y-61989894D01*
X110049379Y-61981952D01*
X110036133Y-61983520D01*
X110036099Y-61983551D01*
X110034000Y-61991597D01*
X110034000Y-63205000D01*
X110015093Y-63263191D01*
X109965593Y-63299155D01*
X109935000Y-63304000D01*
X109625000Y-63304000D01*
X109566809Y-63285093D01*
X109530845Y-63235593D01*
X109526000Y-63205000D01*
X109526000Y-61993124D01*
X109521878Y-61980439D01*
X109521274Y-61980000D01*
X109514127Y-61979484D01*
X109498555Y-61982160D01*
X109489819Y-61984501D01*
X109308668Y-62051331D01*
X109300506Y-62055224D01*
X109134562Y-62153950D01*
X109127254Y-62159259D01*
X109004286Y-62267100D01*
X108948070Y-62291253D01*
X108888393Y-62277749D01*
X108848051Y-62231748D01*
X108840011Y-62192668D01*
X108840011Y-61946867D01*
X108841342Y-61934955D01*
X108841231Y-61934946D01*
X108841797Y-61927916D01*
X108843353Y-61921037D01*
X108840201Y-61870231D01*
X108840011Y-61864102D01*
X108840011Y-61848366D01*
X108838516Y-61837924D01*
X108837707Y-61830031D01*
X108835356Y-61792133D01*
X108835356Y-61792131D01*
X108834919Y-61785094D01*
X108831784Y-61776410D01*
X108826902Y-61756829D01*
X108826592Y-61754666D01*
X108825592Y-61747682D01*
X108815042Y-61724478D01*
X108806951Y-61706681D01*
X108803955Y-61699323D01*
X108791063Y-61663612D01*
X108791063Y-61663611D01*
X108788669Y-61656981D01*
X108783220Y-61649522D01*
X108773044Y-61632107D01*
X108769217Y-61623691D01*
X108764618Y-61618353D01*
X108764613Y-61618346D01*
X108739816Y-61589568D01*
X108734877Y-61583348D01*
X108729189Y-61575562D01*
X108729185Y-61575558D01*
X108726934Y-61572476D01*
X108716178Y-61561720D01*
X108711183Y-61556340D01*
X108684909Y-61525847D01*
X108684906Y-61525844D01*
X108680307Y-61520507D01*
X108674390Y-61516672D01*
X108674388Y-61516670D01*
X108673893Y-61516349D01*
X108657736Y-61503278D01*
X107961496Y-60807038D01*
X107933719Y-60752521D01*
X107932500Y-60737034D01*
X107932500Y-59260115D01*
X107951407Y-59201924D01*
X107989661Y-59170391D01*
X108050612Y-59141969D01*
X108084639Y-59126102D01*
X108088830Y-59123168D01*
X108204973Y-59041843D01*
X108263877Y-59000598D01*
X108418598Y-58845877D01*
X108506051Y-58720981D01*
X108541620Y-58670183D01*
X108541621Y-58670181D01*
X108544102Y-58666638D01*
X108636575Y-58468330D01*
X108638132Y-58469056D01*
X108671640Y-58426168D01*
X108730455Y-58409303D01*
X108787950Y-58430230D01*
X108816086Y-58468954D01*
X108817425Y-58468330D01*
X108909898Y-58666638D01*
X108912379Y-58670181D01*
X108912380Y-58670183D01*
X108947949Y-58720981D01*
X109035402Y-58845877D01*
X109190123Y-59000598D01*
X109249027Y-59041843D01*
X109365171Y-59123168D01*
X109369361Y-59126102D01*
X109567670Y-59218575D01*
X109598930Y-59226951D01*
X109774846Y-59274088D01*
X109774848Y-59274088D01*
X109779023Y-59275207D01*
X109997000Y-59294277D01*
X110214977Y-59275207D01*
X110219152Y-59274088D01*
X110219154Y-59274088D01*
X110395070Y-59226951D01*
X110426330Y-59218575D01*
X110624639Y-59126102D01*
X110628830Y-59123168D01*
X110744973Y-59041843D01*
X110803877Y-59000598D01*
X110958598Y-58845877D01*
X111046051Y-58720981D01*
X111081620Y-58670183D01*
X111081621Y-58670181D01*
X111084102Y-58666638D01*
X111176575Y-58468330D01*
X111224984Y-58287666D01*
X111232088Y-58261154D01*
X111232088Y-58261152D01*
X111233207Y-58256977D01*
X111252277Y-58039000D01*
X111233207Y-57821023D01*
X111228729Y-57804309D01*
X111177693Y-57613843D01*
X111176575Y-57609670D01*
X111084102Y-57411362D01*
X111075341Y-57398849D01*
X111039792Y-57348081D01*
X110958598Y-57232123D01*
X110803877Y-57077402D01*
X110624639Y-56951898D01*
X110426330Y-56859425D01*
X110338620Y-56835923D01*
X110219154Y-56803912D01*
X110219152Y-56803912D01*
X110214977Y-56802793D01*
X109997000Y-56783723D01*
X109779023Y-56802793D01*
X109774848Y-56803912D01*
X109774846Y-56803912D01*
X109655380Y-56835923D01*
X109567670Y-56859425D01*
X109369362Y-56951898D01*
X109190123Y-57077402D01*
X109035402Y-57232123D01*
X108954208Y-57348081D01*
X108918660Y-57398849D01*
X108909898Y-57411362D01*
X108817425Y-57609670D01*
X108815868Y-57608944D01*
X108782360Y-57651832D01*
X108723545Y-57668697D01*
X108666050Y-57647770D01*
X108637914Y-57609046D01*
X108636575Y-57609670D01*
X108591074Y-57512093D01*
X108544102Y-57411362D01*
X108535341Y-57398849D01*
X108499792Y-57348081D01*
X108418598Y-57232123D01*
X108263877Y-57077402D01*
X108084639Y-56951898D01*
X107886330Y-56859425D01*
X107798620Y-56835923D01*
X107679154Y-56803912D01*
X107679152Y-56803912D01*
X107674977Y-56802793D01*
X107457000Y-56783723D01*
X107239023Y-56802793D01*
X107234848Y-56803912D01*
X107234846Y-56803912D01*
X107115380Y-56835923D01*
X107027670Y-56859425D01*
X106829362Y-56951898D01*
X106650123Y-57077402D01*
X106495402Y-57232123D01*
X106414208Y-57348081D01*
X106378660Y-57398849D01*
X106369898Y-57411362D01*
X106277425Y-57609670D01*
X106275868Y-57608944D01*
X106242360Y-57651832D01*
X106183545Y-57668697D01*
X106126050Y-57647770D01*
X106097914Y-57609046D01*
X106096575Y-57609670D01*
X106051074Y-57512093D01*
X106004102Y-57411362D01*
X105995341Y-57398849D01*
X105959792Y-57348081D01*
X105878598Y-57232123D01*
X105723877Y-57077402D01*
X105544639Y-56951898D01*
X105346330Y-56859425D01*
X105258620Y-56835923D01*
X105139154Y-56803912D01*
X105139152Y-56803912D01*
X105134977Y-56802793D01*
X104917000Y-56783723D01*
X104699023Y-56802793D01*
X104694848Y-56803912D01*
X104694846Y-56803912D01*
X104575380Y-56835923D01*
X104487670Y-56859425D01*
X104289362Y-56951898D01*
X104110123Y-57077402D01*
X103955402Y-57232123D01*
X103874208Y-57348081D01*
X103838660Y-57398849D01*
X103829898Y-57411362D01*
X103737425Y-57609670D01*
X103735868Y-57608944D01*
X103702360Y-57651832D01*
X103643545Y-57668697D01*
X103586050Y-57647770D01*
X103557914Y-57609046D01*
X103556575Y-57609670D01*
X103511074Y-57512093D01*
X103464102Y-57411362D01*
X103455341Y-57398849D01*
X103419792Y-57348081D01*
X103338598Y-57232123D01*
X103183877Y-57077402D01*
X103004639Y-56951898D01*
X102806330Y-56859425D01*
X102718620Y-56835923D01*
X102599154Y-56803912D01*
X102599152Y-56803912D01*
X102594977Y-56802793D01*
X102377000Y-56783723D01*
X102159023Y-56802793D01*
X102154848Y-56803912D01*
X102154846Y-56803912D01*
X102035380Y-56835923D01*
X101947670Y-56859425D01*
X101749362Y-56951898D01*
X101570123Y-57077402D01*
X101415402Y-57232123D01*
X101334208Y-57348081D01*
X101298660Y-57398849D01*
X101289898Y-57411362D01*
X101197425Y-57609670D01*
X101195868Y-57608944D01*
X101162360Y-57651832D01*
X101103545Y-57668697D01*
X101046050Y-57647770D01*
X101017914Y-57609046D01*
X101016575Y-57609670D01*
X100971074Y-57512093D01*
X100924102Y-57411362D01*
X100915341Y-57398849D01*
X100879792Y-57348081D01*
X100798598Y-57232123D01*
X100643877Y-57077402D01*
X100464639Y-56951898D01*
X100266330Y-56859425D01*
X100178620Y-56835923D01*
X100059154Y-56803912D01*
X100059152Y-56803912D01*
X100054977Y-56802793D01*
X99837000Y-56783723D01*
X99619023Y-56802793D01*
X99614848Y-56803912D01*
X99614846Y-56803912D01*
X99495380Y-56835923D01*
X99407670Y-56859425D01*
X99209362Y-56951898D01*
X99030123Y-57077402D01*
X98875402Y-57232123D01*
X98794208Y-57348081D01*
X98758660Y-57398849D01*
X98749898Y-57411362D01*
X98657425Y-57609670D01*
X98655868Y-57608944D01*
X98622360Y-57651832D01*
X98563545Y-57668697D01*
X98506050Y-57647770D01*
X98477914Y-57609046D01*
X98476575Y-57609670D01*
X98431074Y-57512093D01*
X98384102Y-57411362D01*
X98375341Y-57398849D01*
X98339792Y-57348081D01*
X98258598Y-57232123D01*
X98103877Y-57077402D01*
X97924639Y-56951898D01*
X97726330Y-56859425D01*
X97638620Y-56835923D01*
X97519154Y-56803912D01*
X97519152Y-56803912D01*
X97514977Y-56802793D01*
X97297000Y-56783723D01*
X97079023Y-56802793D01*
X97074848Y-56803912D01*
X97074846Y-56803912D01*
X96955380Y-56835923D01*
X96867670Y-56859425D01*
X96669362Y-56951898D01*
X96490123Y-57077402D01*
X96335402Y-57232123D01*
X96254208Y-57348081D01*
X96218660Y-57398849D01*
X96209898Y-57411362D01*
X96117425Y-57609670D01*
X96115868Y-57608944D01*
X96082360Y-57651832D01*
X96023545Y-57668697D01*
X95966050Y-57647770D01*
X95937914Y-57609046D01*
X95936575Y-57609670D01*
X95891074Y-57512093D01*
X95844102Y-57411362D01*
X95835341Y-57398849D01*
X95799792Y-57348081D01*
X95718598Y-57232123D01*
X95563877Y-57077402D01*
X95384639Y-56951898D01*
X95186330Y-56859425D01*
X95098620Y-56835923D01*
X94979154Y-56803912D01*
X94979152Y-56803912D01*
X94974977Y-56802793D01*
X94757000Y-56783723D01*
X94539023Y-56802793D01*
X94534848Y-56803912D01*
X94534846Y-56803912D01*
X94415380Y-56835923D01*
X94327670Y-56859425D01*
X94129362Y-56951898D01*
X93950123Y-57077402D01*
X93795402Y-57232123D01*
X93714208Y-57348081D01*
X93678660Y-57398849D01*
X93669898Y-57411362D01*
X93660274Y-57432000D01*
X93656223Y-57440688D01*
X93614495Y-57485436D01*
X93554434Y-57497111D01*
X93498981Y-57471253D01*
X93469318Y-57417739D01*
X93467499Y-57398849D01*
X93467499Y-57157482D01*
X93452646Y-57063696D01*
X93395050Y-56950658D01*
X93305342Y-56860950D01*
X93298405Y-56857415D01*
X93298403Y-56857414D01*
X93199244Y-56806890D01*
X93199243Y-56806890D01*
X93192304Y-56803354D01*
X93184610Y-56802135D01*
X93184609Y-56802135D01*
X93102365Y-56789109D01*
X93102363Y-56789109D01*
X93098519Y-56788500D01*
X92217114Y-56788500D01*
X91335482Y-56788501D01*
X91331639Y-56789110D01*
X91331634Y-56789110D01*
X91294783Y-56794947D01*
X91241696Y-56803354D01*
X91185177Y-56832152D01*
X91135597Y-56857414D01*
X91135595Y-56857415D01*
X91128658Y-56860950D01*
X91038950Y-56950658D01*
X91035415Y-56957595D01*
X91035414Y-56957597D01*
X91002090Y-57023000D01*
X90981354Y-57063696D01*
X90980135Y-57071390D01*
X90980135Y-57071391D01*
X90967109Y-57153634D01*
X90966500Y-57157481D01*
X90966501Y-58920518D01*
X90967110Y-58924361D01*
X90967110Y-58924366D01*
X90968673Y-58934232D01*
X90981354Y-59014304D01*
X90995386Y-59041843D01*
X91033426Y-59116500D01*
X91038950Y-59127342D01*
X91128658Y-59217050D01*
X91135595Y-59220585D01*
X91135597Y-59220586D01*
X91234756Y-59271110D01*
X91241696Y-59274646D01*
X91249390Y-59275865D01*
X91249391Y-59275865D01*
X91331635Y-59288891D01*
X91331637Y-59288891D01*
X91335481Y-59289500D01*
X91462028Y-59289500D01*
X92754033Y-59289499D01*
X92812224Y-59308406D01*
X92824037Y-59318495D01*
X95160015Y-61654474D01*
X95187792Y-61708991D01*
X95189011Y-61724478D01*
X95189011Y-61817466D01*
X95170104Y-61875657D01*
X95120604Y-61911621D01*
X95059418Y-61911621D01*
X95048183Y-61907195D01*
X94969330Y-61870425D01*
X94881455Y-61846879D01*
X94762154Y-61814912D01*
X94762152Y-61814912D01*
X94757977Y-61813793D01*
X94540000Y-61794723D01*
X94322023Y-61813793D01*
X94317848Y-61814912D01*
X94317846Y-61814912D01*
X94198545Y-61846879D01*
X94110670Y-61870425D01*
X93912362Y-61962898D01*
X93908819Y-61965379D01*
X93908817Y-61965380D01*
X93755053Y-62073046D01*
X93696541Y-62090935D01*
X93638689Y-62071015D01*
X93628265Y-62061954D01*
X93243482Y-61677171D01*
X93215705Y-61622654D01*
X93214486Y-61607234D01*
X93214475Y-61589568D01*
X93214207Y-61193568D01*
X93214011Y-60903681D01*
X93214011Y-60903680D01*
X93214000Y-60888000D01*
X90734243Y-60888000D01*
X90676052Y-60869093D01*
X90664239Y-60859004D01*
X84018036Y-54212801D01*
X84009498Y-54203064D01*
X83993236Y-54181871D01*
X83989282Y-54176718D01*
X83863841Y-54080464D01*
X83717762Y-54019956D01*
X83603140Y-54004866D01*
X83547915Y-53978525D01*
X83534969Y-53963501D01*
X83511598Y-53930123D01*
X83356877Y-53775402D01*
X83177639Y-53649898D01*
X82979330Y-53557425D01*
X82836856Y-53519249D01*
X82772154Y-53501912D01*
X82772152Y-53501912D01*
X82767977Y-53500793D01*
X82550000Y-53481723D01*
X82332023Y-53500793D01*
X82327848Y-53501912D01*
X82327846Y-53501912D01*
X82263144Y-53519249D01*
X82120670Y-53557425D01*
X81922362Y-53649898D01*
X81743123Y-53775402D01*
X81588402Y-53930123D01*
X81473456Y-54094284D01*
X81424592Y-54131106D01*
X81392360Y-54136500D01*
X81359499Y-54136500D01*
X81301308Y-54117593D01*
X81265344Y-54068093D01*
X81260499Y-54037500D01*
X81260499Y-53855482D01*
X81245646Y-53761696D01*
X81215353Y-53702243D01*
X81191586Y-53655597D01*
X81191585Y-53655595D01*
X81188050Y-53648658D01*
X81098342Y-53558950D01*
X81091405Y-53555415D01*
X81091403Y-53555414D01*
X80992244Y-53504890D01*
X80992243Y-53504890D01*
X80985304Y-53501354D01*
X80977610Y-53500135D01*
X80977609Y-53500135D01*
X80895365Y-53487109D01*
X80895363Y-53487109D01*
X80891519Y-53486500D01*
X80010114Y-53486500D01*
X79128482Y-53486501D01*
X79124639Y-53487110D01*
X79124634Y-53487110D01*
X79087783Y-53492947D01*
X79034696Y-53501354D01*
X79028722Y-53504398D01*
X78968085Y-53504397D01*
X78918586Y-53468432D01*
X78899680Y-53410243D01*
X78899680Y-50331270D01*
X78900899Y-50315783D01*
X78903447Y-50299695D01*
X78904666Y-50291999D01*
X78902642Y-50279220D01*
X78901579Y-50258182D01*
X78915716Y-50006443D01*
X78916959Y-49995410D01*
X78921251Y-49970154D01*
X78963936Y-49718929D01*
X78966406Y-49708107D01*
X79028053Y-49494124D01*
X79044047Y-49438610D01*
X79047712Y-49428137D01*
X79155034Y-49169037D01*
X79159851Y-49159034D01*
X79295511Y-48913577D01*
X79301407Y-48904192D01*
X79463709Y-48675449D01*
X79470622Y-48666781D01*
X79657505Y-48457660D01*
X79665341Y-48449824D01*
X79874462Y-48262941D01*
X79883130Y-48256028D01*
X80111873Y-48093726D01*
X80121258Y-48087830D01*
X80366721Y-47952167D01*
X80376718Y-47947353D01*
X80635818Y-47840031D01*
X80646291Y-47836366D01*
X80909953Y-47760406D01*
X80915788Y-47758725D01*
X80926611Y-47756255D01*
X81203099Y-47709277D01*
X81214119Y-47708036D01*
X81432599Y-47695766D01*
X81465863Y-47693898D01*
X81486901Y-47694961D01*
X81499680Y-47696985D01*
X81523465Y-47693218D01*
X81538951Y-47691999D01*
X81599453Y-47691999D01*
X81657644Y-47710906D01*
G37*
G04 #@! TD.AperFunction*
G04 #@! TA.AperFunction,Conductor*
G36*
X121487950Y-58557230D02*
G01*
X121516086Y-58595954D01*
X121517425Y-58595330D01*
X121609898Y-58793638D01*
X121612379Y-58797181D01*
X121612380Y-58797183D01*
X121643301Y-58841342D01*
X121735402Y-58972877D01*
X121890123Y-59127598D01*
X121986991Y-59195426D01*
X122032014Y-59226951D01*
X122069361Y-59253102D01*
X122267670Y-59345575D01*
X122347849Y-59367059D01*
X122474846Y-59401088D01*
X122474848Y-59401088D01*
X122479023Y-59402207D01*
X122697000Y-59421277D01*
X122914977Y-59402207D01*
X122919152Y-59401088D01*
X122919154Y-59401088D01*
X123046151Y-59367059D01*
X123126330Y-59345575D01*
X123295733Y-59266581D01*
X123356462Y-59259124D01*
X123409976Y-59288787D01*
X123435834Y-59344240D01*
X123435395Y-59371522D01*
X123434669Y-59376186D01*
X123429549Y-59395701D01*
X123426305Y-59404354D01*
X123423249Y-59445496D01*
X123422969Y-59449259D01*
X123422064Y-59457144D01*
X123419989Y-59470467D01*
X123419989Y-59485679D01*
X123419717Y-59493014D01*
X123416212Y-59540185D01*
X123417684Y-59547079D01*
X123417684Y-59547084D01*
X123417808Y-59547663D01*
X123419989Y-59568329D01*
X123419989Y-62194498D01*
X123401082Y-62252689D01*
X123351582Y-62288653D01*
X123290396Y-62288653D01*
X123253787Y-62267196D01*
X123155831Y-62176645D01*
X123148670Y-62171151D01*
X122985369Y-62068117D01*
X122977315Y-62064013D01*
X122797969Y-61992460D01*
X122789306Y-61989894D01*
X122749379Y-61981952D01*
X122736133Y-61983520D01*
X122736099Y-61983551D01*
X122734000Y-61991597D01*
X122734000Y-63205000D01*
X122715093Y-63263191D01*
X122665593Y-63299155D01*
X122635000Y-63304000D01*
X122325000Y-63304000D01*
X122266809Y-63285093D01*
X122230845Y-63235593D01*
X122226000Y-63205000D01*
X122226000Y-61993124D01*
X122221878Y-61980439D01*
X122221274Y-61980000D01*
X122214127Y-61979484D01*
X122198555Y-61982160D01*
X122189819Y-61984501D01*
X122008668Y-62051331D01*
X122000506Y-62055224D01*
X121834562Y-62153950D01*
X121827260Y-62159255D01*
X121682081Y-62286575D01*
X121675858Y-62293133D01*
X121556322Y-62444763D01*
X121551397Y-62452346D01*
X121461490Y-62623231D01*
X121458032Y-62631579D01*
X121400773Y-62815984D01*
X121398895Y-62824821D01*
X121383575Y-62954260D01*
X121357959Y-63009825D01*
X121304575Y-63039722D01*
X121243814Y-63032530D01*
X121198884Y-62990998D01*
X121186638Y-62951252D01*
X121176584Y-62836334D01*
X121176207Y-62832023D01*
X121171910Y-62815984D01*
X121120693Y-62624843D01*
X121119575Y-62620670D01*
X121027102Y-62422362D01*
X121010771Y-62399038D01*
X120973118Y-62345265D01*
X120901598Y-62243123D01*
X120746877Y-62088402D01*
X120598491Y-61984501D01*
X120571184Y-61965380D01*
X120571182Y-61965379D01*
X120567639Y-61962898D01*
X120369330Y-61870425D01*
X120281455Y-61846879D01*
X120162154Y-61814912D01*
X120162152Y-61814912D01*
X120157977Y-61813793D01*
X119940000Y-61794723D01*
X119722023Y-61813793D01*
X119717848Y-61814912D01*
X119717846Y-61814912D01*
X119598545Y-61846879D01*
X119510670Y-61870425D01*
X119312362Y-61962898D01*
X119308819Y-61965379D01*
X119308817Y-61965380D01*
X119271612Y-61991431D01*
X119133123Y-62088402D01*
X118978402Y-62243123D01*
X118906882Y-62345265D01*
X118869230Y-62399038D01*
X118852898Y-62422362D01*
X118760425Y-62620670D01*
X118758868Y-62619944D01*
X118725360Y-62662832D01*
X118666545Y-62679697D01*
X118609050Y-62658770D01*
X118580914Y-62620046D01*
X118579575Y-62620670D01*
X118532323Y-62519338D01*
X118487102Y-62422362D01*
X118470771Y-62399038D01*
X118433118Y-62345265D01*
X118361598Y-62243123D01*
X118206877Y-62088402D01*
X118058491Y-61984501D01*
X118031184Y-61965380D01*
X118031182Y-61965379D01*
X118027639Y-61962898D01*
X117829330Y-61870425D01*
X117741455Y-61846879D01*
X117622154Y-61814912D01*
X117622152Y-61814912D01*
X117617977Y-61813793D01*
X117428264Y-61797196D01*
X117371943Y-61773289D01*
X117340430Y-61720843D01*
X117345763Y-61659891D01*
X117366889Y-61628569D01*
X119626337Y-59369121D01*
X119680854Y-59341344D01*
X119727598Y-59345845D01*
X119727670Y-59345575D01*
X119731847Y-59346694D01*
X119731849Y-59346695D01*
X119934846Y-59401088D01*
X119934848Y-59401088D01*
X119939023Y-59402207D01*
X120157000Y-59421277D01*
X120374977Y-59402207D01*
X120379152Y-59401088D01*
X120379154Y-59401088D01*
X120506151Y-59367059D01*
X120586330Y-59345575D01*
X120784639Y-59253102D01*
X120821987Y-59226951D01*
X120867009Y-59195426D01*
X120963877Y-59127598D01*
X121118598Y-58972877D01*
X121210699Y-58841342D01*
X121241620Y-58797183D01*
X121241621Y-58797181D01*
X121244102Y-58793638D01*
X121336575Y-58595330D01*
X121338132Y-58596056D01*
X121371640Y-58553168D01*
X121430455Y-58536303D01*
X121487950Y-58557230D01*
G37*
G04 #@! TD.AperFunction*
G04 #@! TA.AperFunction,Conductor*
G36*
X131647950Y-58557230D02*
G01*
X131676086Y-58595954D01*
X131677425Y-58595330D01*
X131769898Y-58793638D01*
X131772379Y-58797181D01*
X131772380Y-58797183D01*
X131803301Y-58841342D01*
X131895402Y-58972877D01*
X132050123Y-59127598D01*
X132076548Y-59146101D01*
X132122284Y-59178126D01*
X132159106Y-59226991D01*
X132164500Y-59259222D01*
X132164500Y-61828886D01*
X132145593Y-61887077D01*
X132107343Y-61918608D01*
X132012362Y-61962898D01*
X132008819Y-61965379D01*
X132008817Y-61965380D01*
X131971612Y-61991431D01*
X131833123Y-62088402D01*
X131678402Y-62243123D01*
X131606882Y-62345265D01*
X131569230Y-62399038D01*
X131552898Y-62422362D01*
X131460425Y-62620670D01*
X131458868Y-62619944D01*
X131425360Y-62662832D01*
X131366545Y-62679697D01*
X131309050Y-62658770D01*
X131280914Y-62620046D01*
X131279575Y-62620670D01*
X131232323Y-62519338D01*
X131187102Y-62422362D01*
X131170771Y-62399038D01*
X131133118Y-62345265D01*
X131061598Y-62243123D01*
X130906877Y-62088402D01*
X130758491Y-61984501D01*
X130731184Y-61965380D01*
X130731182Y-61965379D01*
X130727639Y-61962898D01*
X130529330Y-61870425D01*
X130441455Y-61846879D01*
X130322154Y-61814912D01*
X130322152Y-61814912D01*
X130317977Y-61813793D01*
X130100000Y-61794723D01*
X129882023Y-61813793D01*
X129877848Y-61814912D01*
X129877846Y-61814912D01*
X129758545Y-61846879D01*
X129670670Y-61870425D01*
X129472362Y-61962898D01*
X129468819Y-61965379D01*
X129468817Y-61965380D01*
X129431612Y-61991431D01*
X129293123Y-62088402D01*
X129138402Y-62243123D01*
X129066882Y-62345265D01*
X129029230Y-62399038D01*
X129012898Y-62422362D01*
X128920425Y-62620670D01*
X128919307Y-62624843D01*
X128868091Y-62815984D01*
X128863793Y-62832023D01*
X128863416Y-62836334D01*
X128853130Y-62953902D01*
X128829223Y-63010224D01*
X128776777Y-63041737D01*
X128715825Y-63036404D01*
X128669647Y-62996263D01*
X128655922Y-62954333D01*
X128646629Y-62853200D01*
X128644982Y-62844314D01*
X128592570Y-62658473D01*
X128589332Y-62650038D01*
X128503928Y-62476855D01*
X128499209Y-62469154D01*
X128383678Y-62314440D01*
X128377629Y-62307722D01*
X128235837Y-62176650D01*
X128228670Y-62171151D01*
X128065369Y-62068117D01*
X128057315Y-62064013D01*
X127877969Y-61992460D01*
X127869306Y-61989894D01*
X127829379Y-61981952D01*
X127816133Y-61983520D01*
X127816099Y-61983551D01*
X127814000Y-61991597D01*
X127814000Y-63205000D01*
X127795093Y-63263191D01*
X127745593Y-63299155D01*
X127715000Y-63304000D01*
X127405000Y-63304000D01*
X127346809Y-63285093D01*
X127310845Y-63235593D01*
X127306000Y-63205000D01*
X127306000Y-61993124D01*
X127294122Y-61956566D01*
X127286214Y-61945680D01*
X127286219Y-61884495D01*
X127310367Y-61845091D01*
X129786337Y-59369121D01*
X129840854Y-59341344D01*
X129887598Y-59345845D01*
X129887670Y-59345575D01*
X129891847Y-59346694D01*
X129891849Y-59346695D01*
X130094846Y-59401088D01*
X130094848Y-59401088D01*
X130099023Y-59402207D01*
X130317000Y-59421277D01*
X130534977Y-59402207D01*
X130539152Y-59401088D01*
X130539154Y-59401088D01*
X130666151Y-59367059D01*
X130746330Y-59345575D01*
X130944639Y-59253102D01*
X130981987Y-59226951D01*
X131027009Y-59195426D01*
X131123877Y-59127598D01*
X131278598Y-58972877D01*
X131370699Y-58841342D01*
X131401620Y-58797183D01*
X131401621Y-58797181D01*
X131404102Y-58793638D01*
X131496575Y-58595330D01*
X131498132Y-58596056D01*
X131531640Y-58553168D01*
X131590455Y-58536303D01*
X131647950Y-58557230D01*
G37*
G04 #@! TD.AperFunction*
G04 #@! TA.AperFunction,Conductor*
G36*
X98852126Y-58813180D02*
G01*
X98856887Y-58819436D01*
X98872921Y-58842334D01*
X98875402Y-58845877D01*
X99030123Y-59000598D01*
X99089027Y-59041843D01*
X99205171Y-59123168D01*
X99209361Y-59126102D01*
X99407670Y-59218575D01*
X99438930Y-59226951D01*
X99614846Y-59274088D01*
X99614848Y-59274088D01*
X99619023Y-59275207D01*
X99837000Y-59294277D01*
X100054977Y-59275207D01*
X100060116Y-59273830D01*
X100155746Y-59248207D01*
X100216847Y-59251410D01*
X100251372Y-59273830D01*
X103496879Y-62519338D01*
X103524656Y-62573855D01*
X103520154Y-62620597D01*
X103520425Y-62620670D01*
X103519305Y-62624850D01*
X103468091Y-62815984D01*
X103463793Y-62832023D01*
X103463416Y-62836334D01*
X103453130Y-62953902D01*
X103429223Y-63010224D01*
X103376777Y-63041737D01*
X103315825Y-63036404D01*
X103269647Y-62996263D01*
X103255922Y-62954333D01*
X103246629Y-62853200D01*
X103244982Y-62844314D01*
X103192570Y-62658473D01*
X103189332Y-62650038D01*
X103103928Y-62476855D01*
X103099209Y-62469154D01*
X102983678Y-62314440D01*
X102977629Y-62307722D01*
X102835837Y-62176650D01*
X102828670Y-62171151D01*
X102665369Y-62068117D01*
X102657315Y-62064013D01*
X102477969Y-61992460D01*
X102469306Y-61989894D01*
X102429379Y-61981952D01*
X102416133Y-61983520D01*
X102416099Y-61983551D01*
X102414000Y-61991597D01*
X102414000Y-63205000D01*
X102395093Y-63263191D01*
X102345593Y-63299155D01*
X102315000Y-63304000D01*
X102005000Y-63304000D01*
X101946809Y-63285093D01*
X101910845Y-63235593D01*
X101906000Y-63205000D01*
X101906000Y-61993124D01*
X101901878Y-61980439D01*
X101901274Y-61980000D01*
X101894127Y-61979484D01*
X101878555Y-61982160D01*
X101869819Y-61984501D01*
X101688668Y-62051331D01*
X101680506Y-62055224D01*
X101514562Y-62153950D01*
X101507260Y-62159255D01*
X101362081Y-62286575D01*
X101355858Y-62293133D01*
X101236322Y-62444763D01*
X101231397Y-62452346D01*
X101141490Y-62623231D01*
X101138032Y-62631579D01*
X101080773Y-62815984D01*
X101078895Y-62824821D01*
X101063575Y-62954260D01*
X101037959Y-63009825D01*
X100984575Y-63039722D01*
X100923814Y-63032530D01*
X100878884Y-62990998D01*
X100866638Y-62951252D01*
X100856584Y-62836334D01*
X100856207Y-62832023D01*
X100851910Y-62815984D01*
X100800693Y-62624843D01*
X100799575Y-62620670D01*
X100707102Y-62422362D01*
X100690771Y-62399038D01*
X100653118Y-62345265D01*
X100581598Y-62243123D01*
X100426877Y-62088402D01*
X100278491Y-61984501D01*
X100251184Y-61965380D01*
X100251182Y-61965379D01*
X100247639Y-61962898D01*
X100049330Y-61870425D01*
X99961455Y-61846879D01*
X99842154Y-61814912D01*
X99842152Y-61814912D01*
X99837977Y-61813793D01*
X99620000Y-61794723D01*
X99402023Y-61813793D01*
X99397848Y-61814912D01*
X99397846Y-61814912D01*
X99278545Y-61846879D01*
X99190670Y-61870425D01*
X98992362Y-61962898D01*
X98988819Y-61965379D01*
X98988817Y-61965380D01*
X98835795Y-62072527D01*
X98777283Y-62090416D01*
X98719431Y-62070496D01*
X98684337Y-62020376D01*
X98680011Y-61991431D01*
X98680011Y-59010867D01*
X98681342Y-58998955D01*
X98681231Y-58998946D01*
X98681797Y-58991916D01*
X98683353Y-58985037D01*
X98680201Y-58934231D01*
X98680011Y-58928102D01*
X98680011Y-58912366D01*
X98678516Y-58901924D01*
X98677707Y-58894034D01*
X98676982Y-58882352D01*
X98692248Y-58823104D01*
X98739425Y-58784143D01*
X98800493Y-58780352D01*
X98852126Y-58813180D01*
G37*
G04 #@! TD.AperFunction*
G04 #@! TA.AperFunction,Conductor*
G36*
X106247950Y-58430230D02*
G01*
X106276086Y-58468954D01*
X106277425Y-58468330D01*
X106369898Y-58666638D01*
X106372379Y-58670181D01*
X106372380Y-58670183D01*
X106407949Y-58720981D01*
X106495402Y-58845877D01*
X106650123Y-59000598D01*
X106709027Y-59041843D01*
X106825171Y-59123168D01*
X106829361Y-59126102D01*
X106863388Y-59141969D01*
X106924339Y-59170391D01*
X106969087Y-59212119D01*
X106981500Y-59260115D01*
X106981500Y-60910643D01*
X106980169Y-60922555D01*
X106980280Y-60922564D01*
X106979714Y-60929594D01*
X106978158Y-60936473D01*
X106979721Y-60961664D01*
X106981310Y-60987278D01*
X106981500Y-60993408D01*
X106981500Y-61009145D01*
X106982581Y-61016690D01*
X106982994Y-61019575D01*
X106983804Y-61027480D01*
X106985424Y-61053584D01*
X106986592Y-61072417D01*
X106988988Y-61079055D01*
X106988989Y-61079059D01*
X106989728Y-61081108D01*
X106994609Y-61100682D01*
X106994909Y-61102775D01*
X106995919Y-61109829D01*
X107014562Y-61150833D01*
X107017549Y-61158172D01*
X107032841Y-61200530D01*
X107038289Y-61207987D01*
X107048470Y-61225410D01*
X107049375Y-61227401D01*
X107049377Y-61227404D01*
X107052294Y-61233820D01*
X107081698Y-61267945D01*
X107086616Y-61274139D01*
X107094577Y-61285035D01*
X107105333Y-61295791D01*
X107110328Y-61301171D01*
X107136602Y-61331664D01*
X107136605Y-61331667D01*
X107141204Y-61337004D01*
X107147121Y-61340839D01*
X107147123Y-61340841D01*
X107147618Y-61341162D01*
X107163775Y-61354233D01*
X107446856Y-61637314D01*
X107474633Y-61691831D01*
X107465062Y-61752263D01*
X107421797Y-61795528D01*
X107368225Y-61805941D01*
X107240000Y-61794723D01*
X107022023Y-61813793D01*
X107017848Y-61814912D01*
X107017846Y-61814912D01*
X106898545Y-61846879D01*
X106810670Y-61870425D01*
X106612362Y-61962898D01*
X106608819Y-61965379D01*
X106608817Y-61965380D01*
X106571612Y-61991431D01*
X106433123Y-62088402D01*
X106278402Y-62243123D01*
X106206882Y-62345265D01*
X106169230Y-62399038D01*
X106152898Y-62422362D01*
X106060425Y-62620670D01*
X106058868Y-62619944D01*
X106025360Y-62662832D01*
X105966545Y-62679697D01*
X105909050Y-62658770D01*
X105880914Y-62620046D01*
X105879575Y-62620670D01*
X105832323Y-62519338D01*
X105787102Y-62422362D01*
X105770771Y-62399038D01*
X105733118Y-62345265D01*
X105661598Y-62243123D01*
X105506877Y-62088402D01*
X105358491Y-61984501D01*
X105331184Y-61965380D01*
X105331182Y-61965379D01*
X105327639Y-61962898D01*
X105129330Y-61870425D01*
X105041455Y-61846879D01*
X104922154Y-61814912D01*
X104922152Y-61814912D01*
X104917977Y-61813793D01*
X104700000Y-61794723D01*
X104482023Y-61813793D01*
X104477848Y-61814912D01*
X104477846Y-61814912D01*
X104352995Y-61848366D01*
X104270670Y-61870425D01*
X104270555Y-61869995D01*
X104212062Y-61872042D01*
X104169338Y-61846879D01*
X102858866Y-60536407D01*
X101546144Y-59223686D01*
X101518367Y-59169169D01*
X101527938Y-59108737D01*
X101571203Y-59065472D01*
X101631635Y-59055901D01*
X101672932Y-59072586D01*
X101745816Y-59123620D01*
X101749361Y-59126102D01*
X101947670Y-59218575D01*
X101978930Y-59226951D01*
X102154846Y-59274088D01*
X102154848Y-59274088D01*
X102159023Y-59275207D01*
X102377000Y-59294277D01*
X102594977Y-59275207D01*
X102599152Y-59274088D01*
X102599154Y-59274088D01*
X102775070Y-59226951D01*
X102806330Y-59218575D01*
X103004639Y-59126102D01*
X103008830Y-59123168D01*
X103124973Y-59041843D01*
X103183877Y-59000598D01*
X103338598Y-58845877D01*
X103426051Y-58720981D01*
X103461620Y-58670183D01*
X103461621Y-58670181D01*
X103464102Y-58666638D01*
X103556575Y-58468330D01*
X103558132Y-58469056D01*
X103591640Y-58426168D01*
X103650455Y-58409303D01*
X103707950Y-58430230D01*
X103736086Y-58468954D01*
X103737425Y-58468330D01*
X103829898Y-58666638D01*
X103832379Y-58670181D01*
X103832380Y-58670183D01*
X103867949Y-58720981D01*
X103955402Y-58845877D01*
X104110123Y-59000598D01*
X104169027Y-59041843D01*
X104285171Y-59123168D01*
X104289361Y-59126102D01*
X104487670Y-59218575D01*
X104518930Y-59226951D01*
X104694846Y-59274088D01*
X104694848Y-59274088D01*
X104699023Y-59275207D01*
X104917000Y-59294277D01*
X105134977Y-59275207D01*
X105139152Y-59274088D01*
X105139154Y-59274088D01*
X105315070Y-59226951D01*
X105346330Y-59218575D01*
X105544639Y-59126102D01*
X105548830Y-59123168D01*
X105664973Y-59041843D01*
X105723877Y-59000598D01*
X105878598Y-58845877D01*
X105966051Y-58720981D01*
X106001620Y-58670183D01*
X106001621Y-58670181D01*
X106004102Y-58666638D01*
X106096575Y-58468330D01*
X106098132Y-58469056D01*
X106131640Y-58426168D01*
X106190455Y-58409303D01*
X106247950Y-58430230D01*
G37*
G04 #@! TD.AperFunction*
G04 #@! TA.AperFunction,Conductor*
G36*
X96087950Y-58430230D02*
G01*
X96116086Y-58468954D01*
X96117425Y-58468330D01*
X96209898Y-58666638D01*
X96212379Y-58670181D01*
X96212380Y-58670183D01*
X96247949Y-58720981D01*
X96335402Y-58845877D01*
X96490123Y-59000598D01*
X96549027Y-59041843D01*
X96665171Y-59123168D01*
X96669361Y-59126102D01*
X96867670Y-59218575D01*
X96898930Y-59226951D01*
X97074846Y-59274088D01*
X97074848Y-59274088D01*
X97079023Y-59275207D01*
X97297000Y-59294277D01*
X97514977Y-59275207D01*
X97604389Y-59251249D01*
X97665489Y-59254451D01*
X97713039Y-59292956D01*
X97729011Y-59346876D01*
X97729011Y-61817466D01*
X97710104Y-61875657D01*
X97660604Y-61911621D01*
X97599418Y-61911621D01*
X97588183Y-61907195D01*
X97509330Y-61870425D01*
X97421455Y-61846879D01*
X97302154Y-61814912D01*
X97302152Y-61814912D01*
X97297977Y-61813793D01*
X97080000Y-61794723D01*
X96862023Y-61813793D01*
X96857848Y-61814912D01*
X96857846Y-61814912D01*
X96738545Y-61846879D01*
X96650670Y-61870425D01*
X96452362Y-61962898D01*
X96448819Y-61965379D01*
X96448817Y-61965380D01*
X96295795Y-62072527D01*
X96237283Y-62090416D01*
X96179431Y-62070496D01*
X96144337Y-62020376D01*
X96140011Y-61991431D01*
X96140011Y-61550868D01*
X96141342Y-61538955D01*
X96141231Y-61538946D01*
X96141796Y-61531917D01*
X96143353Y-61525038D01*
X96140201Y-61474226D01*
X96140011Y-61468097D01*
X96140011Y-61452366D01*
X96138518Y-61441940D01*
X96137708Y-61434036D01*
X96135357Y-61396131D01*
X96135356Y-61396128D01*
X96134920Y-61389094D01*
X96132526Y-61382464D01*
X96132525Y-61382457D01*
X96131783Y-61380402D01*
X96126901Y-61360824D01*
X96126592Y-61358666D01*
X96125592Y-61351682D01*
X96106957Y-61310697D01*
X96103962Y-61303340D01*
X96091065Y-61267615D01*
X96091064Y-61267613D01*
X96088670Y-61260982D01*
X96083221Y-61253523D01*
X96073041Y-61236102D01*
X96069217Y-61227691D01*
X96064615Y-61222350D01*
X96064611Y-61222344D01*
X96039816Y-61193568D01*
X96034877Y-61187348D01*
X96029189Y-61179562D01*
X96029185Y-61179558D01*
X96026934Y-61176476D01*
X96016178Y-61165720D01*
X96011183Y-61160340D01*
X95984909Y-61129847D01*
X95984906Y-61129844D01*
X95980307Y-61124507D01*
X95974390Y-61120672D01*
X95974388Y-61120670D01*
X95973893Y-61120349D01*
X95957736Y-61107278D01*
X94235623Y-59385165D01*
X94207846Y-59330648D01*
X94217417Y-59270216D01*
X94260682Y-59226951D01*
X94321114Y-59217380D01*
X94331245Y-59219533D01*
X94404468Y-59239153D01*
X94534846Y-59274088D01*
X94534848Y-59274088D01*
X94539023Y-59275207D01*
X94757000Y-59294277D01*
X94974977Y-59275207D01*
X94979152Y-59274088D01*
X94979154Y-59274088D01*
X95155070Y-59226951D01*
X95186330Y-59218575D01*
X95384639Y-59126102D01*
X95388830Y-59123168D01*
X95504973Y-59041843D01*
X95563877Y-59000598D01*
X95718598Y-58845877D01*
X95806051Y-58720981D01*
X95841620Y-58670183D01*
X95841621Y-58670181D01*
X95844102Y-58666638D01*
X95936575Y-58468330D01*
X95938132Y-58469056D01*
X95971640Y-58426168D01*
X96030455Y-58409303D01*
X96087950Y-58430230D01*
G37*
G04 #@! TD.AperFunction*
G04 #@! TA.AperFunction,Conductor*
G36*
X115513226Y-59435406D02*
G01*
X115549190Y-59484906D01*
X115549190Y-59546092D01*
X115525039Y-59585503D01*
X114569278Y-60541264D01*
X114559913Y-60548746D01*
X114559985Y-60548831D01*
X114554615Y-60553401D01*
X114548650Y-60557165D01*
X114514950Y-60595323D01*
X114510750Y-60599792D01*
X114499627Y-60610915D01*
X114497517Y-60613731D01*
X114497513Y-60613735D01*
X114493311Y-60619342D01*
X114488297Y-60625500D01*
X114463154Y-60653969D01*
X114463150Y-60653975D01*
X114458487Y-60659255D01*
X114455493Y-60665633D01*
X114455490Y-60665637D01*
X114454562Y-60667614D01*
X114444166Y-60684915D01*
X114442860Y-60686657D01*
X114442857Y-60686663D01*
X114438628Y-60692305D01*
X114436153Y-60698907D01*
X114436152Y-60698909D01*
X114422819Y-60734476D01*
X114419740Y-60741784D01*
X114400601Y-60782548D01*
X114399180Y-60791673D01*
X114394060Y-60811190D01*
X114390816Y-60819843D01*
X114387907Y-60859004D01*
X114387480Y-60864748D01*
X114386575Y-60872633D01*
X114384500Y-60885956D01*
X114384500Y-60901168D01*
X114384228Y-60908503D01*
X114380723Y-60955674D01*
X114382195Y-60962568D01*
X114382195Y-60962573D01*
X114382319Y-60963152D01*
X114384500Y-60983818D01*
X114384500Y-61828886D01*
X114365593Y-61887077D01*
X114327343Y-61918608D01*
X114232362Y-61962898D01*
X114228819Y-61965379D01*
X114228817Y-61965380D01*
X114075795Y-62072527D01*
X114017283Y-62090416D01*
X113959431Y-62070496D01*
X113924337Y-62020376D01*
X113920011Y-61991431D01*
X113920011Y-60036455D01*
X113938918Y-59978264D01*
X113949007Y-59966451D01*
X114469962Y-59445496D01*
X114524479Y-59417719D01*
X114539966Y-59416500D01*
X114673977Y-59416500D01*
X115455036Y-59416499D01*
X115513226Y-59435406D01*
G37*
G04 #@! TD.AperFunction*
G04 #@! TA.AperFunction,Conductor*
G36*
X117187597Y-59345846D02*
G01*
X117187670Y-59345575D01*
X117189292Y-59346010D01*
X117189294Y-59346010D01*
X117215795Y-59353111D01*
X117394846Y-59401088D01*
X117394848Y-59401088D01*
X117399023Y-59402207D01*
X117617000Y-59421277D01*
X117834977Y-59402207D01*
X117839152Y-59401088D01*
X117839154Y-59401088D01*
X118042749Y-59346535D01*
X118103851Y-59349738D01*
X118151400Y-59388243D01*
X118167236Y-59447343D01*
X118145309Y-59504465D01*
X118138382Y-59512159D01*
X117255695Y-60394847D01*
X115984767Y-61665775D01*
X115975402Y-61673257D01*
X115975474Y-61673342D01*
X115970104Y-61677912D01*
X115964139Y-61681676D01*
X115940858Y-61708037D01*
X115930439Y-61719834D01*
X115926239Y-61724303D01*
X115915116Y-61735426D01*
X115913006Y-61738242D01*
X115913002Y-61738246D01*
X115908800Y-61743853D01*
X115903786Y-61750011D01*
X115878643Y-61778480D01*
X115878639Y-61778486D01*
X115873976Y-61783766D01*
X115870982Y-61790144D01*
X115870979Y-61790148D01*
X115870051Y-61792125D01*
X115859655Y-61809426D01*
X115858349Y-61811168D01*
X115858346Y-61811174D01*
X115854117Y-61816816D01*
X115851642Y-61823418D01*
X115851641Y-61823420D01*
X115838308Y-61858987D01*
X115835229Y-61866295D01*
X115816090Y-61907059D01*
X115814669Y-61916184D01*
X115809549Y-61935701D01*
X115806305Y-61944354D01*
X115803323Y-61984501D01*
X115802969Y-61989259D01*
X115802061Y-61997161D01*
X115800406Y-62007786D01*
X115772768Y-62062373D01*
X115718323Y-62090290D01*
X115657867Y-62080873D01*
X115645802Y-62073645D01*
X115491184Y-61965380D01*
X115491182Y-61965379D01*
X115487639Y-61962898D01*
X115392661Y-61918609D01*
X115347913Y-61876881D01*
X115335500Y-61828885D01*
X115335500Y-61160966D01*
X115354407Y-61102775D01*
X115364496Y-61090962D01*
X117086338Y-59369121D01*
X117140855Y-59341344D01*
X117187597Y-59345846D01*
G37*
G04 #@! TD.AperFunction*
G04 #@! TA.AperFunction,Conductor*
G36*
X126567950Y-58557230D02*
G01*
X126596086Y-58595954D01*
X126597425Y-58595330D01*
X126689898Y-58793638D01*
X126692379Y-58797181D01*
X126692380Y-58797183D01*
X126723301Y-58841342D01*
X126815402Y-58972877D01*
X126970123Y-59127598D01*
X127066991Y-59195426D01*
X127112014Y-59226951D01*
X127149361Y-59253102D01*
X127347670Y-59345575D01*
X127427849Y-59367059D01*
X127554846Y-59401088D01*
X127554848Y-59401088D01*
X127559023Y-59402207D01*
X127777000Y-59421277D01*
X127994977Y-59402207D01*
X127999152Y-59401088D01*
X127999154Y-59401088D01*
X128126151Y-59367059D01*
X128202751Y-59346534D01*
X128263851Y-59349736D01*
X128311401Y-59388242D01*
X128327237Y-59447342D01*
X128305311Y-59504464D01*
X128298377Y-59512165D01*
X125947278Y-61863264D01*
X125937913Y-61870746D01*
X125937985Y-61870831D01*
X125932615Y-61875401D01*
X125926650Y-61879165D01*
X125912522Y-61895162D01*
X125892950Y-61917323D01*
X125888750Y-61921792D01*
X125877627Y-61932915D01*
X125875517Y-61935731D01*
X125875513Y-61935735D01*
X125871311Y-61941342D01*
X125866297Y-61947500D01*
X125836487Y-61981254D01*
X125835183Y-61980102D01*
X125794306Y-62012848D01*
X125733188Y-62015728D01*
X125702531Y-62001334D01*
X125651184Y-61965380D01*
X125651182Y-61965379D01*
X125647639Y-61962898D01*
X125449330Y-61870425D01*
X125361455Y-61846879D01*
X125242154Y-61814912D01*
X125242152Y-61814912D01*
X125237977Y-61813793D01*
X125020000Y-61794723D01*
X124802023Y-61813793D01*
X124797848Y-61814912D01*
X124797846Y-61814912D01*
X124678545Y-61846879D01*
X124590670Y-61870425D01*
X124511827Y-61907190D01*
X124451099Y-61914647D01*
X124397585Y-61884984D01*
X124371727Y-61829531D01*
X124370989Y-61817466D01*
X124370989Y-59745477D01*
X124389896Y-59687286D01*
X124399985Y-59675473D01*
X124706337Y-59369121D01*
X124760854Y-59341344D01*
X124807598Y-59345845D01*
X124807670Y-59345575D01*
X124811847Y-59346694D01*
X124811849Y-59346695D01*
X125014846Y-59401088D01*
X125014848Y-59401088D01*
X125019023Y-59402207D01*
X125237000Y-59421277D01*
X125454977Y-59402207D01*
X125459152Y-59401088D01*
X125459154Y-59401088D01*
X125586151Y-59367059D01*
X125666330Y-59345575D01*
X125864639Y-59253102D01*
X125901987Y-59226951D01*
X125947009Y-59195426D01*
X126043877Y-59127598D01*
X126198598Y-58972877D01*
X126290699Y-58841342D01*
X126321620Y-58797183D01*
X126321621Y-58797181D01*
X126324102Y-58793638D01*
X126416575Y-58595330D01*
X126418132Y-58596056D01*
X126451640Y-58553168D01*
X126510455Y-58536303D01*
X126567950Y-58557230D01*
G37*
G04 #@! TD.AperFunction*
G04 #@! TA.AperFunction,Conductor*
G36*
X81450551Y-55356407D02*
G01*
X81473455Y-55379715D01*
X81588402Y-55543877D01*
X81743123Y-55698598D01*
X81922361Y-55824102D01*
X82120670Y-55916575D01*
X82207220Y-55939766D01*
X82327846Y-55972088D01*
X82327848Y-55972088D01*
X82332023Y-55973207D01*
X82370616Y-55976583D01*
X82437899Y-55982470D01*
X82494221Y-56006377D01*
X82525734Y-56058823D01*
X82520401Y-56119775D01*
X82480260Y-56165953D01*
X82446037Y-56178663D01*
X82268555Y-56209160D01*
X82259819Y-56211501D01*
X82078668Y-56278331D01*
X82070506Y-56282224D01*
X81904562Y-56380950D01*
X81897260Y-56386255D01*
X81752081Y-56513575D01*
X81745858Y-56520133D01*
X81626322Y-56671763D01*
X81621397Y-56679346D01*
X81531490Y-56850231D01*
X81528032Y-56858579D01*
X81481629Y-57008024D01*
X81481781Y-57019650D01*
X81492327Y-57023000D01*
X83605676Y-57023000D01*
X83617166Y-57019267D01*
X83617370Y-57008866D01*
X83582571Y-56885478D01*
X83579330Y-56877035D01*
X83493928Y-56703855D01*
X83489209Y-56696154D01*
X83373678Y-56541440D01*
X83367629Y-56534722D01*
X83225837Y-56403650D01*
X83218670Y-56398151D01*
X83055369Y-56295117D01*
X83047315Y-56291013D01*
X82867969Y-56219460D01*
X82859306Y-56216894D01*
X82669926Y-56179225D01*
X82667285Y-56178947D01*
X82666279Y-56178499D01*
X82665474Y-56178339D01*
X82665510Y-56178157D01*
X82611389Y-56154061D01*
X82580796Y-56101074D01*
X82587190Y-56040224D01*
X82628131Y-55994753D01*
X82669004Y-55981866D01*
X82724668Y-55976996D01*
X82767977Y-55973207D01*
X82772152Y-55972088D01*
X82772154Y-55972088D01*
X82892780Y-55939766D01*
X82979330Y-55916575D01*
X83177639Y-55824102D01*
X83356877Y-55698598D01*
X83511116Y-55544359D01*
X83565633Y-55516582D01*
X83626065Y-55526153D01*
X83651124Y-55544359D01*
X88825761Y-60718996D01*
X88853538Y-60773513D01*
X88843967Y-60833945D01*
X88800702Y-60877210D01*
X88755757Y-60888000D01*
X85789665Y-60888000D01*
X85731474Y-60869093D01*
X85719661Y-60859004D01*
X84201922Y-59341265D01*
X84197323Y-59336341D01*
X84163092Y-59297101D01*
X84159169Y-59292604D01*
X84106939Y-59255897D01*
X84102786Y-59252812D01*
X84085367Y-59239153D01*
X84065641Y-59223686D01*
X84057242Y-59217100D01*
X84057239Y-59217098D01*
X84052543Y-59213416D01*
X84047099Y-59210958D01*
X84044165Y-59209633D01*
X84027972Y-59200398D01*
X84020453Y-59195113D01*
X84014894Y-59192946D01*
X84014891Y-59192944D01*
X83960973Y-59171922D01*
X83956197Y-59169914D01*
X83927920Y-59157147D01*
X83898016Y-59143645D01*
X83888975Y-59141969D01*
X83871062Y-59136867D01*
X83862487Y-59133524D01*
X83799181Y-59125190D01*
X83794086Y-59124384D01*
X83761913Y-59118420D01*
X83737180Y-59113836D01*
X83737177Y-59113836D01*
X83731308Y-59112748D01*
X83669076Y-59116336D01*
X83663378Y-59116500D01*
X83637620Y-59116500D01*
X83579429Y-59097593D01*
X83556524Y-59074284D01*
X83538731Y-59048873D01*
X83511598Y-59010123D01*
X83356877Y-58855402D01*
X83218550Y-58758544D01*
X83181184Y-58732380D01*
X83181182Y-58732379D01*
X83177639Y-58729898D01*
X82979330Y-58637425D01*
X82865324Y-58606877D01*
X82772154Y-58581912D01*
X82772152Y-58581912D01*
X82767977Y-58580793D01*
X82654382Y-58570855D01*
X82598060Y-58546948D01*
X82566547Y-58494502D01*
X82571880Y-58433550D01*
X82612021Y-58387373D01*
X82648804Y-58374256D01*
X82803399Y-58351841D01*
X82812191Y-58349730D01*
X82995026Y-58287666D01*
X83003288Y-58283988D01*
X83171755Y-58189641D01*
X83179209Y-58184518D01*
X83327650Y-58061061D01*
X83334061Y-58054650D01*
X83457518Y-57906209D01*
X83462641Y-57898755D01*
X83556988Y-57730288D01*
X83560666Y-57722026D01*
X83621744Y-57542094D01*
X83620246Y-57533372D01*
X83619209Y-57532363D01*
X83613365Y-57531000D01*
X81495186Y-57531000D01*
X81483276Y-57534870D01*
X81482958Y-57544591D01*
X81507536Y-57641368D01*
X81510551Y-57649880D01*
X81591386Y-57825225D01*
X81595917Y-57833072D01*
X81707348Y-57990744D01*
X81713222Y-57997622D01*
X81851532Y-58132357D01*
X81858555Y-58138044D01*
X82019099Y-58245317D01*
X82027054Y-58249635D01*
X82204446Y-58325849D01*
X82213058Y-58328647D01*
X82401380Y-58371261D01*
X82410339Y-58372440D01*
X82438258Y-58373537D01*
X82495662Y-58394714D01*
X82529655Y-58445588D01*
X82527253Y-58506726D01*
X82489374Y-58554776D01*
X82443000Y-58571084D01*
X82332023Y-58580793D01*
X82327848Y-58581912D01*
X82327846Y-58581912D01*
X82234676Y-58606877D01*
X82120670Y-58637425D01*
X81922362Y-58729898D01*
X81918819Y-58732379D01*
X81918817Y-58732380D01*
X81874710Y-58763264D01*
X81743123Y-58855402D01*
X81588402Y-59010123D01*
X81561269Y-59048873D01*
X81543476Y-59074284D01*
X81494611Y-59111106D01*
X81462380Y-59116500D01*
X81097620Y-59116500D01*
X81039429Y-59097593D01*
X81016524Y-59074284D01*
X80998731Y-59048873D01*
X80971598Y-59010123D01*
X80816877Y-58855402D01*
X80678550Y-58758544D01*
X80641184Y-58732380D01*
X80641182Y-58732379D01*
X80637639Y-58729898D01*
X80439330Y-58637425D01*
X80325324Y-58606877D01*
X80232154Y-58581912D01*
X80232152Y-58581912D01*
X80227977Y-58580793D01*
X80114382Y-58570855D01*
X80058060Y-58546948D01*
X80026547Y-58494502D01*
X80031880Y-58433550D01*
X80072021Y-58387373D01*
X80108804Y-58374256D01*
X80263399Y-58351841D01*
X80272191Y-58349730D01*
X80455026Y-58287666D01*
X80463288Y-58283988D01*
X80631755Y-58189641D01*
X80639209Y-58184518D01*
X80787650Y-58061061D01*
X80794061Y-58054650D01*
X80917518Y-57906209D01*
X80922641Y-57898755D01*
X81016988Y-57730288D01*
X81020666Y-57722026D01*
X81081744Y-57542094D01*
X81080246Y-57533372D01*
X81079209Y-57532363D01*
X81073365Y-57531000D01*
X79855000Y-57531000D01*
X79796809Y-57512093D01*
X79760845Y-57462593D01*
X79756000Y-57432000D01*
X79756000Y-57122000D01*
X79774907Y-57063809D01*
X79824407Y-57027845D01*
X79855000Y-57023000D01*
X81065676Y-57023000D01*
X81077166Y-57019267D01*
X81077370Y-57008866D01*
X81042571Y-56885478D01*
X81039330Y-56877035D01*
X80953928Y-56703855D01*
X80949209Y-56696154D01*
X80833678Y-56541440D01*
X80827629Y-56534722D01*
X80685837Y-56403650D01*
X80678670Y-56398151D01*
X80515369Y-56295117D01*
X80507315Y-56291013D01*
X80327969Y-56219460D01*
X80319306Y-56216894D01*
X80151910Y-56183597D01*
X80098526Y-56153700D01*
X80072910Y-56098135D01*
X80084847Y-56038126D01*
X80129777Y-55996593D01*
X80171222Y-55987499D01*
X80891518Y-55987499D01*
X80895361Y-55986890D01*
X80895366Y-55986890D01*
X80932217Y-55981053D01*
X80985304Y-55972646D01*
X81041823Y-55943848D01*
X81091403Y-55918586D01*
X81091405Y-55918585D01*
X81098342Y-55915050D01*
X81188050Y-55825342D01*
X81205721Y-55790662D01*
X81242110Y-55719244D01*
X81242110Y-55719243D01*
X81245646Y-55712304D01*
X81249267Y-55689445D01*
X81259891Y-55622365D01*
X81259891Y-55622363D01*
X81260500Y-55618519D01*
X81260500Y-55436500D01*
X81279407Y-55378309D01*
X81328907Y-55342345D01*
X81359500Y-55337500D01*
X81392360Y-55337500D01*
X81450551Y-55356407D01*
G37*
G04 #@! TD.AperFunction*
G04 #@! TA.AperFunction,Conductor*
G36*
X89860790Y-61472907D02*
G01*
X89872603Y-61482996D01*
X90290091Y-61900484D01*
X90290095Y-61900487D01*
X90312658Y-61923050D01*
X90319595Y-61926584D01*
X90319597Y-61926586D01*
X90334151Y-61934001D01*
X90347390Y-61942113D01*
X90366911Y-61956296D01*
X90374316Y-61958702D01*
X90374320Y-61958704D01*
X90389855Y-61963751D01*
X90404201Y-61969694D01*
X90425696Y-61980646D01*
X90433389Y-61981864D01*
X90433391Y-61981865D01*
X90449519Y-61984419D01*
X90464620Y-61988044D01*
X90487567Y-61995500D01*
X90688000Y-61995500D01*
X90746191Y-62014407D01*
X90782155Y-62063907D01*
X90787000Y-62094500D01*
X90787000Y-64300000D01*
X90793400Y-64557407D01*
X90804351Y-64997879D01*
X90805000Y-65024000D01*
X90969245Y-65188245D01*
X90997022Y-65242762D01*
X90993607Y-65288181D01*
X90967484Y-65370532D01*
X90944520Y-65575262D01*
X90961759Y-65780553D01*
X91018544Y-65978586D01*
X91112712Y-66161818D01*
X91240677Y-66323270D01*
X91244357Y-66326402D01*
X91244359Y-66326404D01*
X91357017Y-66422283D01*
X91397564Y-66456791D01*
X91401787Y-66459151D01*
X91401791Y-66459154D01*
X91441342Y-66481258D01*
X91577398Y-66557297D01*
X91581996Y-66558791D01*
X91768724Y-66619463D01*
X91768726Y-66619464D01*
X91773329Y-66620959D01*
X91977894Y-66645351D01*
X91982716Y-66644980D01*
X91982719Y-66644980D01*
X92053259Y-66639552D01*
X92183300Y-66629546D01*
X92220038Y-66619289D01*
X92305226Y-66595504D01*
X92366358Y-66598066D01*
X92401853Y-66620853D01*
X93266082Y-67485082D01*
X93293859Y-67539599D01*
X93284288Y-67600031D01*
X93241023Y-67643296D01*
X93211565Y-67652867D01*
X93134569Y-67665062D01*
X93134568Y-67665062D01*
X93126874Y-67666281D01*
X93119935Y-67669817D01*
X93119934Y-67669817D01*
X93013719Y-67723936D01*
X93013717Y-67723937D01*
X93006780Y-67727472D01*
X92911472Y-67822780D01*
X92850281Y-67942874D01*
X92849062Y-67950568D01*
X92849062Y-67950569D01*
X92839237Y-68012603D01*
X92834500Y-68042512D01*
X92834500Y-68609488D01*
X92835109Y-68613332D01*
X92835109Y-68613334D01*
X92846438Y-68684859D01*
X92850281Y-68709126D01*
X92911472Y-68829220D01*
X93006780Y-68924528D01*
X93013717Y-68928063D01*
X93013719Y-68928064D01*
X93107691Y-68975945D01*
X93126874Y-68985719D01*
X93134568Y-68986938D01*
X93134569Y-68986938D01*
X93222666Y-69000891D01*
X93222668Y-69000891D01*
X93226512Y-69001500D01*
X93743488Y-69001500D01*
X93747332Y-69000891D01*
X93747334Y-69000891D01*
X93835431Y-68986938D01*
X93835432Y-68986938D01*
X93843126Y-68985719D01*
X93862309Y-68975945D01*
X93956281Y-68928064D01*
X93956283Y-68928063D01*
X93963220Y-68924528D01*
X94058528Y-68829220D01*
X94085538Y-68776210D01*
X94128802Y-68732945D01*
X94158260Y-68723373D01*
X94175339Y-68720668D01*
X94224609Y-68712865D01*
X94224610Y-68712865D01*
X94232304Y-68711646D01*
X94252352Y-68701431D01*
X94340682Y-68656425D01*
X94401114Y-68646854D01*
X94455631Y-68674631D01*
X94693504Y-68912504D01*
X94721281Y-68967021D01*
X94722500Y-68982508D01*
X94722500Y-69337500D01*
X94703593Y-69395691D01*
X94654093Y-69431655D01*
X94623500Y-69436500D01*
X94353252Y-69436500D01*
X94327005Y-69441721D01*
X94304334Y-69446230D01*
X94304332Y-69446231D01*
X94294769Y-69448133D01*
X94228448Y-69492448D01*
X94184133Y-69558769D01*
X94172500Y-69617252D01*
X94172500Y-71656748D01*
X94184133Y-71715231D01*
X94228448Y-71781552D01*
X94294769Y-71825867D01*
X94304332Y-71827769D01*
X94304334Y-71827770D01*
X94327005Y-71832279D01*
X94353252Y-71837500D01*
X94623500Y-71837500D01*
X94681691Y-71856407D01*
X94717655Y-71905907D01*
X94722500Y-71936500D01*
X94722500Y-73271000D01*
X94703593Y-73329191D01*
X94654093Y-73365155D01*
X94623500Y-73370000D01*
X89708565Y-73370000D01*
X89650374Y-73351093D01*
X89639706Y-73341982D01*
X89634624Y-73334376D01*
X89611623Y-73319007D01*
X89611622Y-73319006D01*
X89585465Y-73301529D01*
X89562054Y-73285886D01*
X89524175Y-73237836D01*
X89521928Y-73180631D01*
X89521495Y-73180545D01*
X89521853Y-73178743D01*
X89521773Y-73176698D01*
X89522916Y-73173401D01*
X89535052Y-73112388D01*
X89536000Y-73102766D01*
X89536000Y-73098680D01*
X89531878Y-73085995D01*
X89527757Y-73083000D01*
X88860000Y-73083000D01*
X88801809Y-73064093D01*
X88765845Y-73014593D01*
X88761000Y-72984000D01*
X88761000Y-72667320D01*
X89161000Y-72667320D01*
X89165122Y-72680005D01*
X89169243Y-72683000D01*
X89520320Y-72683000D01*
X89533005Y-72678878D01*
X89536000Y-72674757D01*
X89536000Y-72663234D01*
X89535052Y-72653612D01*
X89523397Y-72595017D01*
X89516078Y-72577349D01*
X89471659Y-72510870D01*
X89458130Y-72497341D01*
X89391651Y-72452922D01*
X89373983Y-72445603D01*
X89315388Y-72433948D01*
X89305766Y-72433000D01*
X89176680Y-72433000D01*
X89163995Y-72437122D01*
X89161000Y-72441243D01*
X89161000Y-72667320D01*
X88761000Y-72667320D01*
X88761000Y-72448680D01*
X88756878Y-72435995D01*
X88752757Y-72433000D01*
X88616234Y-72433000D01*
X88606612Y-72433948D01*
X88601824Y-72434900D01*
X88541063Y-72427708D01*
X88496133Y-72386175D01*
X88484196Y-72326166D01*
X88512506Y-72267798D01*
X88581319Y-72198985D01*
X88635836Y-72171208D01*
X88651323Y-72169989D01*
X88918977Y-72169989D01*
X88927606Y-72170366D01*
X88966318Y-72173753D01*
X88975816Y-72171208D01*
X89003860Y-72163693D01*
X89012295Y-72161823D01*
X89042028Y-72156581D01*
X89042030Y-72156580D01*
X89050556Y-72155077D01*
X89058055Y-72150747D01*
X89063540Y-72148751D01*
X89068827Y-72146285D01*
X89077195Y-72144043D01*
X89109022Y-72121757D01*
X89116306Y-72117116D01*
X89149966Y-72097683D01*
X89174941Y-72067919D01*
X89180775Y-72061551D01*
X89585561Y-71656766D01*
X91823000Y-71656766D01*
X91823948Y-71666388D01*
X91835603Y-71724983D01*
X91842922Y-71742651D01*
X91887341Y-71809130D01*
X91900870Y-71822659D01*
X91967349Y-71867078D01*
X91985017Y-71874397D01*
X92043612Y-71886052D01*
X92053234Y-71887000D01*
X92553320Y-71887000D01*
X92566005Y-71882878D01*
X92569000Y-71878757D01*
X92569000Y-71871320D01*
X93077000Y-71871320D01*
X93081122Y-71884005D01*
X93085243Y-71887000D01*
X93592766Y-71887000D01*
X93602388Y-71886052D01*
X93660983Y-71874397D01*
X93678651Y-71867078D01*
X93745130Y-71822659D01*
X93758659Y-71809130D01*
X93803078Y-71742651D01*
X93810397Y-71724983D01*
X93822052Y-71666388D01*
X93823000Y-71656766D01*
X93823000Y-70906680D01*
X93818878Y-70893995D01*
X93814757Y-70891000D01*
X93092680Y-70891000D01*
X93079995Y-70895122D01*
X93077000Y-70899243D01*
X93077000Y-71871320D01*
X92569000Y-71871320D01*
X92569000Y-70906680D01*
X92564878Y-70893995D01*
X92560757Y-70891000D01*
X91838680Y-70891000D01*
X91825995Y-70895122D01*
X91823000Y-70899243D01*
X91823000Y-71656766D01*
X89585561Y-71656766D01*
X89879069Y-71363258D01*
X89885424Y-71357435D01*
X89915194Y-71332455D01*
X89934636Y-71298781D01*
X89939261Y-71291522D01*
X89956587Y-71266778D01*
X89956587Y-71266777D01*
X89961554Y-71259684D01*
X89963795Y-71251322D01*
X89966258Y-71246040D01*
X89968257Y-71240546D01*
X89972588Y-71233045D01*
X89979337Y-71194771D01*
X89981206Y-71186344D01*
X89989022Y-71157173D01*
X89989022Y-71157170D01*
X89991263Y-71148807D01*
X89987877Y-71110103D01*
X89987500Y-71101475D01*
X89987500Y-70367320D01*
X91823000Y-70367320D01*
X91827122Y-70380005D01*
X91831243Y-70383000D01*
X92553320Y-70383000D01*
X92566005Y-70378878D01*
X92569000Y-70374757D01*
X92569000Y-70367320D01*
X93077000Y-70367320D01*
X93081122Y-70380005D01*
X93085243Y-70383000D01*
X93807320Y-70383000D01*
X93820005Y-70378878D01*
X93823000Y-70374757D01*
X93823000Y-69617234D01*
X93822052Y-69607612D01*
X93810397Y-69549017D01*
X93803078Y-69531349D01*
X93758659Y-69464870D01*
X93745130Y-69451341D01*
X93678651Y-69406922D01*
X93660983Y-69399603D01*
X93602388Y-69387948D01*
X93592766Y-69387000D01*
X93092680Y-69387000D01*
X93079995Y-69391122D01*
X93077000Y-69395243D01*
X93077000Y-70367320D01*
X92569000Y-70367320D01*
X92569000Y-69402680D01*
X92564878Y-69389995D01*
X92560757Y-69387000D01*
X92053234Y-69387000D01*
X92043612Y-69387948D01*
X91985017Y-69399603D01*
X91967349Y-69406922D01*
X91900870Y-69451341D01*
X91887341Y-69464870D01*
X91842922Y-69531349D01*
X91835603Y-69549017D01*
X91823948Y-69607612D01*
X91823000Y-69617234D01*
X91823000Y-70367320D01*
X89987500Y-70367320D01*
X89987500Y-69930522D01*
X89987877Y-69921893D01*
X89990508Y-69891822D01*
X89991263Y-69883193D01*
X89981205Y-69845657D01*
X89979337Y-69837231D01*
X89977716Y-69828038D01*
X89972588Y-69798955D01*
X89968255Y-69791450D01*
X89966262Y-69785973D01*
X89963795Y-69780682D01*
X89961553Y-69772316D01*
X89939264Y-69740484D01*
X89934628Y-69733206D01*
X89919524Y-69707044D01*
X89919523Y-69707042D01*
X89915194Y-69699545D01*
X89885429Y-69674569D01*
X89879062Y-69668735D01*
X89589275Y-69378949D01*
X89583439Y-69372581D01*
X89582156Y-69371052D01*
X89558455Y-69342806D01*
X89524792Y-69323371D01*
X89517511Y-69318732D01*
X89515056Y-69317013D01*
X89485684Y-69296446D01*
X89477316Y-69294204D01*
X89472029Y-69291738D01*
X89466544Y-69289742D01*
X89459045Y-69285412D01*
X89450519Y-69283909D01*
X89450517Y-69283908D01*
X89420784Y-69278666D01*
X89412349Y-69276796D01*
X89383174Y-69268978D01*
X89374807Y-69266736D01*
X89370595Y-69267105D01*
X89316567Y-69244170D01*
X89285055Y-69191724D01*
X89288672Y-69148177D01*
X89285495Y-69147545D01*
X89299052Y-69079388D01*
X89300000Y-69069766D01*
X89300000Y-68919680D01*
X89295878Y-68906995D01*
X89291757Y-68904000D01*
X87915680Y-68904000D01*
X87902995Y-68908122D01*
X87900000Y-68912243D01*
X87900000Y-69069766D01*
X87900948Y-69079388D01*
X87914505Y-69147545D01*
X87911931Y-69148057D01*
X87915592Y-69194618D01*
X87883619Y-69246785D01*
X87827090Y-69270195D01*
X87819329Y-69270500D01*
X87348638Y-69270500D01*
X87290447Y-69251593D01*
X87254483Y-69202093D01*
X87250500Y-69183047D01*
X87250500Y-69180252D01*
X87243995Y-69147545D01*
X87240770Y-69131334D01*
X87240769Y-69131332D01*
X87238867Y-69121769D01*
X87194552Y-69055448D01*
X87128231Y-69011133D01*
X87118668Y-69009231D01*
X87118666Y-69009230D01*
X87095995Y-69004721D01*
X87069748Y-68999500D01*
X86995193Y-68999500D01*
X86944138Y-68983354D01*
X86943596Y-68984365D01*
X86938336Y-68981545D01*
X86933453Y-68978113D01*
X86854470Y-68947318D01*
X86781048Y-68918692D01*
X86781047Y-68918692D01*
X86775487Y-68916524D01*
X86769572Y-68915745D01*
X86769571Y-68915745D01*
X86649387Y-68899923D01*
X86646174Y-68899500D01*
X84397000Y-68899500D01*
X84338809Y-68880593D01*
X84302845Y-68831093D01*
X84298000Y-68800500D01*
X84298000Y-68618291D01*
X91235000Y-68618291D01*
X91235289Y-68623625D01*
X91240640Y-68672880D01*
X91243489Y-68684859D01*
X91286596Y-68799850D01*
X91293299Y-68812093D01*
X91366437Y-68909682D01*
X91376318Y-68919563D01*
X91473907Y-68992701D01*
X91486150Y-68999404D01*
X91601141Y-69042511D01*
X91613120Y-69045360D01*
X91662375Y-69050711D01*
X91665661Y-69050889D01*
X91678005Y-69046878D01*
X91681000Y-69042757D01*
X91681000Y-69035320D01*
X92189000Y-69035320D01*
X92193122Y-69048005D01*
X92197243Y-69051000D01*
X92202291Y-69051000D01*
X92207625Y-69050711D01*
X92256880Y-69045360D01*
X92268859Y-69042511D01*
X92383850Y-68999404D01*
X92396093Y-68992701D01*
X92493682Y-68919563D01*
X92503563Y-68909682D01*
X92576701Y-68812093D01*
X92583404Y-68799850D01*
X92626511Y-68684859D01*
X92629360Y-68672880D01*
X92634711Y-68623625D01*
X92635000Y-68618291D01*
X92635000Y-68595680D01*
X92630878Y-68582995D01*
X92626757Y-68580000D01*
X92204680Y-68580000D01*
X92191995Y-68584122D01*
X92189000Y-68588243D01*
X92189000Y-69035320D01*
X91681000Y-69035320D01*
X91681000Y-68595680D01*
X91676878Y-68582995D01*
X91672757Y-68580000D01*
X91250680Y-68580000D01*
X91237995Y-68584122D01*
X91235000Y-68588243D01*
X91235000Y-68618291D01*
X84298000Y-68618291D01*
X84298000Y-68380320D01*
X87900000Y-68380320D01*
X87904122Y-68393005D01*
X87908243Y-68396000D01*
X88330320Y-68396000D01*
X88343005Y-68391878D01*
X88346000Y-68387757D01*
X88346000Y-68380320D01*
X88854000Y-68380320D01*
X88858122Y-68393005D01*
X88862243Y-68396000D01*
X89284320Y-68396000D01*
X89297005Y-68391878D01*
X89300000Y-68387757D01*
X89300000Y-68230234D01*
X89299052Y-68220612D01*
X89287397Y-68162017D01*
X89280078Y-68144349D01*
X89235659Y-68077870D01*
X89222130Y-68064341D01*
X89210125Y-68056320D01*
X91235000Y-68056320D01*
X91239122Y-68069005D01*
X91243243Y-68072000D01*
X91665320Y-68072000D01*
X91678005Y-68067878D01*
X91681000Y-68063757D01*
X91681000Y-68056320D01*
X92189000Y-68056320D01*
X92193122Y-68069005D01*
X92197243Y-68072000D01*
X92619320Y-68072000D01*
X92632005Y-68067878D01*
X92635000Y-68063757D01*
X92635000Y-68033709D01*
X92634711Y-68028375D01*
X92629360Y-67979120D01*
X92626511Y-67967141D01*
X92583404Y-67852150D01*
X92576701Y-67839907D01*
X92503563Y-67742318D01*
X92493682Y-67732437D01*
X92396093Y-67659299D01*
X92383850Y-67652596D01*
X92268859Y-67609489D01*
X92256880Y-67606640D01*
X92207625Y-67601289D01*
X92204339Y-67601111D01*
X92191995Y-67605122D01*
X92189000Y-67609243D01*
X92189000Y-68056320D01*
X91681000Y-68056320D01*
X91681000Y-67616680D01*
X91676878Y-67603995D01*
X91672757Y-67601000D01*
X91667709Y-67601000D01*
X91662375Y-67601289D01*
X91613120Y-67606640D01*
X91601141Y-67609489D01*
X91486150Y-67652596D01*
X91473907Y-67659299D01*
X91376318Y-67732437D01*
X91366437Y-67742318D01*
X91293299Y-67839907D01*
X91286596Y-67852150D01*
X91243489Y-67967141D01*
X91240640Y-67979120D01*
X91235289Y-68028375D01*
X91235000Y-68033709D01*
X91235000Y-68056320D01*
X89210125Y-68056320D01*
X89155651Y-68019922D01*
X89137983Y-68012603D01*
X89079388Y-68000948D01*
X89069766Y-68000000D01*
X88869680Y-68000000D01*
X88856995Y-68004122D01*
X88854000Y-68008243D01*
X88854000Y-68380320D01*
X88346000Y-68380320D01*
X88346000Y-68015680D01*
X88341878Y-68002995D01*
X88337757Y-68000000D01*
X88130234Y-68000000D01*
X88120612Y-68000948D01*
X88062017Y-68012603D01*
X88044349Y-68019922D01*
X87977870Y-68064341D01*
X87964341Y-68077870D01*
X87919922Y-68144349D01*
X87912603Y-68162017D01*
X87900948Y-68220612D01*
X87900000Y-68230234D01*
X87900000Y-68380320D01*
X84298000Y-68380320D01*
X84298000Y-67191629D01*
X84298994Y-67179000D01*
X84300000Y-67179000D01*
X84300000Y-66471876D01*
X84303941Y-66459748D01*
X85869500Y-66459748D01*
X85881133Y-66518231D01*
X85925448Y-66584552D01*
X85991769Y-66628867D01*
X86001332Y-66630769D01*
X86001334Y-66630770D01*
X86024005Y-66635279D01*
X86050252Y-66640500D01*
X87789748Y-66640500D01*
X87815995Y-66635279D01*
X87838666Y-66630770D01*
X87838668Y-66630769D01*
X87848231Y-66628867D01*
X87914552Y-66584552D01*
X87958867Y-66518231D01*
X87970500Y-66459748D01*
X87970500Y-65575262D01*
X88404520Y-65575262D01*
X88421759Y-65780553D01*
X88478544Y-65978586D01*
X88572712Y-66161818D01*
X88700677Y-66323270D01*
X88704357Y-66326402D01*
X88704359Y-66326404D01*
X88817017Y-66422283D01*
X88857564Y-66456791D01*
X88861787Y-66459151D01*
X88861791Y-66459154D01*
X88901342Y-66481258D01*
X89037398Y-66557297D01*
X89041996Y-66558791D01*
X89228724Y-66619463D01*
X89228726Y-66619464D01*
X89233329Y-66620959D01*
X89437894Y-66645351D01*
X89442716Y-66644980D01*
X89442719Y-66644980D01*
X89513259Y-66639552D01*
X89643300Y-66629546D01*
X89841725Y-66574145D01*
X89846038Y-66571966D01*
X89846044Y-66571964D01*
X90021289Y-66483441D01*
X90021291Y-66483440D01*
X90025610Y-66481258D01*
X90029427Y-66478276D01*
X90184135Y-66357406D01*
X90184139Y-66357402D01*
X90187951Y-66354424D01*
X90227918Y-66308122D01*
X90317157Y-66204736D01*
X90322564Y-66198472D01*
X90341231Y-66165613D01*
X90421934Y-66023550D01*
X90421935Y-66023547D01*
X90424323Y-66019344D01*
X90437882Y-65978586D01*
X90487824Y-65828454D01*
X90487824Y-65828452D01*
X90489351Y-65823863D01*
X90515171Y-65619474D01*
X90515583Y-65590000D01*
X90513667Y-65570454D01*
X90495952Y-65389780D01*
X90495951Y-65389776D01*
X90495480Y-65384970D01*
X90435935Y-65187749D01*
X90339218Y-65005849D01*
X90209011Y-64846200D01*
X90192790Y-64832781D01*
X90054002Y-64717965D01*
X90054000Y-64717964D01*
X90050275Y-64714882D01*
X89869055Y-64616897D01*
X89799764Y-64595448D01*
X89676875Y-64557407D01*
X89676871Y-64557406D01*
X89672254Y-64555977D01*
X89667446Y-64555472D01*
X89667443Y-64555471D01*
X89472185Y-64534949D01*
X89472183Y-64534949D01*
X89467369Y-64534443D01*
X89411800Y-64539500D01*
X89267022Y-64552675D01*
X89267017Y-64552676D01*
X89262203Y-64553114D01*
X89064572Y-64611280D01*
X89060288Y-64613519D01*
X89060287Y-64613520D01*
X89049428Y-64619197D01*
X88882002Y-64706726D01*
X88878231Y-64709758D01*
X88725220Y-64832781D01*
X88725217Y-64832783D01*
X88721447Y-64835815D01*
X88718333Y-64839526D01*
X88718332Y-64839527D01*
X88709585Y-64849952D01*
X88589024Y-64993630D01*
X88586689Y-64997878D01*
X88586688Y-64997879D01*
X88579955Y-65010126D01*
X88489776Y-65174162D01*
X88488313Y-65178775D01*
X88488311Y-65178779D01*
X88483997Y-65192380D01*
X88427484Y-65370532D01*
X88426944Y-65375344D01*
X88426944Y-65375345D01*
X88425865Y-65384970D01*
X88404520Y-65575262D01*
X87970500Y-65575262D01*
X87970500Y-64720252D01*
X87965279Y-64694005D01*
X87960770Y-64671334D01*
X87960769Y-64671332D01*
X87958867Y-64661769D01*
X87914552Y-64595448D01*
X87848231Y-64551133D01*
X87838668Y-64549231D01*
X87838666Y-64549230D01*
X87815995Y-64544721D01*
X87789748Y-64539500D01*
X86050252Y-64539500D01*
X86024005Y-64544721D01*
X86001334Y-64549230D01*
X86001332Y-64549231D01*
X85991769Y-64551133D01*
X85925448Y-64595448D01*
X85881133Y-64661769D01*
X85879231Y-64671332D01*
X85879230Y-64671334D01*
X85874721Y-64694005D01*
X85869500Y-64720252D01*
X85869500Y-66459748D01*
X84303941Y-66459748D01*
X84318907Y-66413685D01*
X84326832Y-66404106D01*
X84416967Y-66308122D01*
X84418863Y-66306103D01*
X84420525Y-66303882D01*
X84624881Y-66030714D01*
X84624887Y-66030705D01*
X84626541Y-66028494D01*
X84627937Y-66026114D01*
X84627942Y-66026107D01*
X84800581Y-65731849D01*
X84801980Y-65729465D01*
X84942994Y-65412744D01*
X84954858Y-65375345D01*
X85046991Y-65084905D01*
X85046992Y-65084899D01*
X85047824Y-65082278D01*
X85059363Y-65024000D01*
X85114628Y-64744895D01*
X85114629Y-64744888D01*
X85115164Y-64742186D01*
X85144174Y-64396707D01*
X85145385Y-64310000D01*
X85126032Y-63963846D01*
X85068214Y-63622007D01*
X85008675Y-63414368D01*
X84980925Y-63317591D01*
X85852958Y-63317591D01*
X85877536Y-63414368D01*
X85880551Y-63422880D01*
X85961386Y-63598225D01*
X85965917Y-63606072D01*
X86077348Y-63763744D01*
X86083222Y-63770622D01*
X86221532Y-63905357D01*
X86228555Y-63911044D01*
X86389099Y-64018317D01*
X86397054Y-64022635D01*
X86574446Y-64098849D01*
X86583057Y-64101647D01*
X86650706Y-64116954D01*
X86663603Y-64115769D01*
X86665444Y-64109074D01*
X87174000Y-64109074D01*
X87178122Y-64121759D01*
X87179293Y-64122610D01*
X87181800Y-64122824D01*
X87182189Y-64122731D01*
X87365026Y-64060666D01*
X87373288Y-64056988D01*
X87541755Y-63962641D01*
X87549209Y-63957518D01*
X87697650Y-63834061D01*
X87704061Y-63827650D01*
X87827518Y-63679209D01*
X87832641Y-63671755D01*
X87926988Y-63503288D01*
X87930666Y-63495026D01*
X87990896Y-63317591D01*
X88392958Y-63317591D01*
X88417536Y-63414368D01*
X88420551Y-63422880D01*
X88501386Y-63598225D01*
X88505917Y-63606072D01*
X88617348Y-63763744D01*
X88623222Y-63770622D01*
X88761532Y-63905357D01*
X88768555Y-63911044D01*
X88929099Y-64018317D01*
X88937054Y-64022635D01*
X89114446Y-64098849D01*
X89123057Y-64101647D01*
X89190706Y-64116954D01*
X89203603Y-64115769D01*
X89205444Y-64109074D01*
X89714000Y-64109074D01*
X89718122Y-64121759D01*
X89719293Y-64122610D01*
X89721800Y-64122824D01*
X89722189Y-64122731D01*
X89905026Y-64060666D01*
X89913288Y-64056988D01*
X90081755Y-63962641D01*
X90089209Y-63957518D01*
X90237650Y-63834061D01*
X90244061Y-63827650D01*
X90367518Y-63679209D01*
X90372641Y-63671755D01*
X90466988Y-63503288D01*
X90470666Y-63495026D01*
X90531744Y-63315094D01*
X90530246Y-63306372D01*
X90529209Y-63305363D01*
X90523365Y-63304000D01*
X89729680Y-63304000D01*
X89716995Y-63308122D01*
X89714000Y-63312243D01*
X89714000Y-64109074D01*
X89205444Y-64109074D01*
X89206000Y-64107051D01*
X89206000Y-63319680D01*
X89201878Y-63306995D01*
X89197757Y-63304000D01*
X88405186Y-63304000D01*
X88393276Y-63307870D01*
X88392958Y-63317591D01*
X87990896Y-63317591D01*
X87991744Y-63315094D01*
X87990246Y-63306372D01*
X87989209Y-63305363D01*
X87983365Y-63304000D01*
X87189680Y-63304000D01*
X87176995Y-63308122D01*
X87174000Y-63312243D01*
X87174000Y-64109074D01*
X86665444Y-64109074D01*
X86666000Y-64107051D01*
X86666000Y-63319680D01*
X86661878Y-63306995D01*
X86657757Y-63304000D01*
X85865186Y-63304000D01*
X85853276Y-63307870D01*
X85852958Y-63317591D01*
X84980925Y-63317591D01*
X84973415Y-63291402D01*
X84973414Y-63291398D01*
X84972652Y-63288742D01*
X84840537Y-62968207D01*
X84737632Y-62781024D01*
X85851629Y-62781024D01*
X85851781Y-62792650D01*
X85862327Y-62796000D01*
X86650320Y-62796000D01*
X86663005Y-62791878D01*
X86666000Y-62787757D01*
X86666000Y-62780320D01*
X87174000Y-62780320D01*
X87178122Y-62793005D01*
X87182243Y-62796000D01*
X87975676Y-62796000D01*
X87987166Y-62792267D01*
X87987370Y-62781866D01*
X87987133Y-62781024D01*
X88391629Y-62781024D01*
X88391781Y-62792650D01*
X88402327Y-62796000D01*
X89190320Y-62796000D01*
X89203005Y-62791878D01*
X89206000Y-62787757D01*
X89206000Y-62780320D01*
X89714000Y-62780320D01*
X89718122Y-62793005D01*
X89722243Y-62796000D01*
X90515676Y-62796000D01*
X90527166Y-62792267D01*
X90527370Y-62781866D01*
X90492571Y-62658478D01*
X90489330Y-62650035D01*
X90403928Y-62476855D01*
X90399209Y-62469154D01*
X90283678Y-62314440D01*
X90277629Y-62307722D01*
X90135837Y-62176650D01*
X90128670Y-62171151D01*
X89965369Y-62068117D01*
X89957315Y-62064013D01*
X89777969Y-61992460D01*
X89769306Y-61989894D01*
X89729379Y-61981952D01*
X89716133Y-61983520D01*
X89716099Y-61983551D01*
X89714000Y-61991597D01*
X89714000Y-62780320D01*
X89206000Y-62780320D01*
X89206000Y-61993124D01*
X89201878Y-61980439D01*
X89201274Y-61980000D01*
X89194127Y-61979484D01*
X89178555Y-61982160D01*
X89169819Y-61984501D01*
X88988668Y-62051331D01*
X88980506Y-62055224D01*
X88814562Y-62153950D01*
X88807260Y-62159255D01*
X88662081Y-62286575D01*
X88655858Y-62293133D01*
X88536322Y-62444763D01*
X88531397Y-62452346D01*
X88441490Y-62623231D01*
X88438032Y-62631579D01*
X88391629Y-62781024D01*
X87987133Y-62781024D01*
X87952571Y-62658478D01*
X87949330Y-62650035D01*
X87863928Y-62476855D01*
X87859209Y-62469154D01*
X87743678Y-62314440D01*
X87737629Y-62307722D01*
X87595837Y-62176650D01*
X87588670Y-62171151D01*
X87425369Y-62068117D01*
X87417315Y-62064013D01*
X87237969Y-61992460D01*
X87229306Y-61989894D01*
X87189379Y-61981952D01*
X87176133Y-61983520D01*
X87176099Y-61983551D01*
X87174000Y-61991597D01*
X87174000Y-62780320D01*
X86666000Y-62780320D01*
X86666000Y-61993124D01*
X86661878Y-61980439D01*
X86661274Y-61980000D01*
X86654127Y-61979484D01*
X86638555Y-61982160D01*
X86629819Y-61984501D01*
X86448668Y-62051331D01*
X86440506Y-62055224D01*
X86274562Y-62153950D01*
X86267260Y-62159255D01*
X86122081Y-62286575D01*
X86115858Y-62293133D01*
X85996322Y-62444763D01*
X85991397Y-62452346D01*
X85901490Y-62623231D01*
X85898032Y-62631579D01*
X85851629Y-62781024D01*
X84737632Y-62781024D01*
X84673516Y-62664397D01*
X84652188Y-62634162D01*
X84475259Y-62383349D01*
X84475255Y-62383345D01*
X84473670Y-62381097D01*
X84324968Y-62213610D01*
X84300472Y-62157542D01*
X84300000Y-62147881D01*
X84300000Y-61553000D01*
X84318907Y-61494809D01*
X84368407Y-61458845D01*
X84399000Y-61454000D01*
X89802599Y-61454000D01*
X89860790Y-61472907D01*
G37*
G04 #@! TD.AperFunction*
M02*
