G04 #@! TF.GenerationSoftware,KiCad,Pcbnew,(6.0.1)*
G04 #@! TF.CreationDate,2022-12-01T14:29:07+00:00*
G04 #@! TF.ProjectId,retropie-minicade-hat,72657472-6f70-4696-952d-6d696e696361,rev?*
G04 #@! TF.SameCoordinates,Original*
G04 #@! TF.FileFunction,Legend,Bot*
G04 #@! TF.FilePolarity,Positive*
%FSLAX46Y46*%
G04 Gerber Fmt 4.6, Leading zero omitted, Abs format (unit mm)*
G04 Created by KiCad (PCBNEW (6.0.1)) date 2022-12-01 14:29:07*
%MOMM*%
%LPD*%
G01*
G04 APERTURE LIST*
%ADD10C,0.120000*%
G04 #@! TA.AperFunction,Profile*
%ADD11C,0.100000*%
G04 #@! TD*
G04 #@! TA.AperFunction,Profile*
%ADD12C,0.150000*%
G04 #@! TD*
%ADD13C,0.150000*%
G04 APERTURE END LIST*
D10*
X134875562Y-55133142D02*
X134361276Y-55133142D01*
X134730919Y-56033142D02*
X134618419Y-55133142D01*
X134173776Y-56033142D02*
X134061276Y-55133142D01*
X133788062Y-56033142D02*
X133729133Y-55561714D01*
X133761276Y-55476000D01*
X133841633Y-55433142D01*
X133970205Y-55433142D01*
X134061276Y-55476000D01*
X134109491Y-55518857D01*
X133359491Y-56033142D02*
X133284491Y-55433142D01*
X133246991Y-55133142D02*
X133295205Y-55176000D01*
X133257705Y-55218857D01*
X133209491Y-55176000D01*
X133246991Y-55133142D01*
X133257705Y-55218857D01*
X132968419Y-55990285D02*
X132888062Y-56033142D01*
X132716633Y-56033142D01*
X132625562Y-55990285D01*
X132571991Y-55904571D01*
X132566633Y-55861714D01*
X132598776Y-55776000D01*
X132679133Y-55733142D01*
X132807705Y-55733142D01*
X132888062Y-55690285D01*
X132920205Y-55604571D01*
X132914848Y-55561714D01*
X132861276Y-55476000D01*
X132770205Y-55433142D01*
X132641633Y-55433142D01*
X132561276Y-55476000D01*
X131516633Y-56033142D02*
X131441633Y-55433142D01*
X131452348Y-55518857D02*
X131404133Y-55476000D01*
X131313062Y-55433142D01*
X131184491Y-55433142D01*
X131104133Y-55476000D01*
X131071991Y-55561714D01*
X131130919Y-56033142D01*
X131071991Y-55561714D02*
X131018419Y-55476000D01*
X130927348Y-55433142D01*
X130798776Y-55433142D01*
X130718419Y-55476000D01*
X130686276Y-55561714D01*
X130745205Y-56033142D01*
X129855919Y-55433142D02*
X129930919Y-56033142D01*
X130241633Y-55433142D02*
X130300562Y-55904571D01*
X130268419Y-55990285D01*
X130188062Y-56033142D01*
X130059491Y-56033142D01*
X129968419Y-55990285D01*
X129920205Y-55947428D01*
X129539848Y-55990285D02*
X129459491Y-56033142D01*
X129288062Y-56033142D01*
X129196991Y-55990285D01*
X129143419Y-55904571D01*
X129138062Y-55861714D01*
X129170205Y-55776000D01*
X129250562Y-55733142D01*
X129379133Y-55733142D01*
X129459491Y-55690285D01*
X129491633Y-55604571D01*
X129486276Y-55561714D01*
X129432705Y-55476000D01*
X129341633Y-55433142D01*
X129213062Y-55433142D01*
X129132705Y-55476000D01*
X128827348Y-55433142D02*
X128484491Y-55433142D01*
X128661276Y-55133142D02*
X128757705Y-55904571D01*
X128725562Y-55990285D01*
X128645205Y-56033142D01*
X128559491Y-56033142D01*
X127573776Y-56033142D02*
X127461276Y-55133142D01*
X127504133Y-55476000D02*
X127413062Y-55433142D01*
X127241633Y-55433142D01*
X127161276Y-55476000D01*
X127123776Y-55518857D01*
X127091633Y-55604571D01*
X127123776Y-55861714D01*
X127177348Y-55947428D01*
X127225562Y-55990285D01*
X127316633Y-56033142D01*
X127488062Y-56033142D01*
X127568419Y-55990285D01*
X126411276Y-55990285D02*
X126502348Y-56033142D01*
X126673776Y-56033142D01*
X126754133Y-55990285D01*
X126786276Y-55904571D01*
X126743419Y-55561714D01*
X126689848Y-55476000D01*
X126598776Y-55433142D01*
X126427348Y-55433142D01*
X126346991Y-55476000D01*
X126314848Y-55561714D01*
X126325562Y-55647428D01*
X126764848Y-55733142D01*
X124916633Y-56033142D02*
X124857705Y-55561714D01*
X124889848Y-55476000D01*
X124970205Y-55433142D01*
X125141633Y-55433142D01*
X125232705Y-55476000D01*
X124911276Y-55990285D02*
X125002348Y-56033142D01*
X125216633Y-56033142D01*
X125296991Y-55990285D01*
X125329133Y-55904571D01*
X125318419Y-55818857D01*
X125264848Y-55733142D01*
X125173776Y-55690285D01*
X124959491Y-55690285D01*
X124868419Y-55647428D01*
X123818419Y-55133142D02*
X123304133Y-55133142D01*
X123673776Y-56033142D02*
X123561276Y-55133142D01*
X123116633Y-56033142D02*
X123004133Y-55133142D01*
X122730919Y-56033142D02*
X122671991Y-55561714D01*
X122704133Y-55476000D01*
X122784491Y-55433142D01*
X122913062Y-55433142D01*
X123004133Y-55476000D01*
X123052348Y-55518857D01*
X121841633Y-55433142D02*
X121916633Y-56033142D01*
X122227348Y-55433142D02*
X122286276Y-55904571D01*
X122254133Y-55990285D01*
X122173776Y-56033142D01*
X122045205Y-56033142D01*
X121954133Y-55990285D01*
X121905919Y-55947428D01*
X121488062Y-56033142D02*
X121413062Y-55433142D01*
X121434491Y-55604571D02*
X121380919Y-55518857D01*
X121332705Y-55476000D01*
X121241633Y-55433142D01*
X121155919Y-55433142D01*
X120968419Y-55990285D02*
X120888062Y-56033142D01*
X120716633Y-56033142D01*
X120625562Y-55990285D01*
X120571991Y-55904571D01*
X120566633Y-55861714D01*
X120598776Y-55776000D01*
X120679133Y-55733142D01*
X120807705Y-55733142D01*
X120888062Y-55690285D01*
X120920205Y-55604571D01*
X120914848Y-55561714D01*
X120861276Y-55476000D01*
X120770205Y-55433142D01*
X120641633Y-55433142D01*
X120561276Y-55476000D01*
X119816633Y-56033142D02*
X119704133Y-55133142D01*
X119811276Y-55990285D02*
X119902348Y-56033142D01*
X120073776Y-56033142D01*
X120154133Y-55990285D01*
X120191633Y-55947428D01*
X120223776Y-55861714D01*
X120191633Y-55604571D01*
X120138062Y-55518857D01*
X120089848Y-55476000D01*
X119998776Y-55433142D01*
X119827348Y-55433142D01*
X119746991Y-55476000D01*
X119002348Y-56033142D02*
X118943419Y-55561714D01*
X118975562Y-55476000D01*
X119055919Y-55433142D01*
X119227348Y-55433142D01*
X119318419Y-55476000D01*
X118996991Y-55990285D02*
X119088062Y-56033142D01*
X119302348Y-56033142D01*
X119382705Y-55990285D01*
X119414848Y-55904571D01*
X119404133Y-55818857D01*
X119350562Y-55733142D01*
X119259491Y-55690285D01*
X119045205Y-55690285D01*
X118954133Y-55647428D01*
X118584491Y-55433142D02*
X118445205Y-56033142D01*
X118155919Y-55433142D02*
X118445205Y-56033142D01*
X118557705Y-56247428D01*
X118605919Y-56290285D01*
X118696991Y-56333142D01*
X117877348Y-55947428D02*
X117839848Y-55990285D01*
X117888062Y-56033142D01*
X117925562Y-55990285D01*
X117877348Y-55947428D01*
X117888062Y-56033142D01*
X116773776Y-56033142D02*
X116661276Y-55133142D01*
X115584491Y-55433142D02*
X115659491Y-56033142D01*
X115595205Y-55518857D02*
X115546991Y-55476000D01*
X115455919Y-55433142D01*
X115327348Y-55433142D01*
X115246991Y-55476000D01*
X115214848Y-55561714D01*
X115273776Y-56033142D01*
X114496991Y-55990285D02*
X114588062Y-56033142D01*
X114759491Y-56033142D01*
X114839848Y-55990285D01*
X114871991Y-55904571D01*
X114829133Y-55561714D01*
X114775562Y-55476000D01*
X114684491Y-55433142D01*
X114513062Y-55433142D01*
X114432705Y-55476000D01*
X114400562Y-55561714D01*
X114411276Y-55647428D01*
X114850562Y-55733142D01*
X114084491Y-55433142D02*
X113945205Y-56033142D01*
X113655919Y-55433142D01*
X113039848Y-55990285D02*
X113130919Y-56033142D01*
X113302348Y-56033142D01*
X113382705Y-55990285D01*
X113414848Y-55904571D01*
X113371991Y-55561714D01*
X113318419Y-55476000D01*
X113227348Y-55433142D01*
X113055919Y-55433142D01*
X112975562Y-55476000D01*
X112943419Y-55561714D01*
X112954133Y-55647428D01*
X113393419Y-55733142D01*
X112616633Y-56033142D02*
X112541633Y-55433142D01*
X112563062Y-55604571D02*
X112509491Y-55518857D01*
X112461276Y-55476000D01*
X112370205Y-55433142D01*
X112284491Y-55433142D01*
X110982705Y-55990285D02*
X111073776Y-56033142D01*
X111245205Y-56033142D01*
X111325562Y-55990285D01*
X111363062Y-55947428D01*
X111395205Y-55861714D01*
X111363062Y-55604571D01*
X111309491Y-55518857D01*
X111261276Y-55476000D01*
X111170205Y-55433142D01*
X110998776Y-55433142D01*
X110918419Y-55476000D01*
X110473776Y-56033142D02*
X110554133Y-55990285D01*
X110591633Y-55947428D01*
X110623776Y-55861714D01*
X110591633Y-55604571D01*
X110538062Y-55518857D01*
X110489848Y-55476000D01*
X110398776Y-55433142D01*
X110270205Y-55433142D01*
X110189848Y-55476000D01*
X110152348Y-55518857D01*
X110120205Y-55604571D01*
X110152348Y-55861714D01*
X110205919Y-55947428D01*
X110254133Y-55990285D01*
X110345205Y-56033142D01*
X110473776Y-56033142D01*
X109327348Y-55433142D02*
X109402348Y-56033142D01*
X109713062Y-55433142D02*
X109771991Y-55904571D01*
X109739848Y-55990285D01*
X109659491Y-56033142D01*
X109530919Y-56033142D01*
X109439848Y-55990285D01*
X109391633Y-55947428D01*
X108845205Y-56033142D02*
X108925562Y-55990285D01*
X108957705Y-55904571D01*
X108861276Y-55133142D01*
X108116633Y-56033142D02*
X108004133Y-55133142D01*
X108111276Y-55990285D02*
X108202348Y-56033142D01*
X108373776Y-56033142D01*
X108454133Y-55990285D01*
X108491633Y-55947428D01*
X108523776Y-55861714D01*
X108491633Y-55604571D01*
X108438062Y-55518857D01*
X108389848Y-55476000D01*
X108298776Y-55433142D01*
X108127348Y-55433142D01*
X108046991Y-55476000D01*
X106541633Y-55433142D02*
X106632705Y-56161714D01*
X106686276Y-56247428D01*
X106734491Y-56290285D01*
X106825562Y-56333142D01*
X106954133Y-56333142D01*
X107034491Y-56290285D01*
X106611276Y-55990285D02*
X106702348Y-56033142D01*
X106873776Y-56033142D01*
X106954133Y-55990285D01*
X106991633Y-55947428D01*
X107023776Y-55861714D01*
X106991633Y-55604571D01*
X106938062Y-55518857D01*
X106889848Y-55476000D01*
X106798776Y-55433142D01*
X106627348Y-55433142D01*
X106546991Y-55476000D01*
X105839848Y-55990285D02*
X105930919Y-56033142D01*
X106102348Y-56033142D01*
X106182705Y-55990285D01*
X106214848Y-55904571D01*
X106171991Y-55561714D01*
X106118419Y-55476000D01*
X106027348Y-55433142D01*
X105855919Y-55433142D01*
X105775562Y-55476000D01*
X105743419Y-55561714D01*
X105754133Y-55647428D01*
X106193419Y-55733142D01*
X105470205Y-55433142D02*
X105127348Y-55433142D01*
X105304133Y-55133142D02*
X105400562Y-55904571D01*
X105368419Y-55990285D01*
X105288062Y-56033142D01*
X105202348Y-56033142D01*
X104270205Y-55433142D02*
X103927348Y-55433142D01*
X104104133Y-55133142D02*
X104200562Y-55904571D01*
X104168419Y-55990285D01*
X104088062Y-56033142D01*
X104002348Y-56033142D01*
X103702348Y-56033142D02*
X103589848Y-55133142D01*
X103316633Y-56033142D02*
X103257705Y-55561714D01*
X103289848Y-55476000D01*
X103370205Y-55433142D01*
X103498776Y-55433142D01*
X103589848Y-55476000D01*
X103638062Y-55518857D01*
X102539848Y-55990285D02*
X102630919Y-56033142D01*
X102802348Y-56033142D01*
X102882705Y-55990285D01*
X102914848Y-55904571D01*
X102871991Y-55561714D01*
X102818419Y-55476000D01*
X102727348Y-55433142D01*
X102555919Y-55433142D01*
X102475562Y-55476000D01*
X102443419Y-55561714D01*
X102454133Y-55647428D01*
X102893419Y-55733142D01*
X101430919Y-56033142D02*
X101318419Y-55133142D01*
X101045205Y-56033142D02*
X100986276Y-55561714D01*
X101018419Y-55476000D01*
X101098776Y-55433142D01*
X101227348Y-55433142D01*
X101318419Y-55476000D01*
X101366633Y-55518857D01*
X100230919Y-56033142D02*
X100171991Y-55561714D01*
X100204133Y-55476000D01*
X100284491Y-55433142D01*
X100455919Y-55433142D01*
X100546991Y-55476000D01*
X100225562Y-55990285D02*
X100316633Y-56033142D01*
X100530919Y-56033142D01*
X100611276Y-55990285D01*
X100643419Y-55904571D01*
X100632705Y-55818857D01*
X100579133Y-55733142D01*
X100488062Y-55690285D01*
X100273776Y-55690285D01*
X100182705Y-55647428D01*
X99727348Y-55433142D02*
X99802348Y-56033142D01*
X99738062Y-55518857D02*
X99689848Y-55476000D01*
X99598776Y-55433142D01*
X99470205Y-55433142D01*
X99389848Y-55476000D01*
X99357705Y-55561714D01*
X99416633Y-56033142D01*
X98527348Y-55433142D02*
X98618419Y-56161714D01*
X98671991Y-56247428D01*
X98720205Y-56290285D01*
X98811276Y-56333142D01*
X98939848Y-56333142D01*
X99020205Y-56290285D01*
X98596991Y-55990285D02*
X98688062Y-56033142D01*
X98859491Y-56033142D01*
X98939848Y-55990285D01*
X98977348Y-55947428D01*
X99009491Y-55861714D01*
X98977348Y-55604571D01*
X98923776Y-55518857D01*
X98875562Y-55476000D01*
X98784491Y-55433142D01*
X98613062Y-55433142D01*
X98532705Y-55476000D01*
X97359491Y-56033142D02*
X97439848Y-55990285D01*
X97477348Y-55947428D01*
X97509491Y-55861714D01*
X97477348Y-55604571D01*
X97423776Y-55518857D01*
X97375562Y-55476000D01*
X97284491Y-55433142D01*
X97155919Y-55433142D01*
X97075562Y-55476000D01*
X97038062Y-55518857D01*
X97005919Y-55604571D01*
X97038062Y-55861714D01*
X97091633Y-55947428D01*
X97139848Y-55990285D01*
X97230919Y-56033142D01*
X97359491Y-56033142D01*
X96727348Y-55433142D02*
X96384491Y-55433142D01*
X96673776Y-56033142D02*
X96577348Y-55261714D01*
X96523776Y-55176000D01*
X96432705Y-55133142D01*
X96346991Y-55133142D01*
X95489848Y-55133142D02*
X94975562Y-55133142D01*
X95345205Y-56033142D02*
X95232705Y-55133142D01*
X94788062Y-56033142D02*
X94675562Y-55133142D01*
X94402348Y-56033142D02*
X94343419Y-55561714D01*
X94375562Y-55476000D01*
X94455919Y-55433142D01*
X94584491Y-55433142D01*
X94675562Y-55476000D01*
X94723776Y-55518857D01*
X93513062Y-55433142D02*
X93588062Y-56033142D01*
X93898776Y-55433142D02*
X93957705Y-55904571D01*
X93925562Y-55990285D01*
X93845205Y-56033142D01*
X93716633Y-56033142D01*
X93625562Y-55990285D01*
X93577348Y-55947428D01*
X93159491Y-56033142D02*
X93084491Y-55433142D01*
X93105919Y-55604571D02*
X93052348Y-55518857D01*
X93004133Y-55476000D01*
X92913062Y-55433142D01*
X92827348Y-55433142D01*
X92639848Y-55990285D02*
X92559491Y-56033142D01*
X92388062Y-56033142D01*
X92296991Y-55990285D01*
X92243419Y-55904571D01*
X92238062Y-55861714D01*
X92270205Y-55776000D01*
X92350562Y-55733142D01*
X92479133Y-55733142D01*
X92559491Y-55690285D01*
X92591633Y-55604571D01*
X92586276Y-55561714D01*
X92532705Y-55476000D01*
X92441633Y-55433142D01*
X92313062Y-55433142D01*
X92232705Y-55476000D01*
X91488062Y-56033142D02*
X91375562Y-55133142D01*
X91482705Y-55990285D02*
X91573776Y-56033142D01*
X91745205Y-56033142D01*
X91825562Y-55990285D01*
X91863062Y-55947428D01*
X91895205Y-55861714D01*
X91863062Y-55604571D01*
X91809491Y-55518857D01*
X91761276Y-55476000D01*
X91670205Y-55433142D01*
X91498776Y-55433142D01*
X91418419Y-55476000D01*
X90673776Y-56033142D02*
X90614848Y-55561714D01*
X90646991Y-55476000D01*
X90727348Y-55433142D01*
X90898776Y-55433142D01*
X90989848Y-55476000D01*
X90668419Y-55990285D02*
X90759491Y-56033142D01*
X90973776Y-56033142D01*
X91054133Y-55990285D01*
X91086276Y-55904571D01*
X91075562Y-55818857D01*
X91021991Y-55733142D01*
X90930919Y-55690285D01*
X90716633Y-55690285D01*
X90625562Y-55647428D01*
X90255919Y-55433142D02*
X90116633Y-56033142D01*
X89827348Y-55433142D02*
X90116633Y-56033142D01*
X90229133Y-56247428D01*
X90277348Y-56290285D01*
X90368419Y-56333142D01*
X89596991Y-55990285D02*
X89516633Y-56033142D01*
X89345205Y-56033142D01*
X89254133Y-55990285D01*
X89200562Y-55904571D01*
X89195205Y-55861714D01*
X89227348Y-55776000D01*
X89307705Y-55733142D01*
X89436276Y-55733142D01*
X89516633Y-55690285D01*
X89548776Y-55604571D01*
X89543419Y-55561714D01*
X89489848Y-55476000D01*
X89398776Y-55433142D01*
X89270205Y-55433142D01*
X89189848Y-55476000D01*
X88820205Y-55947428D02*
X88782705Y-55990285D01*
X88830919Y-56033142D01*
X88868419Y-55990285D01*
X88820205Y-55947428D01*
X88830919Y-56033142D01*
X88788062Y-55690285D02*
X88766633Y-55176000D01*
X88718419Y-55133142D01*
X88680919Y-55176000D01*
X88788062Y-55690285D01*
X88718419Y-55133142D01*
D11*
X143510000Y-65024000D02*
X143499680Y-50291999D01*
X78499680Y-50291999D02*
X78499680Y-77013320D01*
D12*
X99314000Y-77018556D02*
X99314000Y-71013528D01*
D11*
X96314005Y-80013321D02*
G75*
G03*
X99314000Y-77018556I-2J3000002D01*
G01*
X140499680Y-47291999D02*
X81499680Y-47291999D01*
X81499680Y-80013320D02*
X96314005Y-80013320D01*
X102313995Y-68018763D02*
G75*
G03*
X99314000Y-71013528I2J-3000002D01*
G01*
D12*
X140510005Y-68018764D02*
X102313995Y-68018764D01*
D11*
X143499680Y-50291999D02*
G75*
G03*
X140499680Y-47291999I-3000001J-1D01*
G01*
X81499680Y-47291999D02*
G75*
G03*
X78499680Y-50291999I1J-3000001D01*
G01*
X140510005Y-68018765D02*
G75*
G03*
X143510000Y-65024000I-2J3000002D01*
G01*
X78499680Y-77013320D02*
G75*
G03*
X81499680Y-80013320I3000001J1D01*
G01*
D13*
X83602380Y-63986666D02*
X84316666Y-63986666D01*
X84459523Y-63939047D01*
X84554761Y-63843809D01*
X84602380Y-63700952D01*
X84602380Y-63605714D01*
X84602380Y-64986666D02*
X84602380Y-64415238D01*
X84602380Y-64700952D02*
X83602380Y-64700952D01*
X83745238Y-64605714D01*
X83840476Y-64510476D01*
X83888095Y-64415238D01*
D10*
X85590000Y-65590000D02*
X85590000Y-66920000D01*
X85590000Y-64320000D02*
X88190000Y-64320000D01*
X88190000Y-66920000D02*
X136510000Y-66920000D01*
X85590000Y-61720000D02*
X85590000Y-64320000D01*
X85590000Y-61720000D02*
X136510000Y-61720000D01*
X136510000Y-61720000D02*
X136510000Y-66920000D01*
X88190000Y-64320000D02*
X88190000Y-66920000D01*
X85590000Y-66920000D02*
X86920000Y-66920000D01*
M02*
