G04 #@! TF.GenerationSoftware,KiCad,Pcbnew,(6.0.1)*
G04 #@! TF.CreationDate,2022-12-09T13:40:03+00:00*
G04 #@! TF.ProjectId,retropie-minicade-hat,72657472-6f70-4696-952d-6d696e696361,rev?*
G04 #@! TF.SameCoordinates,Original*
G04 #@! TF.FileFunction,Paste,Top*
G04 #@! TF.FilePolarity,Positive*
%FSLAX46Y46*%
G04 Gerber Fmt 4.6, Leading zero omitted, Abs format (unit mm)*
G04 Created by KiCad (PCBNEW (6.0.1)) date 2022-12-09 13:40:03*
%MOMM*%
%LPD*%
G01*
G04 APERTURE LIST*
G04 Aperture macros list*
%AMRoundRect*
0 Rectangle with rounded corners*
0 $1 Rounding radius*
0 $2 $3 $4 $5 $6 $7 $8 $9 X,Y pos of 4 corners*
0 Add a 4 corners polygon primitive as box body*
4,1,4,$2,$3,$4,$5,$6,$7,$8,$9,$2,$3,0*
0 Add four circle primitives for the rounded corners*
1,1,$1+$1,$2,$3*
1,1,$1+$1,$4,$5*
1,1,$1+$1,$6,$7*
1,1,$1+$1,$8,$9*
0 Add four rect primitives between the rounded corners*
20,1,$1+$1,$2,$3,$4,$5,0*
20,1,$1+$1,$4,$5,$6,$7,0*
20,1,$1+$1,$6,$7,$8,$9,0*
20,1,$1+$1,$8,$9,$2,$3,0*%
G04 Aperture macros list end*
G04 #@! TA.AperFunction,Profile*
%ADD10C,0.100000*%
G04 #@! TD*
G04 #@! TA.AperFunction,Profile*
%ADD11C,0.150000*%
G04 #@! TD*
%ADD12RoundRect,0.200000X-0.275000X0.200000X-0.275000X-0.200000X0.275000X-0.200000X0.275000X0.200000X0*%
%ADD13R,0.900000X0.800000*%
%ADD14RoundRect,0.225000X-0.225000X-0.250000X0.225000X-0.250000X0.225000X0.250000X-0.225000X0.250000X0*%
%ADD15R,0.650000X0.400000*%
%ADD16R,1.500000X2.000000*%
%ADD17R,3.800000X2.000000*%
G04 APERTURE END LIST*
D10*
X143510000Y-65024000D02*
X143499680Y-50291999D01*
X78499680Y-50291999D02*
X78499680Y-77013320D01*
D11*
X99314000Y-77018556D02*
X99314000Y-71013528D01*
D10*
X96314005Y-80013321D02*
G75*
G03*
X99314000Y-77018556I-2J3000002D01*
G01*
X140499680Y-47291999D02*
X81499680Y-47291999D01*
X81499680Y-80013320D02*
X96314005Y-80013320D01*
X102313995Y-68018763D02*
G75*
G03*
X99314000Y-71013528I2J-3000002D01*
G01*
D11*
X140510005Y-68018764D02*
X102313995Y-68018764D01*
D10*
X143499680Y-50291999D02*
G75*
G03*
X140499680Y-47291999I-3000001J-1D01*
G01*
X81499680Y-47291999D02*
G75*
G03*
X78499680Y-50291999I1J-3000001D01*
G01*
X140510005Y-68018765D02*
G75*
G03*
X143510000Y-65024000I-2J3000002D01*
G01*
X78499680Y-77013320D02*
G75*
G03*
X81499680Y-80013320I3000001J1D01*
G01*
D12*
X89154000Y-75472500D03*
X89154000Y-77122500D03*
X86868000Y-75472500D03*
X86868000Y-77122500D03*
D13*
X88600000Y-70550000D03*
X88600000Y-68650000D03*
X86600000Y-69600000D03*
D14*
X91935000Y-68326000D03*
X93485000Y-68326000D03*
D15*
X88961000Y-74183000D03*
X88961000Y-73533000D03*
X88961000Y-72883000D03*
X87061000Y-72883000D03*
X87061000Y-73533000D03*
X87061000Y-74183000D03*
D16*
X97423000Y-70637000D03*
D17*
X95123000Y-76937000D03*
D16*
X95123000Y-70637000D03*
X92823000Y-70637000D03*
D14*
X96126000Y-68326000D03*
X97676000Y-68326000D03*
M02*
