G04 #@! TF.GenerationSoftware,KiCad,Pcbnew,(6.0.1)*
G04 #@! TF.CreationDate,2022-12-05T14:44:52+00:00*
G04 #@! TF.ProjectId,retropie-minicade-hat,72657472-6f70-4696-952d-6d696e696361,rev?*
G04 #@! TF.SameCoordinates,Original*
G04 #@! TF.FileFunction,Copper,L3,Inr*
G04 #@! TF.FilePolarity,Positive*
%FSLAX46Y46*%
G04 Gerber Fmt 4.6, Leading zero omitted, Abs format (unit mm)*
G04 Created by KiCad (PCBNEW (6.0.1)) date 2022-12-05 14:44:52*
%MOMM*%
%LPD*%
G01*
G04 APERTURE LIST*
G04 #@! TA.AperFunction,Profile*
%ADD10C,0.100000*%
G04 #@! TD*
G04 #@! TA.AperFunction,Profile*
%ADD11C,0.150000*%
G04 #@! TD*
G04 #@! TA.AperFunction,WasherPad*
%ADD12C,3.000000*%
G04 #@! TD*
G04 #@! TA.AperFunction,ComponentPad*
%ADD13R,1.700000X1.700000*%
G04 #@! TD*
G04 #@! TA.AperFunction,ComponentPad*
%ADD14O,1.700000X1.700000*%
G04 #@! TD*
G04 #@! TA.AperFunction,ComponentPad*
%ADD15R,3.000000X3.000000*%
G04 #@! TD*
G04 #@! TA.AperFunction,ComponentPad*
%ADD16C,3.000000*%
G04 #@! TD*
G04 #@! TA.AperFunction,ViaPad*
%ADD17C,0.600000*%
G04 #@! TD*
G04 #@! TA.AperFunction,ViaPad*
%ADD18C,0.400000*%
G04 #@! TD*
G04 APERTURE END LIST*
D10*
X143510000Y-65024000D02*
X143499680Y-50291999D01*
X78499680Y-50291999D02*
X78499680Y-77013320D01*
D11*
X99314000Y-77018556D02*
X99314000Y-71013528D01*
D10*
X96314005Y-80013321D02*
G75*
G03*
X99314000Y-77018556I-2J3000002D01*
G01*
X140499680Y-47291999D02*
X81499680Y-47291999D01*
X81499680Y-80013320D02*
X96314005Y-80013320D01*
X102313995Y-68018763D02*
G75*
G03*
X99314000Y-71013528I2J-3000002D01*
G01*
D11*
X140510005Y-68018764D02*
X102313995Y-68018764D01*
D10*
X143499680Y-50291999D02*
G75*
G03*
X140499680Y-47291999I-3000001J-1D01*
G01*
X81499680Y-47291999D02*
G75*
G03*
X78499680Y-50291999I1J-3000001D01*
G01*
X140510005Y-68018765D02*
G75*
G03*
X143510000Y-65024000I-2J3000002D01*
G01*
X78499680Y-77013320D02*
G75*
G03*
X81499680Y-80013320I3000001J1D01*
G01*
D12*
X82040000Y-64310000D03*
X140040000Y-64330000D03*
D13*
X109220000Y-53086000D03*
D14*
X109220000Y-50546000D03*
X111760000Y-53086000D03*
X111760000Y-50546000D03*
D13*
X139065000Y-52720000D03*
D14*
X139065000Y-55260000D03*
X139065000Y-57800000D03*
D13*
X80010000Y-54737000D03*
D14*
X82550000Y-54737000D03*
X80010000Y-57277000D03*
X82550000Y-57277000D03*
X80010000Y-59817000D03*
X82550000Y-59817000D03*
D13*
X115077000Y-58166000D03*
D14*
X117617000Y-58166000D03*
X120157000Y-58166000D03*
X122697000Y-58166000D03*
X125237000Y-58166000D03*
X127777000Y-58166000D03*
X130317000Y-58166000D03*
X132857000Y-58166000D03*
D15*
X81661000Y-75311000D03*
D16*
X81661000Y-70231000D03*
D13*
X116845000Y-53091000D03*
D14*
X114305000Y-53091000D03*
X116845000Y-50551000D03*
X114305000Y-50551000D03*
D13*
X92217000Y-58039000D03*
D14*
X94757000Y-58039000D03*
X97297000Y-58039000D03*
X99837000Y-58039000D03*
X102377000Y-58039000D03*
X104917000Y-58039000D03*
X107457000Y-58039000D03*
X109997000Y-58039000D03*
D13*
X86920000Y-65590000D03*
D14*
X86920000Y-63050000D03*
X89460000Y-65590000D03*
X89460000Y-63050000D03*
X92000000Y-65590000D03*
X92000000Y-63050000D03*
X94540000Y-65590000D03*
X94540000Y-63050000D03*
X97080000Y-65590000D03*
X97080000Y-63050000D03*
X99620000Y-65590000D03*
X99620000Y-63050000D03*
X102160000Y-65590000D03*
X102160000Y-63050000D03*
X104700000Y-65590000D03*
X104700000Y-63050000D03*
X107240000Y-65590000D03*
X107240000Y-63050000D03*
X109780000Y-65590000D03*
X109780000Y-63050000D03*
X112320000Y-65590000D03*
X112320000Y-63050000D03*
X114860000Y-65590000D03*
X114860000Y-63050000D03*
X117400000Y-65590000D03*
X117400000Y-63050000D03*
X119940000Y-65590000D03*
X119940000Y-63050000D03*
X122480000Y-65590000D03*
X122480000Y-63050000D03*
X125020000Y-65590000D03*
X125020000Y-63050000D03*
X127560000Y-65590000D03*
X127560000Y-63050000D03*
X130100000Y-65590000D03*
X130100000Y-63050000D03*
X132640000Y-65590000D03*
X132640000Y-63050000D03*
X135180000Y-65590000D03*
X135180000Y-63050000D03*
D17*
X95504000Y-60137500D03*
X98425000Y-66929000D03*
X117094000Y-60071000D03*
X88011000Y-77123500D03*
D18*
X94107000Y-68326000D03*
D17*
X126746000Y-60198000D03*
X114427000Y-60452000D03*
X106045000Y-60579000D03*
X91122000Y-70676000D03*
X91122000Y-69786000D03*
G04 #@! TA.AperFunction,Conductor*
G36*
X140475895Y-47693218D02*
G01*
X140499680Y-47696985D01*
X140507376Y-47695766D01*
X140512459Y-47694961D01*
X140533497Y-47693898D01*
X140566761Y-47695766D01*
X140785241Y-47708036D01*
X140796261Y-47709277D01*
X141072749Y-47756255D01*
X141083572Y-47758725D01*
X141094381Y-47761839D01*
X141353069Y-47836366D01*
X141363542Y-47840031D01*
X141622642Y-47947353D01*
X141632639Y-47952167D01*
X141878102Y-48087830D01*
X141887487Y-48093726D01*
X142116230Y-48256028D01*
X142124898Y-48262941D01*
X142334019Y-48449824D01*
X142341855Y-48457660D01*
X142528738Y-48666781D01*
X142535651Y-48675449D01*
X142697953Y-48904192D01*
X142703849Y-48913577D01*
X142839509Y-49159034D01*
X142844326Y-49169037D01*
X142951648Y-49428137D01*
X142955313Y-49438610D01*
X142971307Y-49494124D01*
X143032954Y-49708107D01*
X143035424Y-49718929D01*
X143078110Y-49970154D01*
X143082401Y-49995410D01*
X143083644Y-50006443D01*
X143097781Y-50258182D01*
X143096718Y-50279220D01*
X143094694Y-50291999D01*
X143095913Y-50299695D01*
X143098489Y-50315959D01*
X143099707Y-50331375D01*
X143104298Y-56885478D01*
X143108664Y-63116914D01*
X143108679Y-63138712D01*
X143089812Y-63196916D01*
X143040338Y-63232914D01*
X142979152Y-63232957D01*
X142929627Y-63197028D01*
X142918149Y-63176507D01*
X142841590Y-62990762D01*
X142840537Y-62988207D01*
X142821875Y-62954260D01*
X142674848Y-62686820D01*
X142673516Y-62684397D01*
X142658304Y-62662832D01*
X142475259Y-62403349D01*
X142475255Y-62403345D01*
X142473670Y-62401097D01*
X142243490Y-62141839D01*
X142241441Y-62139994D01*
X142241437Y-62139990D01*
X142065917Y-61981952D01*
X141985846Y-61909856D01*
X141851140Y-61813416D01*
X141706203Y-61709651D01*
X141706198Y-61709648D01*
X141703948Y-61708037D01*
X141624699Y-61663746D01*
X141403733Y-61540251D01*
X141403724Y-61540247D01*
X141401311Y-61538898D01*
X141081706Y-61404549D01*
X140749117Y-61306663D01*
X140497580Y-61262310D01*
X140410408Y-61246939D01*
X140410403Y-61246938D01*
X140407690Y-61246460D01*
X140061680Y-61224691D01*
X140058919Y-61224826D01*
X140058915Y-61224826D01*
X139763713Y-61239264D01*
X139715399Y-61241627D01*
X139373164Y-61297057D01*
X139039241Y-61390290D01*
X139003949Y-61404549D01*
X138720352Y-61519129D01*
X138720348Y-61519131D01*
X138717791Y-61520164D01*
X138715367Y-61521475D01*
X138715362Y-61521477D01*
X138415251Y-61683746D01*
X138415242Y-61683751D01*
X138412822Y-61685060D01*
X138410560Y-61686632D01*
X138410557Y-61686634D01*
X138379762Y-61708037D01*
X138128134Y-61882923D01*
X137867276Y-62111287D01*
X137865415Y-62113325D01*
X137865414Y-62113326D01*
X137828319Y-62153950D01*
X137633499Y-62367306D01*
X137429717Y-62647787D01*
X137428350Y-62650194D01*
X137428349Y-62650195D01*
X137423478Y-62658770D01*
X137258470Y-62949237D01*
X137257381Y-62951779D01*
X137257377Y-62951786D01*
X137186604Y-63116914D01*
X137121893Y-63267896D01*
X137121097Y-63270531D01*
X137121096Y-63270535D01*
X137084324Y-63392329D01*
X137021687Y-63599793D01*
X137021190Y-63602501D01*
X137021189Y-63602505D01*
X136962773Y-63920792D01*
X136959102Y-63940792D01*
X136957680Y-63961127D01*
X136935402Y-64279726D01*
X136934918Y-64286642D01*
X136949436Y-64633032D01*
X136960521Y-64704635D01*
X137001406Y-64968739D01*
X137002475Y-64975646D01*
X137015805Y-65024707D01*
X137068783Y-65219697D01*
X137093375Y-65310212D01*
X137094393Y-65312784D01*
X137094395Y-65312789D01*
X137219985Y-65629994D01*
X137221001Y-65632560D01*
X137222290Y-65634985D01*
X137222295Y-65634995D01*
X137382469Y-65936236D01*
X137383765Y-65938673D01*
X137398575Y-65960303D01*
X137578075Y-66222457D01*
X137578080Y-66222463D01*
X137579636Y-66224736D01*
X137581433Y-66226818D01*
X137581437Y-66226823D01*
X137668876Y-66328122D01*
X137806173Y-66487182D01*
X138060553Y-66722740D01*
X138339605Y-66928475D01*
X138639852Y-67101823D01*
X138770788Y-67159027D01*
X138911772Y-67220621D01*
X138957550Y-67240621D01*
X138960191Y-67241439D01*
X138960195Y-67241440D01*
X139286086Y-67342321D01*
X139286090Y-67342322D01*
X139288739Y-67343142D01*
X139291465Y-67343662D01*
X139600954Y-67402700D01*
X139629293Y-67408106D01*
X139797594Y-67421056D01*
X139854163Y-67444372D01*
X139886223Y-67496485D01*
X139881529Y-67557490D01*
X139841874Y-67604085D01*
X139789999Y-67618764D01*
X102353266Y-67618764D01*
X102337779Y-67617545D01*
X102313995Y-67613778D01*
X102310977Y-67614256D01*
X101958504Y-67632708D01*
X101606900Y-67688334D01*
X101604396Y-67689004D01*
X101604392Y-67689005D01*
X101363537Y-67753467D01*
X101263026Y-67780368D01*
X101260621Y-67781290D01*
X101260612Y-67781293D01*
X100933061Y-67906875D01*
X100930641Y-67907803D01*
X100928337Y-67908976D01*
X100928329Y-67908979D01*
X100811795Y-67968280D01*
X100613378Y-68069248D01*
X100314707Y-68262936D01*
X100312695Y-68264562D01*
X100312696Y-68264562D01*
X100039894Y-68485130D01*
X100039888Y-68485135D01*
X100037891Y-68486750D01*
X99785958Y-68738244D01*
X99784334Y-68740246D01*
X99784329Y-68740251D01*
X99734410Y-68801772D01*
X99561661Y-69014669D01*
X99367452Y-69313002D01*
X99366282Y-69315292D01*
X99366277Y-69315300D01*
X99299011Y-69446919D01*
X99205454Y-69629982D01*
X99077439Y-69962144D01*
X99076763Y-69964651D01*
X99076763Y-69964652D01*
X98989779Y-70287404D01*
X98984805Y-70305858D01*
X98928565Y-70657364D01*
X98928426Y-70659938D01*
X98928425Y-70659945D01*
X98912184Y-70960148D01*
X98909498Y-71009804D01*
X98909015Y-71012821D01*
X98910220Y-71020516D01*
X98910220Y-71020518D01*
X98912808Y-71037045D01*
X98914000Y-71052360D01*
X98914000Y-76978847D01*
X98912754Y-76994504D01*
X98909015Y-77017849D01*
X98910221Y-77025550D01*
X98910221Y-77025552D01*
X98911017Y-77030638D01*
X98912044Y-77051671D01*
X98897500Y-77303075D01*
X98896240Y-77314092D01*
X98848885Y-77590203D01*
X98846405Y-77600993D01*
X98810132Y-77726226D01*
X98768466Y-77870077D01*
X98764793Y-77880528D01*
X98658464Y-78136282D01*
X98657248Y-78139207D01*
X98652424Y-78149192D01*
X98518000Y-78391735D01*
X98516627Y-78394212D01*
X98510717Y-78403595D01*
X98348365Y-78631895D01*
X98341442Y-78640558D01*
X98154580Y-78849265D01*
X98146731Y-78857100D01*
X97937704Y-79043593D01*
X97929029Y-79050501D01*
X97700447Y-79212453D01*
X97691054Y-79218347D01*
X97445798Y-79353716D01*
X97435804Y-79358523D01*
X97288715Y-79419374D01*
X97176934Y-79465618D01*
X97166472Y-79469274D01*
X97036029Y-79506810D01*
X96897264Y-79546740D01*
X96886452Y-79549205D01*
X96792516Y-79565148D01*
X96610265Y-79596079D01*
X96599258Y-79597318D01*
X96402889Y-79608334D01*
X96347822Y-79611423D01*
X96326790Y-79610359D01*
X96321701Y-79609553D01*
X96314005Y-79608334D01*
X96290221Y-79612101D01*
X96274734Y-79613320D01*
X81538951Y-79613320D01*
X81523464Y-79612101D01*
X81499680Y-79608334D01*
X81491984Y-79609553D01*
X81486901Y-79610358D01*
X81465863Y-79611421D01*
X81415489Y-79608592D01*
X81214119Y-79597283D01*
X81203099Y-79596042D01*
X80926610Y-79549064D01*
X80915788Y-79546594D01*
X80823736Y-79520074D01*
X80646291Y-79468953D01*
X80635818Y-79465288D01*
X80376718Y-79357966D01*
X80366721Y-79353152D01*
X80121258Y-79217489D01*
X80111873Y-79211593D01*
X79883130Y-79049291D01*
X79874462Y-79042378D01*
X79665341Y-78855495D01*
X79657505Y-78847659D01*
X79470622Y-78638538D01*
X79463709Y-78629870D01*
X79301407Y-78401127D01*
X79295511Y-78391742D01*
X79159848Y-78146279D01*
X79155034Y-78136282D01*
X79047712Y-77877182D01*
X79044045Y-77866704D01*
X78966406Y-77597212D01*
X78963936Y-77586389D01*
X78916959Y-77309909D01*
X78915716Y-77298876D01*
X78901579Y-77047137D01*
X78902642Y-77026099D01*
X78903447Y-77021016D01*
X78904666Y-77013320D01*
X78900899Y-76989535D01*
X78899680Y-76974049D01*
X78899680Y-76830766D01*
X79911000Y-76830766D01*
X79911948Y-76840388D01*
X79923603Y-76898983D01*
X79930922Y-76916651D01*
X79975341Y-76983130D01*
X79988870Y-76996659D01*
X80055349Y-77041078D01*
X80073017Y-77048397D01*
X80131612Y-77060052D01*
X80141234Y-77061000D01*
X81391320Y-77061000D01*
X81404005Y-77056878D01*
X81407000Y-77052757D01*
X81407000Y-77045320D01*
X81915000Y-77045320D01*
X81919122Y-77058005D01*
X81923243Y-77061000D01*
X83180766Y-77061000D01*
X83190388Y-77060052D01*
X83248983Y-77048397D01*
X83266651Y-77041078D01*
X83333130Y-76996659D01*
X83346659Y-76983130D01*
X83391078Y-76916651D01*
X83398397Y-76898983D01*
X83410052Y-76840388D01*
X83411000Y-76830766D01*
X83411000Y-75580680D01*
X83406878Y-75567995D01*
X83402757Y-75565000D01*
X81930680Y-75565000D01*
X81917995Y-75569122D01*
X81915000Y-75573243D01*
X81915000Y-77045320D01*
X81407000Y-77045320D01*
X81407000Y-75580680D01*
X81402878Y-75567995D01*
X81398757Y-75565000D01*
X79926680Y-75565000D01*
X79913995Y-75569122D01*
X79911000Y-75573243D01*
X79911000Y-76830766D01*
X78899680Y-76830766D01*
X78899680Y-75041320D01*
X79911000Y-75041320D01*
X79915122Y-75054005D01*
X79919243Y-75057000D01*
X81391320Y-75057000D01*
X81404005Y-75052878D01*
X81407000Y-75048757D01*
X81407000Y-75041320D01*
X81915000Y-75041320D01*
X81919122Y-75054005D01*
X81923243Y-75057000D01*
X83395320Y-75057000D01*
X83408005Y-75052878D01*
X83411000Y-75048757D01*
X83411000Y-73791234D01*
X83410052Y-73781612D01*
X83398397Y-73723017D01*
X83391078Y-73705349D01*
X83346659Y-73638870D01*
X83333130Y-73625341D01*
X83266651Y-73580922D01*
X83248983Y-73573603D01*
X83190388Y-73561948D01*
X83180766Y-73561000D01*
X81930680Y-73561000D01*
X81917995Y-73565122D01*
X81915000Y-73569243D01*
X81915000Y-75041320D01*
X81407000Y-75041320D01*
X81407000Y-73576680D01*
X81402878Y-73563995D01*
X81398757Y-73561000D01*
X80141234Y-73561000D01*
X80131612Y-73561948D01*
X80073017Y-73573603D01*
X80055349Y-73580922D01*
X79988870Y-73625341D01*
X79975341Y-73638870D01*
X79930922Y-73705349D01*
X79923603Y-73723017D01*
X79911948Y-73781612D01*
X79911000Y-73791234D01*
X79911000Y-75041320D01*
X78899680Y-75041320D01*
X78899680Y-70171151D01*
X79756585Y-70171151D01*
X79756722Y-70174642D01*
X79756722Y-70174647D01*
X79758979Y-70232081D01*
X79767152Y-70440083D01*
X79815505Y-70704843D01*
X79816612Y-70708161D01*
X79816613Y-70708165D01*
X79899571Y-70956818D01*
X79900682Y-70960148D01*
X79902247Y-70963280D01*
X79902249Y-70963285D01*
X79960626Y-71080116D01*
X80020981Y-71200905D01*
X80174003Y-71422309D01*
X80356695Y-71619944D01*
X80359405Y-71622151D01*
X80359409Y-71622154D01*
X80562701Y-71787660D01*
X80565411Y-71789866D01*
X80795987Y-71928684D01*
X81043822Y-72033628D01*
X81303972Y-72102606D01*
X81307445Y-72103017D01*
X81307450Y-72103018D01*
X81512812Y-72127324D01*
X81571245Y-72134240D01*
X81574734Y-72134158D01*
X81574739Y-72134158D01*
X81697338Y-72131268D01*
X81840310Y-72127899D01*
X82105796Y-72083710D01*
X82109128Y-72082656D01*
X82109133Y-72082655D01*
X82205373Y-72052218D01*
X82362408Y-72002554D01*
X82365566Y-72001038D01*
X82365570Y-72001036D01*
X82601867Y-71887568D01*
X82601873Y-71887565D01*
X82605025Y-71886051D01*
X82828806Y-71736526D01*
X82831414Y-71734190D01*
X82831418Y-71734187D01*
X83026675Y-71559300D01*
X83026678Y-71559297D01*
X83029286Y-71556961D01*
X83150755Y-71412457D01*
X83200215Y-71353617D01*
X83200217Y-71353615D01*
X83202465Y-71350940D01*
X83344887Y-71122572D01*
X83379023Y-71045359D01*
X83452296Y-70879620D01*
X83452298Y-70879614D01*
X83453712Y-70876416D01*
X83454660Y-70873053D01*
X83454663Y-70873046D01*
X83510235Y-70676000D01*
X83512319Y-70668611D01*
X90416394Y-70668611D01*
X90417049Y-70674544D01*
X90417049Y-70674548D01*
X90422450Y-70723470D01*
X90434999Y-70837135D01*
X90493266Y-70996356D01*
X90496591Y-71001305D01*
X90496592Y-71001306D01*
X90509502Y-71020518D01*
X90587830Y-71137083D01*
X90713233Y-71251191D01*
X90862235Y-71332092D01*
X90897189Y-71341262D01*
X91020464Y-71373603D01*
X91020468Y-71373604D01*
X91026233Y-71375116D01*
X91032194Y-71375210D01*
X91032197Y-71375210D01*
X91110996Y-71376447D01*
X91195760Y-71377779D01*
X91201575Y-71376447D01*
X91201577Y-71376447D01*
X91355206Y-71341262D01*
X91355209Y-71341261D01*
X91361029Y-71339928D01*
X91376610Y-71332092D01*
X91507165Y-71266429D01*
X91512498Y-71263747D01*
X91517035Y-71259872D01*
X91517038Y-71259870D01*
X91636888Y-71157508D01*
X91636891Y-71157505D01*
X91641423Y-71153634D01*
X91661612Y-71125538D01*
X91736877Y-71020796D01*
X91736878Y-71020794D01*
X91740361Y-71015947D01*
X91742831Y-71009804D01*
X91801377Y-70864167D01*
X91801378Y-70864165D01*
X91803601Y-70858634D01*
X91807505Y-70831204D01*
X91827034Y-70693985D01*
X91827034Y-70693979D01*
X91827490Y-70690778D01*
X91827645Y-70676000D01*
X91807276Y-70507680D01*
X91747345Y-70349077D01*
X91704956Y-70287401D01*
X91687579Y-70228738D01*
X91706149Y-70173558D01*
X91736877Y-70130796D01*
X91736878Y-70130794D01*
X91740361Y-70125947D01*
X91746246Y-70111309D01*
X91801377Y-69974167D01*
X91801378Y-69974165D01*
X91803601Y-69968634D01*
X91804442Y-69962727D01*
X91827034Y-69803985D01*
X91827034Y-69803979D01*
X91827490Y-69800778D01*
X91827645Y-69786000D01*
X91809852Y-69638968D01*
X91807993Y-69623602D01*
X91807992Y-69623599D01*
X91807276Y-69617680D01*
X91747345Y-69459077D01*
X91736870Y-69443835D01*
X91654692Y-69324267D01*
X91651312Y-69319349D01*
X91524721Y-69206560D01*
X91374881Y-69127224D01*
X91292661Y-69106572D01*
X91216231Y-69087373D01*
X91216228Y-69087373D01*
X91210441Y-69085919D01*
X91124841Y-69085471D01*
X91046861Y-69085062D01*
X91046859Y-69085062D01*
X91040895Y-69085031D01*
X91035099Y-69086423D01*
X91035095Y-69086423D01*
X90927703Y-69112207D01*
X90876032Y-69124612D01*
X90812729Y-69157285D01*
X90730675Y-69199636D01*
X90730673Y-69199638D01*
X90725369Y-69202375D01*
X90597604Y-69313831D01*
X90500113Y-69452547D01*
X90438524Y-69610513D01*
X90416394Y-69778611D01*
X90417049Y-69784544D01*
X90417049Y-69784548D01*
X90429797Y-69900018D01*
X90434999Y-69947135D01*
X90493266Y-70106356D01*
X90539801Y-70175609D01*
X90556562Y-70234451D01*
X90538626Y-70287748D01*
X90500113Y-70342547D01*
X90438524Y-70500513D01*
X90416394Y-70668611D01*
X83512319Y-70668611D01*
X83526767Y-70617382D01*
X83562595Y-70350638D01*
X83562799Y-70344162D01*
X83566276Y-70233528D01*
X83566276Y-70233519D01*
X83566355Y-70231000D01*
X83547347Y-69962533D01*
X83490700Y-69699423D01*
X83470849Y-69645612D01*
X83398760Y-69450207D01*
X83397547Y-69446919D01*
X83328371Y-69318714D01*
X83271405Y-69213138D01*
X83271404Y-69213136D01*
X83269744Y-69210060D01*
X83266967Y-69206299D01*
X83111925Y-68996390D01*
X83109843Y-68993571D01*
X82921034Y-68801772D01*
X82707083Y-68638490D01*
X82472261Y-68506983D01*
X82221251Y-68409875D01*
X82217845Y-68409086D01*
X82217840Y-68409084D01*
X82055420Y-68371437D01*
X81959063Y-68349103D01*
X81749043Y-68330913D01*
X81694416Y-68326182D01*
X81694415Y-68326182D01*
X81690928Y-68325880D01*
X81575211Y-68332248D01*
X81425695Y-68340476D01*
X81425689Y-68340477D01*
X81422196Y-68340669D01*
X81158228Y-68393176D01*
X80904292Y-68482352D01*
X80901191Y-68483963D01*
X80901186Y-68483965D01*
X80856875Y-68506983D01*
X80665455Y-68606418D01*
X80662614Y-68608448D01*
X80662611Y-68608450D01*
X80574116Y-68671690D01*
X80446481Y-68762899D01*
X80403114Y-68804269D01*
X80254271Y-68946257D01*
X80254267Y-68946261D01*
X80251740Y-68948672D01*
X80085118Y-69160032D01*
X79949939Y-69392760D01*
X79927700Y-69447665D01*
X79852627Y-69633012D01*
X79848900Y-69642213D01*
X79784017Y-69903414D01*
X79783660Y-69906898D01*
X79761217Y-70125947D01*
X79756585Y-70171151D01*
X78899680Y-70171151D01*
X78899680Y-65318700D01*
X78918587Y-65260509D01*
X78968087Y-65224545D01*
X79029273Y-65224545D01*
X79078773Y-65260509D01*
X79092617Y-65287447D01*
X79092654Y-65287558D01*
X79093375Y-65290212D01*
X79221001Y-65612560D01*
X79222290Y-65614985D01*
X79222295Y-65614995D01*
X79348443Y-65852243D01*
X79383765Y-65918673D01*
X79385327Y-65920954D01*
X79578075Y-66202457D01*
X79578080Y-66202463D01*
X79579636Y-66204736D01*
X79581433Y-66206818D01*
X79581437Y-66206823D01*
X79668876Y-66308122D01*
X79806173Y-66467182D01*
X80060553Y-66702740D01*
X80339605Y-66908475D01*
X80639852Y-67081823D01*
X80957550Y-67220621D01*
X80960191Y-67221439D01*
X80960195Y-67221440D01*
X81286086Y-67322321D01*
X81286090Y-67322322D01*
X81288739Y-67323142D01*
X81291465Y-67323662D01*
X81502752Y-67363967D01*
X81629293Y-67388106D01*
X81974966Y-67414704D01*
X81977718Y-67414608D01*
X81977723Y-67414608D01*
X82187288Y-67407289D01*
X82321449Y-67402604D01*
X82664424Y-67351958D01*
X82667093Y-67351253D01*
X82667097Y-67351252D01*
X82996957Y-67264100D01*
X82996960Y-67264099D01*
X82999617Y-67263397D01*
X83108644Y-67221108D01*
X83320261Y-67139027D01*
X83320270Y-67139023D01*
X83322848Y-67138023D01*
X83589379Y-66998684D01*
X83627636Y-66978684D01*
X83627637Y-66978683D01*
X83630090Y-66977401D01*
X83917513Y-66783532D01*
X83919626Y-66781734D01*
X84179430Y-66560623D01*
X84179433Y-66560620D01*
X84181534Y-66558832D01*
X84418863Y-66306103D01*
X84475681Y-66230153D01*
X84624881Y-66030714D01*
X84624887Y-66030705D01*
X84626541Y-66028494D01*
X84627937Y-66026114D01*
X84627942Y-66026107D01*
X84755917Y-65807977D01*
X84801980Y-65729465D01*
X84942994Y-65412744D01*
X84954544Y-65376334D01*
X85046991Y-65084905D01*
X85046992Y-65084899D01*
X85047824Y-65082278D01*
X85065761Y-64991688D01*
X85114628Y-64744895D01*
X85114629Y-64744888D01*
X85115164Y-64742186D01*
X85144174Y-64396707D01*
X85144912Y-64343855D01*
X85145361Y-64311747D01*
X85145361Y-64311736D01*
X85145385Y-64310000D01*
X85126032Y-63963846D01*
X85077623Y-63677638D01*
X85068674Y-63624726D01*
X85068674Y-63624724D01*
X85068214Y-63622007D01*
X84989079Y-63346031D01*
X84973415Y-63291402D01*
X84973414Y-63291398D01*
X84972652Y-63288742D01*
X84874250Y-63050000D01*
X85664723Y-63050000D01*
X85683793Y-63267977D01*
X85684912Y-63272152D01*
X85684912Y-63272154D01*
X85717113Y-63392329D01*
X85740425Y-63479330D01*
X85832898Y-63677638D01*
X85958402Y-63856877D01*
X86113123Y-64011598D01*
X86228004Y-64092039D01*
X86274851Y-64124841D01*
X86292361Y-64137102D01*
X86314136Y-64147256D01*
X86321687Y-64150777D01*
X86366435Y-64192505D01*
X86378110Y-64252566D01*
X86352252Y-64308019D01*
X86298738Y-64337682D01*
X86279849Y-64339501D01*
X86038482Y-64339501D01*
X86034639Y-64340110D01*
X86034634Y-64340110D01*
X85997783Y-64345947D01*
X85944696Y-64354354D01*
X85903470Y-64375360D01*
X85838597Y-64408414D01*
X85838595Y-64408415D01*
X85831658Y-64411950D01*
X85741950Y-64501658D01*
X85738415Y-64508595D01*
X85738414Y-64508597D01*
X85689797Y-64604013D01*
X85684354Y-64614696D01*
X85669500Y-64708481D01*
X85669501Y-66471518D01*
X85670110Y-66475361D01*
X85670110Y-66475366D01*
X85674430Y-66502641D01*
X85684354Y-66565304D01*
X85700498Y-66596988D01*
X85733996Y-66662731D01*
X85741950Y-66678342D01*
X85831658Y-66768050D01*
X85838595Y-66771585D01*
X85838597Y-66771586D01*
X85897766Y-66801734D01*
X85944696Y-66825646D01*
X85952390Y-66826865D01*
X85952391Y-66826865D01*
X86034635Y-66839891D01*
X86034637Y-66839891D01*
X86038481Y-66840500D01*
X86919886Y-66840500D01*
X87801518Y-66840499D01*
X87805361Y-66839890D01*
X87805366Y-66839890D01*
X87842217Y-66834053D01*
X87895304Y-66825646D01*
X87981486Y-66781734D01*
X88001403Y-66771586D01*
X88001405Y-66771585D01*
X88008342Y-66768050D01*
X88098050Y-66678342D01*
X88106005Y-66662731D01*
X88152110Y-66572244D01*
X88152110Y-66572243D01*
X88155646Y-66565304D01*
X88170500Y-66471519D01*
X88170500Y-66230153D01*
X88189407Y-66171962D01*
X88238907Y-66135998D01*
X88300093Y-66135998D01*
X88349593Y-66171962D01*
X88359224Y-66188313D01*
X88372898Y-66217638D01*
X88498402Y-66396877D01*
X88653123Y-66551598D01*
X88768004Y-66632039D01*
X88782035Y-66641863D01*
X88832361Y-66677102D01*
X89030670Y-66769575D01*
X89076048Y-66781734D01*
X89237846Y-66825088D01*
X89237848Y-66825088D01*
X89242023Y-66826207D01*
X89460000Y-66845277D01*
X89677977Y-66826207D01*
X89682152Y-66825088D01*
X89682154Y-66825088D01*
X89843952Y-66781734D01*
X89889330Y-66769575D01*
X90087639Y-66677102D01*
X90137966Y-66641863D01*
X90151996Y-66632039D01*
X90266877Y-66551598D01*
X90421598Y-66396877D01*
X90547102Y-66217638D01*
X90639575Y-66019330D01*
X90641132Y-66020056D01*
X90674640Y-65977168D01*
X90733455Y-65960303D01*
X90790950Y-65981230D01*
X90819086Y-66019954D01*
X90820425Y-66019330D01*
X90912898Y-66217638D01*
X91038402Y-66396877D01*
X91193123Y-66551598D01*
X91308004Y-66632039D01*
X91322035Y-66641863D01*
X91372361Y-66677102D01*
X91570670Y-66769575D01*
X91616048Y-66781734D01*
X91777846Y-66825088D01*
X91777848Y-66825088D01*
X91782023Y-66826207D01*
X92000000Y-66845277D01*
X92217977Y-66826207D01*
X92222152Y-66825088D01*
X92222154Y-66825088D01*
X92383952Y-66781734D01*
X92429330Y-66769575D01*
X92627639Y-66677102D01*
X92677966Y-66641863D01*
X92691996Y-66632039D01*
X92806877Y-66551598D01*
X92961598Y-66396877D01*
X93087102Y-66217638D01*
X93179575Y-66019330D01*
X93181132Y-66020056D01*
X93214640Y-65977168D01*
X93273455Y-65960303D01*
X93330950Y-65981230D01*
X93359086Y-66019954D01*
X93360425Y-66019330D01*
X93452898Y-66217638D01*
X93578402Y-66396877D01*
X93733123Y-66551598D01*
X93848004Y-66632039D01*
X93862035Y-66641863D01*
X93912361Y-66677102D01*
X94110670Y-66769575D01*
X94156048Y-66781734D01*
X94317846Y-66825088D01*
X94317848Y-66825088D01*
X94322023Y-66826207D01*
X94540000Y-66845277D01*
X94757977Y-66826207D01*
X94762152Y-66825088D01*
X94762154Y-66825088D01*
X94923952Y-66781734D01*
X94969330Y-66769575D01*
X95167639Y-66677102D01*
X95217966Y-66641863D01*
X95231996Y-66632039D01*
X95346877Y-66551598D01*
X95501598Y-66396877D01*
X95627102Y-66217638D01*
X95719575Y-66019330D01*
X95765919Y-65846372D01*
X95775088Y-65812154D01*
X95775088Y-65812152D01*
X95776207Y-65807977D01*
X95786145Y-65694382D01*
X95786710Y-65687927D01*
X95810617Y-65631605D01*
X95863063Y-65600092D01*
X95924015Y-65605425D01*
X95970193Y-65645566D01*
X95984121Y-65690081D01*
X95988591Y-65758289D01*
X95990004Y-65767210D01*
X96037534Y-65954359D01*
X96040554Y-65962887D01*
X96121386Y-66138225D01*
X96125917Y-66146072D01*
X96237348Y-66303744D01*
X96243222Y-66310622D01*
X96381532Y-66445357D01*
X96388555Y-66451044D01*
X96549099Y-66558317D01*
X96557054Y-66562635D01*
X96734446Y-66638849D01*
X96743057Y-66641647D01*
X96810706Y-66656954D01*
X96823603Y-66655769D01*
X96826000Y-66647051D01*
X96826000Y-65435000D01*
X96844907Y-65376809D01*
X96894407Y-65340845D01*
X96925000Y-65336000D01*
X97235000Y-65336000D01*
X97293191Y-65354907D01*
X97329155Y-65404407D01*
X97334000Y-65435000D01*
X97334000Y-66649074D01*
X97338122Y-66661759D01*
X97339293Y-66662610D01*
X97341800Y-66662824D01*
X97342189Y-66662731D01*
X97525026Y-66600666D01*
X97533288Y-66596988D01*
X97701755Y-66502641D01*
X97709209Y-66497518D01*
X97857650Y-66374061D01*
X97864061Y-66367650D01*
X97987518Y-66219209D01*
X97992641Y-66211755D01*
X98086988Y-66043288D01*
X98090666Y-66035026D01*
X98152730Y-65852191D01*
X98154841Y-65843399D01*
X98177256Y-65688804D01*
X98204318Y-65633929D01*
X98258466Y-65605440D01*
X98319018Y-65614219D01*
X98362846Y-65656914D01*
X98373855Y-65694382D01*
X98383793Y-65807977D01*
X98384912Y-65812152D01*
X98384912Y-65812154D01*
X98394081Y-65846372D01*
X98440425Y-66019330D01*
X98532898Y-66217638D01*
X98658402Y-66396877D01*
X98813123Y-66551598D01*
X98928004Y-66632039D01*
X98942035Y-66641863D01*
X98992361Y-66677102D01*
X99190670Y-66769575D01*
X99236048Y-66781734D01*
X99397846Y-66825088D01*
X99397848Y-66825088D01*
X99402023Y-66826207D01*
X99620000Y-66845277D01*
X99837977Y-66826207D01*
X99842152Y-66825088D01*
X99842154Y-66825088D01*
X100003952Y-66781734D01*
X100049330Y-66769575D01*
X100247639Y-66677102D01*
X100297966Y-66641863D01*
X100311996Y-66632039D01*
X100426877Y-66551598D01*
X100581598Y-66396877D01*
X100707102Y-66217638D01*
X100799575Y-66019330D01*
X100801132Y-66020056D01*
X100834640Y-65977168D01*
X100893455Y-65960303D01*
X100950950Y-65981230D01*
X100979086Y-66019954D01*
X100980425Y-66019330D01*
X101072898Y-66217638D01*
X101198402Y-66396877D01*
X101353123Y-66551598D01*
X101468004Y-66632039D01*
X101482035Y-66641863D01*
X101532361Y-66677102D01*
X101730670Y-66769575D01*
X101776048Y-66781734D01*
X101937846Y-66825088D01*
X101937848Y-66825088D01*
X101942023Y-66826207D01*
X102160000Y-66845277D01*
X102377977Y-66826207D01*
X102382152Y-66825088D01*
X102382154Y-66825088D01*
X102543952Y-66781734D01*
X102589330Y-66769575D01*
X102787639Y-66677102D01*
X102837966Y-66641863D01*
X102851996Y-66632039D01*
X102966877Y-66551598D01*
X103121598Y-66396877D01*
X103247102Y-66217638D01*
X103339575Y-66019330D01*
X103341132Y-66020056D01*
X103374640Y-65977168D01*
X103433455Y-65960303D01*
X103490950Y-65981230D01*
X103519086Y-66019954D01*
X103520425Y-66019330D01*
X103612898Y-66217638D01*
X103738402Y-66396877D01*
X103893123Y-66551598D01*
X104008004Y-66632039D01*
X104022035Y-66641863D01*
X104072361Y-66677102D01*
X104270670Y-66769575D01*
X104316048Y-66781734D01*
X104477846Y-66825088D01*
X104477848Y-66825088D01*
X104482023Y-66826207D01*
X104700000Y-66845277D01*
X104917977Y-66826207D01*
X104922152Y-66825088D01*
X104922154Y-66825088D01*
X105083952Y-66781734D01*
X105129330Y-66769575D01*
X105327639Y-66677102D01*
X105377966Y-66641863D01*
X105391996Y-66632039D01*
X105506877Y-66551598D01*
X105661598Y-66396877D01*
X105787102Y-66217638D01*
X105879575Y-66019330D01*
X105881132Y-66020056D01*
X105914640Y-65977168D01*
X105973455Y-65960303D01*
X106030950Y-65981230D01*
X106059086Y-66019954D01*
X106060425Y-66019330D01*
X106152898Y-66217638D01*
X106278402Y-66396877D01*
X106433123Y-66551598D01*
X106548004Y-66632039D01*
X106562035Y-66641863D01*
X106612361Y-66677102D01*
X106810670Y-66769575D01*
X106856048Y-66781734D01*
X107017846Y-66825088D01*
X107017848Y-66825088D01*
X107022023Y-66826207D01*
X107240000Y-66845277D01*
X107457977Y-66826207D01*
X107462152Y-66825088D01*
X107462154Y-66825088D01*
X107623952Y-66781734D01*
X107669330Y-66769575D01*
X107867639Y-66677102D01*
X107917966Y-66641863D01*
X107931996Y-66632039D01*
X108046877Y-66551598D01*
X108201598Y-66396877D01*
X108327102Y-66217638D01*
X108419575Y-66019330D01*
X108421132Y-66020056D01*
X108454640Y-65977168D01*
X108513455Y-65960303D01*
X108570950Y-65981230D01*
X108599086Y-66019954D01*
X108600425Y-66019330D01*
X108692898Y-66217638D01*
X108818402Y-66396877D01*
X108973123Y-66551598D01*
X109088004Y-66632039D01*
X109102035Y-66641863D01*
X109152361Y-66677102D01*
X109350670Y-66769575D01*
X109396048Y-66781734D01*
X109557846Y-66825088D01*
X109557848Y-66825088D01*
X109562023Y-66826207D01*
X109780000Y-66845277D01*
X109997977Y-66826207D01*
X110002152Y-66825088D01*
X110002154Y-66825088D01*
X110163952Y-66781734D01*
X110209330Y-66769575D01*
X110407639Y-66677102D01*
X110457966Y-66641863D01*
X110471996Y-66632039D01*
X110586877Y-66551598D01*
X110741598Y-66396877D01*
X110867102Y-66217638D01*
X110959575Y-66019330D01*
X110961132Y-66020056D01*
X110994640Y-65977168D01*
X111053455Y-65960303D01*
X111110950Y-65981230D01*
X111139086Y-66019954D01*
X111140425Y-66019330D01*
X111232898Y-66217638D01*
X111358402Y-66396877D01*
X111513123Y-66551598D01*
X111628004Y-66632039D01*
X111642035Y-66641863D01*
X111692361Y-66677102D01*
X111890670Y-66769575D01*
X111936048Y-66781734D01*
X112097846Y-66825088D01*
X112097848Y-66825088D01*
X112102023Y-66826207D01*
X112320000Y-66845277D01*
X112537977Y-66826207D01*
X112542152Y-66825088D01*
X112542154Y-66825088D01*
X112703952Y-66781734D01*
X112749330Y-66769575D01*
X112947639Y-66677102D01*
X112997966Y-66641863D01*
X113011996Y-66632039D01*
X113126877Y-66551598D01*
X113281598Y-66396877D01*
X113407102Y-66217638D01*
X113499575Y-66019330D01*
X113501132Y-66020056D01*
X113534640Y-65977168D01*
X113593455Y-65960303D01*
X113650950Y-65981230D01*
X113679086Y-66019954D01*
X113680425Y-66019330D01*
X113772898Y-66217638D01*
X113898402Y-66396877D01*
X114053123Y-66551598D01*
X114168004Y-66632039D01*
X114182035Y-66641863D01*
X114232361Y-66677102D01*
X114430670Y-66769575D01*
X114476048Y-66781734D01*
X114637846Y-66825088D01*
X114637848Y-66825088D01*
X114642023Y-66826207D01*
X114860000Y-66845277D01*
X115077977Y-66826207D01*
X115082152Y-66825088D01*
X115082154Y-66825088D01*
X115243952Y-66781734D01*
X115289330Y-66769575D01*
X115487639Y-66677102D01*
X115537966Y-66641863D01*
X115551996Y-66632039D01*
X115666877Y-66551598D01*
X115821598Y-66396877D01*
X115947102Y-66217638D01*
X116039575Y-66019330D01*
X116085919Y-65846372D01*
X116095088Y-65812154D01*
X116095088Y-65812152D01*
X116096207Y-65807977D01*
X116106145Y-65694382D01*
X116106710Y-65687927D01*
X116130617Y-65631605D01*
X116183063Y-65600092D01*
X116244015Y-65605425D01*
X116290193Y-65645566D01*
X116304121Y-65690081D01*
X116308591Y-65758289D01*
X116310004Y-65767210D01*
X116357534Y-65954359D01*
X116360554Y-65962887D01*
X116441386Y-66138225D01*
X116445917Y-66146072D01*
X116557348Y-66303744D01*
X116563222Y-66310622D01*
X116701532Y-66445357D01*
X116708555Y-66451044D01*
X116869099Y-66558317D01*
X116877054Y-66562635D01*
X117054446Y-66638849D01*
X117063057Y-66641647D01*
X117130706Y-66656954D01*
X117143603Y-66655769D01*
X117146000Y-66647051D01*
X117146000Y-65435000D01*
X117164907Y-65376809D01*
X117214407Y-65340845D01*
X117245000Y-65336000D01*
X117555000Y-65336000D01*
X117613191Y-65354907D01*
X117649155Y-65404407D01*
X117654000Y-65435000D01*
X117654000Y-66649074D01*
X117658122Y-66661759D01*
X117659293Y-66662610D01*
X117661800Y-66662824D01*
X117662189Y-66662731D01*
X117845026Y-66600666D01*
X117853288Y-66596988D01*
X118021755Y-66502641D01*
X118029209Y-66497518D01*
X118177650Y-66374061D01*
X118184061Y-66367650D01*
X118307518Y-66219209D01*
X118312641Y-66211755D01*
X118406988Y-66043288D01*
X118410666Y-66035026D01*
X118472730Y-65852191D01*
X118474841Y-65843399D01*
X118497256Y-65688804D01*
X118524318Y-65633929D01*
X118578466Y-65605440D01*
X118639018Y-65614219D01*
X118682846Y-65656914D01*
X118693855Y-65694382D01*
X118703793Y-65807977D01*
X118704912Y-65812152D01*
X118704912Y-65812154D01*
X118714081Y-65846372D01*
X118760425Y-66019330D01*
X118852898Y-66217638D01*
X118978402Y-66396877D01*
X119133123Y-66551598D01*
X119248004Y-66632039D01*
X119262035Y-66641863D01*
X119312361Y-66677102D01*
X119510670Y-66769575D01*
X119556048Y-66781734D01*
X119717846Y-66825088D01*
X119717848Y-66825088D01*
X119722023Y-66826207D01*
X119940000Y-66845277D01*
X120157977Y-66826207D01*
X120162152Y-66825088D01*
X120162154Y-66825088D01*
X120323952Y-66781734D01*
X120369330Y-66769575D01*
X120567639Y-66677102D01*
X120617966Y-66641863D01*
X120631996Y-66632039D01*
X120746877Y-66551598D01*
X120901598Y-66396877D01*
X121027102Y-66217638D01*
X121119575Y-66019330D01*
X121121132Y-66020056D01*
X121154640Y-65977168D01*
X121213455Y-65960303D01*
X121270950Y-65981230D01*
X121299086Y-66019954D01*
X121300425Y-66019330D01*
X121392898Y-66217638D01*
X121518402Y-66396877D01*
X121673123Y-66551598D01*
X121788004Y-66632039D01*
X121802035Y-66641863D01*
X121852361Y-66677102D01*
X122050670Y-66769575D01*
X122096048Y-66781734D01*
X122257846Y-66825088D01*
X122257848Y-66825088D01*
X122262023Y-66826207D01*
X122480000Y-66845277D01*
X122697977Y-66826207D01*
X122702152Y-66825088D01*
X122702154Y-66825088D01*
X122863952Y-66781734D01*
X122909330Y-66769575D01*
X123107639Y-66677102D01*
X123157966Y-66641863D01*
X123171996Y-66632039D01*
X123286877Y-66551598D01*
X123441598Y-66396877D01*
X123567102Y-66217638D01*
X123659575Y-66019330D01*
X123661132Y-66020056D01*
X123694640Y-65977168D01*
X123753455Y-65960303D01*
X123810950Y-65981230D01*
X123839086Y-66019954D01*
X123840425Y-66019330D01*
X123932898Y-66217638D01*
X124058402Y-66396877D01*
X124213123Y-66551598D01*
X124328004Y-66632039D01*
X124342035Y-66641863D01*
X124392361Y-66677102D01*
X124590670Y-66769575D01*
X124636048Y-66781734D01*
X124797846Y-66825088D01*
X124797848Y-66825088D01*
X124802023Y-66826207D01*
X125020000Y-66845277D01*
X125237977Y-66826207D01*
X125242152Y-66825088D01*
X125242154Y-66825088D01*
X125403952Y-66781734D01*
X125449330Y-66769575D01*
X125647639Y-66677102D01*
X125697966Y-66641863D01*
X125711996Y-66632039D01*
X125826877Y-66551598D01*
X125981598Y-66396877D01*
X126107102Y-66217638D01*
X126199575Y-66019330D01*
X126201132Y-66020056D01*
X126234640Y-65977168D01*
X126293455Y-65960303D01*
X126350950Y-65981230D01*
X126379086Y-66019954D01*
X126380425Y-66019330D01*
X126472898Y-66217638D01*
X126598402Y-66396877D01*
X126753123Y-66551598D01*
X126868004Y-66632039D01*
X126882035Y-66641863D01*
X126932361Y-66677102D01*
X127130670Y-66769575D01*
X127176048Y-66781734D01*
X127337846Y-66825088D01*
X127337848Y-66825088D01*
X127342023Y-66826207D01*
X127560000Y-66845277D01*
X127777977Y-66826207D01*
X127782152Y-66825088D01*
X127782154Y-66825088D01*
X127943952Y-66781734D01*
X127989330Y-66769575D01*
X128187639Y-66677102D01*
X128237966Y-66641863D01*
X128251996Y-66632039D01*
X128366877Y-66551598D01*
X128521598Y-66396877D01*
X128647102Y-66217638D01*
X128739575Y-66019330D01*
X128741132Y-66020056D01*
X128774640Y-65977168D01*
X128833455Y-65960303D01*
X128890950Y-65981230D01*
X128919086Y-66019954D01*
X128920425Y-66019330D01*
X129012898Y-66217638D01*
X129138402Y-66396877D01*
X129293123Y-66551598D01*
X129408004Y-66632039D01*
X129422035Y-66641863D01*
X129472361Y-66677102D01*
X129670670Y-66769575D01*
X129716048Y-66781734D01*
X129877846Y-66825088D01*
X129877848Y-66825088D01*
X129882023Y-66826207D01*
X130100000Y-66845277D01*
X130317977Y-66826207D01*
X130322152Y-66825088D01*
X130322154Y-66825088D01*
X130483952Y-66781734D01*
X130529330Y-66769575D01*
X130727639Y-66677102D01*
X130777966Y-66641863D01*
X130791996Y-66632039D01*
X130906877Y-66551598D01*
X131061598Y-66396877D01*
X131187102Y-66217638D01*
X131279575Y-66019330D01*
X131281132Y-66020056D01*
X131314640Y-65977168D01*
X131373455Y-65960303D01*
X131430950Y-65981230D01*
X131459086Y-66019954D01*
X131460425Y-66019330D01*
X131552898Y-66217638D01*
X131678402Y-66396877D01*
X131833123Y-66551598D01*
X131948004Y-66632039D01*
X131962035Y-66641863D01*
X132012361Y-66677102D01*
X132210670Y-66769575D01*
X132256048Y-66781734D01*
X132417846Y-66825088D01*
X132417848Y-66825088D01*
X132422023Y-66826207D01*
X132640000Y-66845277D01*
X132857977Y-66826207D01*
X132862152Y-66825088D01*
X132862154Y-66825088D01*
X133023952Y-66781734D01*
X133069330Y-66769575D01*
X133267639Y-66677102D01*
X133317966Y-66641863D01*
X133331996Y-66632039D01*
X133446877Y-66551598D01*
X133601598Y-66396877D01*
X133727102Y-66217638D01*
X133819575Y-66019330D01*
X133865919Y-65846372D01*
X133875088Y-65812154D01*
X133875088Y-65812152D01*
X133876207Y-65807977D01*
X133886145Y-65694382D01*
X133886710Y-65687927D01*
X133910617Y-65631605D01*
X133963063Y-65600092D01*
X134024015Y-65605425D01*
X134070193Y-65645566D01*
X134084121Y-65690081D01*
X134088591Y-65758289D01*
X134090004Y-65767210D01*
X134137534Y-65954359D01*
X134140554Y-65962887D01*
X134221386Y-66138225D01*
X134225917Y-66146072D01*
X134337348Y-66303744D01*
X134343222Y-66310622D01*
X134481532Y-66445357D01*
X134488555Y-66451044D01*
X134649099Y-66558317D01*
X134657054Y-66562635D01*
X134834446Y-66638849D01*
X134843057Y-66641647D01*
X134910706Y-66656954D01*
X134923603Y-66655769D01*
X134925444Y-66649074D01*
X135434000Y-66649074D01*
X135438122Y-66661759D01*
X135439293Y-66662610D01*
X135441800Y-66662824D01*
X135442189Y-66662731D01*
X135625026Y-66600666D01*
X135633288Y-66596988D01*
X135801755Y-66502641D01*
X135809209Y-66497518D01*
X135957650Y-66374061D01*
X135964061Y-66367650D01*
X136087518Y-66219209D01*
X136092641Y-66211755D01*
X136186988Y-66043288D01*
X136190666Y-66035026D01*
X136251744Y-65855094D01*
X136250246Y-65846372D01*
X136249209Y-65845363D01*
X136243365Y-65844000D01*
X135449680Y-65844000D01*
X135436995Y-65848122D01*
X135434000Y-65852243D01*
X135434000Y-66649074D01*
X134925444Y-66649074D01*
X134926000Y-66647051D01*
X134926000Y-65435000D01*
X134944907Y-65376809D01*
X134994407Y-65340845D01*
X135025000Y-65336000D01*
X136235676Y-65336000D01*
X136247166Y-65332267D01*
X136247370Y-65321866D01*
X136212571Y-65198478D01*
X136209330Y-65190035D01*
X136123928Y-65016855D01*
X136119209Y-65009154D01*
X136003678Y-64854440D01*
X135997629Y-64847722D01*
X135855837Y-64716650D01*
X135848670Y-64711151D01*
X135685369Y-64608117D01*
X135677315Y-64604013D01*
X135497969Y-64532460D01*
X135489306Y-64529894D01*
X135299926Y-64492225D01*
X135297285Y-64491947D01*
X135296279Y-64491499D01*
X135295474Y-64491339D01*
X135295510Y-64491157D01*
X135241389Y-64467061D01*
X135210796Y-64414074D01*
X135217190Y-64353224D01*
X135258131Y-64307753D01*
X135299004Y-64294866D01*
X135361491Y-64289399D01*
X135397977Y-64286207D01*
X135402152Y-64285088D01*
X135402154Y-64285088D01*
X135603519Y-64231132D01*
X135609330Y-64229575D01*
X135807639Y-64137102D01*
X135825150Y-64124841D01*
X135871996Y-64092039D01*
X135986877Y-64011598D01*
X136141598Y-63856877D01*
X136267102Y-63677638D01*
X136359575Y-63479330D01*
X136382887Y-63392329D01*
X136415088Y-63272154D01*
X136415088Y-63272152D01*
X136416207Y-63267977D01*
X136435277Y-63050000D01*
X136416207Y-62832023D01*
X136411910Y-62815984D01*
X136360693Y-62624843D01*
X136359575Y-62620670D01*
X136267102Y-62422362D01*
X136250771Y-62399038D01*
X136213118Y-62345265D01*
X136141598Y-62243123D01*
X135986877Y-62088402D01*
X135838491Y-61984501D01*
X135811184Y-61965380D01*
X135811182Y-61965379D01*
X135807639Y-61962898D01*
X135609330Y-61870425D01*
X135522780Y-61847234D01*
X135402154Y-61814912D01*
X135402152Y-61814912D01*
X135397977Y-61813793D01*
X135180000Y-61794723D01*
X134962023Y-61813793D01*
X134957848Y-61814912D01*
X134957846Y-61814912D01*
X134837220Y-61847234D01*
X134750670Y-61870425D01*
X134552362Y-61962898D01*
X134548819Y-61965379D01*
X134548817Y-61965380D01*
X134511375Y-61991597D01*
X134373123Y-62088402D01*
X134218402Y-62243123D01*
X134146882Y-62345265D01*
X134109230Y-62399038D01*
X134092898Y-62422362D01*
X134000425Y-62620670D01*
X133998868Y-62619944D01*
X133965360Y-62662832D01*
X133906545Y-62679697D01*
X133849050Y-62658770D01*
X133820914Y-62620046D01*
X133819575Y-62620670D01*
X133817747Y-62616750D01*
X133727102Y-62422362D01*
X133710771Y-62399038D01*
X133673118Y-62345265D01*
X133601598Y-62243123D01*
X133446877Y-62088402D01*
X133298491Y-61984501D01*
X133271184Y-61965380D01*
X133271182Y-61965379D01*
X133267639Y-61962898D01*
X133069330Y-61870425D01*
X132982780Y-61847234D01*
X132862154Y-61814912D01*
X132862152Y-61814912D01*
X132857977Y-61813793D01*
X132640000Y-61794723D01*
X132422023Y-61813793D01*
X132417848Y-61814912D01*
X132417846Y-61814912D01*
X132297220Y-61847234D01*
X132210670Y-61870425D01*
X132012362Y-61962898D01*
X132008819Y-61965379D01*
X132008817Y-61965380D01*
X131971375Y-61991597D01*
X131833123Y-62088402D01*
X131678402Y-62243123D01*
X131606882Y-62345265D01*
X131569230Y-62399038D01*
X131552898Y-62422362D01*
X131460425Y-62620670D01*
X131458868Y-62619944D01*
X131425360Y-62662832D01*
X131366545Y-62679697D01*
X131309050Y-62658770D01*
X131280914Y-62620046D01*
X131279575Y-62620670D01*
X131277747Y-62616750D01*
X131187102Y-62422362D01*
X131170771Y-62399038D01*
X131133118Y-62345265D01*
X131061598Y-62243123D01*
X130906877Y-62088402D01*
X130758491Y-61984501D01*
X130731184Y-61965380D01*
X130731182Y-61965379D01*
X130727639Y-61962898D01*
X130529330Y-61870425D01*
X130442780Y-61847234D01*
X130322154Y-61814912D01*
X130322152Y-61814912D01*
X130317977Y-61813793D01*
X130100000Y-61794723D01*
X129882023Y-61813793D01*
X129877848Y-61814912D01*
X129877846Y-61814912D01*
X129757220Y-61847234D01*
X129670670Y-61870425D01*
X129472362Y-61962898D01*
X129468819Y-61965379D01*
X129468817Y-61965380D01*
X129431375Y-61991597D01*
X129293123Y-62088402D01*
X129138402Y-62243123D01*
X129066882Y-62345265D01*
X129029230Y-62399038D01*
X129012898Y-62422362D01*
X128920425Y-62620670D01*
X128919307Y-62624843D01*
X128868091Y-62815984D01*
X128863793Y-62832023D01*
X128863416Y-62836334D01*
X128853130Y-62953902D01*
X128829223Y-63010224D01*
X128776777Y-63041737D01*
X128715825Y-63036404D01*
X128669647Y-62996263D01*
X128655922Y-62954333D01*
X128646629Y-62853200D01*
X128644982Y-62844314D01*
X128592570Y-62658473D01*
X128589332Y-62650038D01*
X128503928Y-62476855D01*
X128499209Y-62469154D01*
X128383678Y-62314440D01*
X128377629Y-62307722D01*
X128235837Y-62176650D01*
X128228670Y-62171151D01*
X128065369Y-62068117D01*
X128057315Y-62064013D01*
X127877969Y-61992460D01*
X127869306Y-61989894D01*
X127829379Y-61981952D01*
X127816133Y-61983520D01*
X127816099Y-61983551D01*
X127814000Y-61991597D01*
X127814000Y-63205000D01*
X127795093Y-63263191D01*
X127745593Y-63299155D01*
X127715000Y-63304000D01*
X127405000Y-63304000D01*
X127346809Y-63285093D01*
X127310845Y-63235593D01*
X127306000Y-63205000D01*
X127306000Y-61993124D01*
X127301878Y-61980439D01*
X127301274Y-61980000D01*
X127294127Y-61979484D01*
X127278555Y-61982160D01*
X127269819Y-61984501D01*
X127088668Y-62051331D01*
X127080506Y-62055224D01*
X126914562Y-62153950D01*
X126907260Y-62159255D01*
X126762081Y-62286575D01*
X126755858Y-62293133D01*
X126636322Y-62444763D01*
X126631397Y-62452346D01*
X126541490Y-62623231D01*
X126538032Y-62631579D01*
X126480773Y-62815984D01*
X126478895Y-62824821D01*
X126463575Y-62954260D01*
X126437959Y-63009825D01*
X126384575Y-63039722D01*
X126323814Y-63032530D01*
X126278884Y-62990998D01*
X126266638Y-62951252D01*
X126256584Y-62836334D01*
X126256207Y-62832023D01*
X126251910Y-62815984D01*
X126200693Y-62624843D01*
X126199575Y-62620670D01*
X126107102Y-62422362D01*
X126090771Y-62399038D01*
X126053118Y-62345265D01*
X125981598Y-62243123D01*
X125826877Y-62088402D01*
X125678491Y-61984501D01*
X125651184Y-61965380D01*
X125651182Y-61965379D01*
X125647639Y-61962898D01*
X125449330Y-61870425D01*
X125362780Y-61847234D01*
X125242154Y-61814912D01*
X125242152Y-61814912D01*
X125237977Y-61813793D01*
X125020000Y-61794723D01*
X124802023Y-61813793D01*
X124797848Y-61814912D01*
X124797846Y-61814912D01*
X124677220Y-61847234D01*
X124590670Y-61870425D01*
X124392362Y-61962898D01*
X124388819Y-61965379D01*
X124388817Y-61965380D01*
X124351375Y-61991597D01*
X124213123Y-62088402D01*
X124058402Y-62243123D01*
X123986882Y-62345265D01*
X123949230Y-62399038D01*
X123932898Y-62422362D01*
X123840425Y-62620670D01*
X123839307Y-62624843D01*
X123788091Y-62815984D01*
X123783793Y-62832023D01*
X123783416Y-62836334D01*
X123773130Y-62953902D01*
X123749223Y-63010224D01*
X123696777Y-63041737D01*
X123635825Y-63036404D01*
X123589647Y-62996263D01*
X123575922Y-62954333D01*
X123566629Y-62853200D01*
X123564982Y-62844314D01*
X123512570Y-62658473D01*
X123509332Y-62650038D01*
X123423928Y-62476855D01*
X123419209Y-62469154D01*
X123303678Y-62314440D01*
X123297629Y-62307722D01*
X123155837Y-62176650D01*
X123148670Y-62171151D01*
X122985369Y-62068117D01*
X122977315Y-62064013D01*
X122797969Y-61992460D01*
X122789306Y-61989894D01*
X122749379Y-61981952D01*
X122736133Y-61983520D01*
X122736099Y-61983551D01*
X122734000Y-61991597D01*
X122734000Y-63205000D01*
X122715093Y-63263191D01*
X122665593Y-63299155D01*
X122635000Y-63304000D01*
X122325000Y-63304000D01*
X122266809Y-63285093D01*
X122230845Y-63235593D01*
X122226000Y-63205000D01*
X122226000Y-61993124D01*
X122221878Y-61980439D01*
X122221274Y-61980000D01*
X122214127Y-61979484D01*
X122198555Y-61982160D01*
X122189819Y-61984501D01*
X122008668Y-62051331D01*
X122000506Y-62055224D01*
X121834562Y-62153950D01*
X121827260Y-62159255D01*
X121682081Y-62286575D01*
X121675858Y-62293133D01*
X121556322Y-62444763D01*
X121551397Y-62452346D01*
X121461490Y-62623231D01*
X121458032Y-62631579D01*
X121400773Y-62815984D01*
X121398895Y-62824821D01*
X121383575Y-62954260D01*
X121357959Y-63009825D01*
X121304575Y-63039722D01*
X121243814Y-63032530D01*
X121198884Y-62990998D01*
X121186638Y-62951252D01*
X121176584Y-62836334D01*
X121176207Y-62832023D01*
X121171910Y-62815984D01*
X121120693Y-62624843D01*
X121119575Y-62620670D01*
X121027102Y-62422362D01*
X121010771Y-62399038D01*
X120973118Y-62345265D01*
X120901598Y-62243123D01*
X120746877Y-62088402D01*
X120598491Y-61984501D01*
X120571184Y-61965380D01*
X120571182Y-61965379D01*
X120567639Y-61962898D01*
X120369330Y-61870425D01*
X120282780Y-61847234D01*
X120162154Y-61814912D01*
X120162152Y-61814912D01*
X120157977Y-61813793D01*
X119940000Y-61794723D01*
X119722023Y-61813793D01*
X119717848Y-61814912D01*
X119717846Y-61814912D01*
X119597220Y-61847234D01*
X119510670Y-61870425D01*
X119312362Y-61962898D01*
X119308819Y-61965379D01*
X119308817Y-61965380D01*
X119271375Y-61991597D01*
X119133123Y-62088402D01*
X118978402Y-62243123D01*
X118906882Y-62345265D01*
X118869230Y-62399038D01*
X118852898Y-62422362D01*
X118760425Y-62620670D01*
X118758868Y-62619944D01*
X118725360Y-62662832D01*
X118666545Y-62679697D01*
X118609050Y-62658770D01*
X118580914Y-62620046D01*
X118579575Y-62620670D01*
X118577747Y-62616750D01*
X118487102Y-62422362D01*
X118470771Y-62399038D01*
X118433118Y-62345265D01*
X118361598Y-62243123D01*
X118206877Y-62088402D01*
X118058491Y-61984501D01*
X118031184Y-61965380D01*
X118031182Y-61965379D01*
X118027639Y-61962898D01*
X117829330Y-61870425D01*
X117742780Y-61847234D01*
X117622154Y-61814912D01*
X117622152Y-61814912D01*
X117617977Y-61813793D01*
X117400000Y-61794723D01*
X117182023Y-61813793D01*
X117177848Y-61814912D01*
X117177846Y-61814912D01*
X117057220Y-61847234D01*
X116970670Y-61870425D01*
X116772362Y-61962898D01*
X116768819Y-61965379D01*
X116768817Y-61965380D01*
X116731375Y-61991597D01*
X116593123Y-62088402D01*
X116438402Y-62243123D01*
X116366882Y-62345265D01*
X116329230Y-62399038D01*
X116312898Y-62422362D01*
X116220425Y-62620670D01*
X116218868Y-62619944D01*
X116185360Y-62662832D01*
X116126545Y-62679697D01*
X116069050Y-62658770D01*
X116040914Y-62620046D01*
X116039575Y-62620670D01*
X116037747Y-62616750D01*
X115947102Y-62422362D01*
X115930771Y-62399038D01*
X115893118Y-62345265D01*
X115821598Y-62243123D01*
X115666877Y-62088402D01*
X115518491Y-61984501D01*
X115491184Y-61965380D01*
X115491182Y-61965379D01*
X115487639Y-61962898D01*
X115289330Y-61870425D01*
X115202780Y-61847234D01*
X115082154Y-61814912D01*
X115082152Y-61814912D01*
X115077977Y-61813793D01*
X114860000Y-61794723D01*
X114642023Y-61813793D01*
X114637848Y-61814912D01*
X114637846Y-61814912D01*
X114517220Y-61847234D01*
X114430670Y-61870425D01*
X114232362Y-61962898D01*
X114228819Y-61965379D01*
X114228817Y-61965380D01*
X114191375Y-61991597D01*
X114053123Y-62088402D01*
X113898402Y-62243123D01*
X113826882Y-62345265D01*
X113789230Y-62399038D01*
X113772898Y-62422362D01*
X113680425Y-62620670D01*
X113678868Y-62619944D01*
X113645360Y-62662832D01*
X113586545Y-62679697D01*
X113529050Y-62658770D01*
X113500914Y-62620046D01*
X113499575Y-62620670D01*
X113497747Y-62616750D01*
X113407102Y-62422362D01*
X113390771Y-62399038D01*
X113353118Y-62345265D01*
X113281598Y-62243123D01*
X113126877Y-62088402D01*
X112978491Y-61984501D01*
X112951184Y-61965380D01*
X112951182Y-61965379D01*
X112947639Y-61962898D01*
X112749330Y-61870425D01*
X112662780Y-61847234D01*
X112542154Y-61814912D01*
X112542152Y-61814912D01*
X112537977Y-61813793D01*
X112320000Y-61794723D01*
X112102023Y-61813793D01*
X112097848Y-61814912D01*
X112097846Y-61814912D01*
X111977220Y-61847234D01*
X111890670Y-61870425D01*
X111692362Y-61962898D01*
X111688819Y-61965379D01*
X111688817Y-61965380D01*
X111651375Y-61991597D01*
X111513123Y-62088402D01*
X111358402Y-62243123D01*
X111286882Y-62345265D01*
X111249230Y-62399038D01*
X111232898Y-62422362D01*
X111140425Y-62620670D01*
X111139307Y-62624843D01*
X111088091Y-62815984D01*
X111083793Y-62832023D01*
X111083416Y-62836334D01*
X111073130Y-62953902D01*
X111049223Y-63010224D01*
X110996777Y-63041737D01*
X110935825Y-63036404D01*
X110889647Y-62996263D01*
X110875922Y-62954333D01*
X110866629Y-62853200D01*
X110864982Y-62844314D01*
X110812570Y-62658473D01*
X110809332Y-62650038D01*
X110723928Y-62476855D01*
X110719209Y-62469154D01*
X110603678Y-62314440D01*
X110597629Y-62307722D01*
X110455837Y-62176650D01*
X110448670Y-62171151D01*
X110285369Y-62068117D01*
X110277315Y-62064013D01*
X110097969Y-61992460D01*
X110089306Y-61989894D01*
X110049379Y-61981952D01*
X110036133Y-61983520D01*
X110036099Y-61983551D01*
X110034000Y-61991597D01*
X110034000Y-63205000D01*
X110015093Y-63263191D01*
X109965593Y-63299155D01*
X109935000Y-63304000D01*
X109625000Y-63304000D01*
X109566809Y-63285093D01*
X109530845Y-63235593D01*
X109526000Y-63205000D01*
X109526000Y-61993124D01*
X109521878Y-61980439D01*
X109521274Y-61980000D01*
X109514127Y-61979484D01*
X109498555Y-61982160D01*
X109489819Y-61984501D01*
X109308668Y-62051331D01*
X109300506Y-62055224D01*
X109134562Y-62153950D01*
X109127260Y-62159255D01*
X108982081Y-62286575D01*
X108975858Y-62293133D01*
X108856322Y-62444763D01*
X108851397Y-62452346D01*
X108761490Y-62623231D01*
X108758032Y-62631579D01*
X108700773Y-62815984D01*
X108698895Y-62824821D01*
X108683575Y-62954260D01*
X108657959Y-63009825D01*
X108604575Y-63039722D01*
X108543814Y-63032530D01*
X108498884Y-62990998D01*
X108486638Y-62951252D01*
X108476584Y-62836334D01*
X108476207Y-62832023D01*
X108471910Y-62815984D01*
X108420693Y-62624843D01*
X108419575Y-62620670D01*
X108327102Y-62422362D01*
X108310771Y-62399038D01*
X108273118Y-62345265D01*
X108201598Y-62243123D01*
X108046877Y-62088402D01*
X107898491Y-61984501D01*
X107871184Y-61965380D01*
X107871182Y-61965379D01*
X107867639Y-61962898D01*
X107669330Y-61870425D01*
X107582780Y-61847234D01*
X107462154Y-61814912D01*
X107462152Y-61814912D01*
X107457977Y-61813793D01*
X107240000Y-61794723D01*
X107022023Y-61813793D01*
X107017848Y-61814912D01*
X107017846Y-61814912D01*
X106897220Y-61847234D01*
X106810670Y-61870425D01*
X106612362Y-61962898D01*
X106608819Y-61965379D01*
X106608817Y-61965380D01*
X106571375Y-61991597D01*
X106433123Y-62088402D01*
X106278402Y-62243123D01*
X106206882Y-62345265D01*
X106169230Y-62399038D01*
X106152898Y-62422362D01*
X106060425Y-62620670D01*
X106058868Y-62619944D01*
X106025360Y-62662832D01*
X105966545Y-62679697D01*
X105909050Y-62658770D01*
X105880914Y-62620046D01*
X105879575Y-62620670D01*
X105877747Y-62616750D01*
X105787102Y-62422362D01*
X105770771Y-62399038D01*
X105733118Y-62345265D01*
X105661598Y-62243123D01*
X105506877Y-62088402D01*
X105358491Y-61984501D01*
X105331184Y-61965380D01*
X105331182Y-61965379D01*
X105327639Y-61962898D01*
X105129330Y-61870425D01*
X105042780Y-61847234D01*
X104922154Y-61814912D01*
X104922152Y-61814912D01*
X104917977Y-61813793D01*
X104700000Y-61794723D01*
X104482023Y-61813793D01*
X104477848Y-61814912D01*
X104477846Y-61814912D01*
X104357220Y-61847234D01*
X104270670Y-61870425D01*
X104072362Y-61962898D01*
X104068819Y-61965379D01*
X104068817Y-61965380D01*
X104031375Y-61991597D01*
X103893123Y-62088402D01*
X103738402Y-62243123D01*
X103666882Y-62345265D01*
X103629230Y-62399038D01*
X103612898Y-62422362D01*
X103520425Y-62620670D01*
X103519307Y-62624843D01*
X103468091Y-62815984D01*
X103463793Y-62832023D01*
X103463416Y-62836334D01*
X103453130Y-62953902D01*
X103429223Y-63010224D01*
X103376777Y-63041737D01*
X103315825Y-63036404D01*
X103269647Y-62996263D01*
X103255922Y-62954333D01*
X103246629Y-62853200D01*
X103244982Y-62844314D01*
X103192570Y-62658473D01*
X103189332Y-62650038D01*
X103103928Y-62476855D01*
X103099209Y-62469154D01*
X102983678Y-62314440D01*
X102977629Y-62307722D01*
X102835837Y-62176650D01*
X102828670Y-62171151D01*
X102665369Y-62068117D01*
X102657315Y-62064013D01*
X102477969Y-61992460D01*
X102469306Y-61989894D01*
X102429379Y-61981952D01*
X102416133Y-61983520D01*
X102416099Y-61983551D01*
X102414000Y-61991597D01*
X102414000Y-63205000D01*
X102395093Y-63263191D01*
X102345593Y-63299155D01*
X102315000Y-63304000D01*
X102005000Y-63304000D01*
X101946809Y-63285093D01*
X101910845Y-63235593D01*
X101906000Y-63205000D01*
X101906000Y-61993124D01*
X101901878Y-61980439D01*
X101901274Y-61980000D01*
X101894127Y-61979484D01*
X101878555Y-61982160D01*
X101869819Y-61984501D01*
X101688668Y-62051331D01*
X101680506Y-62055224D01*
X101514562Y-62153950D01*
X101507260Y-62159255D01*
X101362081Y-62286575D01*
X101355858Y-62293133D01*
X101236322Y-62444763D01*
X101231397Y-62452346D01*
X101141490Y-62623231D01*
X101138032Y-62631579D01*
X101080773Y-62815984D01*
X101078895Y-62824821D01*
X101063575Y-62954260D01*
X101037959Y-63009825D01*
X100984575Y-63039722D01*
X100923814Y-63032530D01*
X100878884Y-62990998D01*
X100866638Y-62951252D01*
X100856584Y-62836334D01*
X100856207Y-62832023D01*
X100851910Y-62815984D01*
X100800693Y-62624843D01*
X100799575Y-62620670D01*
X100707102Y-62422362D01*
X100690771Y-62399038D01*
X100653118Y-62345265D01*
X100581598Y-62243123D01*
X100426877Y-62088402D01*
X100278491Y-61984501D01*
X100251184Y-61965380D01*
X100251182Y-61965379D01*
X100247639Y-61962898D01*
X100049330Y-61870425D01*
X99962780Y-61847234D01*
X99842154Y-61814912D01*
X99842152Y-61814912D01*
X99837977Y-61813793D01*
X99620000Y-61794723D01*
X99402023Y-61813793D01*
X99397848Y-61814912D01*
X99397846Y-61814912D01*
X99277220Y-61847234D01*
X99190670Y-61870425D01*
X98992362Y-61962898D01*
X98988819Y-61965379D01*
X98988817Y-61965380D01*
X98951375Y-61991597D01*
X98813123Y-62088402D01*
X98658402Y-62243123D01*
X98586882Y-62345265D01*
X98549230Y-62399038D01*
X98532898Y-62422362D01*
X98440425Y-62620670D01*
X98438868Y-62619944D01*
X98405360Y-62662832D01*
X98346545Y-62679697D01*
X98289050Y-62658770D01*
X98260914Y-62620046D01*
X98259575Y-62620670D01*
X98257747Y-62616750D01*
X98167102Y-62422362D01*
X98150771Y-62399038D01*
X98113118Y-62345265D01*
X98041598Y-62243123D01*
X97886877Y-62088402D01*
X97738491Y-61984501D01*
X97711184Y-61965380D01*
X97711182Y-61965379D01*
X97707639Y-61962898D01*
X97509330Y-61870425D01*
X97422780Y-61847234D01*
X97302154Y-61814912D01*
X97302152Y-61814912D01*
X97297977Y-61813793D01*
X97080000Y-61794723D01*
X96862023Y-61813793D01*
X96857848Y-61814912D01*
X96857846Y-61814912D01*
X96737220Y-61847234D01*
X96650670Y-61870425D01*
X96452362Y-61962898D01*
X96448819Y-61965379D01*
X96448817Y-61965380D01*
X96411375Y-61991597D01*
X96273123Y-62088402D01*
X96118402Y-62243123D01*
X96046882Y-62345265D01*
X96009230Y-62399038D01*
X95992898Y-62422362D01*
X95900425Y-62620670D01*
X95898868Y-62619944D01*
X95865360Y-62662832D01*
X95806545Y-62679697D01*
X95749050Y-62658770D01*
X95720914Y-62620046D01*
X95719575Y-62620670D01*
X95717747Y-62616750D01*
X95627102Y-62422362D01*
X95610771Y-62399038D01*
X95573118Y-62345265D01*
X95501598Y-62243123D01*
X95346877Y-62088402D01*
X95198491Y-61984501D01*
X95171184Y-61965380D01*
X95171182Y-61965379D01*
X95167639Y-61962898D01*
X94969330Y-61870425D01*
X94882780Y-61847234D01*
X94762154Y-61814912D01*
X94762152Y-61814912D01*
X94757977Y-61813793D01*
X94540000Y-61794723D01*
X94322023Y-61813793D01*
X94317848Y-61814912D01*
X94317846Y-61814912D01*
X94197220Y-61847234D01*
X94110670Y-61870425D01*
X93912362Y-61962898D01*
X93908819Y-61965379D01*
X93908817Y-61965380D01*
X93871375Y-61991597D01*
X93733123Y-62088402D01*
X93578402Y-62243123D01*
X93506882Y-62345265D01*
X93469230Y-62399038D01*
X93452898Y-62422362D01*
X93360425Y-62620670D01*
X93359307Y-62624843D01*
X93308091Y-62815984D01*
X93303793Y-62832023D01*
X93303416Y-62836334D01*
X93293130Y-62953902D01*
X93269223Y-63010224D01*
X93216777Y-63041737D01*
X93155825Y-63036404D01*
X93109647Y-62996263D01*
X93095922Y-62954333D01*
X93086629Y-62853200D01*
X93084982Y-62844314D01*
X93032570Y-62658473D01*
X93029332Y-62650038D01*
X92943928Y-62476855D01*
X92939209Y-62469154D01*
X92823678Y-62314440D01*
X92817629Y-62307722D01*
X92675837Y-62176650D01*
X92668670Y-62171151D01*
X92505369Y-62068117D01*
X92497315Y-62064013D01*
X92317969Y-61992460D01*
X92309306Y-61989894D01*
X92269379Y-61981952D01*
X92256133Y-61983520D01*
X92256099Y-61983551D01*
X92254000Y-61991597D01*
X92254000Y-63205000D01*
X92235093Y-63263191D01*
X92185593Y-63299155D01*
X92155000Y-63304000D01*
X91845000Y-63304000D01*
X91786809Y-63285093D01*
X91750845Y-63235593D01*
X91746000Y-63205000D01*
X91746000Y-61993124D01*
X91741878Y-61980439D01*
X91741274Y-61980000D01*
X91734127Y-61979484D01*
X91718555Y-61982160D01*
X91709819Y-61984501D01*
X91528668Y-62051331D01*
X91520506Y-62055224D01*
X91354562Y-62153950D01*
X91347260Y-62159255D01*
X91202081Y-62286575D01*
X91195858Y-62293133D01*
X91076322Y-62444763D01*
X91071397Y-62452346D01*
X90981490Y-62623231D01*
X90978032Y-62631579D01*
X90920773Y-62815984D01*
X90918895Y-62824821D01*
X90903575Y-62954260D01*
X90877959Y-63009825D01*
X90824575Y-63039722D01*
X90763814Y-63032530D01*
X90718884Y-62990998D01*
X90706638Y-62951252D01*
X90696584Y-62836334D01*
X90696207Y-62832023D01*
X90691910Y-62815984D01*
X90640693Y-62624843D01*
X90639575Y-62620670D01*
X90547102Y-62422362D01*
X90530771Y-62399038D01*
X90493118Y-62345265D01*
X90421598Y-62243123D01*
X90266877Y-62088402D01*
X90118491Y-61984501D01*
X90091184Y-61965380D01*
X90091182Y-61965379D01*
X90087639Y-61962898D01*
X89889330Y-61870425D01*
X89802780Y-61847234D01*
X89682154Y-61814912D01*
X89682152Y-61814912D01*
X89677977Y-61813793D01*
X89460000Y-61794723D01*
X89242023Y-61813793D01*
X89237848Y-61814912D01*
X89237846Y-61814912D01*
X89117220Y-61847234D01*
X89030670Y-61870425D01*
X88832362Y-61962898D01*
X88828819Y-61965379D01*
X88828817Y-61965380D01*
X88791375Y-61991597D01*
X88653123Y-62088402D01*
X88498402Y-62243123D01*
X88426882Y-62345265D01*
X88389230Y-62399038D01*
X88372898Y-62422362D01*
X88280425Y-62620670D01*
X88278868Y-62619944D01*
X88245360Y-62662832D01*
X88186545Y-62679697D01*
X88129050Y-62658770D01*
X88100914Y-62620046D01*
X88099575Y-62620670D01*
X88097747Y-62616750D01*
X88007102Y-62422362D01*
X87990771Y-62399038D01*
X87953118Y-62345265D01*
X87881598Y-62243123D01*
X87726877Y-62088402D01*
X87578491Y-61984501D01*
X87551184Y-61965380D01*
X87551182Y-61965379D01*
X87547639Y-61962898D01*
X87349330Y-61870425D01*
X87262780Y-61847234D01*
X87142154Y-61814912D01*
X87142152Y-61814912D01*
X87137977Y-61813793D01*
X86920000Y-61794723D01*
X86702023Y-61813793D01*
X86697848Y-61814912D01*
X86697846Y-61814912D01*
X86577220Y-61847234D01*
X86490670Y-61870425D01*
X86292362Y-61962898D01*
X86288819Y-61965379D01*
X86288817Y-61965380D01*
X86251375Y-61991597D01*
X86113123Y-62088402D01*
X85958402Y-62243123D01*
X85886882Y-62345265D01*
X85849230Y-62399038D01*
X85832898Y-62422362D01*
X85740425Y-62620670D01*
X85739307Y-62624843D01*
X85688091Y-62815984D01*
X85683793Y-62832023D01*
X85664723Y-63050000D01*
X84874250Y-63050000D01*
X84840537Y-62968207D01*
X84831510Y-62951786D01*
X84674848Y-62666820D01*
X84673516Y-62664397D01*
X84660222Y-62645551D01*
X84475259Y-62383349D01*
X84475255Y-62383345D01*
X84473670Y-62381097D01*
X84243490Y-62121839D01*
X84241441Y-62119994D01*
X84241437Y-62119990D01*
X84069724Y-61965380D01*
X83985846Y-61889856D01*
X83852966Y-61794723D01*
X83706203Y-61689651D01*
X83706198Y-61689648D01*
X83703948Y-61688037D01*
X83635418Y-61649737D01*
X83403733Y-61520251D01*
X83403724Y-61520247D01*
X83401311Y-61518898D01*
X83081706Y-61384549D01*
X82749117Y-61286663D01*
X82611004Y-61262310D01*
X82556980Y-61233585D01*
X82530158Y-61178592D01*
X82540783Y-61118336D01*
X82584796Y-61075833D01*
X82619567Y-61066191D01*
X82692914Y-61059774D01*
X82767977Y-61053207D01*
X82772152Y-61052088D01*
X82772154Y-61052088D01*
X82904260Y-61016690D01*
X82979330Y-60996575D01*
X83177639Y-60904102D01*
X83356877Y-60778598D01*
X83511598Y-60623877D01*
X83637102Y-60444638D01*
X83729575Y-60246330D01*
X83786207Y-60034977D01*
X83805277Y-59817000D01*
X83786207Y-59599023D01*
X83729575Y-59387670D01*
X83637102Y-59189362D01*
X83598064Y-59133609D01*
X83542951Y-59054900D01*
X83511598Y-59010123D01*
X83356877Y-58855402D01*
X83177639Y-58729898D01*
X82979330Y-58637425D01*
X82865324Y-58606877D01*
X82772154Y-58581912D01*
X82772152Y-58581912D01*
X82767977Y-58580793D01*
X82654382Y-58570855D01*
X82598060Y-58546948D01*
X82566547Y-58494502D01*
X82571880Y-58433550D01*
X82612021Y-58387373D01*
X82648804Y-58374256D01*
X82803399Y-58351841D01*
X82812191Y-58349730D01*
X82995026Y-58287666D01*
X83003288Y-58283988D01*
X83171755Y-58189641D01*
X83179209Y-58184518D01*
X83327650Y-58061061D01*
X83334061Y-58054650D01*
X83457518Y-57906209D01*
X83462641Y-57898755D01*
X83556988Y-57730288D01*
X83560666Y-57722026D01*
X83621744Y-57542094D01*
X83620246Y-57533372D01*
X83619209Y-57532363D01*
X83613365Y-57531000D01*
X81495186Y-57531000D01*
X81483276Y-57534870D01*
X81482958Y-57544591D01*
X81507536Y-57641368D01*
X81510551Y-57649880D01*
X81591386Y-57825225D01*
X81595917Y-57833072D01*
X81707348Y-57990744D01*
X81713222Y-57997622D01*
X81851532Y-58132357D01*
X81858555Y-58138044D01*
X82019099Y-58245317D01*
X82027054Y-58249635D01*
X82204446Y-58325849D01*
X82213058Y-58328647D01*
X82401380Y-58371261D01*
X82410339Y-58372440D01*
X82438258Y-58373537D01*
X82495662Y-58394714D01*
X82529655Y-58445588D01*
X82527253Y-58506726D01*
X82489374Y-58554776D01*
X82443000Y-58571084D01*
X82332023Y-58580793D01*
X82327848Y-58581912D01*
X82327846Y-58581912D01*
X82234676Y-58606877D01*
X82120670Y-58637425D01*
X81922362Y-58729898D01*
X81918819Y-58732379D01*
X81918817Y-58732380D01*
X81873549Y-58764077D01*
X81743123Y-58855402D01*
X81588402Y-59010123D01*
X81557049Y-59054900D01*
X81501937Y-59133609D01*
X81462898Y-59189362D01*
X81370425Y-59387670D01*
X81368868Y-59386944D01*
X81335360Y-59429832D01*
X81276545Y-59446697D01*
X81219050Y-59425770D01*
X81190914Y-59387046D01*
X81189575Y-59387670D01*
X81169946Y-59345575D01*
X81097102Y-59189362D01*
X81058064Y-59133609D01*
X81002951Y-59054900D01*
X80971598Y-59010123D01*
X80816877Y-58855402D01*
X80637639Y-58729898D01*
X80439330Y-58637425D01*
X80325324Y-58606877D01*
X80232154Y-58581912D01*
X80232152Y-58581912D01*
X80227977Y-58580793D01*
X80114382Y-58570855D01*
X80058060Y-58546948D01*
X80026547Y-58494502D01*
X80031880Y-58433550D01*
X80072021Y-58387373D01*
X80108804Y-58374256D01*
X80263399Y-58351841D01*
X80272191Y-58349730D01*
X80455026Y-58287666D01*
X80463288Y-58283988D01*
X80631755Y-58189641D01*
X80639209Y-58184518D01*
X80787650Y-58061061D01*
X80794061Y-58054650D01*
X80917518Y-57906209D01*
X80922641Y-57898755D01*
X81016988Y-57730288D01*
X81020666Y-57722026D01*
X81081744Y-57542094D01*
X81080246Y-57533372D01*
X81079209Y-57532363D01*
X81073365Y-57531000D01*
X79855000Y-57531000D01*
X79796809Y-57512093D01*
X79760845Y-57462593D01*
X79756000Y-57432000D01*
X79756000Y-57157481D01*
X90966500Y-57157481D01*
X90966501Y-58920518D01*
X90981354Y-59014304D01*
X91038950Y-59127342D01*
X91128658Y-59217050D01*
X91135595Y-59220585D01*
X91135597Y-59220586D01*
X91201847Y-59254342D01*
X91241696Y-59274646D01*
X91249390Y-59275865D01*
X91249391Y-59275865D01*
X91331635Y-59288891D01*
X91331637Y-59288891D01*
X91335481Y-59289500D01*
X92216886Y-59289500D01*
X93098518Y-59289499D01*
X93102361Y-59288890D01*
X93102366Y-59288890D01*
X93139217Y-59283053D01*
X93192304Y-59274646D01*
X93261963Y-59239153D01*
X93298403Y-59220586D01*
X93298405Y-59220585D01*
X93305342Y-59217050D01*
X93395050Y-59127342D01*
X93433763Y-59051365D01*
X93449110Y-59021244D01*
X93449110Y-59021243D01*
X93452646Y-59014304D01*
X93457970Y-58980693D01*
X93466891Y-58924365D01*
X93466891Y-58924363D01*
X93467500Y-58920519D01*
X93467500Y-58679153D01*
X93486407Y-58620962D01*
X93535907Y-58584998D01*
X93597093Y-58584998D01*
X93646593Y-58620962D01*
X93656224Y-58637313D01*
X93669898Y-58666638D01*
X93795402Y-58845877D01*
X93950123Y-59000598D01*
X94129361Y-59126102D01*
X94327670Y-59218575D01*
X94404468Y-59239153D01*
X94534846Y-59274088D01*
X94534848Y-59274088D01*
X94539023Y-59275207D01*
X94757000Y-59294277D01*
X94974977Y-59275207D01*
X94979152Y-59274088D01*
X94979154Y-59274088D01*
X95109532Y-59239153D01*
X95186330Y-59218575D01*
X95384639Y-59126102D01*
X95563877Y-59000598D01*
X95718598Y-58845877D01*
X95844102Y-58666638D01*
X95936575Y-58468330D01*
X95938132Y-58469056D01*
X95971640Y-58426168D01*
X96030455Y-58409303D01*
X96087950Y-58430230D01*
X96116086Y-58468954D01*
X96117425Y-58468330D01*
X96209898Y-58666638D01*
X96335402Y-58845877D01*
X96490123Y-59000598D01*
X96669361Y-59126102D01*
X96867670Y-59218575D01*
X96944468Y-59239153D01*
X97074846Y-59274088D01*
X97074848Y-59274088D01*
X97079023Y-59275207D01*
X97297000Y-59294277D01*
X97514977Y-59275207D01*
X97519152Y-59274088D01*
X97519154Y-59274088D01*
X97649532Y-59239153D01*
X97726330Y-59218575D01*
X97924639Y-59126102D01*
X98103877Y-59000598D01*
X98258598Y-58845877D01*
X98384102Y-58666638D01*
X98476575Y-58468330D01*
X98478132Y-58469056D01*
X98511640Y-58426168D01*
X98570455Y-58409303D01*
X98627950Y-58430230D01*
X98656086Y-58468954D01*
X98657425Y-58468330D01*
X98749898Y-58666638D01*
X98875402Y-58845877D01*
X99030123Y-59000598D01*
X99209361Y-59126102D01*
X99407670Y-59218575D01*
X99484468Y-59239153D01*
X99614846Y-59274088D01*
X99614848Y-59274088D01*
X99619023Y-59275207D01*
X99837000Y-59294277D01*
X100054977Y-59275207D01*
X100059152Y-59274088D01*
X100059154Y-59274088D01*
X100189532Y-59239153D01*
X100266330Y-59218575D01*
X100464639Y-59126102D01*
X100643877Y-59000598D01*
X100798598Y-58845877D01*
X100924102Y-58666638D01*
X101016575Y-58468330D01*
X101018132Y-58469056D01*
X101051640Y-58426168D01*
X101110455Y-58409303D01*
X101167950Y-58430230D01*
X101196086Y-58468954D01*
X101197425Y-58468330D01*
X101289898Y-58666638D01*
X101415402Y-58845877D01*
X101570123Y-59000598D01*
X101749361Y-59126102D01*
X101947670Y-59218575D01*
X102024468Y-59239153D01*
X102154846Y-59274088D01*
X102154848Y-59274088D01*
X102159023Y-59275207D01*
X102377000Y-59294277D01*
X102594977Y-59275207D01*
X102599152Y-59274088D01*
X102599154Y-59274088D01*
X102729532Y-59239153D01*
X102806330Y-59218575D01*
X103004639Y-59126102D01*
X103183877Y-59000598D01*
X103338598Y-58845877D01*
X103464102Y-58666638D01*
X103556575Y-58468330D01*
X103558132Y-58469056D01*
X103591640Y-58426168D01*
X103650455Y-58409303D01*
X103707950Y-58430230D01*
X103736086Y-58468954D01*
X103737425Y-58468330D01*
X103829898Y-58666638D01*
X103955402Y-58845877D01*
X104110123Y-59000598D01*
X104289361Y-59126102D01*
X104487670Y-59218575D01*
X104564468Y-59239153D01*
X104694846Y-59274088D01*
X104694848Y-59274088D01*
X104699023Y-59275207D01*
X104917000Y-59294277D01*
X105134977Y-59275207D01*
X105139152Y-59274088D01*
X105139154Y-59274088D01*
X105269532Y-59239153D01*
X105346330Y-59218575D01*
X105544639Y-59126102D01*
X105723877Y-59000598D01*
X105878598Y-58845877D01*
X106004102Y-58666638D01*
X106096575Y-58468330D01*
X106098132Y-58469056D01*
X106131640Y-58426168D01*
X106190455Y-58409303D01*
X106247950Y-58430230D01*
X106276086Y-58468954D01*
X106277425Y-58468330D01*
X106369898Y-58666638D01*
X106495402Y-58845877D01*
X106650123Y-59000598D01*
X106829361Y-59126102D01*
X107027670Y-59218575D01*
X107104468Y-59239153D01*
X107234846Y-59274088D01*
X107234848Y-59274088D01*
X107239023Y-59275207D01*
X107457000Y-59294277D01*
X107674977Y-59275207D01*
X107679152Y-59274088D01*
X107679154Y-59274088D01*
X107809532Y-59239153D01*
X107886330Y-59218575D01*
X108084639Y-59126102D01*
X108263877Y-59000598D01*
X108418598Y-58845877D01*
X108544102Y-58666638D01*
X108636575Y-58468330D01*
X108638132Y-58469056D01*
X108671640Y-58426168D01*
X108730455Y-58409303D01*
X108787950Y-58430230D01*
X108816086Y-58468954D01*
X108817425Y-58468330D01*
X108909898Y-58666638D01*
X109035402Y-58845877D01*
X109190123Y-59000598D01*
X109369361Y-59126102D01*
X109567670Y-59218575D01*
X109644468Y-59239153D01*
X109774846Y-59274088D01*
X109774848Y-59274088D01*
X109779023Y-59275207D01*
X109997000Y-59294277D01*
X110214977Y-59275207D01*
X110219152Y-59274088D01*
X110219154Y-59274088D01*
X110349532Y-59239153D01*
X110426330Y-59218575D01*
X110624639Y-59126102D01*
X110803877Y-59000598D01*
X110958598Y-58845877D01*
X111084102Y-58666638D01*
X111176575Y-58468330D01*
X111224984Y-58287666D01*
X111232088Y-58261154D01*
X111232088Y-58261152D01*
X111233207Y-58256977D01*
X111252277Y-58039000D01*
X111233207Y-57821023D01*
X111228729Y-57804309D01*
X111177693Y-57613843D01*
X111176575Y-57609670D01*
X111084102Y-57411362D01*
X111075341Y-57398849D01*
X111039792Y-57348081D01*
X110995259Y-57284481D01*
X113826500Y-57284481D01*
X113826501Y-59047518D01*
X113827110Y-59051361D01*
X113827110Y-59051366D01*
X113832947Y-59088217D01*
X113841354Y-59141304D01*
X113864035Y-59185817D01*
X113891211Y-59239153D01*
X113898950Y-59254342D01*
X113988658Y-59344050D01*
X113995595Y-59347585D01*
X113995597Y-59347586D01*
X114094756Y-59398110D01*
X114101696Y-59401646D01*
X114109390Y-59402865D01*
X114109391Y-59402865D01*
X114191635Y-59415891D01*
X114191637Y-59415891D01*
X114195481Y-59416500D01*
X115076886Y-59416500D01*
X115958518Y-59416499D01*
X115962361Y-59415890D01*
X115962366Y-59415890D01*
X115999217Y-59410053D01*
X116052304Y-59401646D01*
X116108823Y-59372848D01*
X116158403Y-59347586D01*
X116158405Y-59347585D01*
X116165342Y-59344050D01*
X116255050Y-59254342D01*
X116262790Y-59239153D01*
X116309110Y-59148244D01*
X116309110Y-59148243D01*
X116312646Y-59141304D01*
X116313986Y-59132848D01*
X116326891Y-59051365D01*
X116326891Y-59051363D01*
X116327500Y-59047519D01*
X116327500Y-58806153D01*
X116346407Y-58747962D01*
X116395907Y-58711998D01*
X116457093Y-58711998D01*
X116506593Y-58747962D01*
X116516224Y-58764313D01*
X116529898Y-58793638D01*
X116655402Y-58972877D01*
X116810123Y-59127598D01*
X116989361Y-59253102D01*
X117187670Y-59345575D01*
X117274220Y-59368766D01*
X117394846Y-59401088D01*
X117394848Y-59401088D01*
X117399023Y-59402207D01*
X117617000Y-59421277D01*
X117834977Y-59402207D01*
X117839152Y-59401088D01*
X117839154Y-59401088D01*
X117959780Y-59368766D01*
X118046330Y-59345575D01*
X118244639Y-59253102D01*
X118423877Y-59127598D01*
X118578598Y-58972877D01*
X118704102Y-58793638D01*
X118796575Y-58595330D01*
X118798132Y-58596056D01*
X118831640Y-58553168D01*
X118890455Y-58536303D01*
X118947950Y-58557230D01*
X118976086Y-58595954D01*
X118977425Y-58595330D01*
X119069898Y-58793638D01*
X119195402Y-58972877D01*
X119350123Y-59127598D01*
X119529361Y-59253102D01*
X119727670Y-59345575D01*
X119814220Y-59368766D01*
X119934846Y-59401088D01*
X119934848Y-59401088D01*
X119939023Y-59402207D01*
X120157000Y-59421277D01*
X120374977Y-59402207D01*
X120379152Y-59401088D01*
X120379154Y-59401088D01*
X120499780Y-59368766D01*
X120586330Y-59345575D01*
X120784639Y-59253102D01*
X120963877Y-59127598D01*
X121118598Y-58972877D01*
X121244102Y-58793638D01*
X121336575Y-58595330D01*
X121338132Y-58596056D01*
X121371640Y-58553168D01*
X121430455Y-58536303D01*
X121487950Y-58557230D01*
X121516086Y-58595954D01*
X121517425Y-58595330D01*
X121609898Y-58793638D01*
X121735402Y-58972877D01*
X121890123Y-59127598D01*
X122069361Y-59253102D01*
X122267670Y-59345575D01*
X122354220Y-59368766D01*
X122474846Y-59401088D01*
X122474848Y-59401088D01*
X122479023Y-59402207D01*
X122697000Y-59421277D01*
X122914977Y-59402207D01*
X122919152Y-59401088D01*
X122919154Y-59401088D01*
X123039780Y-59368766D01*
X123126330Y-59345575D01*
X123324639Y-59253102D01*
X123503877Y-59127598D01*
X123658598Y-58972877D01*
X123784102Y-58793638D01*
X123876575Y-58595330D01*
X123878132Y-58596056D01*
X123911640Y-58553168D01*
X123970455Y-58536303D01*
X124027950Y-58557230D01*
X124056086Y-58595954D01*
X124057425Y-58595330D01*
X124149898Y-58793638D01*
X124275402Y-58972877D01*
X124430123Y-59127598D01*
X124609361Y-59253102D01*
X124807670Y-59345575D01*
X124894220Y-59368766D01*
X125014846Y-59401088D01*
X125014848Y-59401088D01*
X125019023Y-59402207D01*
X125237000Y-59421277D01*
X125454977Y-59402207D01*
X125459152Y-59401088D01*
X125459154Y-59401088D01*
X125579780Y-59368766D01*
X125666330Y-59345575D01*
X125864639Y-59253102D01*
X126043877Y-59127598D01*
X126198598Y-58972877D01*
X126324102Y-58793638D01*
X126416575Y-58595330D01*
X126418132Y-58596056D01*
X126451640Y-58553168D01*
X126510455Y-58536303D01*
X126567950Y-58557230D01*
X126596086Y-58595954D01*
X126597425Y-58595330D01*
X126689898Y-58793638D01*
X126815402Y-58972877D01*
X126970123Y-59127598D01*
X127149361Y-59253102D01*
X127347670Y-59345575D01*
X127434220Y-59368766D01*
X127554846Y-59401088D01*
X127554848Y-59401088D01*
X127559023Y-59402207D01*
X127777000Y-59421277D01*
X127994977Y-59402207D01*
X127999152Y-59401088D01*
X127999154Y-59401088D01*
X128119780Y-59368766D01*
X128206330Y-59345575D01*
X128404639Y-59253102D01*
X128583877Y-59127598D01*
X128738598Y-58972877D01*
X128864102Y-58793638D01*
X128956575Y-58595330D01*
X128958132Y-58596056D01*
X128991640Y-58553168D01*
X129050455Y-58536303D01*
X129107950Y-58557230D01*
X129136086Y-58595954D01*
X129137425Y-58595330D01*
X129229898Y-58793638D01*
X129355402Y-58972877D01*
X129510123Y-59127598D01*
X129689361Y-59253102D01*
X129887670Y-59345575D01*
X129974220Y-59368766D01*
X130094846Y-59401088D01*
X130094848Y-59401088D01*
X130099023Y-59402207D01*
X130317000Y-59421277D01*
X130534977Y-59402207D01*
X130539152Y-59401088D01*
X130539154Y-59401088D01*
X130659780Y-59368766D01*
X130746330Y-59345575D01*
X130944639Y-59253102D01*
X131123877Y-59127598D01*
X131278598Y-58972877D01*
X131404102Y-58793638D01*
X131496575Y-58595330D01*
X131498132Y-58596056D01*
X131531640Y-58553168D01*
X131590455Y-58536303D01*
X131647950Y-58557230D01*
X131676086Y-58595954D01*
X131677425Y-58595330D01*
X131769898Y-58793638D01*
X131895402Y-58972877D01*
X132050123Y-59127598D01*
X132229361Y-59253102D01*
X132427670Y-59345575D01*
X132514220Y-59368766D01*
X132634846Y-59401088D01*
X132634848Y-59401088D01*
X132639023Y-59402207D01*
X132857000Y-59421277D01*
X133074977Y-59402207D01*
X133079152Y-59401088D01*
X133079154Y-59401088D01*
X133199780Y-59368766D01*
X133286330Y-59345575D01*
X133484639Y-59253102D01*
X133663877Y-59127598D01*
X133818598Y-58972877D01*
X133944102Y-58793638D01*
X134036575Y-58595330D01*
X134070410Y-58469056D01*
X134092088Y-58388154D01*
X134092088Y-58388152D01*
X134093207Y-58383977D01*
X134112277Y-58166000D01*
X134093207Y-57948023D01*
X134086668Y-57923617D01*
X134053544Y-57800000D01*
X137809723Y-57800000D01*
X137828793Y-58017977D01*
X137829912Y-58022152D01*
X137829912Y-58022154D01*
X137840337Y-58061061D01*
X137885425Y-58229330D01*
X137977898Y-58427638D01*
X137980379Y-58431181D01*
X137980380Y-58431183D01*
X138022208Y-58490919D01*
X138103402Y-58606877D01*
X138258123Y-58761598D01*
X138437361Y-58887102D01*
X138635670Y-58979575D01*
X138673983Y-58989841D01*
X138842846Y-59035088D01*
X138842848Y-59035088D01*
X138847023Y-59036207D01*
X139065000Y-59055277D01*
X139282977Y-59036207D01*
X139287152Y-59035088D01*
X139287154Y-59035088D01*
X139456017Y-58989841D01*
X139494330Y-58979575D01*
X139692639Y-58887102D01*
X139871877Y-58761598D01*
X140026598Y-58606877D01*
X140107792Y-58490919D01*
X140149620Y-58431183D01*
X140149621Y-58431181D01*
X140152102Y-58427638D01*
X140244575Y-58229330D01*
X140289663Y-58061061D01*
X140300088Y-58022154D01*
X140300088Y-58022152D01*
X140301207Y-58017977D01*
X140320277Y-57800000D01*
X140301207Y-57582023D01*
X140288573Y-57534870D01*
X140255478Y-57411362D01*
X140244575Y-57370670D01*
X140152102Y-57172362D01*
X140026598Y-56993123D01*
X139871877Y-56838402D01*
X139703599Y-56720572D01*
X139696184Y-56715380D01*
X139696182Y-56715379D01*
X139692639Y-56712898D01*
X139494330Y-56620425D01*
X139495056Y-56618868D01*
X139452168Y-56585360D01*
X139435303Y-56526545D01*
X139456230Y-56469050D01*
X139494954Y-56440914D01*
X139494330Y-56439575D01*
X139608675Y-56386255D01*
X139692639Y-56347102D01*
X139871877Y-56221598D01*
X140026598Y-56066877D01*
X140152102Y-55887638D01*
X140244575Y-55689330D01*
X140301207Y-55477977D01*
X140320277Y-55260000D01*
X140301207Y-55042023D01*
X140244575Y-54830670D01*
X140152102Y-54632362D01*
X140026598Y-54453123D01*
X139871877Y-54298402D01*
X139756996Y-54217961D01*
X139696184Y-54175380D01*
X139696182Y-54175379D01*
X139692639Y-54172898D01*
X139663313Y-54159223D01*
X139618565Y-54117495D01*
X139606890Y-54057434D01*
X139632748Y-54001981D01*
X139686262Y-53972318D01*
X139705151Y-53970499D01*
X139946518Y-53970499D01*
X139950361Y-53969890D01*
X139950366Y-53969890D01*
X139989916Y-53963626D01*
X140040304Y-53955646D01*
X140096823Y-53926848D01*
X140146403Y-53901586D01*
X140146405Y-53901585D01*
X140153342Y-53898050D01*
X140243050Y-53808342D01*
X140266818Y-53761696D01*
X140297110Y-53702244D01*
X140297110Y-53702243D01*
X140300646Y-53695304D01*
X140307445Y-53652380D01*
X140314891Y-53605365D01*
X140314891Y-53605363D01*
X140315500Y-53601519D01*
X140315499Y-51838482D01*
X140314271Y-51830723D01*
X140309053Y-51797783D01*
X140300646Y-51744696D01*
X140258191Y-51661373D01*
X140246586Y-51638597D01*
X140246585Y-51638595D01*
X140243050Y-51631658D01*
X140153342Y-51541950D01*
X140146405Y-51538415D01*
X140146403Y-51538414D01*
X140047244Y-51487890D01*
X140047243Y-51487890D01*
X140040304Y-51484354D01*
X140032610Y-51483135D01*
X140032609Y-51483135D01*
X139950365Y-51470109D01*
X139950363Y-51470109D01*
X139946519Y-51469500D01*
X139065114Y-51469500D01*
X138183482Y-51469501D01*
X138179639Y-51470110D01*
X138179634Y-51470110D01*
X138142783Y-51475947D01*
X138089696Y-51484354D01*
X138050071Y-51504544D01*
X137983597Y-51538414D01*
X137983595Y-51538415D01*
X137976658Y-51541950D01*
X137886950Y-51631658D01*
X137883415Y-51638595D01*
X137883414Y-51638597D01*
X137855437Y-51693505D01*
X137829354Y-51744696D01*
X137828135Y-51752390D01*
X137828135Y-51752391D01*
X137819166Y-51809019D01*
X137814500Y-51838481D01*
X137814501Y-53601518D01*
X137829354Y-53695304D01*
X137847619Y-53731151D01*
X137863183Y-53761696D01*
X137886950Y-53808342D01*
X137976658Y-53898050D01*
X137983595Y-53901585D01*
X137983597Y-53901586D01*
X138046554Y-53933664D01*
X138089696Y-53955646D01*
X138097390Y-53956865D01*
X138097391Y-53956865D01*
X138179635Y-53969891D01*
X138179637Y-53969891D01*
X138183481Y-53970500D01*
X138424847Y-53970500D01*
X138483038Y-53989407D01*
X138519002Y-54038907D01*
X138519002Y-54100093D01*
X138483038Y-54149593D01*
X138466688Y-54159223D01*
X138437362Y-54172898D01*
X138433819Y-54175379D01*
X138433817Y-54175380D01*
X138405638Y-54195111D01*
X138258123Y-54298402D01*
X138103402Y-54453123D01*
X137977898Y-54632362D01*
X137885425Y-54830670D01*
X137828793Y-55042023D01*
X137809723Y-55260000D01*
X137828793Y-55477977D01*
X137885425Y-55689330D01*
X137977898Y-55887638D01*
X138103402Y-56066877D01*
X138258123Y-56221598D01*
X138437361Y-56347102D01*
X138521325Y-56386255D01*
X138635670Y-56439575D01*
X138634944Y-56441132D01*
X138677832Y-56474640D01*
X138694697Y-56533455D01*
X138673770Y-56590950D01*
X138635046Y-56619086D01*
X138635670Y-56620425D01*
X138437362Y-56712898D01*
X138433819Y-56715379D01*
X138433817Y-56715380D01*
X138426402Y-56720572D01*
X138258123Y-56838402D01*
X138103402Y-56993123D01*
X137977898Y-57172362D01*
X137885425Y-57370670D01*
X137874522Y-57411362D01*
X137841428Y-57534870D01*
X137828793Y-57582023D01*
X137809723Y-57800000D01*
X134053544Y-57800000D01*
X134037693Y-57740843D01*
X134036575Y-57736670D01*
X133944102Y-57538362D01*
X133939902Y-57532363D01*
X133821077Y-57362664D01*
X133818598Y-57359123D01*
X133663877Y-57204402D01*
X133484639Y-57078898D01*
X133286330Y-56986425D01*
X133150644Y-56950068D01*
X133079154Y-56930912D01*
X133079152Y-56930912D01*
X133074977Y-56929793D01*
X132857000Y-56910723D01*
X132639023Y-56929793D01*
X132634848Y-56930912D01*
X132634846Y-56930912D01*
X132563356Y-56950068D01*
X132427670Y-56986425D01*
X132229362Y-57078898D01*
X132050123Y-57204402D01*
X131895402Y-57359123D01*
X131892923Y-57362664D01*
X131774099Y-57532363D01*
X131769898Y-57538362D01*
X131677425Y-57736670D01*
X131675868Y-57735944D01*
X131642360Y-57778832D01*
X131583545Y-57795697D01*
X131526050Y-57774770D01*
X131497914Y-57736046D01*
X131496575Y-57736670D01*
X131489746Y-57722026D01*
X131404102Y-57538362D01*
X131399902Y-57532363D01*
X131281077Y-57362664D01*
X131278598Y-57359123D01*
X131123877Y-57204402D01*
X130944639Y-57078898D01*
X130746330Y-56986425D01*
X130610644Y-56950068D01*
X130539154Y-56930912D01*
X130539152Y-56930912D01*
X130534977Y-56929793D01*
X130317000Y-56910723D01*
X130099023Y-56929793D01*
X130094848Y-56930912D01*
X130094846Y-56930912D01*
X130023356Y-56950068D01*
X129887670Y-56986425D01*
X129689362Y-57078898D01*
X129510123Y-57204402D01*
X129355402Y-57359123D01*
X129352923Y-57362664D01*
X129234099Y-57532363D01*
X129229898Y-57538362D01*
X129137425Y-57736670D01*
X129135868Y-57735944D01*
X129102360Y-57778832D01*
X129043545Y-57795697D01*
X128986050Y-57774770D01*
X128957914Y-57736046D01*
X128956575Y-57736670D01*
X128949746Y-57722026D01*
X128864102Y-57538362D01*
X128859902Y-57532363D01*
X128741077Y-57362664D01*
X128738598Y-57359123D01*
X128583877Y-57204402D01*
X128404639Y-57078898D01*
X128206330Y-56986425D01*
X128070644Y-56950068D01*
X127999154Y-56930912D01*
X127999152Y-56930912D01*
X127994977Y-56929793D01*
X127777000Y-56910723D01*
X127559023Y-56929793D01*
X127554848Y-56930912D01*
X127554846Y-56930912D01*
X127483356Y-56950068D01*
X127347670Y-56986425D01*
X127149362Y-57078898D01*
X126970123Y-57204402D01*
X126815402Y-57359123D01*
X126812923Y-57362664D01*
X126694099Y-57532363D01*
X126689898Y-57538362D01*
X126597425Y-57736670D01*
X126595868Y-57735944D01*
X126562360Y-57778832D01*
X126503545Y-57795697D01*
X126446050Y-57774770D01*
X126417914Y-57736046D01*
X126416575Y-57736670D01*
X126409746Y-57722026D01*
X126324102Y-57538362D01*
X126319902Y-57532363D01*
X126201077Y-57362664D01*
X126198598Y-57359123D01*
X126043877Y-57204402D01*
X125864639Y-57078898D01*
X125666330Y-56986425D01*
X125530644Y-56950068D01*
X125459154Y-56930912D01*
X125459152Y-56930912D01*
X125454977Y-56929793D01*
X125237000Y-56910723D01*
X125019023Y-56929793D01*
X125014848Y-56930912D01*
X125014846Y-56930912D01*
X124943356Y-56950068D01*
X124807670Y-56986425D01*
X124609362Y-57078898D01*
X124430123Y-57204402D01*
X124275402Y-57359123D01*
X124272923Y-57362664D01*
X124154099Y-57532363D01*
X124149898Y-57538362D01*
X124057425Y-57736670D01*
X124055868Y-57735944D01*
X124022360Y-57778832D01*
X123963545Y-57795697D01*
X123906050Y-57774770D01*
X123877914Y-57736046D01*
X123876575Y-57736670D01*
X123869746Y-57722026D01*
X123784102Y-57538362D01*
X123779902Y-57532363D01*
X123661077Y-57362664D01*
X123658598Y-57359123D01*
X123503877Y-57204402D01*
X123324639Y-57078898D01*
X123126330Y-56986425D01*
X122990644Y-56950068D01*
X122919154Y-56930912D01*
X122919152Y-56930912D01*
X122914977Y-56929793D01*
X122697000Y-56910723D01*
X122479023Y-56929793D01*
X122474848Y-56930912D01*
X122474846Y-56930912D01*
X122403356Y-56950068D01*
X122267670Y-56986425D01*
X122069362Y-57078898D01*
X121890123Y-57204402D01*
X121735402Y-57359123D01*
X121732923Y-57362664D01*
X121614099Y-57532363D01*
X121609898Y-57538362D01*
X121517425Y-57736670D01*
X121515868Y-57735944D01*
X121482360Y-57778832D01*
X121423545Y-57795697D01*
X121366050Y-57774770D01*
X121337914Y-57736046D01*
X121336575Y-57736670D01*
X121329746Y-57722026D01*
X121244102Y-57538362D01*
X121239902Y-57532363D01*
X121121077Y-57362664D01*
X121118598Y-57359123D01*
X120963877Y-57204402D01*
X120784639Y-57078898D01*
X120586330Y-56986425D01*
X120450644Y-56950068D01*
X120379154Y-56930912D01*
X120379152Y-56930912D01*
X120374977Y-56929793D01*
X120157000Y-56910723D01*
X119939023Y-56929793D01*
X119934848Y-56930912D01*
X119934846Y-56930912D01*
X119863356Y-56950068D01*
X119727670Y-56986425D01*
X119529362Y-57078898D01*
X119350123Y-57204402D01*
X119195402Y-57359123D01*
X119192923Y-57362664D01*
X119074099Y-57532363D01*
X119069898Y-57538362D01*
X118977425Y-57736670D01*
X118975868Y-57735944D01*
X118942360Y-57778832D01*
X118883545Y-57795697D01*
X118826050Y-57774770D01*
X118797914Y-57736046D01*
X118796575Y-57736670D01*
X118789746Y-57722026D01*
X118704102Y-57538362D01*
X118699902Y-57532363D01*
X118581077Y-57362664D01*
X118578598Y-57359123D01*
X118423877Y-57204402D01*
X118244639Y-57078898D01*
X118046330Y-56986425D01*
X117910644Y-56950068D01*
X117839154Y-56930912D01*
X117839152Y-56930912D01*
X117834977Y-56929793D01*
X117617000Y-56910723D01*
X117399023Y-56929793D01*
X117394848Y-56930912D01*
X117394846Y-56930912D01*
X117323356Y-56950068D01*
X117187670Y-56986425D01*
X116989362Y-57078898D01*
X116810123Y-57204402D01*
X116655402Y-57359123D01*
X116652923Y-57362664D01*
X116534099Y-57532363D01*
X116529898Y-57538362D01*
X116516223Y-57567688D01*
X116474495Y-57612436D01*
X116414434Y-57624111D01*
X116358981Y-57598253D01*
X116329318Y-57544739D01*
X116327499Y-57525849D01*
X116327499Y-57284482D01*
X116312646Y-57190696D01*
X116283848Y-57134177D01*
X116258586Y-57084597D01*
X116258585Y-57084595D01*
X116255050Y-57077658D01*
X116165342Y-56987950D01*
X116158405Y-56984415D01*
X116158403Y-56984414D01*
X116059244Y-56933890D01*
X116059243Y-56933890D01*
X116052304Y-56930354D01*
X116044610Y-56929135D01*
X116044609Y-56929135D01*
X115962365Y-56916109D01*
X115962363Y-56916109D01*
X115958519Y-56915500D01*
X115077114Y-56915500D01*
X114195482Y-56915501D01*
X114191639Y-56916110D01*
X114191634Y-56916110D01*
X114154783Y-56921947D01*
X114101696Y-56930354D01*
X114059414Y-56951898D01*
X113995597Y-56984414D01*
X113995595Y-56984415D01*
X113988658Y-56987950D01*
X113898950Y-57077658D01*
X113895415Y-57084595D01*
X113895414Y-57084597D01*
X113858278Y-57157481D01*
X113841354Y-57190696D01*
X113840135Y-57198390D01*
X113840135Y-57198391D01*
X113834232Y-57235664D01*
X113826500Y-57284481D01*
X110995259Y-57284481D01*
X110958598Y-57232123D01*
X110803877Y-57077402D01*
X110624639Y-56951898D01*
X110426330Y-56859425D01*
X110338620Y-56835923D01*
X110219154Y-56803912D01*
X110219152Y-56803912D01*
X110214977Y-56802793D01*
X109997000Y-56783723D01*
X109779023Y-56802793D01*
X109774848Y-56803912D01*
X109774846Y-56803912D01*
X109655380Y-56835923D01*
X109567670Y-56859425D01*
X109369362Y-56951898D01*
X109190123Y-57077402D01*
X109035402Y-57232123D01*
X108954208Y-57348081D01*
X108918660Y-57398849D01*
X108909898Y-57411362D01*
X108817425Y-57609670D01*
X108815868Y-57608944D01*
X108782360Y-57651832D01*
X108723545Y-57668697D01*
X108666050Y-57647770D01*
X108637914Y-57609046D01*
X108636575Y-57609670D01*
X108591074Y-57512093D01*
X108544102Y-57411362D01*
X108535341Y-57398849D01*
X108499792Y-57348081D01*
X108418598Y-57232123D01*
X108263877Y-57077402D01*
X108084639Y-56951898D01*
X107886330Y-56859425D01*
X107798620Y-56835923D01*
X107679154Y-56803912D01*
X107679152Y-56803912D01*
X107674977Y-56802793D01*
X107457000Y-56783723D01*
X107239023Y-56802793D01*
X107234848Y-56803912D01*
X107234846Y-56803912D01*
X107115380Y-56835923D01*
X107027670Y-56859425D01*
X106829362Y-56951898D01*
X106650123Y-57077402D01*
X106495402Y-57232123D01*
X106414208Y-57348081D01*
X106378660Y-57398849D01*
X106369898Y-57411362D01*
X106277425Y-57609670D01*
X106275868Y-57608944D01*
X106242360Y-57651832D01*
X106183545Y-57668697D01*
X106126050Y-57647770D01*
X106097914Y-57609046D01*
X106096575Y-57609670D01*
X106051074Y-57512093D01*
X106004102Y-57411362D01*
X105995341Y-57398849D01*
X105959792Y-57348081D01*
X105878598Y-57232123D01*
X105723877Y-57077402D01*
X105544639Y-56951898D01*
X105346330Y-56859425D01*
X105258620Y-56835923D01*
X105139154Y-56803912D01*
X105139152Y-56803912D01*
X105134977Y-56802793D01*
X104917000Y-56783723D01*
X104699023Y-56802793D01*
X104694848Y-56803912D01*
X104694846Y-56803912D01*
X104575380Y-56835923D01*
X104487670Y-56859425D01*
X104289362Y-56951898D01*
X104110123Y-57077402D01*
X103955402Y-57232123D01*
X103874208Y-57348081D01*
X103838660Y-57398849D01*
X103829898Y-57411362D01*
X103737425Y-57609670D01*
X103735868Y-57608944D01*
X103702360Y-57651832D01*
X103643545Y-57668697D01*
X103586050Y-57647770D01*
X103557914Y-57609046D01*
X103556575Y-57609670D01*
X103511074Y-57512093D01*
X103464102Y-57411362D01*
X103455341Y-57398849D01*
X103419792Y-57348081D01*
X103338598Y-57232123D01*
X103183877Y-57077402D01*
X103004639Y-56951898D01*
X102806330Y-56859425D01*
X102718620Y-56835923D01*
X102599154Y-56803912D01*
X102599152Y-56803912D01*
X102594977Y-56802793D01*
X102377000Y-56783723D01*
X102159023Y-56802793D01*
X102154848Y-56803912D01*
X102154846Y-56803912D01*
X102035380Y-56835923D01*
X101947670Y-56859425D01*
X101749362Y-56951898D01*
X101570123Y-57077402D01*
X101415402Y-57232123D01*
X101334208Y-57348081D01*
X101298660Y-57398849D01*
X101289898Y-57411362D01*
X101197425Y-57609670D01*
X101195868Y-57608944D01*
X101162360Y-57651832D01*
X101103545Y-57668697D01*
X101046050Y-57647770D01*
X101017914Y-57609046D01*
X101016575Y-57609670D01*
X100971074Y-57512093D01*
X100924102Y-57411362D01*
X100915341Y-57398849D01*
X100879792Y-57348081D01*
X100798598Y-57232123D01*
X100643877Y-57077402D01*
X100464639Y-56951898D01*
X100266330Y-56859425D01*
X100178620Y-56835923D01*
X100059154Y-56803912D01*
X100059152Y-56803912D01*
X100054977Y-56802793D01*
X99837000Y-56783723D01*
X99619023Y-56802793D01*
X99614848Y-56803912D01*
X99614846Y-56803912D01*
X99495380Y-56835923D01*
X99407670Y-56859425D01*
X99209362Y-56951898D01*
X99030123Y-57077402D01*
X98875402Y-57232123D01*
X98794208Y-57348081D01*
X98758660Y-57398849D01*
X98749898Y-57411362D01*
X98657425Y-57609670D01*
X98655868Y-57608944D01*
X98622360Y-57651832D01*
X98563545Y-57668697D01*
X98506050Y-57647770D01*
X98477914Y-57609046D01*
X98476575Y-57609670D01*
X98431074Y-57512093D01*
X98384102Y-57411362D01*
X98375341Y-57398849D01*
X98339792Y-57348081D01*
X98258598Y-57232123D01*
X98103877Y-57077402D01*
X97924639Y-56951898D01*
X97726330Y-56859425D01*
X97638620Y-56835923D01*
X97519154Y-56803912D01*
X97519152Y-56803912D01*
X97514977Y-56802793D01*
X97297000Y-56783723D01*
X97079023Y-56802793D01*
X97074848Y-56803912D01*
X97074846Y-56803912D01*
X96955380Y-56835923D01*
X96867670Y-56859425D01*
X96669362Y-56951898D01*
X96490123Y-57077402D01*
X96335402Y-57232123D01*
X96254208Y-57348081D01*
X96218660Y-57398849D01*
X96209898Y-57411362D01*
X96117425Y-57609670D01*
X96115868Y-57608944D01*
X96082360Y-57651832D01*
X96023545Y-57668697D01*
X95966050Y-57647770D01*
X95937914Y-57609046D01*
X95936575Y-57609670D01*
X95891074Y-57512093D01*
X95844102Y-57411362D01*
X95835341Y-57398849D01*
X95799792Y-57348081D01*
X95718598Y-57232123D01*
X95563877Y-57077402D01*
X95384639Y-56951898D01*
X95186330Y-56859425D01*
X95098620Y-56835923D01*
X94979154Y-56803912D01*
X94979152Y-56803912D01*
X94974977Y-56802793D01*
X94757000Y-56783723D01*
X94539023Y-56802793D01*
X94534848Y-56803912D01*
X94534846Y-56803912D01*
X94415380Y-56835923D01*
X94327670Y-56859425D01*
X94129362Y-56951898D01*
X93950123Y-57077402D01*
X93795402Y-57232123D01*
X93714208Y-57348081D01*
X93678660Y-57398849D01*
X93669898Y-57411362D01*
X93660274Y-57432000D01*
X93656223Y-57440688D01*
X93614495Y-57485436D01*
X93554434Y-57497111D01*
X93498981Y-57471253D01*
X93469318Y-57417739D01*
X93467499Y-57398849D01*
X93467499Y-57157482D01*
X93452646Y-57063696D01*
X93395050Y-56950658D01*
X93305342Y-56860950D01*
X93298405Y-56857415D01*
X93298403Y-56857414D01*
X93199244Y-56806890D01*
X93199243Y-56806890D01*
X93192304Y-56803354D01*
X93184610Y-56802135D01*
X93184609Y-56802135D01*
X93102365Y-56789109D01*
X93102363Y-56789109D01*
X93098519Y-56788500D01*
X92217114Y-56788500D01*
X91335482Y-56788501D01*
X91331639Y-56789110D01*
X91331634Y-56789110D01*
X91294783Y-56794947D01*
X91241696Y-56803354D01*
X91185177Y-56832152D01*
X91135597Y-56857414D01*
X91135595Y-56857415D01*
X91128658Y-56860950D01*
X91038950Y-56950658D01*
X91035415Y-56957595D01*
X91035414Y-56957597D01*
X91002090Y-57023000D01*
X90981354Y-57063696D01*
X90980135Y-57071390D01*
X90980135Y-57071391D01*
X90967109Y-57153634D01*
X90966500Y-57157481D01*
X79756000Y-57157481D01*
X79756000Y-57122000D01*
X79774907Y-57063809D01*
X79824407Y-57027845D01*
X79855000Y-57023000D01*
X81065676Y-57023000D01*
X81077166Y-57019267D01*
X81077370Y-57008866D01*
X81042571Y-56885478D01*
X81039330Y-56877035D01*
X80953928Y-56703855D01*
X80949209Y-56696154D01*
X80833678Y-56541440D01*
X80827629Y-56534722D01*
X80685837Y-56403650D01*
X80678670Y-56398151D01*
X80515369Y-56295117D01*
X80507315Y-56291013D01*
X80327969Y-56219460D01*
X80319306Y-56216894D01*
X80151910Y-56183597D01*
X80098526Y-56153700D01*
X80072910Y-56098135D01*
X80084847Y-56038126D01*
X80129777Y-55996593D01*
X80171222Y-55987499D01*
X80891518Y-55987499D01*
X80895361Y-55986890D01*
X80895366Y-55986890D01*
X80932217Y-55981053D01*
X80985304Y-55972646D01*
X81041823Y-55943848D01*
X81091403Y-55918586D01*
X81091405Y-55918585D01*
X81098342Y-55915050D01*
X81188050Y-55825342D01*
X81245646Y-55712304D01*
X81260500Y-55618519D01*
X81260500Y-55377153D01*
X81279407Y-55318962D01*
X81328907Y-55282998D01*
X81390093Y-55282998D01*
X81439593Y-55318962D01*
X81449224Y-55335313D01*
X81462898Y-55364638D01*
X81588402Y-55543877D01*
X81743123Y-55698598D01*
X81922361Y-55824102D01*
X82120670Y-55916575D01*
X82207220Y-55939766D01*
X82327846Y-55972088D01*
X82327848Y-55972088D01*
X82332023Y-55973207D01*
X82370616Y-55976583D01*
X82437899Y-55982470D01*
X82494221Y-56006377D01*
X82525734Y-56058823D01*
X82520401Y-56119775D01*
X82480260Y-56165953D01*
X82446037Y-56178663D01*
X82268555Y-56209160D01*
X82259819Y-56211501D01*
X82078668Y-56278331D01*
X82070506Y-56282224D01*
X81904562Y-56380950D01*
X81897260Y-56386255D01*
X81752081Y-56513575D01*
X81745858Y-56520133D01*
X81626322Y-56671763D01*
X81621397Y-56679346D01*
X81531490Y-56850231D01*
X81528032Y-56858579D01*
X81481629Y-57008024D01*
X81481781Y-57019650D01*
X81492327Y-57023000D01*
X83605676Y-57023000D01*
X83617166Y-57019267D01*
X83617370Y-57008866D01*
X83582571Y-56885478D01*
X83579330Y-56877035D01*
X83493928Y-56703855D01*
X83489209Y-56696154D01*
X83373678Y-56541440D01*
X83367629Y-56534722D01*
X83225837Y-56403650D01*
X83218670Y-56398151D01*
X83055369Y-56295117D01*
X83047315Y-56291013D01*
X82867969Y-56219460D01*
X82859306Y-56216894D01*
X82669926Y-56179225D01*
X82667285Y-56178947D01*
X82666279Y-56178499D01*
X82665474Y-56178339D01*
X82665510Y-56178157D01*
X82611389Y-56154061D01*
X82580796Y-56101074D01*
X82587190Y-56040224D01*
X82628131Y-55994753D01*
X82669004Y-55981866D01*
X82724668Y-55976996D01*
X82767977Y-55973207D01*
X82772152Y-55972088D01*
X82772154Y-55972088D01*
X82892780Y-55939766D01*
X82979330Y-55916575D01*
X83177639Y-55824102D01*
X83356877Y-55698598D01*
X83511598Y-55543877D01*
X83637102Y-55364638D01*
X83729575Y-55166330D01*
X83786207Y-54954977D01*
X83805277Y-54737000D01*
X83786207Y-54519023D01*
X83729575Y-54307670D01*
X83637102Y-54109362D01*
X83628341Y-54096849D01*
X83553109Y-53989407D01*
X83511598Y-53930123D01*
X83356877Y-53775402D01*
X83177639Y-53649898D01*
X82979330Y-53557425D01*
X82836856Y-53519249D01*
X82772154Y-53501912D01*
X82772152Y-53501912D01*
X82767977Y-53500793D01*
X82550000Y-53481723D01*
X82332023Y-53500793D01*
X82327848Y-53501912D01*
X82327846Y-53501912D01*
X82263144Y-53519249D01*
X82120670Y-53557425D01*
X81922362Y-53649898D01*
X81743123Y-53775402D01*
X81588402Y-53930123D01*
X81546891Y-53989407D01*
X81471660Y-54096849D01*
X81462898Y-54109362D01*
X81459106Y-54117495D01*
X81449223Y-54138688D01*
X81407495Y-54183436D01*
X81347434Y-54195111D01*
X81291981Y-54169253D01*
X81262318Y-54115739D01*
X81260499Y-54096849D01*
X81260499Y-53855482D01*
X81245646Y-53761696D01*
X81215353Y-53702243D01*
X81191586Y-53655597D01*
X81191585Y-53655595D01*
X81188050Y-53648658D01*
X81098342Y-53558950D01*
X81091405Y-53555415D01*
X81091403Y-53555414D01*
X80992244Y-53504890D01*
X80992243Y-53504890D01*
X80985304Y-53501354D01*
X80977610Y-53500135D01*
X80977609Y-53500135D01*
X80895365Y-53487109D01*
X80895363Y-53487109D01*
X80891519Y-53486500D01*
X80010114Y-53486500D01*
X79128482Y-53486501D01*
X79124639Y-53487110D01*
X79124634Y-53487110D01*
X79087783Y-53492947D01*
X79034696Y-53501354D01*
X79028722Y-53504398D01*
X78968085Y-53504397D01*
X78918586Y-53468432D01*
X78899680Y-53410243D01*
X78899680Y-50546000D01*
X107964723Y-50546000D01*
X107983793Y-50763977D01*
X108040425Y-50975330D01*
X108132898Y-51173638D01*
X108258402Y-51352877D01*
X108413123Y-51507598D01*
X108592361Y-51633102D01*
X108597761Y-51635620D01*
X108621687Y-51646777D01*
X108666435Y-51688505D01*
X108678110Y-51748566D01*
X108652252Y-51804019D01*
X108598738Y-51833682D01*
X108579849Y-51835501D01*
X108338482Y-51835501D01*
X108334639Y-51836110D01*
X108334634Y-51836110D01*
X108303065Y-51841110D01*
X108244696Y-51850354D01*
X108203470Y-51871360D01*
X108138597Y-51904414D01*
X108138595Y-51904415D01*
X108131658Y-51907950D01*
X108041950Y-51997658D01*
X108038415Y-52004595D01*
X108038414Y-52004597D01*
X107987890Y-52103756D01*
X107984354Y-52110696D01*
X107983135Y-52118390D01*
X107983135Y-52118391D01*
X107970109Y-52200634D01*
X107969500Y-52204481D01*
X107969501Y-53967518D01*
X107970110Y-53971361D01*
X107970110Y-53971366D01*
X107974959Y-54001981D01*
X107984354Y-54061304D01*
X107990438Y-54073244D01*
X108029340Y-54149593D01*
X108041950Y-54174342D01*
X108131658Y-54264050D01*
X108138595Y-54267585D01*
X108138597Y-54267586D01*
X108237756Y-54318110D01*
X108244696Y-54321646D01*
X108252390Y-54322865D01*
X108252391Y-54322865D01*
X108334635Y-54335891D01*
X108334637Y-54335891D01*
X108338481Y-54336500D01*
X109219886Y-54336500D01*
X110101518Y-54336499D01*
X110105361Y-54335890D01*
X110105366Y-54335890D01*
X110156035Y-54327865D01*
X110195304Y-54321646D01*
X110251823Y-54292848D01*
X110301403Y-54267586D01*
X110301405Y-54267585D01*
X110308342Y-54264050D01*
X110398050Y-54174342D01*
X110410661Y-54149593D01*
X110452110Y-54068244D01*
X110452110Y-54068243D01*
X110455646Y-54061304D01*
X110459194Y-54038907D01*
X110469891Y-53971365D01*
X110469891Y-53971363D01*
X110470500Y-53967519D01*
X110470500Y-53726153D01*
X110489407Y-53667962D01*
X110538907Y-53631998D01*
X110600093Y-53631998D01*
X110649593Y-53667962D01*
X110659224Y-53684313D01*
X110672898Y-53713638D01*
X110798402Y-53892877D01*
X110953123Y-54047598D01*
X111132361Y-54173102D01*
X111330670Y-54265575D01*
X111417220Y-54288766D01*
X111537846Y-54321088D01*
X111537848Y-54321088D01*
X111542023Y-54322207D01*
X111760000Y-54341277D01*
X111977977Y-54322207D01*
X111982152Y-54321088D01*
X111982154Y-54321088D01*
X112102780Y-54288766D01*
X112189330Y-54265575D01*
X112387639Y-54173102D01*
X112566877Y-54047598D01*
X112721598Y-53892877D01*
X112847102Y-53713638D01*
X112939575Y-53515330D01*
X112939795Y-53515433D01*
X112976236Y-53468797D01*
X113035052Y-53451937D01*
X113092546Y-53472868D01*
X113124488Y-53516831D01*
X113125425Y-53520330D01*
X113217898Y-53718638D01*
X113220379Y-53722181D01*
X113220380Y-53722183D01*
X113243189Y-53754757D01*
X113343402Y-53897877D01*
X113498123Y-54052598D01*
X113579190Y-54109362D01*
X113673474Y-54175380D01*
X113677361Y-54178102D01*
X113875670Y-54270575D01*
X113962220Y-54293766D01*
X114082846Y-54326088D01*
X114082848Y-54326088D01*
X114087023Y-54327207D01*
X114305000Y-54346277D01*
X114522977Y-54327207D01*
X114527152Y-54326088D01*
X114527154Y-54326088D01*
X114647780Y-54293766D01*
X114734330Y-54270575D01*
X114932639Y-54178102D01*
X114936527Y-54175380D01*
X115030810Y-54109362D01*
X115111877Y-54052598D01*
X115266598Y-53897877D01*
X115366811Y-53754757D01*
X115389620Y-53722183D01*
X115389621Y-53722181D01*
X115392102Y-53718638D01*
X115405777Y-53689312D01*
X115447505Y-53644564D01*
X115507566Y-53632889D01*
X115563019Y-53658747D01*
X115592682Y-53712261D01*
X115594501Y-53731150D01*
X115594501Y-53972518D01*
X115595110Y-53976361D01*
X115595110Y-53976366D01*
X115599167Y-54001981D01*
X115609354Y-54066304D01*
X115629487Y-54105817D01*
X115660867Y-54167403D01*
X115666950Y-54179342D01*
X115756658Y-54269050D01*
X115763595Y-54272585D01*
X115763597Y-54272586D01*
X115852943Y-54318110D01*
X115869696Y-54326646D01*
X115877390Y-54327865D01*
X115877391Y-54327865D01*
X115959635Y-54340891D01*
X115959637Y-54340891D01*
X115963481Y-54341500D01*
X116844886Y-54341500D01*
X117726518Y-54341499D01*
X117730361Y-54340890D01*
X117730366Y-54340890D01*
X117767217Y-54335053D01*
X117820304Y-54326646D01*
X117880601Y-54295923D01*
X117926403Y-54272586D01*
X117926405Y-54272585D01*
X117933342Y-54269050D01*
X118023050Y-54179342D01*
X118029134Y-54167403D01*
X118077110Y-54073244D01*
X118077110Y-54073243D01*
X118080646Y-54066304D01*
X118084093Y-54044544D01*
X118094891Y-53976365D01*
X118094891Y-53976363D01*
X118095500Y-53972519D01*
X118095499Y-52209482D01*
X118094708Y-52204482D01*
X118083300Y-52132456D01*
X118080646Y-52115696D01*
X118023050Y-52002658D01*
X117933342Y-51912950D01*
X117926405Y-51909415D01*
X117926403Y-51909414D01*
X117827244Y-51858890D01*
X117827243Y-51858890D01*
X117820304Y-51855354D01*
X117812610Y-51854135D01*
X117812609Y-51854135D01*
X117730365Y-51841109D01*
X117730363Y-51841109D01*
X117726519Y-51840500D01*
X117485154Y-51840500D01*
X117426963Y-51821593D01*
X117390999Y-51772093D01*
X117390999Y-51710907D01*
X117406915Y-51689000D01*
X126365000Y-51689000D01*
X133223000Y-51689000D01*
X133223000Y-48768000D01*
X126365000Y-48768000D01*
X126365000Y-51689000D01*
X117406915Y-51689000D01*
X117426963Y-51661407D01*
X117443315Y-51651776D01*
X117450864Y-51648256D01*
X117472639Y-51638102D01*
X117477167Y-51634932D01*
X117536996Y-51593039D01*
X117651877Y-51512598D01*
X117806598Y-51357877D01*
X117932102Y-51178638D01*
X118024575Y-50980330D01*
X118081207Y-50768977D01*
X118100277Y-50551000D01*
X118081207Y-50333023D01*
X118078613Y-50323340D01*
X118047766Y-50208220D01*
X118024575Y-50121670D01*
X117932102Y-49923362D01*
X117806598Y-49744123D01*
X117651877Y-49589402D01*
X117503491Y-49485501D01*
X117476184Y-49466380D01*
X117476182Y-49466379D01*
X117472639Y-49463898D01*
X117274330Y-49371425D01*
X117187780Y-49348234D01*
X117067154Y-49315912D01*
X117067152Y-49315912D01*
X117062977Y-49314793D01*
X116845000Y-49295723D01*
X116627023Y-49314793D01*
X116622848Y-49315912D01*
X116622846Y-49315912D01*
X116502220Y-49348234D01*
X116415670Y-49371425D01*
X116217362Y-49463898D01*
X116213819Y-49466379D01*
X116213817Y-49466380D01*
X116176375Y-49492597D01*
X116038123Y-49589402D01*
X115883402Y-49744123D01*
X115757898Y-49923362D01*
X115665425Y-50121670D01*
X115642234Y-50208220D01*
X115611388Y-50323340D01*
X115608793Y-50333023D01*
X115608416Y-50337334D01*
X115598130Y-50454902D01*
X115574223Y-50511224D01*
X115521777Y-50542737D01*
X115460825Y-50537404D01*
X115414647Y-50497263D01*
X115400922Y-50455333D01*
X115391629Y-50354200D01*
X115389982Y-50345314D01*
X115337570Y-50159473D01*
X115334332Y-50151038D01*
X115248928Y-49977855D01*
X115244209Y-49970154D01*
X115128678Y-49815440D01*
X115122629Y-49808722D01*
X114980837Y-49677650D01*
X114973670Y-49672151D01*
X114810369Y-49569117D01*
X114802315Y-49565013D01*
X114622969Y-49493460D01*
X114614306Y-49490894D01*
X114574379Y-49482952D01*
X114561133Y-49484520D01*
X114561099Y-49484551D01*
X114559000Y-49492597D01*
X114559000Y-50706000D01*
X114540093Y-50764191D01*
X114490593Y-50800155D01*
X114460000Y-50805000D01*
X113250186Y-50805000D01*
X113238276Y-50808870D01*
X113237958Y-50818591D01*
X113262536Y-50915368D01*
X113265551Y-50923880D01*
X113346386Y-51099225D01*
X113350917Y-51107072D01*
X113462348Y-51264744D01*
X113468222Y-51271622D01*
X113606532Y-51406357D01*
X113613555Y-51412044D01*
X113774099Y-51519317D01*
X113782054Y-51523635D01*
X113959446Y-51599849D01*
X113968058Y-51602647D01*
X114156380Y-51645261D01*
X114165339Y-51646440D01*
X114193258Y-51647537D01*
X114250662Y-51668714D01*
X114284655Y-51719588D01*
X114282253Y-51780726D01*
X114244374Y-51828776D01*
X114198000Y-51845084D01*
X114087023Y-51854793D01*
X114082848Y-51855912D01*
X114082846Y-51855912D01*
X114025194Y-51871360D01*
X113875670Y-51911425D01*
X113677362Y-52003898D01*
X113498123Y-52129402D01*
X113343402Y-52284123D01*
X113217898Y-52463362D01*
X113125425Y-52661670D01*
X113125205Y-52661567D01*
X113088764Y-52708203D01*
X113029948Y-52725063D01*
X112972454Y-52704132D01*
X112940512Y-52660169D01*
X112939575Y-52656670D01*
X112847102Y-52458362D01*
X112838341Y-52445849D01*
X112724077Y-52282664D01*
X112721598Y-52279123D01*
X112566877Y-52124402D01*
X112402919Y-52009597D01*
X112391184Y-52001380D01*
X112391182Y-52001379D01*
X112387639Y-51998898D01*
X112189330Y-51906425D01*
X112190056Y-51904868D01*
X112147168Y-51871360D01*
X112130303Y-51812545D01*
X112151230Y-51755050D01*
X112189954Y-51726914D01*
X112189330Y-51725575D01*
X112276605Y-51684878D01*
X112387639Y-51633102D01*
X112566877Y-51507598D01*
X112721598Y-51352877D01*
X112847102Y-51173638D01*
X112939575Y-50975330D01*
X112996207Y-50763977D01*
X113015277Y-50546000D01*
X112996207Y-50328023D01*
X112992975Y-50315959D01*
X112983882Y-50282024D01*
X113236629Y-50282024D01*
X113236781Y-50293650D01*
X113247327Y-50297000D01*
X114035320Y-50297000D01*
X114048005Y-50292878D01*
X114051000Y-50288757D01*
X114051000Y-49494124D01*
X114046878Y-49481439D01*
X114046274Y-49481000D01*
X114039127Y-49480484D01*
X114023555Y-49483160D01*
X114014819Y-49485501D01*
X113833668Y-49552331D01*
X113825506Y-49556224D01*
X113659562Y-49654950D01*
X113652260Y-49660255D01*
X113507081Y-49787575D01*
X113500858Y-49794133D01*
X113381322Y-49945763D01*
X113376397Y-49953346D01*
X113286490Y-50124231D01*
X113283032Y-50132579D01*
X113236629Y-50282024D01*
X112983882Y-50282024D01*
X112940693Y-50120843D01*
X112939575Y-50116670D01*
X112847102Y-49918362D01*
X112721598Y-49739123D01*
X112566877Y-49584402D01*
X112418467Y-49480484D01*
X112391184Y-49461380D01*
X112391182Y-49461379D01*
X112387639Y-49458898D01*
X112189330Y-49366425D01*
X112102780Y-49343234D01*
X111982154Y-49310912D01*
X111982152Y-49310912D01*
X111977977Y-49309793D01*
X111760000Y-49290723D01*
X111542023Y-49309793D01*
X111537848Y-49310912D01*
X111537846Y-49310912D01*
X111417220Y-49343234D01*
X111330670Y-49366425D01*
X111132362Y-49458898D01*
X111128819Y-49461379D01*
X111128817Y-49461380D01*
X111094369Y-49485501D01*
X110953123Y-49584402D01*
X110798402Y-49739123D01*
X110672898Y-49918362D01*
X110580425Y-50116670D01*
X110578868Y-50115944D01*
X110545360Y-50158832D01*
X110486545Y-50175697D01*
X110429050Y-50154770D01*
X110400914Y-50116046D01*
X110399575Y-50116670D01*
X110348175Y-50006443D01*
X110307102Y-49918362D01*
X110181598Y-49739123D01*
X110026877Y-49584402D01*
X109878467Y-49480484D01*
X109851184Y-49461380D01*
X109851182Y-49461379D01*
X109847639Y-49458898D01*
X109649330Y-49366425D01*
X109562780Y-49343234D01*
X109442154Y-49310912D01*
X109442152Y-49310912D01*
X109437977Y-49309793D01*
X109220000Y-49290723D01*
X109002023Y-49309793D01*
X108997848Y-49310912D01*
X108997846Y-49310912D01*
X108877220Y-49343234D01*
X108790670Y-49366425D01*
X108592362Y-49458898D01*
X108588819Y-49461379D01*
X108588817Y-49461380D01*
X108554369Y-49485501D01*
X108413123Y-49584402D01*
X108258402Y-49739123D01*
X108132898Y-49918362D01*
X108040425Y-50116670D01*
X108039307Y-50120843D01*
X107987026Y-50315959D01*
X107983793Y-50328023D01*
X107964723Y-50546000D01*
X78899680Y-50546000D01*
X78899680Y-50331270D01*
X78900899Y-50315783D01*
X78903447Y-50299695D01*
X78904666Y-50291999D01*
X78902642Y-50279220D01*
X78901579Y-50258182D01*
X78915716Y-50006443D01*
X78916959Y-49995410D01*
X78921251Y-49970154D01*
X78963936Y-49718929D01*
X78966406Y-49708107D01*
X79028053Y-49494124D01*
X79044047Y-49438610D01*
X79047712Y-49428137D01*
X79155034Y-49169037D01*
X79159851Y-49159034D01*
X79295511Y-48913577D01*
X79301407Y-48904192D01*
X79463709Y-48675449D01*
X79470622Y-48666781D01*
X79657505Y-48457660D01*
X79665341Y-48449824D01*
X79874462Y-48262941D01*
X79883130Y-48256028D01*
X80111873Y-48093726D01*
X80121258Y-48087830D01*
X80366721Y-47952167D01*
X80376718Y-47947353D01*
X80635818Y-47840031D01*
X80646291Y-47836366D01*
X80904979Y-47761839D01*
X80915788Y-47758725D01*
X80926611Y-47756255D01*
X81203099Y-47709277D01*
X81214119Y-47708036D01*
X81432599Y-47695766D01*
X81465863Y-47693898D01*
X81486901Y-47694961D01*
X81499680Y-47696985D01*
X81523465Y-47693218D01*
X81538951Y-47691999D01*
X140460409Y-47691999D01*
X140475895Y-47693218D01*
G37*
G04 #@! TD.AperFunction*
M02*
