G04 #@! TF.GenerationSoftware,KiCad,Pcbnew,(6.0.1)*
G04 #@! TF.CreationDate,2022-12-09T13:40:03+00:00*
G04 #@! TF.ProjectId,retropie-minicade-hat,72657472-6f70-4696-952d-6d696e696361,rev?*
G04 #@! TF.SameCoordinates,Original*
G04 #@! TF.FileFunction,Legend,Bot*
G04 #@! TF.FilePolarity,Positive*
%FSLAX46Y46*%
G04 Gerber Fmt 4.6, Leading zero omitted, Abs format (unit mm)*
G04 Created by KiCad (PCBNEW (6.0.1)) date 2022-12-09 13:40:03*
%MOMM*%
%LPD*%
G01*
G04 APERTURE LIST*
G04 #@! TA.AperFunction,Profile*
%ADD10C,0.100000*%
G04 #@! TD*
G04 #@! TA.AperFunction,Profile*
%ADD11C,0.150000*%
G04 #@! TD*
%ADD12C,0.120000*%
%ADD13C,0.150000*%
G04 APERTURE END LIST*
D10*
X143510000Y-65024000D02*
X143499680Y-50291999D01*
X78499680Y-50291999D02*
X78499680Y-77013320D01*
D11*
X99314000Y-77018556D02*
X99314000Y-71013528D01*
D10*
X96314005Y-80013321D02*
G75*
G03*
X99314000Y-77018556I-2J3000002D01*
G01*
X140499680Y-47291999D02*
X81499680Y-47291999D01*
X81499680Y-80013320D02*
X96314005Y-80013320D01*
X102313995Y-68018763D02*
G75*
G03*
X99314000Y-71013528I2J-3000002D01*
G01*
D11*
X140510005Y-68018764D02*
X102313995Y-68018764D01*
D10*
X143499680Y-50291999D02*
G75*
G03*
X140499680Y-47291999I-3000001J-1D01*
G01*
X81499680Y-47291999D02*
G75*
G03*
X78499680Y-50291999I1J-3000001D01*
G01*
X140510005Y-68018765D02*
G75*
G03*
X143510000Y-65024000I-2J3000002D01*
G01*
X78499680Y-77013320D02*
G75*
G03*
X81499680Y-80013320I3000001J1D01*
G01*
D12*
X134703357Y-54673642D02*
X134590857Y-53773642D01*
X134644428Y-54202214D02*
X134130142Y-54202214D01*
X134189071Y-54673642D02*
X134076571Y-53773642D01*
X133631928Y-54673642D02*
X133712285Y-54630785D01*
X133749785Y-54587928D01*
X133781928Y-54502214D01*
X133749785Y-54245071D01*
X133696214Y-54159357D01*
X133648000Y-54116500D01*
X133556928Y-54073642D01*
X133428357Y-54073642D01*
X133348000Y-54116500D01*
X133310500Y-54159357D01*
X133278357Y-54245071D01*
X133310500Y-54502214D01*
X133364071Y-54587928D01*
X133412285Y-54630785D01*
X133503357Y-54673642D01*
X133631928Y-54673642D01*
X132999785Y-54073642D02*
X132656928Y-54073642D01*
X132833714Y-53773642D02*
X132930142Y-54545071D01*
X132898000Y-54630785D01*
X132817642Y-54673642D01*
X132731928Y-54673642D01*
X132431928Y-54673642D02*
X132319428Y-53773642D01*
X132362285Y-54116500D02*
X132271214Y-54073642D01*
X132099785Y-54073642D01*
X132019428Y-54116500D01*
X131981928Y-54159357D01*
X131949785Y-54245071D01*
X131981928Y-54502214D01*
X132035500Y-54587928D01*
X132083714Y-54630785D01*
X132174785Y-54673642D01*
X132346214Y-54673642D01*
X132426571Y-54630785D01*
X131489071Y-54673642D02*
X131569428Y-54630785D01*
X131601571Y-54545071D01*
X131505142Y-53773642D01*
X130760500Y-54673642D02*
X130701571Y-54202214D01*
X130733714Y-54116500D01*
X130814071Y-54073642D01*
X130985500Y-54073642D01*
X131076571Y-54116500D01*
X130755142Y-54630785D02*
X130846214Y-54673642D01*
X131060500Y-54673642D01*
X131140857Y-54630785D01*
X131173000Y-54545071D01*
X131162285Y-54459357D01*
X131108714Y-54373642D01*
X131017642Y-54330785D01*
X130803357Y-54330785D01*
X130712285Y-54287928D01*
X129940857Y-54630785D02*
X130031928Y-54673642D01*
X130203357Y-54673642D01*
X130283714Y-54630785D01*
X130321214Y-54587928D01*
X130353357Y-54502214D01*
X130321214Y-54245071D01*
X130267642Y-54159357D01*
X130219428Y-54116500D01*
X130128357Y-54073642D01*
X129956928Y-54073642D01*
X129876571Y-54116500D01*
X129560500Y-54673642D02*
X129448000Y-53773642D01*
X129431928Y-54330785D02*
X129217642Y-54673642D01*
X129142642Y-54073642D02*
X129528357Y-54416500D01*
X128146214Y-54673642D02*
X128033714Y-53773642D01*
X127819428Y-53773642D01*
X127696214Y-53816500D01*
X127621214Y-53902214D01*
X127589071Y-53987928D01*
X127567642Y-54159357D01*
X127583714Y-54287928D01*
X127648000Y-54459357D01*
X127701571Y-54545071D01*
X127798000Y-54630785D01*
X127931928Y-54673642D01*
X128146214Y-54673642D01*
X126898000Y-54630785D02*
X126989071Y-54673642D01*
X127160500Y-54673642D01*
X127240857Y-54630785D01*
X127273000Y-54545071D01*
X127230142Y-54202214D01*
X127176571Y-54116500D01*
X127085500Y-54073642D01*
X126914071Y-54073642D01*
X126833714Y-54116500D01*
X126801571Y-54202214D01*
X126812285Y-54287928D01*
X127251571Y-54373642D01*
X126512285Y-54630785D02*
X126431928Y-54673642D01*
X126260500Y-54673642D01*
X126169428Y-54630785D01*
X126115857Y-54545071D01*
X126110500Y-54502214D01*
X126142642Y-54416500D01*
X126223000Y-54373642D01*
X126351571Y-54373642D01*
X126431928Y-54330785D01*
X126464071Y-54245071D01*
X126458714Y-54202214D01*
X126405142Y-54116500D01*
X126314071Y-54073642D01*
X126185500Y-54073642D01*
X126105142Y-54116500D01*
X125746214Y-54673642D02*
X125671214Y-54073642D01*
X125633714Y-53773642D02*
X125681928Y-53816500D01*
X125644428Y-53859357D01*
X125596214Y-53816500D01*
X125633714Y-53773642D01*
X125644428Y-53859357D01*
X124931928Y-54673642D02*
X124873000Y-54202214D01*
X124905142Y-54116500D01*
X124985500Y-54073642D01*
X125156928Y-54073642D01*
X125248000Y-54116500D01*
X124926571Y-54630785D02*
X125017642Y-54673642D01*
X125231928Y-54673642D01*
X125312285Y-54630785D01*
X125344428Y-54545071D01*
X125333714Y-54459357D01*
X125280142Y-54373642D01*
X125189071Y-54330785D01*
X124974785Y-54330785D01*
X124883714Y-54287928D01*
X124556928Y-54073642D02*
X124214071Y-54073642D01*
X124390857Y-53773642D02*
X124487285Y-54545071D01*
X124455142Y-54630785D01*
X124374785Y-54673642D01*
X124289071Y-54673642D01*
X123860500Y-54673642D02*
X123940857Y-54630785D01*
X123978357Y-54587928D01*
X124010500Y-54502214D01*
X123978357Y-54245071D01*
X123924785Y-54159357D01*
X123876571Y-54116500D01*
X123785500Y-54073642D01*
X123656928Y-54073642D01*
X123576571Y-54116500D01*
X123539071Y-54159357D01*
X123506928Y-54245071D01*
X123539071Y-54502214D01*
X123592642Y-54587928D01*
X123640857Y-54630785D01*
X123731928Y-54673642D01*
X123860500Y-54673642D01*
X123164071Y-54587928D02*
X123126571Y-54630785D01*
X123174785Y-54673642D01*
X123212285Y-54630785D01*
X123164071Y-54587928D01*
X123174785Y-54673642D01*
X123105142Y-54116500D02*
X123067642Y-54159357D01*
X123115857Y-54202214D01*
X123153357Y-54159357D01*
X123105142Y-54116500D01*
X123115857Y-54202214D01*
X121990857Y-53773642D02*
X122012285Y-53945071D01*
X121648000Y-53773642D02*
X121669428Y-53945071D01*
X121364071Y-54587928D02*
X121326571Y-54630785D01*
X121374785Y-54673642D01*
X121412285Y-54630785D01*
X121364071Y-54587928D01*
X121374785Y-54673642D01*
X120935500Y-54587928D02*
X120898000Y-54630785D01*
X120946214Y-54673642D01*
X120983714Y-54630785D01*
X120935500Y-54587928D01*
X120946214Y-54673642D01*
X120506928Y-54587928D02*
X120469428Y-54630785D01*
X120517642Y-54673642D01*
X120555142Y-54630785D01*
X120506928Y-54587928D01*
X120517642Y-54673642D01*
X120019428Y-53773642D02*
X120040857Y-53945071D01*
X119676571Y-53773642D02*
X119698000Y-53945071D01*
X134703357Y-56122642D02*
X134590857Y-55222642D01*
X134371214Y-55865500D01*
X133990857Y-55222642D01*
X134103357Y-56122642D01*
X133674785Y-56122642D02*
X133599785Y-55522642D01*
X133562285Y-55222642D02*
X133610500Y-55265500D01*
X133573000Y-55308357D01*
X133524785Y-55265500D01*
X133562285Y-55222642D01*
X133573000Y-55308357D01*
X133171214Y-55522642D02*
X133246214Y-56122642D01*
X133181928Y-55608357D02*
X133133714Y-55565500D01*
X133042642Y-55522642D01*
X132914071Y-55522642D01*
X132833714Y-55565500D01*
X132801571Y-55651214D01*
X132860500Y-56122642D01*
X132046214Y-56122642D02*
X131933714Y-55222642D01*
X132040857Y-56079785D02*
X132131928Y-56122642D01*
X132303357Y-56122642D01*
X132383714Y-56079785D01*
X132421214Y-56036928D01*
X132453357Y-55951214D01*
X132421214Y-55694071D01*
X132367642Y-55608357D01*
X132319428Y-55565500D01*
X132228357Y-55522642D01*
X132056928Y-55522642D01*
X131976571Y-55565500D01*
X131269428Y-56079785D02*
X131360500Y-56122642D01*
X131531928Y-56122642D01*
X131612285Y-56079785D01*
X131644428Y-55994071D01*
X131601571Y-55651214D01*
X131548000Y-55565500D01*
X131456928Y-55522642D01*
X131285500Y-55522642D01*
X131205142Y-55565500D01*
X131173000Y-55651214D01*
X131183714Y-55736928D01*
X131623000Y-55822642D01*
X130846214Y-56122642D02*
X130771214Y-55522642D01*
X130792642Y-55694071D02*
X130739071Y-55608357D01*
X130690857Y-55565500D01*
X130599785Y-55522642D01*
X130514071Y-55522642D01*
X130278357Y-56036928D02*
X130240857Y-56079785D01*
X130289071Y-56122642D01*
X130326571Y-56079785D01*
X130278357Y-56036928D01*
X130289071Y-56122642D01*
X130219428Y-55565500D02*
X130181928Y-55608357D01*
X130230142Y-55651214D01*
X130267642Y-55608357D01*
X130219428Y-55565500D01*
X130230142Y-55651214D01*
X129105142Y-55222642D02*
X129126571Y-55394071D01*
X128762285Y-55222642D02*
X128783714Y-55394071D01*
X128489071Y-56122642D02*
X128376571Y-55222642D01*
X128430142Y-55651214D02*
X127915857Y-55651214D01*
X127974785Y-56122642D02*
X127862285Y-55222642D01*
X127197999Y-56079785D02*
X127289071Y-56122642D01*
X127460499Y-56122642D01*
X127540857Y-56079785D01*
X127572999Y-55994071D01*
X127530142Y-55651214D01*
X127476571Y-55565500D01*
X127385499Y-55522642D01*
X127214071Y-55522642D01*
X127133714Y-55565500D01*
X127101571Y-55651214D01*
X127112285Y-55736928D01*
X127551571Y-55822642D01*
X126619428Y-55222642D02*
X126726571Y-55394071D01*
X126383714Y-56079785D02*
X126303357Y-56122642D01*
X126131928Y-56122642D01*
X126040857Y-56079785D01*
X125987285Y-55994071D01*
X125981928Y-55951214D01*
X126014071Y-55865500D01*
X126094428Y-55822642D01*
X126222999Y-55822642D01*
X126303357Y-55779785D01*
X126335499Y-55694071D01*
X126330142Y-55651214D01*
X126276571Y-55565500D01*
X126185499Y-55522642D01*
X126056928Y-55522642D01*
X125976571Y-55565500D01*
X124969428Y-56079785D02*
X124889071Y-56122642D01*
X124717642Y-56122642D01*
X124626571Y-56079785D01*
X124572999Y-55994071D01*
X124567642Y-55951214D01*
X124599785Y-55865500D01*
X124680142Y-55822642D01*
X124808714Y-55822642D01*
X124889071Y-55779785D01*
X124921214Y-55694071D01*
X124915857Y-55651214D01*
X124862285Y-55565500D01*
X124771214Y-55522642D01*
X124642642Y-55522642D01*
X124562285Y-55565500D01*
X124128357Y-55522642D02*
X124240857Y-56422642D01*
X124133714Y-55565500D02*
X124042642Y-55522642D01*
X123871214Y-55522642D01*
X123790857Y-55565500D01*
X123753357Y-55608357D01*
X123721214Y-55694071D01*
X123753357Y-55951214D01*
X123806928Y-56036928D01*
X123855142Y-56079785D01*
X123946214Y-56122642D01*
X124117642Y-56122642D01*
X124197999Y-56079785D01*
X123040857Y-56079785D02*
X123131928Y-56122642D01*
X123303357Y-56122642D01*
X123383714Y-56079785D01*
X123415857Y-55994071D01*
X123372999Y-55651214D01*
X123319428Y-55565500D01*
X123228357Y-55522642D01*
X123056928Y-55522642D01*
X122976571Y-55565500D01*
X122944428Y-55651214D01*
X122955142Y-55736928D01*
X123394428Y-55822642D01*
X122542642Y-55522642D02*
X122617642Y-56122642D01*
X122553357Y-55608357D02*
X122505142Y-55565500D01*
X122414071Y-55522642D01*
X122285499Y-55522642D01*
X122205142Y-55565500D01*
X122172999Y-55651214D01*
X122231928Y-56122642D01*
X121417642Y-56122642D02*
X121305142Y-55222642D01*
X121412285Y-56079785D02*
X121503357Y-56122642D01*
X121674785Y-56122642D01*
X121755142Y-56079785D01*
X121792642Y-56036928D01*
X121824785Y-55951214D01*
X121792642Y-55694071D01*
X121739071Y-55608357D01*
X121690857Y-55565500D01*
X121599785Y-55522642D01*
X121428357Y-55522642D01*
X121347999Y-55565500D01*
X120989071Y-56122642D02*
X120914071Y-55522642D01*
X120876571Y-55222642D02*
X120924785Y-55265500D01*
X120887285Y-55308357D01*
X120839071Y-55265500D01*
X120876571Y-55222642D01*
X120887285Y-55308357D01*
X120485500Y-55522642D02*
X120560500Y-56122642D01*
X120496214Y-55608357D02*
X120447999Y-55565500D01*
X120356928Y-55522642D01*
X120228357Y-55522642D01*
X120147999Y-55565500D01*
X120115857Y-55651214D01*
X120174785Y-56122642D01*
X119285500Y-55522642D02*
X119376571Y-56251214D01*
X119430142Y-56336928D01*
X119478357Y-56379785D01*
X119569428Y-56422642D01*
X119698000Y-56422642D01*
X119778357Y-56379785D01*
X119355142Y-56079785D02*
X119446214Y-56122642D01*
X119617642Y-56122642D01*
X119697999Y-56079785D01*
X119735500Y-56036928D01*
X119767642Y-55951214D01*
X119735500Y-55694071D01*
X119681928Y-55608357D01*
X119633714Y-55565500D01*
X119542642Y-55522642D01*
X119371214Y-55522642D01*
X119290857Y-55565500D01*
X117860500Y-56122642D02*
X117801571Y-55651214D01*
X117833714Y-55565500D01*
X117914071Y-55522642D01*
X118085500Y-55522642D01*
X118176571Y-55565500D01*
X117855142Y-56079785D02*
X117946214Y-56122642D01*
X118160500Y-56122642D01*
X118240857Y-56079785D01*
X118273000Y-55994071D01*
X118262285Y-55908357D01*
X118208714Y-55822642D01*
X118117642Y-55779785D01*
X117903357Y-55779785D01*
X117812285Y-55736928D01*
X116756928Y-55522642D02*
X116617642Y-56122642D01*
X116328357Y-55522642D02*
X116617642Y-56122642D01*
X116730142Y-56336928D01*
X116778357Y-56379785D01*
X116869428Y-56422642D01*
X115712285Y-56079785D02*
X115803357Y-56122642D01*
X115974785Y-56122642D01*
X116055142Y-56079785D01*
X116087285Y-55994071D01*
X116044428Y-55651214D01*
X115990857Y-55565500D01*
X115899785Y-55522642D01*
X115728357Y-55522642D01*
X115647999Y-55565500D01*
X115615857Y-55651214D01*
X115626571Y-55736928D01*
X116065857Y-55822642D01*
X114903357Y-56122642D02*
X114844428Y-55651214D01*
X114876571Y-55565500D01*
X114956928Y-55522642D01*
X115128357Y-55522642D01*
X115219428Y-55565500D01*
X114897999Y-56079785D02*
X114989071Y-56122642D01*
X115203357Y-56122642D01*
X115283714Y-56079785D01*
X115315857Y-55994071D01*
X115305142Y-55908357D01*
X115251571Y-55822642D01*
X115160499Y-55779785D01*
X114946214Y-55779785D01*
X114855142Y-55736928D01*
X114474785Y-56122642D02*
X114399785Y-55522642D01*
X114421214Y-55694071D02*
X114367642Y-55608357D01*
X114319428Y-55565500D01*
X114228357Y-55522642D01*
X114142642Y-55522642D01*
X112846214Y-56122642D02*
X112733714Y-55222642D01*
X112840857Y-56079785D02*
X112931928Y-56122642D01*
X113103357Y-56122642D01*
X113183714Y-56079785D01*
X113221214Y-56036928D01*
X113253357Y-55951214D01*
X113221214Y-55694071D01*
X113167642Y-55608357D01*
X113119428Y-55565500D01*
X113028357Y-55522642D01*
X112856928Y-55522642D01*
X112776571Y-55565500D01*
X112069428Y-56079785D02*
X112160499Y-56122642D01*
X112331928Y-56122642D01*
X112412285Y-56079785D01*
X112444428Y-55994071D01*
X112401571Y-55651214D01*
X112347999Y-55565500D01*
X112256928Y-55522642D01*
X112085499Y-55522642D01*
X112005142Y-55565500D01*
X111972999Y-55651214D01*
X111983714Y-55736928D01*
X112422999Y-55822642D01*
X111260499Y-56122642D02*
X111201571Y-55651214D01*
X111233714Y-55565500D01*
X111314071Y-55522642D01*
X111485499Y-55522642D01*
X111576571Y-55565500D01*
X111255142Y-56079785D02*
X111346214Y-56122642D01*
X111560499Y-56122642D01*
X111640857Y-56079785D01*
X111673000Y-55994071D01*
X111662285Y-55908357D01*
X111608714Y-55822642D01*
X111517642Y-55779785D01*
X111303357Y-55779785D01*
X111212285Y-55736928D01*
X110446214Y-56122642D02*
X110333714Y-55222642D01*
X110440857Y-56079785D02*
X110531928Y-56122642D01*
X110703357Y-56122642D01*
X110783714Y-56079785D01*
X110821214Y-56036928D01*
X110853357Y-55951214D01*
X110821214Y-55694071D01*
X110767642Y-55608357D01*
X110719428Y-55565500D01*
X110628357Y-55522642D01*
X110456928Y-55522642D01*
X110376571Y-55565500D01*
X109385499Y-55522642D02*
X109042642Y-55522642D01*
X109331928Y-56122642D02*
X109235499Y-55351214D01*
X109181928Y-55265500D01*
X109090857Y-55222642D01*
X109005142Y-55222642D01*
X108689071Y-56122642D02*
X108769428Y-56079785D01*
X108806928Y-56036928D01*
X108839071Y-55951214D01*
X108806928Y-55694071D01*
X108753357Y-55608357D01*
X108705142Y-55565500D01*
X108614071Y-55522642D01*
X108485499Y-55522642D01*
X108405142Y-55565500D01*
X108367642Y-55608357D01*
X108335500Y-55694071D01*
X108367642Y-55951214D01*
X108421214Y-56036928D01*
X108469428Y-56079785D01*
X108560499Y-56122642D01*
X108689071Y-56122642D01*
X108003357Y-56122642D02*
X107928357Y-55522642D01*
X107949785Y-55694071D02*
X107896214Y-55608357D01*
X107847999Y-55565500D01*
X107756928Y-55522642D01*
X107671214Y-55522642D01*
X106814071Y-55522642D02*
X106471214Y-55522642D01*
X106647999Y-55222642D02*
X106744428Y-55994071D01*
X106712285Y-56079785D01*
X106631928Y-56122642D01*
X106546214Y-56122642D01*
X105860499Y-56122642D02*
X105801571Y-55651214D01*
X105833714Y-55565500D01*
X105914071Y-55522642D01*
X106085499Y-55522642D01*
X106176571Y-55565500D01*
X105855142Y-56079785D02*
X105946214Y-56122642D01*
X106160499Y-56122642D01*
X106240857Y-56079785D01*
X106273000Y-55994071D01*
X106262285Y-55908357D01*
X106208714Y-55822642D01*
X106117642Y-55779785D01*
X105903357Y-55779785D01*
X105812285Y-55736928D01*
X105517642Y-56122642D02*
X104971214Y-55522642D01*
X105442642Y-55522642D02*
X105046214Y-56122642D01*
X103942642Y-55522642D02*
X104055142Y-56422642D01*
X103947999Y-55565500D02*
X103856928Y-55522642D01*
X103685499Y-55522642D01*
X103605142Y-55565500D01*
X103567642Y-55608357D01*
X103535499Y-55694071D01*
X103567642Y-55951214D01*
X103621214Y-56036928D01*
X103669428Y-56079785D01*
X103760499Y-56122642D01*
X103931928Y-56122642D01*
X104012285Y-56079785D01*
X102742642Y-55522642D02*
X102817642Y-56122642D01*
X103128357Y-55522642D02*
X103187285Y-55994071D01*
X103155142Y-56079785D01*
X103074785Y-56122642D01*
X102946214Y-56122642D01*
X102855142Y-56079785D01*
X102806928Y-56036928D01*
X102389071Y-56122642D02*
X102314071Y-55522642D01*
X102335499Y-55694071D02*
X102281928Y-55608357D01*
X102233714Y-55565500D01*
X102142642Y-55522642D01*
X102056928Y-55522642D01*
X101756928Y-55522642D02*
X101869428Y-56422642D01*
X101762285Y-55565500D02*
X101671214Y-55522642D01*
X101499785Y-55522642D01*
X101419428Y-55565500D01*
X101381928Y-55608357D01*
X101349785Y-55694071D01*
X101381928Y-55951214D01*
X101435499Y-56036928D01*
X101483714Y-56079785D01*
X101574785Y-56122642D01*
X101746214Y-56122642D01*
X101826571Y-56079785D01*
X100889071Y-56122642D02*
X100969428Y-56079785D01*
X101006928Y-56036928D01*
X101039071Y-55951214D01*
X101006928Y-55694071D01*
X100953357Y-55608357D01*
X100905142Y-55565500D01*
X100814071Y-55522642D01*
X100685499Y-55522642D01*
X100605142Y-55565500D01*
X100567642Y-55608357D01*
X100535499Y-55694071D01*
X100567642Y-55951214D01*
X100621214Y-56036928D01*
X100669428Y-56079785D01*
X100760499Y-56122642D01*
X100889071Y-56122642D01*
X100240857Y-56079785D02*
X100160499Y-56122642D01*
X99989071Y-56122642D01*
X99897999Y-56079785D01*
X99844428Y-55994071D01*
X99839071Y-55951214D01*
X99871214Y-55865500D01*
X99951571Y-55822642D01*
X100080142Y-55822642D01*
X100160499Y-55779785D01*
X100192642Y-55694071D01*
X100187285Y-55651214D01*
X100133714Y-55565500D01*
X100042642Y-55522642D01*
X99914071Y-55522642D01*
X99833714Y-55565500D01*
X99126571Y-56079785D02*
X99217642Y-56122642D01*
X99389071Y-56122642D01*
X99469428Y-56079785D01*
X99501571Y-55994071D01*
X99458714Y-55651214D01*
X99405142Y-55565500D01*
X99314071Y-55522642D01*
X99142642Y-55522642D01*
X99062285Y-55565500D01*
X99030142Y-55651214D01*
X99040857Y-55736928D01*
X99480142Y-55822642D01*
X98740857Y-56079785D02*
X98660499Y-56122642D01*
X98489071Y-56122642D01*
X98397999Y-56079785D01*
X98344428Y-55994071D01*
X98339071Y-55951214D01*
X98371214Y-55865500D01*
X98451571Y-55822642D01*
X98580142Y-55822642D01*
X98660499Y-55779785D01*
X98692642Y-55694071D01*
X98687285Y-55651214D01*
X98633714Y-55565500D01*
X98542642Y-55522642D01*
X98414071Y-55522642D01*
X98333714Y-55565500D01*
X97905142Y-55222642D02*
X97926571Y-55394071D01*
X97562285Y-55222642D02*
X97583714Y-55394071D01*
D13*
X83602380Y-63986666D02*
X84316666Y-63986666D01*
X84459523Y-63939047D01*
X84554761Y-63843809D01*
X84602380Y-63700952D01*
X84602380Y-63605714D01*
X84602380Y-64986666D02*
X84602380Y-64415238D01*
X84602380Y-64700952D02*
X83602380Y-64700952D01*
X83745238Y-64605714D01*
X83840476Y-64510476D01*
X83888095Y-64415238D01*
D12*
X85590000Y-65590000D02*
X85590000Y-66920000D01*
X85590000Y-64320000D02*
X88190000Y-64320000D01*
X88190000Y-66920000D02*
X136510000Y-66920000D01*
X85590000Y-61720000D02*
X85590000Y-64320000D01*
X85590000Y-61720000D02*
X136510000Y-61720000D01*
X136510000Y-61720000D02*
X136510000Y-66920000D01*
X88190000Y-64320000D02*
X88190000Y-66920000D01*
X85590000Y-66920000D02*
X86920000Y-66920000D01*
M02*
