G04 #@! TF.GenerationSoftware,KiCad,Pcbnew,(6.0.1)*
G04 #@! TF.CreationDate,2022-12-05T14:44:52+00:00*
G04 #@! TF.ProjectId,retropie-minicade-hat,72657472-6f70-4696-952d-6d696e696361,rev?*
G04 #@! TF.SameCoordinates,Original*
G04 #@! TF.FileFunction,Legend,Bot*
G04 #@! TF.FilePolarity,Positive*
%FSLAX46Y46*%
G04 Gerber Fmt 4.6, Leading zero omitted, Abs format (unit mm)*
G04 Created by KiCad (PCBNEW (6.0.1)) date 2022-12-05 14:44:52*
%MOMM*%
%LPD*%
G01*
G04 APERTURE LIST*
G04 #@! TA.AperFunction,Profile*
%ADD10C,0.100000*%
G04 #@! TD*
G04 #@! TA.AperFunction,Profile*
%ADD11C,0.150000*%
G04 #@! TD*
%ADD12C,0.120000*%
%ADD13C,0.150000*%
G04 APERTURE END LIST*
D10*
X143510000Y-65024000D02*
X143499680Y-50291999D01*
X78499680Y-50291999D02*
X78499680Y-77013320D01*
D11*
X99314000Y-77018556D02*
X99314000Y-71013528D01*
D10*
X96314005Y-80013321D02*
G75*
G03*
X99314000Y-77018556I-2J3000002D01*
G01*
X140499680Y-47291999D02*
X81499680Y-47291999D01*
X81499680Y-80013320D02*
X96314005Y-80013320D01*
X102313995Y-68018763D02*
G75*
G03*
X99314000Y-71013528I2J-3000002D01*
G01*
D11*
X140510005Y-68018764D02*
X102313995Y-68018764D01*
D10*
X143499680Y-50291999D02*
G75*
G03*
X140499680Y-47291999I-3000001J-1D01*
G01*
X81499680Y-47291999D02*
G75*
G03*
X78499680Y-50291999I1J-3000001D01*
G01*
X140510005Y-68018765D02*
G75*
G03*
X143510000Y-65024000I-2J3000002D01*
G01*
X78499680Y-77013320D02*
G75*
G03*
X81499680Y-80013320I3000001J1D01*
G01*
D12*
X134703357Y-54673642D02*
X134590857Y-53773642D01*
X134644428Y-54202214D02*
X134130142Y-54202214D01*
X134189071Y-54673642D02*
X134076571Y-53773642D01*
X133631928Y-54673642D02*
X133712285Y-54630785D01*
X133749785Y-54587928D01*
X133781928Y-54502214D01*
X133749785Y-54245071D01*
X133696214Y-54159357D01*
X133648000Y-54116500D01*
X133556928Y-54073642D01*
X133428357Y-54073642D01*
X133348000Y-54116500D01*
X133310500Y-54159357D01*
X133278357Y-54245071D01*
X133310500Y-54502214D01*
X133364071Y-54587928D01*
X133412285Y-54630785D01*
X133503357Y-54673642D01*
X133631928Y-54673642D01*
X132999785Y-54073642D02*
X132656928Y-54073642D01*
X132833714Y-53773642D02*
X132930142Y-54545071D01*
X132898000Y-54630785D01*
X132817642Y-54673642D01*
X132731928Y-54673642D01*
X132431928Y-54673642D02*
X132319428Y-53773642D01*
X132362285Y-54116500D02*
X132271214Y-54073642D01*
X132099785Y-54073642D01*
X132019428Y-54116500D01*
X131981928Y-54159357D01*
X131949785Y-54245071D01*
X131981928Y-54502214D01*
X132035500Y-54587928D01*
X132083714Y-54630785D01*
X132174785Y-54673642D01*
X132346214Y-54673642D01*
X132426571Y-54630785D01*
X131489071Y-54673642D02*
X131569428Y-54630785D01*
X131601571Y-54545071D01*
X131505142Y-53773642D01*
X130760500Y-54673642D02*
X130701571Y-54202214D01*
X130733714Y-54116500D01*
X130814071Y-54073642D01*
X130985500Y-54073642D01*
X131076571Y-54116500D01*
X130755142Y-54630785D02*
X130846214Y-54673642D01*
X131060500Y-54673642D01*
X131140857Y-54630785D01*
X131173000Y-54545071D01*
X131162285Y-54459357D01*
X131108714Y-54373642D01*
X131017642Y-54330785D01*
X130803357Y-54330785D01*
X130712285Y-54287928D01*
X129940857Y-54630785D02*
X130031928Y-54673642D01*
X130203357Y-54673642D01*
X130283714Y-54630785D01*
X130321214Y-54587928D01*
X130353357Y-54502214D01*
X130321214Y-54245071D01*
X130267642Y-54159357D01*
X130219428Y-54116500D01*
X130128357Y-54073642D01*
X129956928Y-54073642D01*
X129876571Y-54116500D01*
X129560500Y-54673642D02*
X129448000Y-53773642D01*
X129431928Y-54330785D02*
X129217642Y-54673642D01*
X129142642Y-54073642D02*
X129528357Y-54416500D01*
X128146214Y-54673642D02*
X128033714Y-53773642D01*
X127819428Y-53773642D01*
X127696214Y-53816500D01*
X127621214Y-53902214D01*
X127589071Y-53987928D01*
X127567642Y-54159357D01*
X127583714Y-54287928D01*
X127648000Y-54459357D01*
X127701571Y-54545071D01*
X127798000Y-54630785D01*
X127931928Y-54673642D01*
X128146214Y-54673642D01*
X126898000Y-54630785D02*
X126989071Y-54673642D01*
X127160500Y-54673642D01*
X127240857Y-54630785D01*
X127273000Y-54545071D01*
X127230142Y-54202214D01*
X127176571Y-54116500D01*
X127085500Y-54073642D01*
X126914071Y-54073642D01*
X126833714Y-54116500D01*
X126801571Y-54202214D01*
X126812285Y-54287928D01*
X127251571Y-54373642D01*
X126512285Y-54630785D02*
X126431928Y-54673642D01*
X126260500Y-54673642D01*
X126169428Y-54630785D01*
X126115857Y-54545071D01*
X126110500Y-54502214D01*
X126142642Y-54416500D01*
X126223000Y-54373642D01*
X126351571Y-54373642D01*
X126431928Y-54330785D01*
X126464071Y-54245071D01*
X126458714Y-54202214D01*
X126405142Y-54116500D01*
X126314071Y-54073642D01*
X126185500Y-54073642D01*
X126105142Y-54116500D01*
X125746214Y-54673642D02*
X125671214Y-54073642D01*
X125633714Y-53773642D02*
X125681928Y-53816500D01*
X125644428Y-53859357D01*
X125596214Y-53816500D01*
X125633714Y-53773642D01*
X125644428Y-53859357D01*
X124931928Y-54673642D02*
X124873000Y-54202214D01*
X124905142Y-54116500D01*
X124985500Y-54073642D01*
X125156928Y-54073642D01*
X125248000Y-54116500D01*
X124926571Y-54630785D02*
X125017642Y-54673642D01*
X125231928Y-54673642D01*
X125312285Y-54630785D01*
X125344428Y-54545071D01*
X125333714Y-54459357D01*
X125280142Y-54373642D01*
X125189071Y-54330785D01*
X124974785Y-54330785D01*
X124883714Y-54287928D01*
X124556928Y-54073642D02*
X124214071Y-54073642D01*
X124390857Y-53773642D02*
X124487285Y-54545071D01*
X124455142Y-54630785D01*
X124374785Y-54673642D01*
X124289071Y-54673642D01*
X123860500Y-54673642D02*
X123940857Y-54630785D01*
X123978357Y-54587928D01*
X124010500Y-54502214D01*
X123978357Y-54245071D01*
X123924785Y-54159357D01*
X123876571Y-54116500D01*
X123785500Y-54073642D01*
X123656928Y-54073642D01*
X123576571Y-54116500D01*
X123539071Y-54159357D01*
X123506928Y-54245071D01*
X123539071Y-54502214D01*
X123592642Y-54587928D01*
X123640857Y-54630785D01*
X123731928Y-54673642D01*
X123860500Y-54673642D01*
X123164071Y-54587928D02*
X123126571Y-54630785D01*
X123174785Y-54673642D01*
X123212285Y-54630785D01*
X123164071Y-54587928D01*
X123174785Y-54673642D01*
X123105142Y-54116500D02*
X123067642Y-54159357D01*
X123115857Y-54202214D01*
X123153357Y-54159357D01*
X123105142Y-54116500D01*
X123115857Y-54202214D01*
X121990857Y-53773642D02*
X122012285Y-53945071D01*
X121648000Y-53773642D02*
X121669428Y-53945071D01*
X121305142Y-53773642D02*
X121326571Y-53945071D01*
X120962285Y-53773642D02*
X120983714Y-53945071D01*
X134703357Y-56122642D02*
X134590857Y-55222642D01*
X134644428Y-55651214D02*
X134130142Y-55651214D01*
X134189071Y-56122642D02*
X134076571Y-55222642D01*
X133631928Y-56122642D02*
X133712285Y-56079785D01*
X133749785Y-56036928D01*
X133781928Y-55951214D01*
X133749785Y-55694071D01*
X133696214Y-55608357D01*
X133648000Y-55565500D01*
X133556928Y-55522642D01*
X133428357Y-55522642D01*
X133348000Y-55565500D01*
X133310500Y-55608357D01*
X133278357Y-55694071D01*
X133310500Y-55951214D01*
X133364071Y-56036928D01*
X133412285Y-56079785D01*
X133503357Y-56122642D01*
X133631928Y-56122642D01*
X132999785Y-55522642D02*
X132656928Y-55522642D01*
X132833714Y-55222642D02*
X132930142Y-55994071D01*
X132898000Y-56079785D01*
X132817642Y-56122642D01*
X132731928Y-56122642D01*
X132431928Y-56122642D02*
X132319428Y-55222642D01*
X132362285Y-55565500D02*
X132271214Y-55522642D01*
X132099785Y-55522642D01*
X132019428Y-55565500D01*
X131981928Y-55608357D01*
X131949785Y-55694071D01*
X131981928Y-55951214D01*
X132035500Y-56036928D01*
X132083714Y-56079785D01*
X132174785Y-56122642D01*
X132346214Y-56122642D01*
X132426571Y-56079785D01*
X131489071Y-56122642D02*
X131569428Y-56079785D01*
X131601571Y-55994071D01*
X131505142Y-55222642D01*
X130760500Y-56122642D02*
X130701571Y-55651214D01*
X130733714Y-55565500D01*
X130814071Y-55522642D01*
X130985500Y-55522642D01*
X131076571Y-55565500D01*
X130755142Y-56079785D02*
X130846214Y-56122642D01*
X131060500Y-56122642D01*
X131140857Y-56079785D01*
X131172999Y-55994071D01*
X131162285Y-55908357D01*
X131108714Y-55822642D01*
X131017642Y-55779785D01*
X130803357Y-55779785D01*
X130712285Y-55736928D01*
X129940857Y-56079785D02*
X130031928Y-56122642D01*
X130203357Y-56122642D01*
X130283714Y-56079785D01*
X130321214Y-56036928D01*
X130353357Y-55951214D01*
X130321214Y-55694071D01*
X130267642Y-55608357D01*
X130219428Y-55565500D01*
X130128357Y-55522642D01*
X129956928Y-55522642D01*
X129876571Y-55565500D01*
X129560499Y-56122642D02*
X129447999Y-55222642D01*
X129431928Y-55779785D02*
X129217642Y-56122642D01*
X129142642Y-55522642D02*
X129528357Y-55865500D01*
X128676571Y-55222642D02*
X128783714Y-55394071D01*
X128440857Y-56079785D02*
X128360500Y-56122642D01*
X128189071Y-56122642D01*
X128098000Y-56079785D01*
X128044428Y-55994071D01*
X128039071Y-55951214D01*
X128071214Y-55865500D01*
X128151571Y-55822642D01*
X128280142Y-55822642D01*
X128360500Y-55779785D01*
X128392642Y-55694071D01*
X128387285Y-55651214D01*
X128333714Y-55565500D01*
X128242642Y-55522642D01*
X128114071Y-55522642D01*
X128033714Y-55565500D01*
X126989071Y-56122642D02*
X126876571Y-55222642D01*
X126656928Y-55865500D01*
X126276571Y-55222642D01*
X126389071Y-56122642D01*
X125960500Y-56122642D02*
X125885500Y-55522642D01*
X125848000Y-55222642D02*
X125896214Y-55265500D01*
X125858714Y-55308357D01*
X125810500Y-55265500D01*
X125848000Y-55222642D01*
X125858714Y-55308357D01*
X125456928Y-55522642D02*
X125531928Y-56122642D01*
X125467642Y-55608357D02*
X125419428Y-55565500D01*
X125328357Y-55522642D01*
X125199785Y-55522642D01*
X125119428Y-55565500D01*
X125087285Y-55651214D01*
X125146214Y-56122642D01*
X124331928Y-56122642D02*
X124219428Y-55222642D01*
X124326571Y-56079785D02*
X124417642Y-56122642D01*
X124589071Y-56122642D01*
X124669428Y-56079785D01*
X124706928Y-56036928D01*
X124739071Y-55951214D01*
X124706928Y-55694071D01*
X124653357Y-55608357D01*
X124605142Y-55565500D01*
X124514071Y-55522642D01*
X124342642Y-55522642D01*
X124262285Y-55565500D01*
X123555142Y-56079785D02*
X123646214Y-56122642D01*
X123817642Y-56122642D01*
X123898000Y-56079785D01*
X123930142Y-55994071D01*
X123887285Y-55651214D01*
X123833714Y-55565500D01*
X123742642Y-55522642D01*
X123571214Y-55522642D01*
X123490857Y-55565500D01*
X123458714Y-55651214D01*
X123469428Y-55736928D01*
X123908714Y-55822642D01*
X123131928Y-56122642D02*
X123056928Y-55522642D01*
X123078357Y-55694071D02*
X123024785Y-55608357D01*
X122976571Y-55565500D01*
X122885500Y-55522642D01*
X122799785Y-55522642D01*
X122564071Y-56036928D02*
X122526571Y-56079785D01*
X122574785Y-56122642D01*
X122612285Y-56079785D01*
X122564071Y-56036928D01*
X122574785Y-56122642D01*
X122505142Y-55565500D02*
X122467642Y-55608357D01*
X122515857Y-55651214D01*
X122553357Y-55608357D01*
X122505142Y-55565500D01*
X122515857Y-55651214D01*
X121390857Y-55222642D02*
X121412285Y-55394071D01*
X121048000Y-55222642D02*
X121069428Y-55394071D01*
X120774785Y-56122642D02*
X120662285Y-55222642D01*
X120715857Y-55651214D02*
X120201571Y-55651214D01*
X120260500Y-56122642D02*
X120148000Y-55222642D01*
X119483714Y-56079785D02*
X119574785Y-56122642D01*
X119746214Y-56122642D01*
X119826571Y-56079785D01*
X119858714Y-55994071D01*
X119815857Y-55651214D01*
X119762285Y-55565500D01*
X119671214Y-55522642D01*
X119499785Y-55522642D01*
X119419428Y-55565500D01*
X119387285Y-55651214D01*
X119398000Y-55736928D01*
X119837285Y-55822642D01*
X118905142Y-55222642D02*
X119012285Y-55394071D01*
X118669428Y-56079785D02*
X118589071Y-56122642D01*
X118417642Y-56122642D01*
X118326571Y-56079785D01*
X118273000Y-55994071D01*
X118267642Y-55951214D01*
X118299785Y-55865500D01*
X118380142Y-55822642D01*
X118508714Y-55822642D01*
X118589071Y-55779785D01*
X118621214Y-55694071D01*
X118615857Y-55651214D01*
X118562285Y-55565500D01*
X118471214Y-55522642D01*
X118342642Y-55522642D01*
X118262285Y-55565500D01*
X117255142Y-56079785D02*
X117174785Y-56122642D01*
X117003357Y-56122642D01*
X116912285Y-56079785D01*
X116858714Y-55994071D01*
X116853357Y-55951214D01*
X116885500Y-55865500D01*
X116965857Y-55822642D01*
X117094428Y-55822642D01*
X117174785Y-55779785D01*
X117206928Y-55694071D01*
X117201571Y-55651214D01*
X117148000Y-55565500D01*
X117056928Y-55522642D01*
X116928357Y-55522642D01*
X116848000Y-55565500D01*
X116414071Y-55522642D02*
X116526571Y-56422642D01*
X116419428Y-55565500D02*
X116328357Y-55522642D01*
X116156928Y-55522642D01*
X116076571Y-55565500D01*
X116039071Y-55608357D01*
X116006928Y-55694071D01*
X116039071Y-55951214D01*
X116092642Y-56036928D01*
X116140857Y-56079785D01*
X116231928Y-56122642D01*
X116403357Y-56122642D01*
X116483714Y-56079785D01*
X115326571Y-56079785D02*
X115417642Y-56122642D01*
X115589071Y-56122642D01*
X115669428Y-56079785D01*
X115701571Y-55994071D01*
X115658714Y-55651214D01*
X115605142Y-55565500D01*
X115514071Y-55522642D01*
X115342642Y-55522642D01*
X115262285Y-55565500D01*
X115230142Y-55651214D01*
X115240857Y-55736928D01*
X115680142Y-55822642D01*
X114828357Y-55522642D02*
X114903357Y-56122642D01*
X114839071Y-55608357D02*
X114790857Y-55565500D01*
X114699785Y-55522642D01*
X114571214Y-55522642D01*
X114490857Y-55565500D01*
X114458714Y-55651214D01*
X114517642Y-56122642D01*
X113703357Y-56122642D02*
X113590857Y-55222642D01*
X113698000Y-56079785D02*
X113789071Y-56122642D01*
X113960500Y-56122642D01*
X114040857Y-56079785D01*
X114078357Y-56036928D01*
X114110500Y-55951214D01*
X114078357Y-55694071D01*
X114024785Y-55608357D01*
X113976571Y-55565500D01*
X113885500Y-55522642D01*
X113714071Y-55522642D01*
X113633714Y-55565500D01*
X113274785Y-56122642D02*
X113199785Y-55522642D01*
X113162285Y-55222642D02*
X113210500Y-55265500D01*
X113173000Y-55308357D01*
X113124785Y-55265500D01*
X113162285Y-55222642D01*
X113173000Y-55308357D01*
X112771214Y-55522642D02*
X112846214Y-56122642D01*
X112781928Y-55608357D02*
X112733714Y-55565500D01*
X112642642Y-55522642D01*
X112514071Y-55522642D01*
X112433714Y-55565500D01*
X112401571Y-55651214D01*
X112460500Y-56122642D01*
X111571214Y-55522642D02*
X111662285Y-56251214D01*
X111715857Y-56336928D01*
X111764071Y-56379785D01*
X111855142Y-56422642D01*
X111983714Y-56422642D01*
X112064071Y-56379785D01*
X111640857Y-56079785D02*
X111731928Y-56122642D01*
X111903357Y-56122642D01*
X111983714Y-56079785D01*
X112021214Y-56036928D01*
X112053357Y-55951214D01*
X112021214Y-55694071D01*
X111967642Y-55608357D01*
X111919428Y-55565500D01*
X111828357Y-55522642D01*
X111656928Y-55522642D01*
X111576571Y-55565500D01*
X110146214Y-56122642D02*
X110087285Y-55651214D01*
X110119428Y-55565500D01*
X110199785Y-55522642D01*
X110371214Y-55522642D01*
X110462285Y-55565500D01*
X110140857Y-56079785D02*
X110231928Y-56122642D01*
X110446214Y-56122642D01*
X110526571Y-56079785D01*
X110558714Y-55994071D01*
X110548000Y-55908357D01*
X110494428Y-55822642D01*
X110403357Y-55779785D01*
X110189071Y-55779785D01*
X110098000Y-55736928D01*
X109042642Y-55522642D02*
X108903357Y-56122642D01*
X108614071Y-55522642D02*
X108903357Y-56122642D01*
X109015857Y-56336928D01*
X109064071Y-56379785D01*
X109155142Y-56422642D01*
X107998000Y-56079785D02*
X108089071Y-56122642D01*
X108260500Y-56122642D01*
X108340857Y-56079785D01*
X108373000Y-55994071D01*
X108330142Y-55651214D01*
X108276571Y-55565500D01*
X108185500Y-55522642D01*
X108014071Y-55522642D01*
X107933714Y-55565500D01*
X107901571Y-55651214D01*
X107912285Y-55736928D01*
X108351571Y-55822642D01*
X107189071Y-56122642D02*
X107130142Y-55651214D01*
X107162285Y-55565500D01*
X107242642Y-55522642D01*
X107414071Y-55522642D01*
X107505142Y-55565500D01*
X107183714Y-56079785D02*
X107274785Y-56122642D01*
X107489071Y-56122642D01*
X107569428Y-56079785D01*
X107601571Y-55994071D01*
X107590857Y-55908357D01*
X107537285Y-55822642D01*
X107446214Y-55779785D01*
X107231928Y-55779785D01*
X107140857Y-55736928D01*
X106760500Y-56122642D02*
X106685500Y-55522642D01*
X106706928Y-55694071D02*
X106653357Y-55608357D01*
X106605142Y-55565500D01*
X106514071Y-55522642D01*
X106428357Y-55522642D01*
X105131928Y-56122642D02*
X105019428Y-55222642D01*
X105126571Y-56079785D02*
X105217642Y-56122642D01*
X105389071Y-56122642D01*
X105469428Y-56079785D01*
X105506928Y-56036928D01*
X105539071Y-55951214D01*
X105506928Y-55694071D01*
X105453357Y-55608357D01*
X105405142Y-55565500D01*
X105314071Y-55522642D01*
X105142642Y-55522642D01*
X105062285Y-55565500D01*
X104355142Y-56079785D02*
X104446214Y-56122642D01*
X104617642Y-56122642D01*
X104698000Y-56079785D01*
X104730142Y-55994071D01*
X104687285Y-55651214D01*
X104633714Y-55565500D01*
X104542642Y-55522642D01*
X104371214Y-55522642D01*
X104290857Y-55565500D01*
X104258714Y-55651214D01*
X104269428Y-55736928D01*
X104708714Y-55822642D01*
X103546214Y-56122642D02*
X103487285Y-55651214D01*
X103519428Y-55565500D01*
X103599785Y-55522642D01*
X103771214Y-55522642D01*
X103862285Y-55565500D01*
X103540857Y-56079785D02*
X103631928Y-56122642D01*
X103846214Y-56122642D01*
X103926571Y-56079785D01*
X103958714Y-55994071D01*
X103948000Y-55908357D01*
X103894428Y-55822642D01*
X103803357Y-55779785D01*
X103589071Y-55779785D01*
X103498000Y-55736928D01*
X102731928Y-56122642D02*
X102619428Y-55222642D01*
X102726571Y-56079785D02*
X102817642Y-56122642D01*
X102989071Y-56122642D01*
X103069428Y-56079785D01*
X103106928Y-56036928D01*
X103139071Y-55951214D01*
X103106928Y-55694071D01*
X103053357Y-55608357D01*
X103005142Y-55565500D01*
X102914071Y-55522642D01*
X102742642Y-55522642D01*
X102662285Y-55565500D01*
X101671214Y-55522642D02*
X101328357Y-55522642D01*
X101617642Y-56122642D02*
X101521214Y-55351214D01*
X101467642Y-55265500D01*
X101376571Y-55222642D01*
X101290857Y-55222642D01*
X100974785Y-56122642D02*
X101055142Y-56079785D01*
X101092642Y-56036928D01*
X101124785Y-55951214D01*
X101092642Y-55694071D01*
X101039071Y-55608357D01*
X100990857Y-55565500D01*
X100899785Y-55522642D01*
X100771214Y-55522642D01*
X100690857Y-55565500D01*
X100653357Y-55608357D01*
X100621214Y-55694071D01*
X100653357Y-55951214D01*
X100706928Y-56036928D01*
X100755142Y-56079785D01*
X100846214Y-56122642D01*
X100974785Y-56122642D01*
X100289071Y-56122642D02*
X100214071Y-55522642D01*
X100235500Y-55694071D02*
X100181928Y-55608357D01*
X100133714Y-55565500D01*
X100042642Y-55522642D01*
X99956928Y-55522642D01*
X99099785Y-55522642D02*
X98756928Y-55522642D01*
X98933714Y-55222642D02*
X99030142Y-55994071D01*
X98998000Y-56079785D01*
X98917642Y-56122642D01*
X98831928Y-56122642D01*
X98146214Y-56122642D02*
X98087285Y-55651214D01*
X98119428Y-55565500D01*
X98199785Y-55522642D01*
X98371214Y-55522642D01*
X98462285Y-55565500D01*
X98140857Y-56079785D02*
X98231928Y-56122642D01*
X98446214Y-56122642D01*
X98526571Y-56079785D01*
X98558714Y-55994071D01*
X98548000Y-55908357D01*
X98494428Y-55822642D01*
X98403357Y-55779785D01*
X98189071Y-55779785D01*
X98098000Y-55736928D01*
X97803357Y-56122642D02*
X97256928Y-55522642D01*
X97728357Y-55522642D02*
X97331928Y-56122642D01*
X96228357Y-55522642D02*
X96340857Y-56422642D01*
X96233714Y-55565500D02*
X96142642Y-55522642D01*
X95971214Y-55522642D01*
X95890857Y-55565500D01*
X95853357Y-55608357D01*
X95821214Y-55694071D01*
X95853357Y-55951214D01*
X95906928Y-56036928D01*
X95955142Y-56079785D01*
X96046214Y-56122642D01*
X96217642Y-56122642D01*
X96298000Y-56079785D01*
X95028357Y-55522642D02*
X95103357Y-56122642D01*
X95414071Y-55522642D02*
X95473000Y-55994071D01*
X95440857Y-56079785D01*
X95360500Y-56122642D01*
X95231928Y-56122642D01*
X95140857Y-56079785D01*
X95092642Y-56036928D01*
X94674785Y-56122642D02*
X94599785Y-55522642D01*
X94621214Y-55694071D02*
X94567642Y-55608357D01*
X94519428Y-55565500D01*
X94428357Y-55522642D01*
X94342642Y-55522642D01*
X94042642Y-55522642D02*
X94155142Y-56422642D01*
X94048000Y-55565500D02*
X93956928Y-55522642D01*
X93785500Y-55522642D01*
X93705142Y-55565500D01*
X93667642Y-55608357D01*
X93635500Y-55694071D01*
X93667642Y-55951214D01*
X93721214Y-56036928D01*
X93769428Y-56079785D01*
X93860500Y-56122642D01*
X94031928Y-56122642D01*
X94112285Y-56079785D01*
X93174785Y-56122642D02*
X93255142Y-56079785D01*
X93292642Y-56036928D01*
X93324785Y-55951214D01*
X93292642Y-55694071D01*
X93239071Y-55608357D01*
X93190857Y-55565500D01*
X93099785Y-55522642D01*
X92971214Y-55522642D01*
X92890857Y-55565500D01*
X92853357Y-55608357D01*
X92821214Y-55694071D01*
X92853357Y-55951214D01*
X92906928Y-56036928D01*
X92955142Y-56079785D01*
X93046214Y-56122642D01*
X93174785Y-56122642D01*
X92526571Y-56079785D02*
X92446214Y-56122642D01*
X92274785Y-56122642D01*
X92183714Y-56079785D01*
X92130142Y-55994071D01*
X92124785Y-55951214D01*
X92156928Y-55865500D01*
X92237285Y-55822642D01*
X92365857Y-55822642D01*
X92446214Y-55779785D01*
X92478357Y-55694071D01*
X92473000Y-55651214D01*
X92419428Y-55565500D01*
X92328357Y-55522642D01*
X92199785Y-55522642D01*
X92119428Y-55565500D01*
X91412285Y-56079785D02*
X91503357Y-56122642D01*
X91674785Y-56122642D01*
X91755142Y-56079785D01*
X91787285Y-55994071D01*
X91744428Y-55651214D01*
X91690857Y-55565500D01*
X91599785Y-55522642D01*
X91428357Y-55522642D01*
X91348000Y-55565500D01*
X91315857Y-55651214D01*
X91326571Y-55736928D01*
X91765857Y-55822642D01*
X91026571Y-56079785D02*
X90946214Y-56122642D01*
X90774785Y-56122642D01*
X90683714Y-56079785D01*
X90630142Y-55994071D01*
X90624785Y-55951214D01*
X90656928Y-55865500D01*
X90737285Y-55822642D01*
X90865857Y-55822642D01*
X90946214Y-55779785D01*
X90978357Y-55694071D01*
X90973000Y-55651214D01*
X90919428Y-55565500D01*
X90828357Y-55522642D01*
X90699785Y-55522642D01*
X90619428Y-55565500D01*
X90190857Y-55222642D02*
X90212285Y-55394071D01*
X89848000Y-55222642D02*
X89869428Y-55394071D01*
D13*
X83602380Y-63986666D02*
X84316666Y-63986666D01*
X84459523Y-63939047D01*
X84554761Y-63843809D01*
X84602380Y-63700952D01*
X84602380Y-63605714D01*
X84602380Y-64986666D02*
X84602380Y-64415238D01*
X84602380Y-64700952D02*
X83602380Y-64700952D01*
X83745238Y-64605714D01*
X83840476Y-64510476D01*
X83888095Y-64415238D01*
D12*
X85590000Y-65590000D02*
X85590000Y-66920000D01*
X85590000Y-64320000D02*
X88190000Y-64320000D01*
X88190000Y-66920000D02*
X136510000Y-66920000D01*
X85590000Y-61720000D02*
X85590000Y-64320000D01*
X85590000Y-61720000D02*
X136510000Y-61720000D01*
X136510000Y-61720000D02*
X136510000Y-66920000D01*
X88190000Y-64320000D02*
X88190000Y-66920000D01*
X85590000Y-66920000D02*
X86920000Y-66920000D01*
M02*
