G04 #@! TF.GenerationSoftware,KiCad,Pcbnew,(6.0.1)*
G04 #@! TF.CreationDate,2022-12-05T15:49:33+00:00*
G04 #@! TF.ProjectId,retropie-minicade-hat,72657472-6f70-4696-952d-6d696e696361,rev?*
G04 #@! TF.SameCoordinates,Original*
G04 #@! TF.FileFunction,Legend,Top*
G04 #@! TF.FilePolarity,Positive*
%FSLAX46Y46*%
G04 Gerber Fmt 4.6, Leading zero omitted, Abs format (unit mm)*
G04 Created by KiCad (PCBNEW (6.0.1)) date 2022-12-05 15:49:33*
%MOMM*%
%LPD*%
G01*
G04 APERTURE LIST*
%ADD10C,0.150000*%
G04 #@! TA.AperFunction,Profile*
%ADD11C,0.100000*%
G04 #@! TD*
G04 #@! TA.AperFunction,Profile*
%ADD12C,0.150000*%
G04 #@! TD*
%ADD13C,0.090000*%
%ADD14C,0.100000*%
%ADD15C,0.120000*%
G04 APERTURE END LIST*
D10*
X107188000Y-50038000D02*
X107950000Y-50038000D01*
X102997000Y-49149000D02*
X107188000Y-49149000D01*
X107188000Y-49149000D02*
X107188000Y-50927000D01*
X107188000Y-50927000D02*
X102997000Y-50927000D01*
X102997000Y-50927000D02*
X102997000Y-49149000D01*
X80831961Y-78613000D02*
G75*
G03*
X80831961Y-78613000I-567961J0D01*
G01*
X105092500Y-49149000D02*
X105092500Y-50927000D01*
X80069961Y-66802000D02*
G75*
G03*
X80069961Y-66802000I-567961J0D01*
G01*
D11*
X143510000Y-65024000D02*
X143499680Y-50291999D01*
X78499680Y-50291999D02*
X78499680Y-77013320D01*
D12*
X99314000Y-77018556D02*
X99314000Y-71013528D01*
D11*
X96314005Y-80013321D02*
G75*
G03*
X99314000Y-77018556I-2J3000002D01*
G01*
X140499680Y-47291999D02*
X81499680Y-47291999D01*
X81499680Y-80013320D02*
X96314005Y-80013320D01*
X102313995Y-68018763D02*
G75*
G03*
X99314000Y-71013528I2J-3000002D01*
G01*
D12*
X140510005Y-68018764D02*
X102313995Y-68018764D01*
D11*
X143499680Y-50291999D02*
G75*
G03*
X140499680Y-47291999I-3000001J-1D01*
G01*
X81499680Y-47291999D02*
G75*
G03*
X78499680Y-50291999I1J-3000001D01*
G01*
X140510005Y-68018765D02*
G75*
G03*
X143510000Y-65024000I-2J3000002D01*
G01*
X78499680Y-77013320D02*
G75*
G03*
X81499680Y-80013320I3000001J1D01*
G01*
D13*
X118067142Y-56122857D02*
X118095714Y-56037142D01*
X118124285Y-56008571D01*
X118181428Y-55980000D01*
X118267142Y-55980000D01*
X118324285Y-56008571D01*
X118352857Y-56037142D01*
X118381428Y-56094285D01*
X118381428Y-56322857D01*
X117781428Y-56322857D01*
X117781428Y-56122857D01*
X117810000Y-56065714D01*
X117838571Y-56037142D01*
X117895714Y-56008571D01*
X117952857Y-56008571D01*
X118010000Y-56037142D01*
X118038571Y-56065714D01*
X118067142Y-56122857D01*
X118067142Y-56322857D01*
X117781428Y-55780000D02*
X117781428Y-55408571D01*
X118010000Y-55608571D01*
X118010000Y-55522857D01*
X118038571Y-55465714D01*
X118067142Y-55437142D01*
X118124285Y-55408571D01*
X118267142Y-55408571D01*
X118324285Y-55437142D01*
X118352857Y-55465714D01*
X118381428Y-55522857D01*
X118381428Y-55694285D01*
X118352857Y-55751428D01*
X118324285Y-55780000D01*
X116509857Y-48242571D02*
X116538428Y-48214000D01*
X116595571Y-48185428D01*
X116738428Y-48185428D01*
X116795571Y-48214000D01*
X116824142Y-48242571D01*
X116852714Y-48299714D01*
X116852714Y-48356857D01*
X116824142Y-48442571D01*
X116481285Y-48785428D01*
X116852714Y-48785428D01*
X117367000Y-48185428D02*
X117252714Y-48185428D01*
X117195571Y-48214000D01*
X117167000Y-48242571D01*
X117109857Y-48328285D01*
X117081285Y-48442571D01*
X117081285Y-48671142D01*
X117109857Y-48728285D01*
X117138428Y-48756857D01*
X117195571Y-48785428D01*
X117309857Y-48785428D01*
X117367000Y-48756857D01*
X117395571Y-48728285D01*
X117424142Y-48671142D01*
X117424142Y-48528285D01*
X117395571Y-48471142D01*
X117367000Y-48442571D01*
X117309857Y-48414000D01*
X117195571Y-48414000D01*
X117138428Y-48442571D01*
X117109857Y-48471142D01*
X117081285Y-48528285D01*
X109048571Y-48242571D02*
X109077142Y-48214000D01*
X109134285Y-48185428D01*
X109277142Y-48185428D01*
X109334285Y-48214000D01*
X109362857Y-48242571D01*
X109391428Y-48299714D01*
X109391428Y-48356857D01*
X109362857Y-48442571D01*
X109020000Y-48785428D01*
X109391428Y-48785428D01*
X115527142Y-56122857D02*
X115555714Y-56037142D01*
X115584285Y-56008571D01*
X115641428Y-55980000D01*
X115727142Y-55980000D01*
X115784285Y-56008571D01*
X115812857Y-56037142D01*
X115841428Y-56094285D01*
X115841428Y-56322857D01*
X115241428Y-56322857D01*
X115241428Y-56122857D01*
X115270000Y-56065714D01*
X115298571Y-56037142D01*
X115355714Y-56008571D01*
X115412857Y-56008571D01*
X115470000Y-56037142D01*
X115498571Y-56065714D01*
X115527142Y-56122857D01*
X115527142Y-56322857D01*
X115241428Y-55437142D02*
X115241428Y-55722857D01*
X115527142Y-55751428D01*
X115498571Y-55722857D01*
X115470000Y-55665714D01*
X115470000Y-55522857D01*
X115498571Y-55465714D01*
X115527142Y-55437142D01*
X115584285Y-55408571D01*
X115727142Y-55408571D01*
X115784285Y-55437142D01*
X115812857Y-55465714D01*
X115841428Y-55522857D01*
X115841428Y-55665714D01*
X115812857Y-55722857D01*
X115784285Y-55751428D01*
X113842857Y-48214000D02*
X113785714Y-48185428D01*
X113700000Y-48185428D01*
X113614285Y-48214000D01*
X113557142Y-48271142D01*
X113528571Y-48328285D01*
X113500000Y-48442571D01*
X113500000Y-48528285D01*
X113528571Y-48642571D01*
X113557142Y-48699714D01*
X113614285Y-48756857D01*
X113700000Y-48785428D01*
X113757142Y-48785428D01*
X113842857Y-48756857D01*
X113871428Y-48728285D01*
X113871428Y-48528285D01*
X113757142Y-48528285D01*
X114128571Y-48785428D02*
X114128571Y-48185428D01*
X114471428Y-48785428D01*
X114471428Y-48185428D01*
X114757142Y-48785428D02*
X114757142Y-48185428D01*
X114900000Y-48185428D01*
X114985714Y-48214000D01*
X115042857Y-48271142D01*
X115071428Y-48328285D01*
X115100000Y-48442571D01*
X115100000Y-48528285D01*
X115071428Y-48642571D01*
X115042857Y-48699714D01*
X114985714Y-48756857D01*
X114900000Y-48785428D01*
X114757142Y-48785428D01*
X135812285Y-55516428D02*
X135812285Y-54916428D01*
X135812285Y-55487857D02*
X135755142Y-55516428D01*
X135640857Y-55516428D01*
X135583714Y-55487857D01*
X135555142Y-55459285D01*
X135526571Y-55402142D01*
X135526571Y-55230714D01*
X135555142Y-55173571D01*
X135583714Y-55145000D01*
X135640857Y-55116428D01*
X135755142Y-55116428D01*
X135812285Y-55145000D01*
X136355142Y-55516428D02*
X136355142Y-55202142D01*
X136326571Y-55145000D01*
X136269428Y-55116428D01*
X136155142Y-55116428D01*
X136098000Y-55145000D01*
X136355142Y-55487857D02*
X136298000Y-55516428D01*
X136155142Y-55516428D01*
X136098000Y-55487857D01*
X136069428Y-55430714D01*
X136069428Y-55373571D01*
X136098000Y-55316428D01*
X136155142Y-55287857D01*
X136298000Y-55287857D01*
X136355142Y-55259285D01*
X136555142Y-55116428D02*
X136783714Y-55116428D01*
X136640857Y-54916428D02*
X136640857Y-55430714D01*
X136669428Y-55487857D01*
X136726571Y-55516428D01*
X136783714Y-55516428D01*
X137240857Y-55516428D02*
X137240857Y-55202142D01*
X137212285Y-55145000D01*
X137155142Y-55116428D01*
X137040857Y-55116428D01*
X136983714Y-55145000D01*
X137240857Y-55487857D02*
X137183714Y-55516428D01*
X137040857Y-55516428D01*
X136983714Y-55487857D01*
X136955142Y-55430714D01*
X136955142Y-55373571D01*
X136983714Y-55316428D01*
X137040857Y-55287857D01*
X137183714Y-55287857D01*
X137240857Y-55259285D01*
X107907142Y-55995857D02*
X107935714Y-55910142D01*
X107964285Y-55881571D01*
X108021428Y-55853000D01*
X108107142Y-55853000D01*
X108164285Y-55881571D01*
X108192857Y-55910142D01*
X108221428Y-55967285D01*
X108221428Y-56195857D01*
X107621428Y-56195857D01*
X107621428Y-55995857D01*
X107650000Y-55938714D01*
X107678571Y-55910142D01*
X107735714Y-55881571D01*
X107792857Y-55881571D01*
X107850000Y-55910142D01*
X107878571Y-55938714D01*
X107907142Y-55995857D01*
X107907142Y-56195857D01*
X107621428Y-55338714D02*
X107621428Y-55453000D01*
X107650000Y-55510142D01*
X107678571Y-55538714D01*
X107764285Y-55595857D01*
X107878571Y-55624428D01*
X108107142Y-55624428D01*
X108164285Y-55595857D01*
X108192857Y-55567285D01*
X108221428Y-55510142D01*
X108221428Y-55395857D01*
X108192857Y-55338714D01*
X108164285Y-55310142D01*
X108107142Y-55281571D01*
X107964285Y-55281571D01*
X107907142Y-55310142D01*
X107878571Y-55338714D01*
X107850000Y-55395857D01*
X107850000Y-55510142D01*
X107878571Y-55567285D01*
X107907142Y-55595857D01*
X107964285Y-55624428D01*
X136394857Y-52820857D02*
X136337714Y-52849428D01*
X136223428Y-52849428D01*
X136166285Y-52820857D01*
X136137714Y-52792285D01*
X136109142Y-52735142D01*
X136109142Y-52563714D01*
X136137714Y-52506571D01*
X136166285Y-52478000D01*
X136223428Y-52449428D01*
X136337714Y-52449428D01*
X136394857Y-52478000D01*
X136737714Y-52849428D02*
X136680571Y-52820857D01*
X136652000Y-52763714D01*
X136652000Y-52249428D01*
X136966285Y-52849428D02*
X136966285Y-52249428D01*
X137023428Y-52620857D02*
X137194857Y-52849428D01*
X137194857Y-52449428D02*
X136966285Y-52678000D01*
X122934428Y-56022857D02*
X123334428Y-56022857D01*
X122934428Y-56280000D02*
X123248714Y-56280000D01*
X123305857Y-56251428D01*
X123334428Y-56194285D01*
X123334428Y-56108571D01*
X123305857Y-56051428D01*
X123277285Y-56022857D01*
X122934428Y-55737142D02*
X123534428Y-55737142D01*
X122963000Y-55737142D02*
X122934428Y-55680000D01*
X122934428Y-55565714D01*
X122963000Y-55508571D01*
X122991571Y-55480000D01*
X123048714Y-55451428D01*
X123220142Y-55451428D01*
X123277285Y-55480000D01*
X123305857Y-55508571D01*
X123334428Y-55565714D01*
X123334428Y-55680000D01*
X123305857Y-55737142D01*
X111560000Y-48185428D02*
X111931428Y-48185428D01*
X111731428Y-48414000D01*
X111817142Y-48414000D01*
X111874285Y-48442571D01*
X111902857Y-48471142D01*
X111931428Y-48528285D01*
X111931428Y-48671142D01*
X111902857Y-48728285D01*
X111874285Y-48756857D01*
X111817142Y-48785428D01*
X111645714Y-48785428D01*
X111588571Y-48756857D01*
X111560000Y-48728285D01*
X92825857Y-56187857D02*
X92854428Y-56130714D01*
X92854428Y-56016428D01*
X92825857Y-55959285D01*
X92768714Y-55930714D01*
X92740142Y-55930714D01*
X92683000Y-55959285D01*
X92654428Y-56016428D01*
X92654428Y-56102142D01*
X92625857Y-56159285D01*
X92568714Y-56187857D01*
X92540142Y-56187857D01*
X92483000Y-56159285D01*
X92454428Y-56102142D01*
X92454428Y-56016428D01*
X92483000Y-55959285D01*
X92854428Y-55673571D02*
X92254428Y-55673571D01*
X92854428Y-55416428D02*
X92540142Y-55416428D01*
X92483000Y-55445000D01*
X92454428Y-55502142D01*
X92454428Y-55587857D01*
X92483000Y-55645000D01*
X92511571Y-55673571D01*
X92854428Y-54873571D02*
X92254428Y-54873571D01*
X92825857Y-54873571D02*
X92854428Y-54930714D01*
X92854428Y-55045000D01*
X92825857Y-55102142D01*
X92797285Y-55130714D01*
X92740142Y-55159285D01*
X92568714Y-55159285D01*
X92511571Y-55130714D01*
X92483000Y-55102142D01*
X92454428Y-55045000D01*
X92454428Y-54930714D01*
X92483000Y-54873571D01*
X92454428Y-54587857D02*
X92854428Y-54587857D01*
X92511571Y-54587857D02*
X92483000Y-54559285D01*
X92454428Y-54502142D01*
X92454428Y-54416428D01*
X92483000Y-54359285D01*
X92540142Y-54330714D01*
X92854428Y-54330714D01*
X136109142Y-57456428D02*
X136252000Y-58056428D01*
X136366285Y-57627857D01*
X136480571Y-58056428D01*
X136623428Y-57456428D01*
X136823428Y-58027857D02*
X136909142Y-58056428D01*
X137052000Y-58056428D01*
X137109142Y-58027857D01*
X137137714Y-57999285D01*
X137166285Y-57942142D01*
X137166285Y-57885000D01*
X137137714Y-57827857D01*
X137109142Y-57799285D01*
X137052000Y-57770714D01*
X136937714Y-57742142D01*
X136880571Y-57713571D01*
X136852000Y-57685000D01*
X136823428Y-57627857D01*
X136823428Y-57570714D01*
X136852000Y-57513571D01*
X136880571Y-57485000D01*
X136937714Y-57456428D01*
X137080571Y-57456428D01*
X137166285Y-57485000D01*
X120607142Y-56122857D02*
X120635714Y-56037142D01*
X120664285Y-56008571D01*
X120721428Y-55980000D01*
X120807142Y-55980000D01*
X120864285Y-56008571D01*
X120892857Y-56037142D01*
X120921428Y-56094285D01*
X120921428Y-56322857D01*
X120321428Y-56322857D01*
X120321428Y-56122857D01*
X120350000Y-56065714D01*
X120378571Y-56037142D01*
X120435714Y-56008571D01*
X120492857Y-56008571D01*
X120550000Y-56037142D01*
X120578571Y-56065714D01*
X120607142Y-56122857D01*
X120607142Y-56322857D01*
X120321428Y-55780000D02*
X120321428Y-55408571D01*
X120550000Y-55608571D01*
X120550000Y-55522857D01*
X120578571Y-55465714D01*
X120607142Y-55437142D01*
X120664285Y-55408571D01*
X120807142Y-55408571D01*
X120864285Y-55437142D01*
X120892857Y-55465714D01*
X120921428Y-55522857D01*
X120921428Y-55694285D01*
X120892857Y-55751428D01*
X120864285Y-55780000D01*
X102827142Y-56213285D02*
X102827142Y-56013285D01*
X103141428Y-55927571D02*
X103141428Y-56213285D01*
X102541428Y-56213285D01*
X102541428Y-55927571D01*
X103112857Y-55699000D02*
X103141428Y-55613285D01*
X103141428Y-55470428D01*
X103112857Y-55413285D01*
X103084285Y-55384714D01*
X103027142Y-55356142D01*
X102970000Y-55356142D01*
X102912857Y-55384714D01*
X102884285Y-55413285D01*
X102855714Y-55470428D01*
X102827142Y-55584714D01*
X102798571Y-55641857D01*
X102770000Y-55670428D01*
X102712857Y-55699000D01*
X102655714Y-55699000D01*
X102598571Y-55670428D01*
X102570000Y-55641857D01*
X102541428Y-55584714D01*
X102541428Y-55441857D01*
X102570000Y-55356142D01*
X103084285Y-54756142D02*
X103112857Y-54784714D01*
X103141428Y-54870428D01*
X103141428Y-54927571D01*
X103112857Y-55013285D01*
X103055714Y-55070428D01*
X102998571Y-55099000D01*
X102884285Y-55127571D01*
X102798571Y-55127571D01*
X102684285Y-55099000D01*
X102627142Y-55070428D01*
X102570000Y-55013285D01*
X102541428Y-54927571D01*
X102541428Y-54870428D01*
X102570000Y-54784714D01*
X102598571Y-54756142D01*
X84232857Y-54535428D02*
X84604285Y-54535428D01*
X84404285Y-54764000D01*
X84490000Y-54764000D01*
X84547142Y-54792571D01*
X84575714Y-54821142D01*
X84604285Y-54878285D01*
X84604285Y-55021142D01*
X84575714Y-55078285D01*
X84547142Y-55106857D01*
X84490000Y-55135428D01*
X84318571Y-55135428D01*
X84261428Y-55106857D01*
X84232857Y-55078285D01*
X84861428Y-55078285D02*
X84890000Y-55106857D01*
X84861428Y-55135428D01*
X84832857Y-55106857D01*
X84861428Y-55078285D01*
X84861428Y-55135428D01*
X85090000Y-54535428D02*
X85461428Y-54535428D01*
X85261428Y-54764000D01*
X85347142Y-54764000D01*
X85404285Y-54792571D01*
X85432857Y-54821142D01*
X85461428Y-54878285D01*
X85461428Y-55021142D01*
X85432857Y-55078285D01*
X85404285Y-55106857D01*
X85347142Y-55135428D01*
X85175714Y-55135428D01*
X85118571Y-55106857D01*
X85090000Y-55078285D01*
X85661428Y-54735428D02*
X85804285Y-55135428D01*
X85947142Y-54735428D01*
X100673285Y-50309428D02*
X100673285Y-49709428D01*
X100930428Y-49766571D02*
X100959000Y-49738000D01*
X101016142Y-49709428D01*
X101159000Y-49709428D01*
X101216142Y-49738000D01*
X101244714Y-49766571D01*
X101273285Y-49823714D01*
X101273285Y-49880857D01*
X101244714Y-49966571D01*
X100901857Y-50309428D01*
X101273285Y-50309428D01*
X101873285Y-50252285D02*
X101844714Y-50280857D01*
X101759000Y-50309428D01*
X101701857Y-50309428D01*
X101616142Y-50280857D01*
X101559000Y-50223714D01*
X101530428Y-50166571D01*
X101501857Y-50052285D01*
X101501857Y-49966571D01*
X101530428Y-49852285D01*
X101559000Y-49795142D01*
X101616142Y-49738000D01*
X101701857Y-49709428D01*
X101759000Y-49709428D01*
X101844714Y-49738000D01*
X101873285Y-49766571D01*
X102130428Y-50080857D02*
X102587571Y-50080857D01*
X103301857Y-50280857D02*
X103387571Y-50309428D01*
X103530428Y-50309428D01*
X103587571Y-50280857D01*
X103616142Y-50252285D01*
X103644714Y-50195142D01*
X103644714Y-50138000D01*
X103616142Y-50080857D01*
X103587571Y-50052285D01*
X103530428Y-50023714D01*
X103416142Y-49995142D01*
X103359000Y-49966571D01*
X103330428Y-49938000D01*
X103301857Y-49880857D01*
X103301857Y-49823714D01*
X103330428Y-49766571D01*
X103359000Y-49738000D01*
X103416142Y-49709428D01*
X103559000Y-49709428D01*
X103644714Y-49738000D01*
X103901857Y-50309428D02*
X103901857Y-49709428D01*
X104044714Y-49709428D01*
X104130428Y-49738000D01*
X104187571Y-49795142D01*
X104216142Y-49852285D01*
X104244714Y-49966571D01*
X104244714Y-50052285D01*
X104216142Y-50166571D01*
X104187571Y-50223714D01*
X104130428Y-50280857D01*
X104044714Y-50309428D01*
X103901857Y-50309428D01*
X104473285Y-50138000D02*
X104759000Y-50138000D01*
X104416142Y-50309428D02*
X104616142Y-49709428D01*
X104816142Y-50309428D01*
X105444714Y-50280857D02*
X105530428Y-50309428D01*
X105673285Y-50309428D01*
X105730428Y-50280857D01*
X105759000Y-50252285D01*
X105787571Y-50195142D01*
X105787571Y-50138000D01*
X105759000Y-50080857D01*
X105730428Y-50052285D01*
X105673285Y-50023714D01*
X105559000Y-49995142D01*
X105501857Y-49966571D01*
X105473285Y-49938000D01*
X105444714Y-49880857D01*
X105444714Y-49823714D01*
X105473285Y-49766571D01*
X105501857Y-49738000D01*
X105559000Y-49709428D01*
X105701857Y-49709428D01*
X105787571Y-49738000D01*
X106387571Y-50252285D02*
X106359000Y-50280857D01*
X106273285Y-50309428D01*
X106216142Y-50309428D01*
X106130428Y-50280857D01*
X106073285Y-50223714D01*
X106044714Y-50166571D01*
X106016142Y-50052285D01*
X106016142Y-49966571D01*
X106044714Y-49852285D01*
X106073285Y-49795142D01*
X106130428Y-49738000D01*
X106216142Y-49709428D01*
X106273285Y-49709428D01*
X106359000Y-49738000D01*
X106387571Y-49766571D01*
X106930428Y-50309428D02*
X106644714Y-50309428D01*
X106644714Y-49709428D01*
X111645714Y-55389428D02*
X111302857Y-55389428D01*
X111474285Y-55389428D02*
X111474285Y-54789428D01*
X111417142Y-54875142D01*
X111360000Y-54932285D01*
X111302857Y-54960857D01*
X112188571Y-54789428D02*
X111902857Y-54789428D01*
X111874285Y-55075142D01*
X111902857Y-55046571D01*
X111960000Y-55018000D01*
X112102857Y-55018000D01*
X112160000Y-55046571D01*
X112188571Y-55075142D01*
X112217142Y-55132285D01*
X112217142Y-55275142D01*
X112188571Y-55332285D01*
X112160000Y-55360857D01*
X112102857Y-55389428D01*
X111960000Y-55389428D01*
X111902857Y-55360857D01*
X111874285Y-55332285D01*
X79273428Y-66844857D02*
X79730571Y-66844857D01*
X79502000Y-67073428D02*
X79502000Y-66616285D01*
X118377000Y-50153857D02*
X118434142Y-50182428D01*
X118548428Y-50182428D01*
X118605571Y-50153857D01*
X118634142Y-50096714D01*
X118634142Y-50068142D01*
X118605571Y-50011000D01*
X118548428Y-49982428D01*
X118462714Y-49982428D01*
X118405571Y-49953857D01*
X118377000Y-49896714D01*
X118377000Y-49868142D01*
X118405571Y-49811000D01*
X118462714Y-49782428D01*
X118548428Y-49782428D01*
X118605571Y-49811000D01*
X118891285Y-49782428D02*
X118891285Y-50382428D01*
X118891285Y-49811000D02*
X118948428Y-49782428D01*
X119062714Y-49782428D01*
X119119857Y-49811000D01*
X119148428Y-49839571D01*
X119177000Y-49896714D01*
X119177000Y-50068142D01*
X119148428Y-50125285D01*
X119119857Y-50153857D01*
X119062714Y-50182428D01*
X118948428Y-50182428D01*
X118891285Y-50153857D01*
X119691285Y-50182428D02*
X119691285Y-49868142D01*
X119662714Y-49811000D01*
X119605571Y-49782428D01*
X119491285Y-49782428D01*
X119434142Y-49811000D01*
X119691285Y-50153857D02*
X119634142Y-50182428D01*
X119491285Y-50182428D01*
X119434142Y-50153857D01*
X119405571Y-50096714D01*
X119405571Y-50039571D01*
X119434142Y-49982428D01*
X119491285Y-49953857D01*
X119634142Y-49953857D01*
X119691285Y-49925285D01*
X119977000Y-50182428D02*
X119977000Y-49782428D01*
X119977000Y-49896714D02*
X120005571Y-49839571D01*
X120034142Y-49811000D01*
X120091285Y-49782428D01*
X120148428Y-49782428D01*
X120577000Y-50153857D02*
X120519857Y-50182428D01*
X120405571Y-50182428D01*
X120348428Y-50153857D01*
X120319857Y-50096714D01*
X120319857Y-49868142D01*
X120348428Y-49811000D01*
X120405571Y-49782428D01*
X120519857Y-49782428D01*
X120577000Y-49811000D01*
X120605571Y-49868142D01*
X120605571Y-49925285D01*
X120319857Y-49982428D01*
X121634142Y-49611000D02*
X121577000Y-49582428D01*
X121491285Y-49582428D01*
X121405571Y-49611000D01*
X121348428Y-49668142D01*
X121319857Y-49725285D01*
X121291285Y-49839571D01*
X121291285Y-49925285D01*
X121319857Y-50039571D01*
X121348428Y-50096714D01*
X121405571Y-50153857D01*
X121491285Y-50182428D01*
X121548428Y-50182428D01*
X121634142Y-50153857D01*
X121662714Y-50125285D01*
X121662714Y-49925285D01*
X121548428Y-49925285D01*
X121919857Y-50182428D02*
X121919857Y-49582428D01*
X122148428Y-49582428D01*
X122205571Y-49611000D01*
X122234142Y-49639571D01*
X122262714Y-49696714D01*
X122262714Y-49782428D01*
X122234142Y-49839571D01*
X122205571Y-49868142D01*
X122148428Y-49896714D01*
X121919857Y-49896714D01*
X122519857Y-50182428D02*
X122519857Y-49582428D01*
X122919857Y-49582428D02*
X123034142Y-49582428D01*
X123091285Y-49611000D01*
X123148428Y-49668142D01*
X123177000Y-49782428D01*
X123177000Y-49982428D01*
X123148428Y-50096714D01*
X123091285Y-50153857D01*
X123034142Y-50182428D01*
X122919857Y-50182428D01*
X122862714Y-50153857D01*
X122805571Y-50096714D01*
X122777000Y-49982428D01*
X122777000Y-49782428D01*
X122805571Y-49668142D01*
X122862714Y-49611000D01*
X122919857Y-49582428D01*
X84623285Y-59488428D02*
X84337571Y-59488428D01*
X84309000Y-59774142D01*
X84337571Y-59745571D01*
X84394714Y-59717000D01*
X84537571Y-59717000D01*
X84594714Y-59745571D01*
X84623285Y-59774142D01*
X84651857Y-59831285D01*
X84651857Y-59974142D01*
X84623285Y-60031285D01*
X84594714Y-60059857D01*
X84537571Y-60088428D01*
X84394714Y-60088428D01*
X84337571Y-60059857D01*
X84309000Y-60031285D01*
X84851857Y-59688428D02*
X84994714Y-60088428D01*
X85137571Y-59688428D01*
X110447142Y-55995857D02*
X110475714Y-55910142D01*
X110504285Y-55881571D01*
X110561428Y-55853000D01*
X110647142Y-55853000D01*
X110704285Y-55881571D01*
X110732857Y-55910142D01*
X110761428Y-55967285D01*
X110761428Y-56195857D01*
X110161428Y-56195857D01*
X110161428Y-55995857D01*
X110190000Y-55938714D01*
X110218571Y-55910142D01*
X110275714Y-55881571D01*
X110332857Y-55881571D01*
X110390000Y-55910142D01*
X110418571Y-55938714D01*
X110447142Y-55995857D01*
X110447142Y-56195857D01*
X110361428Y-55338714D02*
X110761428Y-55338714D01*
X110132857Y-55481571D02*
X110561428Y-55624428D01*
X110561428Y-55253000D01*
X84632857Y-56977000D02*
X84575714Y-56948428D01*
X84490000Y-56948428D01*
X84404285Y-56977000D01*
X84347142Y-57034142D01*
X84318571Y-57091285D01*
X84290000Y-57205571D01*
X84290000Y-57291285D01*
X84318571Y-57405571D01*
X84347142Y-57462714D01*
X84404285Y-57519857D01*
X84490000Y-57548428D01*
X84547142Y-57548428D01*
X84632857Y-57519857D01*
X84661428Y-57491285D01*
X84661428Y-57291285D01*
X84547142Y-57291285D01*
X84918571Y-57548428D02*
X84918571Y-56948428D01*
X85261428Y-57548428D01*
X85261428Y-56948428D01*
X85547142Y-57548428D02*
X85547142Y-56948428D01*
X85690000Y-56948428D01*
X85775714Y-56977000D01*
X85832857Y-57034142D01*
X85861428Y-57091285D01*
X85890000Y-57205571D01*
X85890000Y-57291285D01*
X85861428Y-57405571D01*
X85832857Y-57462714D01*
X85775714Y-57519857D01*
X85690000Y-57548428D01*
X85547142Y-57548428D01*
X80035428Y-78655857D02*
X80492571Y-78655857D01*
X125687142Y-56122857D02*
X125715714Y-56037142D01*
X125744285Y-56008571D01*
X125801428Y-55980000D01*
X125887142Y-55980000D01*
X125944285Y-56008571D01*
X125972857Y-56037142D01*
X126001428Y-56094285D01*
X126001428Y-56322857D01*
X125401428Y-56322857D01*
X125401428Y-56122857D01*
X125430000Y-56065714D01*
X125458571Y-56037142D01*
X125515714Y-56008571D01*
X125572857Y-56008571D01*
X125630000Y-56037142D01*
X125658571Y-56065714D01*
X125687142Y-56122857D01*
X125687142Y-56322857D01*
X126001428Y-55408571D02*
X126001428Y-55751428D01*
X126001428Y-55580000D02*
X125401428Y-55580000D01*
X125487142Y-55637142D01*
X125544285Y-55694285D01*
X125572857Y-55751428D01*
X114100000Y-54789428D02*
X114500000Y-54789428D01*
X114242857Y-55389428D01*
D14*
X138176095Y-60432904D02*
X138176095Y-59632904D01*
X138518952Y-59709095D02*
X138557047Y-59671000D01*
X138633238Y-59632904D01*
X138823714Y-59632904D01*
X138899904Y-59671000D01*
X138938000Y-59709095D01*
X138976095Y-59785285D01*
X138976095Y-59861476D01*
X138938000Y-59975761D01*
X138480857Y-60432904D01*
X138976095Y-60432904D01*
X139280857Y-60394809D02*
X139395142Y-60432904D01*
X139585619Y-60432904D01*
X139661809Y-60394809D01*
X139699904Y-60356714D01*
X139738000Y-60280523D01*
X139738000Y-60204333D01*
X139699904Y-60128142D01*
X139661809Y-60090047D01*
X139585619Y-60051952D01*
X139433238Y-60013857D01*
X139357047Y-59975761D01*
X139318952Y-59937666D01*
X139280857Y-59861476D01*
X139280857Y-59785285D01*
X139318952Y-59709095D01*
X139357047Y-59671000D01*
X139433238Y-59632904D01*
X139623714Y-59632904D01*
X139738000Y-59671000D01*
D13*
X95365857Y-56016428D02*
X95394428Y-56073571D01*
X95394428Y-56187857D01*
X95365857Y-56245000D01*
X95308714Y-56273571D01*
X95080142Y-56273571D01*
X95023000Y-56245000D01*
X94994428Y-56187857D01*
X94994428Y-56073571D01*
X95023000Y-56016428D01*
X95080142Y-55987857D01*
X95137285Y-55987857D01*
X95194428Y-56273571D01*
X94994428Y-55730714D02*
X95394428Y-55730714D01*
X95051571Y-55730714D02*
X95023000Y-55702142D01*
X94994428Y-55645000D01*
X94994428Y-55559285D01*
X95023000Y-55502142D01*
X95080142Y-55473571D01*
X95394428Y-55473571D01*
X94994428Y-55273571D02*
X94994428Y-55045000D01*
X94794428Y-55187857D02*
X95308714Y-55187857D01*
X95365857Y-55159285D01*
X95394428Y-55102142D01*
X95394428Y-55045000D01*
X95365857Y-54616428D02*
X95394428Y-54673571D01*
X95394428Y-54787857D01*
X95365857Y-54845000D01*
X95308714Y-54873571D01*
X95080142Y-54873571D01*
X95023000Y-54845000D01*
X94994428Y-54787857D01*
X94994428Y-54673571D01*
X95023000Y-54616428D01*
X95080142Y-54587857D01*
X95137285Y-54587857D01*
X95194428Y-54873571D01*
X95394428Y-54330714D02*
X94994428Y-54330714D01*
X95108714Y-54330714D02*
X95051571Y-54302142D01*
X95023000Y-54273571D01*
X94994428Y-54216428D01*
X94994428Y-54159285D01*
X105525857Y-56173571D02*
X105554428Y-56116428D01*
X105554428Y-56002142D01*
X105525857Y-55945000D01*
X105468714Y-55916428D01*
X105440142Y-55916428D01*
X105383000Y-55945000D01*
X105354428Y-56002142D01*
X105354428Y-56087857D01*
X105325857Y-56145000D01*
X105268714Y-56173571D01*
X105240142Y-56173571D01*
X105183000Y-56145000D01*
X105154428Y-56087857D01*
X105154428Y-56002142D01*
X105183000Y-55945000D01*
X105154428Y-55745000D02*
X105154428Y-55516428D01*
X104954428Y-55659285D02*
X105468714Y-55659285D01*
X105525857Y-55630714D01*
X105554428Y-55573571D01*
X105554428Y-55516428D01*
X105554428Y-55059285D02*
X105240142Y-55059285D01*
X105183000Y-55087857D01*
X105154428Y-55145000D01*
X105154428Y-55259285D01*
X105183000Y-55316428D01*
X105525857Y-55059285D02*
X105554428Y-55116428D01*
X105554428Y-55259285D01*
X105525857Y-55316428D01*
X105468714Y-55345000D01*
X105411571Y-55345000D01*
X105354428Y-55316428D01*
X105325857Y-55259285D01*
X105325857Y-55116428D01*
X105297285Y-55059285D01*
X105554428Y-54773571D02*
X105154428Y-54773571D01*
X105268714Y-54773571D02*
X105211571Y-54745000D01*
X105183000Y-54716428D01*
X105154428Y-54659285D01*
X105154428Y-54602142D01*
X105154428Y-54487857D02*
X105154428Y-54259285D01*
X104954428Y-54402142D02*
X105468714Y-54402142D01*
X105525857Y-54373571D01*
X105554428Y-54316428D01*
X105554428Y-54259285D01*
X130954428Y-56100571D02*
X130354428Y-56100571D01*
X130925857Y-56100571D02*
X130954428Y-56157714D01*
X130954428Y-56272000D01*
X130925857Y-56329142D01*
X130897285Y-56357714D01*
X130840142Y-56386285D01*
X130668714Y-56386285D01*
X130611571Y-56357714D01*
X130583000Y-56329142D01*
X130554428Y-56272000D01*
X130554428Y-56157714D01*
X130583000Y-56100571D01*
X130954428Y-55729142D02*
X130925857Y-55786285D01*
X130897285Y-55814857D01*
X130840142Y-55843428D01*
X130668714Y-55843428D01*
X130611571Y-55814857D01*
X130583000Y-55786285D01*
X130554428Y-55729142D01*
X130554428Y-55643428D01*
X130583000Y-55586285D01*
X130611571Y-55557714D01*
X130668714Y-55529142D01*
X130840142Y-55529142D01*
X130897285Y-55557714D01*
X130925857Y-55586285D01*
X130954428Y-55643428D01*
X130954428Y-55729142D01*
X130554428Y-55329142D02*
X130954428Y-55214857D01*
X130668714Y-55100571D01*
X130954428Y-54986285D01*
X130554428Y-54872000D01*
X130554428Y-54643428D02*
X130954428Y-54643428D01*
X130611571Y-54643428D02*
X130583000Y-54614857D01*
X130554428Y-54557714D01*
X130554428Y-54472000D01*
X130583000Y-54414857D01*
X130640142Y-54386285D01*
X130954428Y-54386285D01*
X109105714Y-55389428D02*
X108762857Y-55389428D01*
X108934285Y-55389428D02*
X108934285Y-54789428D01*
X108877142Y-54875142D01*
X108820000Y-54932285D01*
X108762857Y-54960857D01*
X109620000Y-54989428D02*
X109620000Y-55389428D01*
X109477142Y-54760857D02*
X109334285Y-55189428D01*
X109705714Y-55189428D01*
X100445857Y-56041857D02*
X100474428Y-56099000D01*
X100474428Y-56213285D01*
X100445857Y-56270428D01*
X100417285Y-56299000D01*
X100360142Y-56327571D01*
X100188714Y-56327571D01*
X100131571Y-56299000D01*
X100103000Y-56270428D01*
X100074428Y-56213285D01*
X100074428Y-56099000D01*
X100103000Y-56041857D01*
X100474428Y-55699000D02*
X100445857Y-55756142D01*
X100417285Y-55784714D01*
X100360142Y-55813285D01*
X100188714Y-55813285D01*
X100131571Y-55784714D01*
X100103000Y-55756142D01*
X100074428Y-55699000D01*
X100074428Y-55613285D01*
X100103000Y-55556142D01*
X100131571Y-55527571D01*
X100188714Y-55499000D01*
X100360142Y-55499000D01*
X100417285Y-55527571D01*
X100445857Y-55556142D01*
X100474428Y-55613285D01*
X100474428Y-55699000D01*
X100474428Y-55241857D02*
X100074428Y-55241857D01*
X99874428Y-55241857D02*
X99903000Y-55270428D01*
X99931571Y-55241857D01*
X99903000Y-55213285D01*
X99874428Y-55241857D01*
X99931571Y-55241857D01*
X100074428Y-54956142D02*
X100474428Y-54956142D01*
X100131571Y-54956142D02*
X100103000Y-54927571D01*
X100074428Y-54870428D01*
X100074428Y-54784714D01*
X100103000Y-54727571D01*
X100160142Y-54699000D01*
X100474428Y-54699000D01*
X97534428Y-56254571D02*
X98134428Y-56254571D01*
X97563000Y-56254571D02*
X97534428Y-56197428D01*
X97534428Y-56083142D01*
X97563000Y-56026000D01*
X97591571Y-55997428D01*
X97648714Y-55968857D01*
X97820142Y-55968857D01*
X97877285Y-55997428D01*
X97905857Y-56026000D01*
X97934428Y-56083142D01*
X97934428Y-56197428D01*
X97905857Y-56254571D01*
X97534428Y-55768857D02*
X97934428Y-55654571D01*
X97648714Y-55540285D01*
X97934428Y-55426000D01*
X97534428Y-55311714D01*
X97934428Y-55083142D02*
X97534428Y-55083142D01*
X97648714Y-55083142D02*
X97591571Y-55054571D01*
X97563000Y-55026000D01*
X97534428Y-54968857D01*
X97534428Y-54911714D01*
X116725714Y-55389428D02*
X116382857Y-55389428D01*
X116554285Y-55389428D02*
X116554285Y-54789428D01*
X116497142Y-54875142D01*
X116440000Y-54932285D01*
X116382857Y-54960857D01*
X116925714Y-54789428D02*
X117297142Y-54789428D01*
X117097142Y-55018000D01*
X117182857Y-55018000D01*
X117240000Y-55046571D01*
X117268571Y-55075142D01*
X117297142Y-55132285D01*
X117297142Y-55275142D01*
X117268571Y-55332285D01*
X117240000Y-55360857D01*
X117182857Y-55389428D01*
X117011428Y-55389428D01*
X116954285Y-55360857D01*
X116925714Y-55332285D01*
X133621428Y-56281571D02*
X133592857Y-56338714D01*
X133535714Y-56367285D01*
X133021428Y-56367285D01*
X133592857Y-55824428D02*
X133621428Y-55881571D01*
X133621428Y-55995857D01*
X133592857Y-56053000D01*
X133535714Y-56081571D01*
X133307142Y-56081571D01*
X133250000Y-56053000D01*
X133221428Y-55995857D01*
X133221428Y-55881571D01*
X133250000Y-55824428D01*
X133307142Y-55795857D01*
X133364285Y-55795857D01*
X133421428Y-56081571D01*
X133221428Y-55624428D02*
X133221428Y-55395857D01*
X133621428Y-55538714D02*
X133107142Y-55538714D01*
X133050000Y-55510142D01*
X133021428Y-55453000D01*
X133021428Y-55395857D01*
X133221428Y-55281571D02*
X133221428Y-55053000D01*
X133021428Y-55195857D02*
X133535714Y-55195857D01*
X133592857Y-55167285D01*
X133621428Y-55110142D01*
X133621428Y-55053000D01*
X128414428Y-56399000D02*
X128014428Y-56399000D01*
X128128714Y-56399000D02*
X128071571Y-56370428D01*
X128043000Y-56341857D01*
X128014428Y-56284714D01*
X128014428Y-56227571D01*
X128414428Y-56027571D02*
X128014428Y-56027571D01*
X127814428Y-56027571D02*
X127843000Y-56056142D01*
X127871571Y-56027571D01*
X127843000Y-55999000D01*
X127814428Y-56027571D01*
X127871571Y-56027571D01*
X128014428Y-55484714D02*
X128500142Y-55484714D01*
X128557285Y-55513285D01*
X128585857Y-55541857D01*
X128614428Y-55599000D01*
X128614428Y-55684714D01*
X128585857Y-55741857D01*
X128385857Y-55484714D02*
X128414428Y-55541857D01*
X128414428Y-55656142D01*
X128385857Y-55713285D01*
X128357285Y-55741857D01*
X128300142Y-55770428D01*
X128128714Y-55770428D01*
X128071571Y-55741857D01*
X128043000Y-55713285D01*
X128014428Y-55656142D01*
X128014428Y-55541857D01*
X128043000Y-55484714D01*
X128414428Y-55199000D02*
X127814428Y-55199000D01*
X128414428Y-54941857D02*
X128100142Y-54941857D01*
X128043000Y-54970428D01*
X128014428Y-55027571D01*
X128014428Y-55113285D01*
X128043000Y-55170428D01*
X128071571Y-55199000D01*
X128014428Y-54741857D02*
X128014428Y-54513285D01*
X127814428Y-54656142D02*
X128328714Y-54656142D01*
X128385857Y-54627571D01*
X128414428Y-54570428D01*
X128414428Y-54513285D01*
D10*
X81338095Y-64852380D02*
X81338095Y-63852380D01*
X81338095Y-64328571D02*
X81909523Y-64328571D01*
X81909523Y-64852380D02*
X81909523Y-63852380D01*
X82909523Y-64852380D02*
X82338095Y-64852380D01*
X82623809Y-64852380D02*
X82623809Y-63852380D01*
X82528571Y-63995238D01*
X82433333Y-64090476D01*
X82338095Y-64138095D01*
X139338095Y-64872380D02*
X139338095Y-63872380D01*
X139338095Y-64348571D02*
X139909523Y-64348571D01*
X139909523Y-64872380D02*
X139909523Y-63872380D01*
X140338095Y-63967619D02*
X140385714Y-63920000D01*
X140480952Y-63872380D01*
X140719047Y-63872380D01*
X140814285Y-63920000D01*
X140861904Y-63967619D01*
X140909523Y-64062857D01*
X140909523Y-64158095D01*
X140861904Y-64300952D01*
X140290476Y-64872380D01*
X140909523Y-64872380D01*
X89368333Y-78938380D02*
X89035000Y-78462190D01*
X88796904Y-78938380D02*
X88796904Y-77938380D01*
X89177857Y-77938380D01*
X89273095Y-77986000D01*
X89320714Y-78033619D01*
X89368333Y-78128857D01*
X89368333Y-78271714D01*
X89320714Y-78366952D01*
X89273095Y-78414571D01*
X89177857Y-78462190D01*
X88796904Y-78462190D01*
X90320714Y-78938380D02*
X89749285Y-78938380D01*
X90035000Y-78938380D02*
X90035000Y-77938380D01*
X89939761Y-78081238D01*
X89844523Y-78176476D01*
X89749285Y-78224095D01*
X86447333Y-78938380D02*
X86114000Y-78462190D01*
X85875904Y-78938380D02*
X85875904Y-77938380D01*
X86256857Y-77938380D01*
X86352095Y-77986000D01*
X86399714Y-78033619D01*
X86447333Y-78128857D01*
X86447333Y-78271714D01*
X86399714Y-78366952D01*
X86352095Y-78414571D01*
X86256857Y-78462190D01*
X85875904Y-78462190D01*
X86828285Y-78033619D02*
X86875904Y-77986000D01*
X86971142Y-77938380D01*
X87209238Y-77938380D01*
X87304476Y-77986000D01*
X87352095Y-78033619D01*
X87399714Y-78128857D01*
X87399714Y-78224095D01*
X87352095Y-78366952D01*
X86780666Y-78938380D01*
X87399714Y-78938380D01*
X90074761Y-70270619D02*
X89979523Y-70223000D01*
X89884285Y-70127761D01*
X89741428Y-69984904D01*
X89646190Y-69937285D01*
X89550952Y-69937285D01*
X89598571Y-70175380D02*
X89503333Y-70127761D01*
X89408095Y-70032523D01*
X89360476Y-69842047D01*
X89360476Y-69508714D01*
X89408095Y-69318238D01*
X89503333Y-69223000D01*
X89598571Y-69175380D01*
X89789047Y-69175380D01*
X89884285Y-69223000D01*
X89979523Y-69318238D01*
X90027142Y-69508714D01*
X90027142Y-69842047D01*
X89979523Y-70032523D01*
X89884285Y-70127761D01*
X89789047Y-70175380D01*
X89598571Y-70175380D01*
X90979523Y-70175380D02*
X90408095Y-70175380D01*
X90693809Y-70175380D02*
X90693809Y-69175380D01*
X90598571Y-69318238D01*
X90503333Y-69413476D01*
X90408095Y-69461095D01*
X90384333Y-68175142D02*
X90336714Y-68222761D01*
X90193857Y-68270380D01*
X90098619Y-68270380D01*
X89955761Y-68222761D01*
X89860523Y-68127523D01*
X89812904Y-68032285D01*
X89765285Y-67841809D01*
X89765285Y-67698952D01*
X89812904Y-67508476D01*
X89860523Y-67413238D01*
X89955761Y-67318000D01*
X90098619Y-67270380D01*
X90193857Y-67270380D01*
X90336714Y-67318000D01*
X90384333Y-67365619D01*
X91336714Y-68270380D02*
X90765285Y-68270380D01*
X91051000Y-68270380D02*
X91051000Y-67270380D01*
X90955761Y-67413238D01*
X90860523Y-67508476D01*
X90765285Y-67556095D01*
X106556666Y-51268380D02*
X106556666Y-51982666D01*
X106509047Y-52125523D01*
X106413809Y-52220761D01*
X106270952Y-52268380D01*
X106175714Y-52268380D01*
X107461428Y-51601714D02*
X107461428Y-52268380D01*
X107223333Y-51220761D02*
X106985238Y-51935047D01*
X107604285Y-51935047D01*
X138731666Y-49842380D02*
X138731666Y-50556666D01*
X138684047Y-50699523D01*
X138588809Y-50794761D01*
X138445952Y-50842380D01*
X138350714Y-50842380D01*
X139112619Y-49842380D02*
X139779285Y-49842380D01*
X139350714Y-50842380D01*
X79422666Y-51649380D02*
X79422666Y-52363666D01*
X79375047Y-52506523D01*
X79279809Y-52601761D01*
X79136952Y-52649380D01*
X79041714Y-52649380D01*
X80041714Y-52077952D02*
X79946476Y-52030333D01*
X79898857Y-51982714D01*
X79851238Y-51887476D01*
X79851238Y-51839857D01*
X79898857Y-51744619D01*
X79946476Y-51697000D01*
X80041714Y-51649380D01*
X80232190Y-51649380D01*
X80327428Y-51697000D01*
X80375047Y-51744619D01*
X80422666Y-51839857D01*
X80422666Y-51887476D01*
X80375047Y-51982714D01*
X80327428Y-52030333D01*
X80232190Y-52077952D01*
X80041714Y-52077952D01*
X79946476Y-52125571D01*
X79898857Y-52173190D01*
X79851238Y-52268428D01*
X79851238Y-52458904D01*
X79898857Y-52554142D01*
X79946476Y-52601761D01*
X80041714Y-52649380D01*
X80232190Y-52649380D01*
X80327428Y-52601761D01*
X80375047Y-52554142D01*
X80422666Y-52458904D01*
X80422666Y-52268428D01*
X80375047Y-52173190D01*
X80327428Y-52125571D01*
X80232190Y-52077952D01*
X112413666Y-57618380D02*
X112413666Y-58332666D01*
X112366047Y-58475523D01*
X112270809Y-58570761D01*
X112127952Y-58618380D01*
X112032714Y-58618380D01*
X113366047Y-57618380D02*
X112889857Y-57618380D01*
X112842238Y-58094571D01*
X112889857Y-58046952D01*
X112985095Y-57999333D01*
X113223190Y-57999333D01*
X113318428Y-58046952D01*
X113366047Y-58094571D01*
X113413666Y-58189809D01*
X113413666Y-58427904D01*
X113366047Y-58523142D01*
X113318428Y-58570761D01*
X113223190Y-58618380D01*
X112985095Y-58618380D01*
X112889857Y-58570761D01*
X112842238Y-58523142D01*
X90455761Y-74080619D02*
X90360523Y-74033000D01*
X90265285Y-73937761D01*
X90122428Y-73794904D01*
X90027190Y-73747285D01*
X89931952Y-73747285D01*
X89979571Y-73985380D02*
X89884333Y-73937761D01*
X89789095Y-73842523D01*
X89741476Y-73652047D01*
X89741476Y-73318714D01*
X89789095Y-73128238D01*
X89884333Y-73033000D01*
X89979571Y-72985380D01*
X90170047Y-72985380D01*
X90265285Y-73033000D01*
X90360523Y-73128238D01*
X90408142Y-73318714D01*
X90408142Y-73652047D01*
X90360523Y-73842523D01*
X90265285Y-73937761D01*
X90170047Y-73985380D01*
X89979571Y-73985380D01*
X90789095Y-73080619D02*
X90836714Y-73033000D01*
X90931952Y-72985380D01*
X91170047Y-72985380D01*
X91265285Y-73033000D01*
X91312904Y-73080619D01*
X91360523Y-73175857D01*
X91360523Y-73271095D01*
X91312904Y-73413952D01*
X90741476Y-73985380D01*
X91360523Y-73985380D01*
X83359666Y-78192380D02*
X83359666Y-78906666D01*
X83312047Y-79049523D01*
X83216809Y-79144761D01*
X83073952Y-79192380D01*
X82978714Y-79192380D01*
X83788238Y-78287619D02*
X83835857Y-78240000D01*
X83931095Y-78192380D01*
X84169190Y-78192380D01*
X84264428Y-78240000D01*
X84312047Y-78287619D01*
X84359666Y-78382857D01*
X84359666Y-78478095D01*
X84312047Y-78620952D01*
X83740619Y-79192380D01*
X84359666Y-79192380D01*
X91186095Y-75906380D02*
X91186095Y-76715904D01*
X91233714Y-76811142D01*
X91281333Y-76858761D01*
X91376571Y-76906380D01*
X91567047Y-76906380D01*
X91662285Y-76858761D01*
X91709904Y-76811142D01*
X91757523Y-76715904D01*
X91757523Y-75906380D01*
X92757523Y-76906380D02*
X92186095Y-76906380D01*
X92471809Y-76906380D02*
X92471809Y-75906380D01*
X92376571Y-76049238D01*
X92281333Y-76144476D01*
X92186095Y-76192095D01*
X118792666Y-51014380D02*
X118792666Y-51728666D01*
X118745047Y-51871523D01*
X118649809Y-51966761D01*
X118506952Y-52014380D01*
X118411714Y-52014380D01*
X119173619Y-51014380D02*
X119792666Y-51014380D01*
X119459333Y-51395333D01*
X119602190Y-51395333D01*
X119697428Y-51442952D01*
X119745047Y-51490571D01*
X119792666Y-51585809D01*
X119792666Y-51823904D01*
X119745047Y-51919142D01*
X119697428Y-51966761D01*
X119602190Y-52014380D01*
X119316476Y-52014380D01*
X119221238Y-51966761D01*
X119173619Y-51919142D01*
X89553666Y-57491380D02*
X89553666Y-58205666D01*
X89506047Y-58348523D01*
X89410809Y-58443761D01*
X89267952Y-58491380D01*
X89172714Y-58491380D01*
X90458428Y-57491380D02*
X90267952Y-57491380D01*
X90172714Y-57539000D01*
X90125095Y-57586619D01*
X90029857Y-57729476D01*
X89982238Y-57919952D01*
X89982238Y-58300904D01*
X90029857Y-58396142D01*
X90077476Y-58443761D01*
X90172714Y-58491380D01*
X90363190Y-58491380D01*
X90458428Y-58443761D01*
X90506047Y-58396142D01*
X90553666Y-58300904D01*
X90553666Y-58062809D01*
X90506047Y-57967571D01*
X90458428Y-57919952D01*
X90363190Y-57872333D01*
X90172714Y-57872333D01*
X90077476Y-57919952D01*
X90029857Y-57967571D01*
X89982238Y-58062809D01*
X99020333Y-68175142D02*
X98972714Y-68222761D01*
X98829857Y-68270380D01*
X98734619Y-68270380D01*
X98591761Y-68222761D01*
X98496523Y-68127523D01*
X98448904Y-68032285D01*
X98401285Y-67841809D01*
X98401285Y-67698952D01*
X98448904Y-67508476D01*
X98496523Y-67413238D01*
X98591761Y-67318000D01*
X98734619Y-67270380D01*
X98829857Y-67270380D01*
X98972714Y-67318000D01*
X99020333Y-67365619D01*
X99401285Y-67365619D02*
X99448904Y-67318000D01*
X99544142Y-67270380D01*
X99782238Y-67270380D01*
X99877476Y-67318000D01*
X99925095Y-67365619D01*
X99972714Y-67460857D01*
X99972714Y-67556095D01*
X99925095Y-67698952D01*
X99353666Y-68270380D01*
X99972714Y-68270380D01*
D15*
X89676500Y-76060242D02*
X89676500Y-76534758D01*
X88631500Y-76060242D02*
X88631500Y-76534758D01*
X87390500Y-76060242D02*
X87390500Y-76534758D01*
X86345500Y-76060242D02*
X86345500Y-76534758D01*
X86840000Y-68020000D02*
X86840000Y-68950000D01*
X86840000Y-68020000D02*
X88300000Y-68020000D01*
X86840000Y-71180000D02*
X86840000Y-70250000D01*
X86840000Y-71180000D02*
X89000000Y-71180000D01*
X92569420Y-68836000D02*
X92850580Y-68836000D01*
X92569420Y-67816000D02*
X92850580Y-67816000D01*
X107890000Y-49216000D02*
X113090000Y-49216000D01*
X107890000Y-54416000D02*
X107890000Y-53086000D01*
X107890000Y-51816000D02*
X107890000Y-49216000D01*
X109220000Y-54416000D02*
X107890000Y-54416000D01*
X110490000Y-51816000D02*
X107890000Y-51816000D01*
X110490000Y-54416000D02*
X110490000Y-51816000D01*
X110490000Y-54416000D02*
X113090000Y-54416000D01*
X113090000Y-54416000D02*
X113090000Y-49216000D01*
X137735000Y-59130000D02*
X140395000Y-59130000D01*
X137735000Y-52720000D02*
X137735000Y-51390000D01*
X137735000Y-53990000D02*
X140395000Y-53990000D01*
X140395000Y-53990000D02*
X140395000Y-59130000D01*
X137735000Y-51390000D02*
X139065000Y-51390000D01*
X137735000Y-53990000D02*
X137735000Y-59130000D01*
X78680000Y-56007000D02*
X78680000Y-61147000D01*
X78680000Y-53407000D02*
X80010000Y-53407000D01*
X78680000Y-54737000D02*
X78680000Y-53407000D01*
X81280000Y-56007000D02*
X81280000Y-53407000D01*
X81280000Y-53407000D02*
X83880000Y-53407000D01*
X78680000Y-61147000D02*
X83880000Y-61147000D01*
X78680000Y-56007000D02*
X81280000Y-56007000D01*
X83880000Y-53407000D02*
X83880000Y-61147000D01*
X116347000Y-59496000D02*
X116347000Y-56836000D01*
X134187000Y-59496000D02*
X134187000Y-56836000D01*
X116347000Y-56836000D02*
X134187000Y-56836000D01*
X116347000Y-59496000D02*
X134187000Y-59496000D01*
X115077000Y-59496000D02*
X113747000Y-59496000D01*
X113747000Y-59496000D02*
X113747000Y-58166000D01*
X88711000Y-72373000D02*
X87311000Y-72373000D01*
X87311000Y-74693000D02*
X89211000Y-74693000D01*
X85471000Y-77851000D02*
X85471000Y-67691000D01*
X77851000Y-67691000D02*
X77851000Y-77851000D01*
X77851000Y-77851000D02*
X85471000Y-77851000D01*
X84201000Y-67691000D02*
X84201000Y-77851000D01*
X85471000Y-67691000D02*
X77851000Y-67691000D01*
X91713000Y-75697000D02*
X92973000Y-75697000D01*
X98533000Y-75697000D02*
X97273000Y-75697000D01*
X91713000Y-71937000D02*
X91713000Y-75697000D01*
X98533000Y-69687000D02*
X98533000Y-75697000D01*
X118175000Y-51821000D02*
X115575000Y-51821000D01*
X115575000Y-51821000D02*
X115575000Y-54421000D01*
X118175000Y-53091000D02*
X118175000Y-54421000D01*
X115575000Y-54421000D02*
X112975000Y-54421000D01*
X118175000Y-54421000D02*
X116845000Y-54421000D01*
X118175000Y-51821000D02*
X118175000Y-49221000D01*
X112975000Y-54421000D02*
X112975000Y-49221000D01*
X118175000Y-49221000D02*
X112975000Y-49221000D01*
X111327000Y-59369000D02*
X111327000Y-56709000D01*
X93487000Y-59369000D02*
X111327000Y-59369000D01*
X90887000Y-59369000D02*
X90887000Y-58039000D01*
X92217000Y-59369000D02*
X90887000Y-59369000D01*
X93487000Y-59369000D02*
X93487000Y-56709000D01*
X93487000Y-56709000D02*
X111327000Y-56709000D01*
X96760420Y-68836000D02*
X97041580Y-68836000D01*
X96760420Y-67816000D02*
X97041580Y-67816000D01*
M02*
